<?xml version='1.0' encoding='UTF-8' standalone='no'?>
<!DOCTYPE svg PUBLIC "-//W3C//DTD SVG 1.1//EN" "http://www.w3.org/Graphics/SVG/1.1/DTD/svg11.dtd">
<svg xmlns="http://www.w3.org/2000/svg" xmlns:xlink="http://www.w3.org/1999/xlink" width="883.7" height="887.31" version="1.1">
<defs>
<path id="bottoms" d="M 0 0 l 22.1703 38.4 m 44.3405 0 l 22.1703 -38.4 m 44.3405 0 l 22.1703 38.4 m 44.3405 0 l 22.1703 -38.4 m 44.3405 0 l 22.1703 38.4 m 44.3405 0 l 22.1703 -38.4 m 44.3405 0 l 22.1703 38.4 m 44.3405 0 l 22.1703 -38.4 m 44.3405 0 l 22.1703 38.4 m 44.3405 0 l 22.1703 -38.4 m 44.3405 0 l 22.1703 38.4 m 44.3405 0 l 22.1703 -38.4 m 44.3405 0"/>
<path id="tops" d="M 0 0 l 44.3405 0 22.1703 -38.4 44.3405 0 22.1703 38.4 44.3405 0 22.1703 -38.4 44.3405 0 22.1703 38.4 44.3405 0 22.1703 -38.4 44.3405 0 22.1703 38.4 44.3405 0 22.1703 -38.4 44.3405 0 22.1703 38.4 44.3405 0 22.1703 -38.4 44.3405 0 22.1703 38.4 44.3405 0 22.1703 -38.4 44.3405 0 22.1703 38.4 44.3405 0"/>
<path id="outline" d="M 0 0 l 44.3405 0 22.1703 -38.4 44.3405 0 22.1703 38.4 44.3405 0 22.1703 -38.4 44.3405 0 22.1703 38.4 44.3405 0 22.1703 -38.4 44.3405 0 22.1703 38.4 44.3405 0 22.1703 -38.4 44.3405 0 22.1703 38.4 44.3405 0 22.1703 -38.4 44.3405 0 22.1703 38.4 44.3405 0 22.1703 -38.4 44.3405 0 22.1703 38.4 44.3405 0 22.1703 38.4 -22.1703 38.4 22.1703 38.4 -22.1703 38.4 22.1703 38.4 -22.1703 38.4 22.1703 38.4 -22.1703 38.4 22.1703 38.4 -22.1703 38.4 22.1703 38.4 -22.1703 38.4 22.1703 38.4 -22.1703 38.4 22.1703 38.4 -22.1703 38.4 22.1703 38.4 -22.1703 38.4 22.1703 38.4 -22.1703 38.4 22.1703 38.4 -22.1703 38.4 -44.3405 0 -22.1703 -38.4 -44.3405 0 -22.1703 38.4 -44.3405 0 -22.1703 -38.4 -44.3405 0 -22.1703 38.4 -44.3405 0 -22.1703 -38.4 -44.3405 0 -22.1703 38.4 -44.3405 0 -22.1703 -38.4 -44.3405 0 -22.1703 38.4 -44.3405 0 -22.1703 -38.4 -44.3405 0 -22.1703 38.4 -44.3405 0 -22.1703 -38.4 -44.3405 0 -22.1703 38.4 -44.3405 0 -22.1703 -38.4 22.1703 -38.4 -22.1703 -38.4 22.1703 -38.4 -22.1703 -38.4 22.1703 -38.4 -22.1703 -38.4 22.1703 -38.4 -22.1703 -38.4 22.1703 -38.4 -22.1703 -38.4 22.1703 -38.4 -22.1703 -38.4 22.1703 -38.4 -22.1703 -38.4 22.1703 -38.4 -22.1703 -38.4 22.1703 -38.4 -22.1703 -38.4 22.1703 -38.4 -22.1703 -38.4 z"/>
</defs>
<g transform="translate(883.7,0.25) rotate(90)">
<g id="grid" style="fill: none; stroke: #000000; stroke-opacity: 1; stroke-width: 0.5; ">
<use x="22.1703" y="38.4" xlink:href="#outline"/>
<use x="66.5108" y="38.4" xlink:href="#bottoms"/>
<use x="22.1703" y="115.2" xlink:href="#tops"/>
<use x="66.5108" y="115.2" xlink:href="#bottoms"/>
<use x="22.1703" y="192" xlink:href="#tops"/>
<use x="66.5108" y="192" xlink:href="#bottoms"/>
<use x="22.1703" y="268.8" xlink:href="#tops"/>
<use x="66.5108" y="268.8" xlink:href="#bottoms"/>
<use x="22.1703" y="345.6" xlink:href="#tops"/>
<use x="66.5108" y="345.6" xlink:href="#bottoms"/>
<use x="22.1703" y="422.4" xlink:href="#tops"/>
<use x="66.5108" y="422.4" xlink:href="#bottoms"/>
<use x="22.1703" y="499.2" xlink:href="#tops"/>
<use x="66.5108" y="499.2" xlink:href="#bottoms"/>
<use x="22.1703" y="576" xlink:href="#tops"/>
<use x="66.5108" y="576" xlink:href="#bottoms"/>
<use x="22.1703" y="652.8" xlink:href="#tops"/>
<use x="66.5108" y="652.8" xlink:href="#bottoms"/>
<use x="22.1703" y="729.6" xlink:href="#tops"/>
<use x="66.5108" y="729.6" xlink:href="#bottoms"/>
<use x="22.1703" y="806.4" xlink:href="#tops"/>
<use x="66.5108" y="806.4" xlink:href="#bottoms"/>
</g>
<g id="coordinates" style="fill: #000000; fill-opacity: 1; font-family: Atkinson Hyperlegible; font-size: 10.667px; text-anchor: middle; ">
<text x="76.3405" y="76.8" transform="rotate(-90 76.3405 76.8)">10,6</text>
<text x="142.851" y="38.4" transform="rotate(-90 142.851 38.4)">11,5</text>
<text x="209.362" y="76.8" transform="rotate(-90 209.362 76.8)">10,4</text>
<text x="275.873" y="38.4" transform="rotate(-90 275.873 38.4)">11,3</text>
<text x="342.384" y="76.8" transform="rotate(-90 342.384 76.8)">10,2</text>
<text x="408.894" y="38.4" transform="rotate(-90 408.894 38.4)">11,1</text>
<text x="475.405" y="76.8" transform="rotate(-90 475.405 76.8)">10,0</text>
<text x="541.916" y="38.4" transform="rotate(-90 541.916 38.4)">11,-1</text>
<text x="608.427" y="76.8" transform="rotate(-90 608.427 76.8)">10,-2</text>
<text x="674.937" y="38.4" transform="rotate(-90 674.937 38.4)">11,-3</text>
<text x="741.448" y="76.8" transform="rotate(-90 741.448 76.8)">10,-4</text>
<text x="807.959" y="38.4" transform="rotate(-90 807.959 38.4)">11,-5</text>
<text x="874.47" y="76.8" transform="rotate(-90 874.47 76.8)">10,-6</text>
<text x="76.3405" y="153.6" transform="rotate(-90 76.3405 153.6)">8,6</text>
<text x="142.851" y="115.2" transform="rotate(-90 142.851 115.2)">9,5</text>
<text x="209.362" y="153.6" transform="rotate(-90 209.362 153.6)">8,4</text>
<text x="275.873" y="115.2" transform="rotate(-90 275.873 115.2)">9,3</text>
<text x="342.384" y="153.6" transform="rotate(-90 342.384 153.6)">8,2</text>
<text x="408.894" y="115.2" transform="rotate(-90 408.894 115.2)">9,1</text>
<text x="475.405" y="153.6" transform="rotate(-90 475.405 153.6)">8,0</text>
<text x="541.916" y="115.2" transform="rotate(-90 541.916 115.2)">9,-1</text>
<text x="608.427" y="153.6" transform="rotate(-90 608.427 153.6)">8,-2</text>
<text x="674.937" y="115.2" transform="rotate(-90 674.937 115.2)">9,-3</text>
<text x="741.448" y="153.6" transform="rotate(-90 741.448 153.6)">8,-4</text>
<text x="807.959" y="115.2" transform="rotate(-90 807.959 115.2)">9,-5</text>
<text x="874.47" y="153.6" transform="rotate(-90 874.47 153.6)">8,-6</text>
<text x="76.3405" y="230.4" transform="rotate(-90 76.3405 230.4)">6,6</text>
<text x="142.851" y="192" transform="rotate(-90 142.851 192)">7,5</text>
<text x="209.362" y="230.4" transform="rotate(-90 209.362 230.4)">6,4</text>
<text x="275.873" y="192" transform="rotate(-90 275.873 192)">7,3</text>
<text x="342.384" y="230.4" transform="rotate(-90 342.384 230.4)">6,2</text>
<text x="408.894" y="192" transform="rotate(-90 408.894 192)">7,1</text>
<text x="475.405" y="230.4" transform="rotate(-90 475.405 230.4)">6,0</text>
<text x="541.916" y="192" transform="rotate(-90 541.916 192)">7,-1</text>
<text x="608.427" y="230.4" transform="rotate(-90 608.427 230.4)">6,-2</text>
<text x="674.937" y="192" transform="rotate(-90 674.937 192)">7,-3</text>
<text x="741.448" y="230.4" transform="rotate(-90 741.448 230.4)">6,-4</text>
<text x="807.959" y="192" transform="rotate(-90 807.959 192)">7,-5</text>
<text x="874.47" y="230.4" transform="rotate(-90 874.47 230.4)">6,-6</text>
<text x="76.3405" y="307.2" transform="rotate(-90 76.3405 307.2)">4,6</text>
<text x="142.851" y="268.8" transform="rotate(-90 142.851 268.8)">5,5</text>
<text x="209.362" y="307.2" transform="rotate(-90 209.362 307.2)">4,4</text>
<text x="275.873" y="268.8" transform="rotate(-90 275.873 268.8)">5,3</text>
<text x="342.384" y="307.2" transform="rotate(-90 342.384 307.2)">4,2</text>
<text x="408.894" y="268.8" transform="rotate(-90 408.894 268.8)">5,1</text>
<text x="475.405" y="307.2" transform="rotate(-90 475.405 307.2)">4,0</text>
<text x="541.916" y="268.8" transform="rotate(-90 541.916 268.8)">5,-1</text>
<text x="608.427" y="307.2" transform="rotate(-90 608.427 307.2)">4,-2</text>
<text x="674.937" y="268.8" transform="rotate(-90 674.937 268.8)">5,-3</text>
<text x="741.448" y="307.2" transform="rotate(-90 741.448 307.2)">4,-4</text>
<text x="807.959" y="268.8" transform="rotate(-90 807.959 268.8)">5,-5</text>
<text x="874.47" y="307.2" transform="rotate(-90 874.47 307.2)">4,-6</text>
<text x="76.3405" y="384" transform="rotate(-90 76.3405 384)">2,6</text>
<text x="142.851" y="345.6" transform="rotate(-90 142.851 345.6)">3,5</text>
<text x="209.362" y="384" transform="rotate(-90 209.362 384)">2,4</text>
<text x="275.873" y="345.6" transform="rotate(-90 275.873 345.6)">3,3</text>
<text x="342.384" y="384" transform="rotate(-90 342.384 384)">2,2</text>
<text x="408.894" y="345.6" transform="rotate(-90 408.894 345.6)">3,1</text>
<text x="475.405" y="384" transform="rotate(-90 475.405 384)">2,0</text>
<text x="541.916" y="345.6" transform="rotate(-90 541.916 345.6)">3,-1</text>
<text x="608.427" y="384" transform="rotate(-90 608.427 384)">2,-2</text>
<text x="674.937" y="345.6" transform="rotate(-90 674.937 345.6)">3,-3</text>
<text x="741.448" y="384" transform="rotate(-90 741.448 384)">2,-4</text>
<text x="807.959" y="345.6" transform="rotate(-90 807.959 345.6)">3,-5</text>
<text x="874.47" y="384" transform="rotate(-90 874.47 384)">2,-6</text>
<text x="76.3405" y="460.8" transform="rotate(-90 76.3405 460.8)">0,6</text>
<text x="142.851" y="422.4" transform="rotate(-90 142.851 422.4)">1,5</text>
<text x="209.362" y="460.8" transform="rotate(-90 209.362 460.8)">0,4</text>
<text x="275.873" y="422.4" transform="rotate(-90 275.873 422.4)">1,3</text>
<text x="342.384" y="460.8" transform="rotate(-90 342.384 460.8)">0,2</text>
<text x="408.894" y="422.4" transform="rotate(-90 408.894 422.4)">1,1</text>
<text x="475.405" y="460.8" transform="rotate(-90 475.405 460.8)">0,0</text>
<text x="541.916" y="422.4" transform="rotate(-90 541.916 422.4)">1,-1</text>
<text x="608.427" y="460.8" transform="rotate(-90 608.427 460.8)">0,-2</text>
<text x="674.937" y="422.4" transform="rotate(-90 674.937 422.4)">1,-3</text>
<text x="741.448" y="460.8" transform="rotate(-90 741.448 460.8)">0,-4</text>
<text x="807.959" y="422.4" transform="rotate(-90 807.959 422.4)">1,-5</text>
<text x="874.47" y="460.8" transform="rotate(-90 874.47 460.8)">0,-6</text>
<text x="76.3405" y="537.6" transform="rotate(-90 76.3405 537.6)">-2,6</text>
<text x="142.851" y="499.2" transform="rotate(-90 142.851 499.2)">-1,5</text>
<text x="209.362" y="537.6" transform="rotate(-90 209.362 537.6)">-2,4</text>
<text x="275.873" y="499.2" transform="rotate(-90 275.873 499.2)">-1,3</text>
<text x="342.384" y="537.6" transform="rotate(-90 342.384 537.6)">-2,2</text>
<text x="408.894" y="499.2" transform="rotate(-90 408.894 499.2)">-1,1</text>
<text x="475.405" y="537.6" transform="rotate(-90 475.405 537.6)">-2,0</text>
<text x="541.916" y="499.2" transform="rotate(-90 541.916 499.2)">-1,-1</text>
<text x="608.427" y="537.6" transform="rotate(-90 608.427 537.6)">-2,-2</text>
<text x="674.937" y="499.2" transform="rotate(-90 674.937 499.2)">-1,-3</text>
<text x="741.448" y="537.6" transform="rotate(-90 741.448 537.6)">-2,-4</text>
<text x="807.959" y="499.2" transform="rotate(-90 807.959 499.2)">-1,-5</text>
<text x="874.47" y="537.6" transform="rotate(-90 874.47 537.6)">-2,-6</text>
<text x="76.3405" y="614.4" transform="rotate(-90 76.3405 614.4)">-4,6</text>
<text x="142.851" y="576" transform="rotate(-90 142.851 576)">-3,5</text>
<text x="209.362" y="614.4" transform="rotate(-90 209.362 614.4)">-4,4</text>
<text x="275.873" y="576" transform="rotate(-90 275.873 576)">-3,3</text>
<text x="342.384" y="614.4" transform="rotate(-90 342.384 614.4)">-4,2</text>
<text x="408.894" y="576" transform="rotate(-90 408.894 576)">-3,1</text>
<text x="475.405" y="614.4" transform="rotate(-90 475.405 614.4)">-4,0</text>
<text x="541.916" y="576" transform="rotate(-90 541.916 576)">-3,-1</text>
<text x="608.427" y="614.4" transform="rotate(-90 608.427 614.4)">-4,-2</text>
<text x="674.937" y="576" transform="rotate(-90 674.937 576)">-3,-3</text>
<text x="741.448" y="614.4" transform="rotate(-90 741.448 614.4)">-4,-4</text>
<text x="807.959" y="576" transform="rotate(-90 807.959 576)">-3,-5</text>
<text x="874.47" y="614.4" transform="rotate(-90 874.47 614.4)">-4,-6</text>
<text x="76.3405" y="691.2" transform="rotate(-90 76.3405 691.2)">-6,6</text>
<text x="142.851" y="652.8" transform="rotate(-90 142.851 652.8)">-5,5</text>
<text x="209.362" y="691.2" transform="rotate(-90 209.362 691.2)">-6,4</text>
<text x="275.873" y="652.8" transform="rotate(-90 275.873 652.8)">-5,3</text>
<text x="342.384" y="691.2" transform="rotate(-90 342.384 691.2)">-6,2</text>
<text x="408.894" y="652.8" transform="rotate(-90 408.894 652.8)">-5,1</text>
<text x="475.405" y="691.2" transform="rotate(-90 475.405 691.2)">-6,0</text>
<text x="541.916" y="652.8" transform="rotate(-90 541.916 652.8)">-5,-1</text>
<text x="608.427" y="691.2" transform="rotate(-90 608.427 691.2)">-6,-2</text>
<text x="674.937" y="652.8" transform="rotate(-90 674.937 652.8)">-5,-3</text>
<text x="741.448" y="691.2" transform="rotate(-90 741.448 691.2)">-6,-4</text>
<text x="807.959" y="652.8" transform="rotate(-90 807.959 652.8)">-5,-5</text>
<text x="874.47" y="691.2" transform="rotate(-90 874.47 691.2)">-6,-6</text>
<text x="76.3405" y="768" transform="rotate(-90 76.3405 768)">-8,6</text>
<text x="142.851" y="729.6" transform="rotate(-90 142.851 729.6)">-7,5</text>
<text x="209.362" y="768" transform="rotate(-90 209.362 768)">-8,4</text>
<text x="275.873" y="729.6" transform="rotate(-90 275.873 729.6)">-7,3</text>
<text x="342.384" y="768" transform="rotate(-90 342.384 768)">-8,2</text>
<text x="408.894" y="729.6" transform="rotate(-90 408.894 729.6)">-7,1</text>
<text x="475.405" y="768" transform="rotate(-90 475.405 768)">-8,0</text>
<text x="541.916" y="729.6" transform="rotate(-90 541.916 729.6)">-7,-1</text>
<text x="608.427" y="768" transform="rotate(-90 608.427 768)">-8,-2</text>
<text x="674.937" y="729.6" transform="rotate(-90 674.937 729.6)">-7,-3</text>
<text x="741.448" y="768" transform="rotate(-90 741.448 768)">-8,-4</text>
<text x="807.959" y="729.6" transform="rotate(-90 807.959 729.6)">-7,-5</text>
<text x="874.47" y="768" transform="rotate(-90 874.47 768)">-8,-6</text>
<text x="76.3405" y="844.8" transform="rotate(-90 76.3405 844.8)">-10,6</text>
<text x="142.851" y="806.4" transform="rotate(-90 142.851 806.4)">-9,5</text>
<text x="209.362" y="844.8" transform="rotate(-90 209.362 844.8)">-10,4</text>
<text x="275.873" y="806.4" transform="rotate(-90 275.873 806.4)">-9,3</text>
<text x="342.384" y="844.8" transform="rotate(-90 342.384 844.8)">-10,2</text>
<text x="408.894" y="806.4" transform="rotate(-90 408.894 806.4)">-9,1</text>
<text x="475.405" y="844.8" transform="rotate(-90 475.405 844.8)">-10,0</text>
<text x="541.916" y="806.4" transform="rotate(-90 541.916 806.4)">-9,-1</text>
<text x="608.427" y="844.8" transform="rotate(-90 608.427 844.8)">-10,-2</text>
<text x="674.937" y="806.4" transform="rotate(-90 674.937 806.4)">-9,-3</text>
<text x="741.448" y="844.8" transform="rotate(-90 741.448 844.8)">-10,-4</text>
<text x="807.959" y="806.4" transform="rotate(-90 807.959 806.4)">-9,-5</text>
<text x="874.47" y="844.8" transform="rotate(-90 874.47 844.8)">-10,-6</text>
</g>
</g>
</svg>
