<?xml version="1.0" standalone="no"?>
<!DOCTYPE svg PUBLIC "-//W3C//DTD SVG 1.1//EN"
   "http://www.w3.org/Graphics/SVG/1.1/DTD/svg11.dtd">
<svg width="775.7" height="887.31" version="1.1"
   xmlns="http://www.w3.org/2000/svg"
   xmlns:xlink="http://www.w3.org/1999/xlink">
<defs>
<path id="bottoms" d="M 0 0 l 1.38564 2.4 m 2.77128 0 l 1.38564 -2.4 m 2.77128 0 l 1.38564 2.4 m 2.77128 0 l 1.38564 -2.4 m 2.77128 0 l 1.38564 2.4 m 2.77128 0 l 1.38564 -2.4 m 2.77128 0 l 1.38564 2.4 m 2.77128 0 l 1.38564 -2.4 m 2.77128 0 l 1.38564 2.4 m 2.77128 0 l 1.38564 -2.4 m 2.77128 0 l 1.38564 2.4 m 2.77128 0 l 1.38564 -2.4 m 2.77128 0 l 1.38564 2.4 m 2.77128 0 l 1.38564 -2.4 m 2.77128 0 l 1.38564 2.4 m 2.77128 0 l 1.38564 -2.4 m 2.77128 0 l 1.38564 2.4 m 2.77128 0 l 1.38564 -2.4 m 2.77128 0 l 1.38564 2.4 m 2.77128 0 l 1.38564 -2.4 m 2.77128 0 l 1.38564 2.4 m 2.77128 0 l 1.38564 -2.4 m 2.77128 0 l 1.38564 2.4 m 2.77128 0 l 1.38564 -2.4 m 2.77128 0 l 1.38564 2.4 m 2.77128 0 l 1.38564 -2.4 m 2.77128 0 l 1.38564 2.4 m 2.77128 0 l 1.38564 -2.4 m 2.77128 0 l 1.38564 2.4 m 2.77128 0 l 1.38564 -2.4 m 2.77128 0 l 1.38564 2.4 m 2.77128 0 l 1.38564 -2.4 m 2.77128 0 l 1.38564 2.4 m 2.77128 0 l 1.38564 -2.4 m 2.77128 0 l 1.38564 2.4 m 2.77128 0 l 1.38564 -2.4 m 2.77128 0 l 1.38564 2.4 m 2.77128 0 l 1.38564 -2.4 m 2.77128 0 l 1.38564 2.4 m 2.77128 0 l 1.38564 -2.4 m 2.77128 0 l 1.38564 2.4 m 2.77128 0 l 1.38564 -2.4 m 2.77128 0 l 1.38564 2.4 m 2.77128 0 l 1.38564 -2.4 m 2.77128 0 l 1.38564 2.4 m 2.77128 0 l 1.38564 -2.4 m 2.77128 0 l 1.38564 2.4 m 2.77128 0 l 1.38564 -2.4 m 2.77128 0 l 1.38564 2.4 m 2.77128 0 l 1.38564 -2.4 m 2.77128 0 l 1.38564 2.4 m 2.77128 0 l 1.38564 -2.4 m 2.77128 0 l 1.38564 2.4 m 2.77128 0 l 1.38564 -2.4 m 2.77128 0 l 1.38564 2.4 m 2.77128 0 l 1.38564 -2.4 m 2.77128 0 l 1.38564 2.4 m 2.77128 0 l 1.38564 -2.4 m 2.77128 0 l 1.38564 2.4 m 2.77128 0 l 1.38564 -2.4 m 2.77128 0 l 1.38564 2.4 m 2.77128 0 l 1.38564 -2.4 m 2.77128 0 l 1.38564 2.4 m 2.77128 0 l 1.38564 -2.4 m 2.77128 0 l 1.38564 2.4 m 2.77128 0 l 1.38564 -2.4 m 2.77128 0 l 1.38564 2.4 m 2.77128 0 l 1.38564 -2.4 m 2.77128 0 l 1.38564 2.4 m 2.77128 0 l 1.38564 -2.4 m 2.77128 0 l 1.38564 2.4 m 2.77128 0 l 1.38564 -2.4 m 2.77128 0 l 1.38564 2.4 m 2.77128 0 l 1.38564 -2.4 m 2.77128 0 l 1.38564 2.4 m 2.77128 0 l 1.38564 -2.4 m 2.77128 0 l 1.38564 2.4 m 2.77128 0 l 1.38564 -2.4 m 2.77128 0 l 1.38564 2.4 m 2.77128 0 l 1.38564 -2.4 m 2.77128 0 l 1.38564 2.4 m 2.77128 0 l 1.38564 -2.4 m 2.77128 0 l 1.38564 2.4 m 2.77128 0 l 1.38564 -2.4 m 2.77128 0 l 1.38564 2.4 m 2.77128 0 l 1.38564 -2.4 m 2.77128 0 l 1.38564 2.4 m 2.77128 0 l 1.38564 -2.4 m 2.77128 0 l 1.38564 2.4 m 2.77128 0 l 1.38564 -2.4 m 2.77128 0 l 1.38564 2.4 m 2.77128 0 l 1.38564 -2.4 m 2.77128 0 l 1.38564 2.4 m 2.77128 0 l 1.38564 -2.4 m 2.77128 0 l 1.38564 2.4 m 2.77128 0 l 1.38564 -2.4 m 2.77128 0 l 1.38564 2.4 m 2.77128 0 l 1.38564 -2.4 m 2.77128 0 l 1.38564 2.4 m 2.77128 0 l 1.38564 -2.4 m 2.77128 0 l 1.38564 2.4 m 2.77128 0 l 1.38564 -2.4 m 2.77128 0 l 1.38564 2.4 m 2.77128 0 l 1.38564 -2.4 m 2.77128 0 l 1.38564 2.4 m 2.77128 0 l 1.38564 -2.4 m 2.77128 0 l 1.38564 2.4 m 2.77128 0 l 1.38564 -2.4 m 2.77128 0 l 1.38564 2.4 m 2.77128 0 l 1.38564 -2.4 m 2.77128 0 l 1.38564 2.4 m 2.77128 0 l 1.38564 -2.4 m 2.77128 0 l 1.38564 2.4 m 2.77128 0 l 1.38564 -2.4 m 2.77128 0 l 1.38564 2.4 m 2.77128 0 l 1.38564 -2.4 m 2.77128 0 l 1.38564 2.4 m 2.77128 0 l 1.38564 -2.4 m 2.77128 0 l 1.38564 2.4 m 2.77128 0 l 1.38564 -2.4 m 2.77128 0 l 1.38564 2.4 m 2.77128 0 l 1.38564 -2.4 m 2.77128 0 l 1.38564 2.4 m 2.77128 0 l 1.38564 -2.4 m 2.77128 0 l 1.38564 2.4 m 2.77128 0 l 1.38564 -2.4 m 2.77128 0 l 1.38564 2.4 m 2.77128 0 l 1.38564 -2.4 m 2.77128 0 l 1.38564 2.4 m 2.77128 0 l 1.38564 -2.4 m 2.77128 0 l 1.38564 2.4 m 2.77128 0 l 1.38564 -2.4 m 2.77128 0 l 1.38564 2.4 m 2.77128 0 l 1.38564 -2.4 m 2.77128 0 l 1.38564 2.4 m 2.77128 0 l 1.38564 -2.4 m 2.77128 0 l 1.38564 2.4 m 2.77128 0 l 1.38564 -2.4 m 2.77128 0 l 1.38564 2.4 m 2.77128 0 l 1.38564 -2.4 m 2.77128 0 l 1.38564 2.4 m 2.77128 0 l 1.38564 -2.4 m 2.77128 0 l 1.38564 2.4 m 2.77128 0 l 1.38564 -2.4 m 2.77128 0 l 1.38564 2.4 m 2.77128 0 l 1.38564 -2.4 m 2.77128 0 l 1.38564 2.4 m 2.77128 0 l 1.38564 -2.4 m 2.77128 0 l 1.38564 2.4 m 2.77128 0 l 1.38564 -2.4 m 2.77128 0 l 1.38564 2.4 m 2.77128 0 l 1.38564 -2.4 m 2.77128 0 l 1.38564 2.4 m 2.77128 0 l 1.38564 -2.4 m 2.77128 0 l 1.38564 2.4 m 2.77128 0 l 1.38564 -2.4 m 2.77128 0 l 1.38564 2.4 m 2.77128 0 l 1.38564 -2.4 m 2.77128 0 l 1.38564 2.4 m 2.77128 0 l 1.38564 -2.4 m 2.77128 0 l 1.38564 2.4 m 2.77128 0 l 1.38564 -2.4 m 2.77128 0 l 1.38564 2.4 m 2.77128 0 l 1.38564 -2.4 m 2.77128 0 l 1.38564 2.4 m 2.77128 0 l 1.38564 -2.4 m 2.77128 0 l 1.38564 2.4 m 2.77128 0 l 1.38564 -2.4 m 2.77128 0 l 1.38564 2.4 m 2.77128 0 l 1.38564 -2.4 m 2.77128 0 l 1.38564 2.4 m 2.77128 0 l 1.38564 -2.4 m 2.77128 0 l 1.38564 2.4 m 2.77128 0 l 1.38564 -2.4 m 2.77128 0 l 1.38564 2.4 m 2.77128 0 l 1.38564 -2.4 m 2.77128 0 l 1.38564 2.4 m 2.77128 0 l 1.38564 -2.4 m 2.77128 0 l 1.38564 2.4 m 2.77128 0 l 1.38564 -2.4 m 2.77128 0 l 1.38564 2.4 m 2.77128 0 l 1.38564 -2.4 m 2.77128 0 l 1.38564 2.4 m 2.77128 0 l 1.38564 -2.4 m 2.77128 0 l 1.38564 2.4 m 2.77128 0 l 1.38564 -2.4 m 2.77128 0 l 1.38564 2.4 m 2.77128 0 l 1.38564 -2.4 m 2.77128 0 l 1.38564 2.4 m 2.77128 0 l 1.38564 -2.4 m 2.77128 0 l 1.38564 2.4 m 2.77128 0 l 1.38564 -2.4 m 2.77128 0 l 1.38564 2.4 m 2.77128 0 l 1.38564 -2.4 m 2.77128 0 l 1.38564 2.4 m 2.77128 0 l 1.38564 -2.4 m 2.77128 0 l 1.38564 2.4 m 2.77128 0 l 1.38564 -2.4 m 2.77128 0 l 1.38564 2.4 m 2.77128 0 l 1.38564 -2.4 m 2.77128 0 l 1.38564 2.4 m 2.77128 0 l 1.38564 -2.4 m 2.77128 0 l 1.38564 2.4 m 2.77128 0 l 1.38564 -2.4 m 2.77128 0 l 1.38564 2.4 m 2.77128 0 l 1.38564 -2.4 m 2.77128 0 l 1.38564 2.4 m 2.77128 0 l 1.38564 -2.4 m 2.77128 0 l 1.38564 2.4 m 2.77128 0 l 1.38564 -2.4 m 2.77128 0 l 1.38564 2.4 m 2.77128 0 l 1.38564 -2.4 m 2.77128 0" />
<path id="tops" d="M 0 0 l 2.77128 0 1.38564 -2.4 2.77128 0 1.38564 2.4 2.77128 0 1.38564 -2.4 2.77128 0 1.38564 2.4 2.77128 0 1.38564 -2.4 2.77128 0 1.38564 2.4 2.77128 0 1.38564 -2.4 2.77128 0 1.38564 2.4 2.77128 0 1.38564 -2.4 2.77128 0 1.38564 2.4 2.77128 0 1.38564 -2.4 2.77128 0 1.38564 2.4 2.77128 0 1.38564 -2.4 2.77128 0 1.38564 2.4 2.77128 0 1.38564 -2.4 2.77128 0 1.38564 2.4 2.77128 0 1.38564 -2.4 2.77128 0 1.38564 2.4 2.77128 0 1.38564 -2.4 2.77128 0 1.38564 2.4 2.77128 0 1.38564 -2.4 2.77128 0 1.38564 2.4 2.77128 0 1.38564 -2.4 2.77128 0 1.38564 2.4 2.77128 0 1.38564 -2.4 2.77128 0 1.38564 2.4 2.77128 0 1.38564 -2.4 2.77128 0 1.38564 2.4 2.77128 0 1.38564 -2.4 2.77128 0 1.38564 2.4 2.77128 0 1.38564 -2.4 2.77128 0 1.38564 2.4 2.77128 0 1.38564 -2.4 2.77128 0 1.38564 2.4 2.77128 0 1.38564 -2.4 2.77128 0 1.38564 2.4 2.77128 0 1.38564 -2.4 2.77128 0 1.38564 2.4 2.77128 0 1.38564 -2.4 2.77128 0 1.38564 2.4 2.77128 0 1.38564 -2.4 2.77128 0 1.38564 2.4 2.77128 0 1.38564 -2.4 2.77128 0 1.38564 2.4 2.77128 0 1.38564 -2.4 2.77128 0 1.38564 2.4 2.77128 0 1.38564 -2.4 2.77128 0 1.38564 2.4 2.77128 0 1.38564 -2.4 2.77128 0 1.38564 2.4 2.77128 0 1.38564 -2.4 2.77128 0 1.38564 2.4 2.77128 0 1.38564 -2.4 2.77128 0 1.38564 2.4 2.77128 0 1.38564 -2.4 2.77128 0 1.38564 2.4 2.77128 0 1.38564 -2.4 2.77128 0 1.38564 2.4 2.77128 0 1.38564 -2.4 2.77128 0 1.38564 2.4 2.77128 0 1.38564 -2.4 2.77128 0 1.38564 2.4 2.77128 0 1.38564 -2.4 2.77128 0 1.38564 2.4 2.77128 0 1.38564 -2.4 2.77128 0 1.38564 2.4 2.77128 0 1.38564 -2.4 2.77128 0 1.38564 2.4 2.77128 0 1.38564 -2.4 2.77128 0 1.38564 2.4 2.77128 0 1.38564 -2.4 2.77128 0 1.38564 2.4 2.77128 0 1.38564 -2.4 2.77128 0 1.38564 2.4 2.77128 0 1.38564 -2.4 2.77128 0 1.38564 2.4 2.77128 0 1.38564 -2.4 2.77128 0 1.38564 2.4 2.77128 0 1.38564 -2.4 2.77128 0 1.38564 2.4 2.77128 0 1.38564 -2.4 2.77128 0 1.38564 2.4 2.77128 0 1.38564 -2.4 2.77128 0 1.38564 2.4 2.77128 0 1.38564 -2.4 2.77128 0 1.38564 2.4 2.77128 0 1.38564 -2.4 2.77128 0 1.38564 2.4 2.77128 0 1.38564 -2.4 2.77128 0 1.38564 2.4 2.77128 0 1.38564 -2.4 2.77128 0 1.38564 2.4 2.77128 0 1.38564 -2.4 2.77128 0 1.38564 2.4 2.77128 0 1.38564 -2.4 2.77128 0 1.38564 2.4 2.77128 0 1.38564 -2.4 2.77128 0 1.38564 2.4 2.77128 0 1.38564 -2.4 2.77128 0 1.38564 2.4 2.77128 0 1.38564 -2.4 2.77128 0 1.38564 2.4 2.77128 0 1.38564 -2.4 2.77128 0 1.38564 2.4 2.77128 0 1.38564 -2.4 2.77128 0 1.38564 2.4 2.77128 0 1.38564 -2.4 2.77128 0 1.38564 2.4 2.77128 0 1.38564 -2.4 2.77128 0 1.38564 2.4 2.77128 0 1.38564 -2.4 2.77128 0 1.38564 2.4 2.77128 0 1.38564 -2.4 2.77128 0 1.38564 2.4 2.77128 0 1.38564 -2.4 2.77128 0 1.38564 2.4 2.77128 0 1.38564 -2.4 2.77128 0 1.38564 2.4 2.77128 0 1.38564 -2.4 2.77128 0 1.38564 2.4 2.77128 0 1.38564 -2.4 2.77128 0 1.38564 2.4 2.77128 0 1.38564 -2.4 2.77128 0 1.38564 2.4 2.77128 0 1.38564 -2.4 2.77128 0 1.38564 2.4 2.77128 0 1.38564 -2.4 2.77128 0 1.38564 2.4 2.77128 0 1.38564 -2.4 2.77128 0 1.38564 2.4 2.77128 0 1.38564 -2.4 2.77128 0 1.38564 2.4 2.77128 0 1.38564 -2.4 2.77128 0 1.38564 2.4 2.77128 0 1.38564 -2.4 2.77128 0 1.38564 2.4 2.77128 0 1.38564 -2.4 2.77128 0 1.38564 2.4 2.77128 0 1.38564 -2.4 2.77128 0 1.38564 2.4 2.77128 0 1.38564 -2.4 2.77128 0 1.38564 2.4 2.77128 0 1.38564 -2.4 2.77128 0 1.38564 2.4 2.77128 0 1.38564 -2.4 2.77128 0 1.38564 2.4 2.77128 0 1.38564 -2.4 2.77128 0 1.38564 2.4 2.77128 0 1.38564 -2.4 2.77128 0 1.38564 2.4 2.77128 0 1.38564 -2.4 2.77128 0 1.38564 2.4 2.77128 0 1.38564 -2.4 2.77128 0 1.38564 2.4 2.77128 0 1.38564 -2.4 2.77128 0 1.38564 2.4 2.77128 0 1.38564 -2.4 2.77128 0 1.38564 2.4 2.77128 0 1.38564 -2.4 2.77128 0 1.38564 2.4 2.77128 0 1.38564 -2.4 2.77128 0 1.38564 2.4 2.77128 0 1.38564 -2.4 2.77128 0 1.38564 2.4 2.77128 0 1.38564 -2.4 2.77128 0 1.38564 2.4 2.77128 0 1.38564 -2.4 2.77128 0 1.38564 2.4 2.77128 0 1.38564 -2.4 2.77128 0 1.38564 2.4 2.77128 0 1.38564 -2.4 2.77128 0 1.38564 2.4 2.77128 0 1.38564 -2.4 2.77128 0 1.38564 2.4 2.77128 0 1.38564 -2.4 2.77128 0 1.38564 2.4 2.77128 0 1.38564 -2.4 2.77128 0 1.38564 2.4 2.77128 0 1.38564 -2.4 2.77128 0 1.38564 2.4 2.77128 0 1.38564 -2.4 2.77128 0 1.38564 2.4 2.77128 0 1.38564 -2.4 2.77128 0 1.38564 2.4 2.77128 0 1.38564 -2.4 2.77128 0 1.38564 2.4 2.77128 0 1.38564 -2.4 2.77128 0 1.38564 2.4 2.77128 0 1.38564 -2.4 2.77128 0 1.38564 2.4 2.77128 0 1.38564 -2.4 2.77128 0 1.38564 2.4 2.77128 0 1.38564 -2.4 2.77128 0 1.38564 2.4 2.77128 0 1.38564 -2.4 2.77128 0 1.38564 2.4 2.77128 0 1.38564 -2.4 2.77128 0 1.38564 2.4 2.77128 0 1.38564 -2.4 2.77128 0 1.38564 2.4 2.77128 0 1.38564 -2.4 2.77128 0 1.38564 2.4 2.77128 0 1.38564 -2.4 2.77128 0 1.38564 2.4 2.77128 0 1.38564 -2.4 2.77128 0 1.38564 2.4 2.77128 0 1.38564 -2.4 2.77128 0 1.38564 2.4 2.77128 0 1.38564 -2.4 2.77128 0 1.38564 2.4 2.77128 0 1.38564 -2.4 2.77128 0 1.38564 2.4 2.77128 0" />
<path id="outline" d="M 0 0 l 2.77128 0 1.38564 -2.4 2.77128 0 1.38564 2.4 2.77128 0 1.38564 -2.4 2.77128 0 1.38564 2.4 2.77128 0 1.38564 -2.4 2.77128 0 1.38564 2.4 2.77128 0 1.38564 -2.4 2.77128 0 1.38564 2.4 2.77128 0 1.38564 -2.4 2.77128 0 1.38564 2.4 2.77128 0 1.38564 -2.4 2.77128 0 1.38564 2.4 2.77128 0 1.38564 -2.4 2.77128 0 1.38564 2.4 2.77128 0 1.38564 -2.4 2.77128 0 1.38564 2.4 2.77128 0 1.38564 -2.4 2.77128 0 1.38564 2.4 2.77128 0 1.38564 -2.4 2.77128 0 1.38564 2.4 2.77128 0 1.38564 -2.4 2.77128 0 1.38564 2.4 2.77128 0 1.38564 -2.4 2.77128 0 1.38564 2.4 2.77128 0 1.38564 -2.4 2.77128 0 1.38564 2.4 2.77128 0 1.38564 -2.4 2.77128 0 1.38564 2.4 2.77128 0 1.38564 -2.4 2.77128 0 1.38564 2.4 2.77128 0 1.38564 -2.4 2.77128 0 1.38564 2.4 2.77128 0 1.38564 -2.4 2.77128 0 1.38564 2.4 2.77128 0 1.38564 -2.4 2.77128 0 1.38564 2.4 2.77128 0 1.38564 -2.4 2.77128 0 1.38564 2.4 2.77128 0 1.38564 -2.4 2.77128 0 1.38564 2.4 2.77128 0 1.38564 -2.4 2.77128 0 1.38564 2.4 2.77128 0 1.38564 -2.4 2.77128 0 1.38564 2.4 2.77128 0 1.38564 -2.4 2.77128 0 1.38564 2.4 2.77128 0 1.38564 -2.4 2.77128 0 1.38564 2.4 2.77128 0 1.38564 -2.4 2.77128 0 1.38564 2.4 2.77128 0 1.38564 -2.4 2.77128 0 1.38564 2.4 2.77128 0 1.38564 -2.4 2.77128 0 1.38564 2.4 2.77128 0 1.38564 -2.4 2.77128 0 1.38564 2.4 2.77128 0 1.38564 -2.4 2.77128 0 1.38564 2.4 2.77128 0 1.38564 -2.4 2.77128 0 1.38564 2.4 2.77128 0 1.38564 -2.4 2.77128 0 1.38564 2.4 2.77128 0 1.38564 -2.4 2.77128 0 1.38564 2.4 2.77128 0 1.38564 -2.4 2.77128 0 1.38564 2.4 2.77128 0 1.38564 -2.4 2.77128 0 1.38564 2.4 2.77128 0 1.38564 -2.4 2.77128 0 1.38564 2.4 2.77128 0 1.38564 -2.4 2.77128 0 1.38564 2.4 2.77128 0 1.38564 -2.4 2.77128 0 1.38564 2.4 2.77128 0 1.38564 -2.4 2.77128 0 1.38564 2.4 2.77128 0 1.38564 -2.4 2.77128 0 1.38564 2.4 2.77128 0 1.38564 -2.4 2.77128 0 1.38564 2.4 2.77128 0 1.38564 -2.4 2.77128 0 1.38564 2.4 2.77128 0 1.38564 -2.4 2.77128 0 1.38564 2.4 2.77128 0 1.38564 -2.4 2.77128 0 1.38564 2.4 2.77128 0 1.38564 -2.4 2.77128 0 1.38564 2.4 2.77128 0 1.38564 -2.4 2.77128 0 1.38564 2.4 2.77128 0 1.38564 -2.4 2.77128 0 1.38564 2.4 2.77128 0 1.38564 -2.4 2.77128 0 1.38564 2.4 2.77128 0 1.38564 -2.4 2.77128 0 1.38564 2.4 2.77128 0 1.38564 -2.4 2.77128 0 1.38564 2.4 2.77128 0 1.38564 -2.4 2.77128 0 1.38564 2.4 2.77128 0 1.38564 -2.4 2.77128 0 1.38564 2.4 2.77128 0 1.38564 -2.4 2.77128 0 1.38564 2.4 2.77128 0 1.38564 -2.4 2.77128 0 1.38564 2.4 2.77128 0 1.38564 -2.4 2.77128 0 1.38564 2.4 2.77128 0 1.38564 -2.4 2.77128 0 1.38564 2.4 2.77128 0 1.38564 -2.4 2.77128 0 1.38564 2.4 2.77128 0 1.38564 -2.4 2.77128 0 1.38564 2.4 2.77128 0 1.38564 -2.4 2.77128 0 1.38564 2.4 2.77128 0 1.38564 -2.4 2.77128 0 1.38564 2.4 2.77128 0 1.38564 -2.4 2.77128 0 1.38564 2.4 2.77128 0 1.38564 -2.4 2.77128 0 1.38564 2.4 2.77128 0 1.38564 -2.4 2.77128 0 1.38564 2.4 2.77128 0 1.38564 -2.4 2.77128 0 1.38564 2.4 2.77128 0 1.38564 -2.4 2.77128 0 1.38564 2.4 2.77128 0 1.38564 -2.4 2.77128 0 1.38564 2.4 2.77128 0 1.38564 -2.4 2.77128 0 1.38564 2.4 2.77128 0 1.38564 -2.4 2.77128 0 1.38564 2.4 2.77128 0 1.38564 -2.4 2.77128 0 1.38564 2.4 2.77128 0 1.38564 -2.4 2.77128 0 1.38564 2.4 2.77128 0 1.38564 -2.4 2.77128 0 1.38564 2.4 2.77128 0 1.38564 -2.4 2.77128 0 1.38564 2.4 2.77128 0 1.38564 -2.4 2.77128 0 1.38564 2.4 2.77128 0 1.38564 -2.4 2.77128 0 1.38564 2.4 2.77128 0 1.38564 -2.4 2.77128 0 1.38564 2.4 2.77128 0 1.38564 -2.4 2.77128 0 1.38564 2.4 2.77128 0 1.38564 -2.4 2.77128 0 1.38564 2.4 2.77128 0 1.38564 -2.4 2.77128 0 1.38564 2.4 2.77128 0 1.38564 -2.4 2.77128 0 1.38564 2.4 2.77128 0 1.38564 -2.4 2.77128 0 1.38564 2.4 2.77128 0 1.38564 -2.4 2.77128 0 1.38564 2.4 2.77128 0 1.38564 -2.4 2.77128 0 1.38564 2.4 2.77128 0 1.38564 -2.4 2.77128 0 1.38564 2.4 2.77128 0 1.38564 -2.4 2.77128 0 1.38564 2.4 2.77128 0 1.38564 -2.4 2.77128 0 1.38564 2.4 2.77128 0 1.38564 -2.4 2.77128 0 1.38564 2.4 2.77128 0 1.38564 -2.4 2.77128 0 1.38564 2.4 2.77128 0 1.38564 -2.4 2.77128 0 1.38564 2.4 2.77128 0 1.38564 -2.4 2.77128 0 1.38564 2.4 2.77128 0 1.38564 -2.4 2.77128 0 1.38564 2.4 2.77128 0 1.38564 -2.4 2.77128 0 1.38564 2.4 2.77128 0 1.38564 -2.4 2.77128 0 1.38564 2.4 2.77128 0 1.38564 -2.4 2.77128 0 1.38564 2.4 2.77128 0 1.38564 -2.4 2.77128 0 1.38564 2.4 2.77128 0 1.38564 -2.4 2.77128 0 1.38564 2.4 2.77128 0 1.38564 -2.4 2.77128 0 1.38564 2.4 2.77128 0 1.38564 -2.4 2.77128 0 1.38564 2.4 2.77128 0 1.38564 -2.4 2.77128 0 1.38564 2.4 2.77128 0 1.38564 -2.4 2.77128 0 1.38564 2.4 2.77128 0 1.38564 -2.4 2.77128 0 1.38564 2.4 2.77128 0 1.38564 -2.4 2.77128 0 1.38564 2.4 2.77128 0 1.38564 -2.4 2.77128 0 1.38564 2.4 2.77128 0 1.38564 -2.4 2.77128 0 1.38564 2.4 2.77128 0 1.38564 -2.4 2.77128 0 1.38564 2.4 2.77128 0 1.38564 -2.4 2.77128 0 1.38564 2.4 2.77128 0 1.38564 -2.4 2.77128 0 1.38564 2.4 2.77128 0 1.38564 -2.4 2.77128 0 1.38564 2.4 2.77128 0 1.38564 2.4 -1.38564 2.4 1.38564 2.4 -1.38564 2.4 1.38564 2.4 -1.38564 2.4 1.38564 2.4 -1.38564 2.4 1.38564 2.4 -1.38564 2.4 1.38564 2.4 -1.38564 2.4 1.38564 2.4 -1.38564 2.4 1.38564 2.4 -1.38564 2.4 1.38564 2.4 -1.38564 2.4 1.38564 2.4 -1.38564 2.4 1.38564 2.4 -1.38564 2.4 1.38564 2.4 -1.38564 2.4 1.38564 2.4 -1.38564 2.4 1.38564 2.4 -1.38564 2.4 1.38564 2.4 -1.38564 2.4 1.38564 2.4 -1.38564 2.4 1.38564 2.4 -1.38564 2.4 1.38564 2.4 -1.38564 2.4 1.38564 2.4 -1.38564 2.4 1.38564 2.4 -1.38564 2.4 1.38564 2.4 -1.38564 2.4 1.38564 2.4 -1.38564 2.4 1.38564 2.4 -1.38564 2.4 1.38564 2.4 -1.38564 2.4 1.38564 2.4 -1.38564 2.4 1.38564 2.4 -1.38564 2.4 1.38564 2.4 -1.38564 2.4 1.38564 2.4 -1.38564 2.4 1.38564 2.4 -1.38564 2.4 1.38564 2.4 -1.38564 2.4 1.38564 2.4 -1.38564 2.4 1.38564 2.4 -1.38564 2.4 1.38564 2.4 -1.38564 2.4 1.38564 2.4 -1.38564 2.4 1.38564 2.4 -1.38564 2.4 1.38564 2.4 -1.38564 2.4 1.38564 2.4 -1.38564 2.4 1.38564 2.4 -1.38564 2.4 1.38564 2.4 -1.38564 2.4 1.38564 2.4 -1.38564 2.4 1.38564 2.4 -1.38564 2.4 1.38564 2.4 -1.38564 2.4 1.38564 2.4 -1.38564 2.4 1.38564 2.4 -1.38564 2.4 1.38564 2.4 -1.38564 2.4 1.38564 2.4 -1.38564 2.4 1.38564 2.4 -1.38564 2.4 1.38564 2.4 -1.38564 2.4 1.38564 2.4 -1.38564 2.4 1.38564 2.4 -1.38564 2.4 1.38564 2.4 -1.38564 2.4 1.38564 2.4 -1.38564 2.4 1.38564 2.4 -1.38564 2.4 1.38564 2.4 -1.38564 2.4 1.38564 2.4 -1.38564 2.4 1.38564 2.4 -1.38564 2.4 1.38564 2.4 -1.38564 2.4 1.38564 2.4 -1.38564 2.4 1.38564 2.4 -1.38564 2.4 1.38564 2.4 -1.38564 2.4 1.38564 2.4 -1.38564 2.4 1.38564 2.4 -1.38564 2.4 1.38564 2.4 -1.38564 2.4 1.38564 2.4 -1.38564 2.4 1.38564 2.4 -1.38564 2.4 1.38564 2.4 -1.38564 2.4 1.38564 2.4 -1.38564 2.4 1.38564 2.4 -1.38564 2.4 1.38564 2.4 -1.38564 2.4 1.38564 2.4 -1.38564 2.4 1.38564 2.4 -1.38564 2.4 1.38564 2.4 -1.38564 2.4 1.38564 2.4 -1.38564 2.4 1.38564 2.4 -1.38564 2.4 1.38564 2.4 -1.38564 2.4 1.38564 2.4 -1.38564 2.4 1.38564 2.4 -1.38564 2.4 1.38564 2.4 -1.38564 2.4 1.38564 2.4 -1.38564 2.4 1.38564 2.4 -1.38564 2.4 1.38564 2.4 -1.38564 2.4 1.38564 2.4 -1.38564 2.4 1.38564 2.4 -1.38564 2.4 1.38564 2.4 -1.38564 2.4 1.38564 2.4 -1.38564 2.4 1.38564 2.4 -1.38564 2.4 1.38564 2.4 -1.38564 2.4 1.38564 2.4 -1.38564 2.4 1.38564 2.4 -1.38564 2.4 1.38564 2.4 -1.38564 2.4 1.38564 2.4 -1.38564 2.4 1.38564 2.4 -1.38564 2.4 1.38564 2.4 -1.38564 2.4 1.38564 2.4 -1.38564 2.4 1.38564 2.4 -1.38564 2.4 1.38564 2.4 -1.38564 2.4 1.38564 2.4 -1.38564 2.4 1.38564 2.4 -1.38564 2.4 1.38564 2.4 -1.38564 2.4 1.38564 2.4 -1.38564 2.4 1.38564 2.4 -1.38564 2.4 1.38564 2.4 -1.38564 2.4 1.38564 2.4 -1.38564 2.4 1.38564 2.4 -1.38564 2.4 1.38564 2.4 -1.38564 2.4 1.38564 2.4 -1.38564 2.4 1.38564 2.4 -1.38564 2.4 1.38564 2.4 -1.38564 2.4 1.38564 2.4 -1.38564 2.4 1.38564 2.4 -1.38564 2.4 1.38564 2.4 -1.38564 2.4 1.38564 2.4 -1.38564 2.4 1.38564 2.4 -1.38564 2.4 1.38564 2.4 -1.38564 2.4 1.38564 2.4 -1.38564 2.4 1.38564 2.4 -1.38564 2.4 1.38564 2.4 -1.38564 2.4 1.38564 2.4 -1.38564 2.4 1.38564 2.4 -1.38564 2.4 1.38564 2.4 -1.38564 2.4 1.38564 2.4 -1.38564 2.4 1.38564 2.4 -1.38564 2.4 1.38564 2.4 -1.38564 2.4 1.38564 2.4 -1.38564 2.4 1.38564 2.4 -1.38564 2.4 1.38564 2.4 -1.38564 2.4 1.38564 2.4 -1.38564 2.4 1.38564 2.4 -1.38564 2.4 1.38564 2.4 -1.38564 2.4 1.38564 2.4 -1.38564 2.4 1.38564 2.4 -1.38564 2.4 1.38564 2.4 -1.38564 2.4 1.38564 2.4 -1.38564 2.4 1.38564 2.4 -1.38564 2.4 1.38564 2.4 -1.38564 2.4 1.38564 2.4 -1.38564 2.4 1.38564 2.4 -1.38564 2.4 1.38564 2.4 -1.38564 2.4 1.38564 2.4 -1.38564 2.4 1.38564 2.4 -1.38564 2.4 1.38564 2.4 -1.38564 2.4 1.38564 2.4 -1.38564 2.4 1.38564 2.4 -1.38564 2.4 1.38564 2.4 -1.38564 2.4 1.38564 2.4 -1.38564 2.4 1.38564 2.4 -1.38564 2.4 1.38564 2.4 -1.38564 2.4 1.38564 2.4 -1.38564 2.4 1.38564 2.4 -1.38564 2.4 1.38564 2.4 -1.38564 2.4 1.38564 2.4 -1.38564 2.4 1.38564 2.4 -1.38564 2.4 1.38564 2.4 -1.38564 2.4 1.38564 2.4 -1.38564 2.4 1.38564 2.4 -1.38564 2.4 1.38564 2.4 -1.38564 2.4 1.38564 2.4 -1.38564 2.4 1.38564 2.4 -1.38564 2.4 1.38564 2.4 -1.38564 2.4 1.38564 2.4 -1.38564 2.4 1.38564 2.4 -1.38564 2.4 -2.77128 0 -1.38564 -2.4 -2.77128 0 -1.38564 2.4 -2.77128 0 -1.38564 -2.4 -2.77128 0 -1.38564 2.4 -2.77128 0 -1.38564 -2.4 -2.77128 0 -1.38564 2.4 -2.77128 0 -1.38564 -2.4 -2.77128 0 -1.38564 2.4 -2.77128 0 -1.38564 -2.4 -2.77128 0 -1.38564 2.4 -2.77128 0 -1.38564 -2.4 -2.77128 0 -1.38564 2.4 -2.77128 0 -1.38564 -2.4 -2.77128 0 -1.38564 2.4 -2.77128 0 -1.38564 -2.4 -2.77128 0 -1.38564 2.4 -2.77128 0 -1.38564 -2.4 -2.77128 0 -1.38564 2.4 -2.77128 0 -1.38564 -2.4 -2.77128 0 -1.38564 2.4 -2.77128 0 -1.38564 -2.4 -2.77128 0 -1.38564 2.4 -2.77128 0 -1.38564 -2.4 -2.77128 0 -1.38564 2.4 -2.77128 0 -1.38564 -2.4 -2.77128 0 -1.38564 2.4 -2.77128 0 -1.38564 -2.4 -2.77128 0 -1.38564 2.4 -2.77128 0 -1.38564 -2.4 -2.77128 0 -1.38564 2.4 -2.77128 0 -1.38564 -2.4 -2.77128 0 -1.38564 2.4 -2.77128 0 -1.38564 -2.4 -2.77128 0 -1.38564 2.4 -2.77128 0 -1.38564 -2.4 -2.77128 0 -1.38564 2.4 -2.77128 0 -1.38564 -2.4 -2.77128 0 -1.38564 2.4 -2.77128 0 -1.38564 -2.4 -2.77128 0 -1.38564 2.4 -2.77128 0 -1.38564 -2.4 -2.77128 0 -1.38564 2.4 -2.77128 0 -1.38564 -2.4 -2.77128 0 -1.38564 2.4 -2.77128 0 -1.38564 -2.4 -2.77128 0 -1.38564 2.4 -2.77128 0 -1.38564 -2.4 -2.77128 0 -1.38564 2.4 -2.77128 0 -1.38564 -2.4 -2.77128 0 -1.38564 2.4 -2.77128 0 -1.38564 -2.4 -2.77128 0 -1.38564 2.4 -2.77128 0 -1.38564 -2.4 -2.77128 0 -1.38564 2.4 -2.77128 0 -1.38564 -2.4 -2.77128 0 -1.38564 2.4 -2.77128 0 -1.38564 -2.4 -2.77128 0 -1.38564 2.4 -2.77128 0 -1.38564 -2.4 -2.77128 0 -1.38564 2.4 -2.77128 0 -1.38564 -2.4 -2.77128 0 -1.38564 2.4 -2.77128 0 -1.38564 -2.4 -2.77128 0 -1.38564 2.4 -2.77128 0 -1.38564 -2.4 -2.77128 0 -1.38564 2.4 -2.77128 0 -1.38564 -2.4 -2.77128 0 -1.38564 2.4 -2.77128 0 -1.38564 -2.4 -2.77128 0 -1.38564 2.4 -2.77128 0 -1.38564 -2.4 -2.77128 0 -1.38564 2.4 -2.77128 0 -1.38564 -2.4 -2.77128 0 -1.38564 2.4 -2.77128 0 -1.38564 -2.4 -2.77128 0 -1.38564 2.4 -2.77128 0 -1.38564 -2.4 -2.77128 0 -1.38564 2.4 -2.77128 0 -1.38564 -2.4 -2.77128 0 -1.38564 2.4 -2.77128 0 -1.38564 -2.4 -2.77128 0 -1.38564 2.4 -2.77128 0 -1.38564 -2.4 -2.77128 0 -1.38564 2.4 -2.77128 0 -1.38564 -2.4 -2.77128 0 -1.38564 2.4 -2.77128 0 -1.38564 -2.4 -2.77128 0 -1.38564 2.4 -2.77128 0 -1.38564 -2.4 -2.77128 0 -1.38564 2.4 -2.77128 0 -1.38564 -2.4 -2.77128 0 -1.38564 2.4 -2.77128 0 -1.38564 -2.4 -2.77128 0 -1.38564 2.4 -2.77128 0 -1.38564 -2.4 -2.77128 0 -1.38564 2.4 -2.77128 0 -1.38564 -2.4 -2.77128 0 -1.38564 2.4 -2.77128 0 -1.38564 -2.4 -2.77128 0 -1.38564 2.4 -2.77128 0 -1.38564 -2.4 -2.77128 0 -1.38564 2.4 -2.77128 0 -1.38564 -2.4 -2.77128 0 -1.38564 2.4 -2.77128 0 -1.38564 -2.4 -2.77128 0 -1.38564 2.4 -2.77128 0 -1.38564 -2.4 -2.77128 0 -1.38564 2.4 -2.77128 0 -1.38564 -2.4 -2.77128 0 -1.38564 2.4 -2.77128 0 -1.38564 -2.4 -2.77128 0 -1.38564 2.4 -2.77128 0 -1.38564 -2.4 -2.77128 0 -1.38564 2.4 -2.77128 0 -1.38564 -2.4 -2.77128 0 -1.38564 2.4 -2.77128 0 -1.38564 -2.4 -2.77128 0 -1.38564 2.4 -2.77128 0 -1.38564 -2.4 -2.77128 0 -1.38564 2.4 -2.77128 0 -1.38564 -2.4 -2.77128 0 -1.38564 2.4 -2.77128 0 -1.38564 -2.4 -2.77128 0 -1.38564 2.4 -2.77128 0 -1.38564 -2.4 -2.77128 0 -1.38564 2.4 -2.77128 0 -1.38564 -2.4 -2.77128 0 -1.38564 2.4 -2.77128 0 -1.38564 -2.4 -2.77128 0 -1.38564 2.4 -2.77128 0 -1.38564 -2.4 -2.77128 0 -1.38564 2.4 -2.77128 0 -1.38564 -2.4 -2.77128 0 -1.38564 2.4 -2.77128 0 -1.38564 -2.4 -2.77128 0 -1.38564 2.4 -2.77128 0 -1.38564 -2.4 -2.77128 0 -1.38564 2.4 -2.77128 0 -1.38564 -2.4 -2.77128 0 -1.38564 2.4 -2.77128 0 -1.38564 -2.4 -2.77128 0 -1.38564 2.4 -2.77128 0 -1.38564 -2.4 -2.77128 0 -1.38564 2.4 -2.77128 0 -1.38564 -2.4 -2.77128 0 -1.38564 2.4 -2.77128 0 -1.38564 -2.4 -2.77128 0 -1.38564 2.4 -2.77128 0 -1.38564 -2.4 -2.77128 0 -1.38564 2.4 -2.77128 0 -1.38564 -2.4 -2.77128 0 -1.38564 2.4 -2.77128 0 -1.38564 -2.4 -2.77128 0 -1.38564 2.4 -2.77128 0 -1.38564 -2.4 -2.77128 0 -1.38564 2.4 -2.77128 0 -1.38564 -2.4 -2.77128 0 -1.38564 2.4 -2.77128 0 -1.38564 -2.4 -2.77128 0 -1.38564 2.4 -2.77128 0 -1.38564 -2.4 -2.77128 0 -1.38564 2.4 -2.77128 0 -1.38564 -2.4 -2.77128 0 -1.38564 2.4 -2.77128 0 -1.38564 -2.4 -2.77128 0 -1.38564 2.4 -2.77128 0 -1.38564 -2.4 -2.77128 0 -1.38564 2.4 -2.77128 0 -1.38564 -2.4 -2.77128 0 -1.38564 2.4 -2.77128 0 -1.38564 -2.4 -2.77128 0 -1.38564 2.4 -2.77128 0 -1.38564 -2.4 -2.77128 0 -1.38564 2.4 -2.77128 0 -1.38564 -2.4 -2.77128 0 -1.38564 2.4 -2.77128 0 -1.38564 -2.4 -2.77128 0 -1.38564 2.4 -2.77128 0 -1.38564 -2.4 -2.77128 0 -1.38564 2.4 -2.77128 0 -1.38564 -2.4 -2.77128 0 -1.38564 2.4 -2.77128 0 -1.38564 -2.4 -2.77128 0 -1.38564 2.4 -2.77128 0 -1.38564 -2.4 -2.77128 0 -1.38564 2.4 -2.77128 0 -1.38564 -2.4 -2.77128 0 -1.38564 2.4 -2.77128 0 -1.38564 -2.4 -2.77128 0 -1.38564 2.4 -2.77128 0 -1.38564 -2.4 -2.77128 0 -1.38564 2.4 -2.77128 0 -1.38564 -2.4 -2.77128 0 -1.38564 2.4 -2.77128 0 -1.38564 -2.4 -2.77128 0 -1.38564 2.4 -2.77128 0 -1.38564 -2.4 -2.77128 0 -1.38564 2.4 -2.77128 0 -1.38564 -2.4 -2.77128 0 -1.38564 2.4 -2.77128 0 -1.38564 -2.4 -2.77128 0 -1.38564 2.4 -2.77128 0 -1.38564 -2.4 -2.77128 0 -1.38564 2.4 -2.77128 0 -1.38564 -2.4 -2.77128 0 -1.38564 2.4 -2.77128 0 -1.38564 -2.4 -2.77128 0 -1.38564 2.4 -2.77128 0 -1.38564 -2.4 -2.77128 0 -1.38564 2.4 -2.77128 0 -1.38564 -2.4 -2.77128 0 -1.38564 2.4 -2.77128 0 -1.38564 -2.4 1.38564 -2.4 -1.38564 -2.4 1.38564 -2.4 -1.38564 -2.4 1.38564 -2.4 -1.38564 -2.4 1.38564 -2.4 -1.38564 -2.4 1.38564 -2.4 -1.38564 -2.4 1.38564 -2.4 -1.38564 -2.4 1.38564 -2.4 -1.38564 -2.4 1.38564 -2.4 -1.38564 -2.4 1.38564 -2.4 -1.38564 -2.4 1.38564 -2.4 -1.38564 -2.4 1.38564 -2.4 -1.38564 -2.4 1.38564 -2.4 -1.38564 -2.4 1.38564 -2.4 -1.38564 -2.4 1.38564 -2.4 -1.38564 -2.4 1.38564 -2.4 -1.38564 -2.4 1.38564 -2.4 -1.38564 -2.4 1.38564 -2.4 -1.38564 -2.4 1.38564 -2.4 -1.38564 -2.4 1.38564 -2.4 -1.38564 -2.4 1.38564 -2.4 -1.38564 -2.4 1.38564 -2.4 -1.38564 -2.4 1.38564 -2.4 -1.38564 -2.4 1.38564 -2.4 -1.38564 -2.4 1.38564 -2.4 -1.38564 -2.4 1.38564 -2.4 -1.38564 -2.4 1.38564 -2.4 -1.38564 -2.4 1.38564 -2.4 -1.38564 -2.4 1.38564 -2.4 -1.38564 -2.4 1.38564 -2.4 -1.38564 -2.4 1.38564 -2.4 -1.38564 -2.4 1.38564 -2.4 -1.38564 -2.4 1.38564 -2.4 -1.38564 -2.4 1.38564 -2.4 -1.38564 -2.4 1.38564 -2.4 -1.38564 -2.4 1.38564 -2.4 -1.38564 -2.4 1.38564 -2.4 -1.38564 -2.4 1.38564 -2.4 -1.38564 -2.4 1.38564 -2.4 -1.38564 -2.4 1.38564 -2.4 -1.38564 -2.4 1.38564 -2.4 -1.38564 -2.4 1.38564 -2.4 -1.38564 -2.4 1.38564 -2.4 -1.38564 -2.4 1.38564 -2.4 -1.38564 -2.4 1.38564 -2.4 -1.38564 -2.4 1.38564 -2.4 -1.38564 -2.4 1.38564 -2.4 -1.38564 -2.4 1.38564 -2.4 -1.38564 -2.4 1.38564 -2.4 -1.38564 -2.4 1.38564 -2.4 -1.38564 -2.4 1.38564 -2.4 -1.38564 -2.4 1.38564 -2.4 -1.38564 -2.4 1.38564 -2.4 -1.38564 -2.4 1.38564 -2.4 -1.38564 -2.4 1.38564 -2.4 -1.38564 -2.4 1.38564 -2.4 -1.38564 -2.4 1.38564 -2.4 -1.38564 -2.4 1.38564 -2.4 -1.38564 -2.4 1.38564 -2.4 -1.38564 -2.4 1.38564 -2.4 -1.38564 -2.4 1.38564 -2.4 -1.38564 -2.4 1.38564 -2.4 -1.38564 -2.4 1.38564 -2.4 -1.38564 -2.4 1.38564 -2.4 -1.38564 -2.4 1.38564 -2.4 -1.38564 -2.4 1.38564 -2.4 -1.38564 -2.4 1.38564 -2.4 -1.38564 -2.4 1.38564 -2.4 -1.38564 -2.4 1.38564 -2.4 -1.38564 -2.4 1.38564 -2.4 -1.38564 -2.4 1.38564 -2.4 -1.38564 -2.4 1.38564 -2.4 -1.38564 -2.4 1.38564 -2.4 -1.38564 -2.4 1.38564 -2.4 -1.38564 -2.4 1.38564 -2.4 -1.38564 -2.4 1.38564 -2.4 -1.38564 -2.4 1.38564 -2.4 -1.38564 -2.4 1.38564 -2.4 -1.38564 -2.4 1.38564 -2.4 -1.38564 -2.4 1.38564 -2.4 -1.38564 -2.4 1.38564 -2.4 -1.38564 -2.4 1.38564 -2.4 -1.38564 -2.4 1.38564 -2.4 -1.38564 -2.4 1.38564 -2.4 -1.38564 -2.4 1.38564 -2.4 -1.38564 -2.4 1.38564 -2.4 -1.38564 -2.4 1.38564 -2.4 -1.38564 -2.4 1.38564 -2.4 -1.38564 -2.4 1.38564 -2.4 -1.38564 -2.4 1.38564 -2.4 -1.38564 -2.4 1.38564 -2.4 -1.38564 -2.4 1.38564 -2.4 -1.38564 -2.4 1.38564 -2.4 -1.38564 -2.4 1.38564 -2.4 -1.38564 -2.4 1.38564 -2.4 -1.38564 -2.4 1.38564 -2.4 -1.38564 -2.4 1.38564 -2.4 -1.38564 -2.4 1.38564 -2.4 -1.38564 -2.4 1.38564 -2.4 -1.38564 -2.4 1.38564 -2.4 -1.38564 -2.4 1.38564 -2.4 -1.38564 -2.4 1.38564 -2.4 -1.38564 -2.4 1.38564 -2.4 -1.38564 -2.4 1.38564 -2.4 -1.38564 -2.4 1.38564 -2.4 -1.38564 -2.4 1.38564 -2.4 -1.38564 -2.4 1.38564 -2.4 -1.38564 -2.4 1.38564 -2.4 -1.38564 -2.4 1.38564 -2.4 -1.38564 -2.4 1.38564 -2.4 -1.38564 -2.4 1.38564 -2.4 -1.38564 -2.4 1.38564 -2.4 -1.38564 -2.4 1.38564 -2.4 -1.38564 -2.4 1.38564 -2.4 -1.38564 -2.4 1.38564 -2.4 -1.38564 -2.4 1.38564 -2.4 -1.38564 -2.4 1.38564 -2.4 -1.38564 -2.4 1.38564 -2.4 -1.38564 -2.4 1.38564 -2.4 -1.38564 -2.4 1.38564 -2.4 -1.38564 -2.4 1.38564 -2.4 -1.38564 -2.4 1.38564 -2.4 -1.38564 -2.4 1.38564 -2.4 -1.38564 -2.4 1.38564 -2.4 -1.38564 -2.4 1.38564 -2.4 -1.38564 -2.4 1.38564 -2.4 -1.38564 -2.4 1.38564 -2.4 -1.38564 -2.4 1.38564 -2.4 -1.38564 -2.4 1.38564 -2.4 -1.38564 -2.4 1.38564 -2.4 -1.38564 -2.4 1.38564 -2.4 -1.38564 -2.4 1.38564 -2.4 -1.38564 -2.4 1.38564 -2.4 -1.38564 -2.4 1.38564 -2.4 -1.38564 -2.4 1.38564 -2.4 -1.38564 -2.4 1.38564 -2.4 -1.38564 -2.4 1.38564 -2.4 -1.38564 -2.4 1.38564 -2.4 -1.38564 -2.4 1.38564 -2.4 -1.38564 -2.4 1.38564 -2.4 -1.38564 -2.4 1.38564 -2.4 -1.38564 -2.4 1.38564 -2.4 -1.38564 -2.4 1.38564 -2.4 -1.38564 -2.4 1.38564 -2.4 -1.38564 -2.4 1.38564 -2.4 -1.38564 -2.4 1.38564 -2.4 -1.38564 -2.4 1.38564 -2.4 -1.38564 -2.4 1.38564 -2.4 -1.38564 -2.4 1.38564 -2.4 -1.38564 -2.4 1.38564 -2.4 -1.38564 -2.4 1.38564 -2.4 -1.38564 -2.4 1.38564 -2.4 -1.38564 -2.4 1.38564 -2.4 -1.38564 -2.4 1.38564 -2.4 -1.38564 -2.4 1.38564 -2.4 -1.38564 -2.4 1.38564 -2.4 -1.38564 -2.4 1.38564 -2.4 -1.38564 -2.4 1.38564 -2.4 -1.38564 -2.4 1.38564 -2.4 -1.38564 -2.4 1.38564 -2.4 -1.38564 -2.4 1.38564 -2.4 -1.38564 -2.4 z" />
</defs>
<g transform="translate(775.7,0.25) rotate(90)">
<g id="grid" style="fill: none; stroke: #000000; stroke-opacity: 1; stroke-width: 0.5; ">
<use x="1.38564" y="2.4" xlink:href="#outline" />
<use x="4.15692" y="2.4" xlink:href="#bottoms" />
<use x="1.38564" y="7.2" xlink:href="#tops" />
<use x="4.15692" y="7.2" xlink:href="#bottoms" />
<use x="1.38564" y="12" xlink:href="#tops" />
<use x="4.15692" y="12" xlink:href="#bottoms" />
<use x="1.38564" y="16.8" xlink:href="#tops" />
<use x="4.15692" y="16.8" xlink:href="#bottoms" />
<use x="1.38564" y="21.6" xlink:href="#tops" />
<use x="4.15692" y="21.6" xlink:href="#bottoms" />
<use x="1.38564" y="26.4" xlink:href="#tops" />
<use x="4.15692" y="26.4" xlink:href="#bottoms" />
<use x="1.38564" y="31.2" xlink:href="#tops" />
<use x="4.15692" y="31.2" xlink:href="#bottoms" />
<use x="1.38564" y="36" xlink:href="#tops" />
<use x="4.15692" y="36" xlink:href="#bottoms" />
<use x="1.38564" y="40.8" xlink:href="#tops" />
<use x="4.15692" y="40.8" xlink:href="#bottoms" />
<use x="1.38564" y="45.6" xlink:href="#tops" />
<use x="4.15692" y="45.6" xlink:href="#bottoms" />
<use x="1.38564" y="50.4" xlink:href="#tops" />
<use x="4.15692" y="50.4" xlink:href="#bottoms" />
<use x="1.38564" y="55.2" xlink:href="#tops" />
<use x="4.15692" y="55.2" xlink:href="#bottoms" />
<use x="1.38564" y="60" xlink:href="#tops" />
<use x="4.15692" y="60" xlink:href="#bottoms" />
<use x="1.38564" y="64.8" xlink:href="#tops" />
<use x="4.15692" y="64.8" xlink:href="#bottoms" />
<use x="1.38564" y="69.6" xlink:href="#tops" />
<use x="4.15692" y="69.6" xlink:href="#bottoms" />
<use x="1.38564" y="74.4" xlink:href="#tops" />
<use x="4.15692" y="74.4" xlink:href="#bottoms" />
<use x="1.38564" y="79.2" xlink:href="#tops" />
<use x="4.15692" y="79.2" xlink:href="#bottoms" />
<use x="1.38564" y="84" xlink:href="#tops" />
<use x="4.15692" y="84" xlink:href="#bottoms" />
<use x="1.38564" y="88.8" xlink:href="#tops" />
<use x="4.15692" y="88.8" xlink:href="#bottoms" />
<use x="1.38564" y="93.6" xlink:href="#tops" />
<use x="4.15692" y="93.6" xlink:href="#bottoms" />
<use x="1.38564" y="98.4" xlink:href="#tops" />
<use x="4.15692" y="98.4" xlink:href="#bottoms" />
<use x="1.38564" y="103.2" xlink:href="#tops" />
<use x="4.15692" y="103.2" xlink:href="#bottoms" />
<use x="1.38564" y="108" xlink:href="#tops" />
<use x="4.15692" y="108" xlink:href="#bottoms" />
<use x="1.38564" y="112.8" xlink:href="#tops" />
<use x="4.15692" y="112.8" xlink:href="#bottoms" />
<use x="1.38564" y="117.6" xlink:href="#tops" />
<use x="4.15692" y="117.6" xlink:href="#bottoms" />
<use x="1.38564" y="122.4" xlink:href="#tops" />
<use x="4.15692" y="122.4" xlink:href="#bottoms" />
<use x="1.38564" y="127.2" xlink:href="#tops" />
<use x="4.15692" y="127.2" xlink:href="#bottoms" />
<use x="1.38564" y="132" xlink:href="#tops" />
<use x="4.15692" y="132" xlink:href="#bottoms" />
<use x="1.38564" y="136.8" xlink:href="#tops" />
<use x="4.15692" y="136.8" xlink:href="#bottoms" />
<use x="1.38564" y="141.6" xlink:href="#tops" />
<use x="4.15692" y="141.6" xlink:href="#bottoms" />
<use x="1.38564" y="146.4" xlink:href="#tops" />
<use x="4.15692" y="146.4" xlink:href="#bottoms" />
<use x="1.38564" y="151.2" xlink:href="#tops" />
<use x="4.15692" y="151.2" xlink:href="#bottoms" />
<use x="1.38564" y="156" xlink:href="#tops" />
<use x="4.15692" y="156" xlink:href="#bottoms" />
<use x="1.38564" y="160.8" xlink:href="#tops" />
<use x="4.15692" y="160.8" xlink:href="#bottoms" />
<use x="1.38564" y="165.6" xlink:href="#tops" />
<use x="4.15692" y="165.6" xlink:href="#bottoms" />
<use x="1.38564" y="170.4" xlink:href="#tops" />
<use x="4.15692" y="170.4" xlink:href="#bottoms" />
<use x="1.38564" y="175.2" xlink:href="#tops" />
<use x="4.15692" y="175.2" xlink:href="#bottoms" />
<use x="1.38564" y="180" xlink:href="#tops" />
<use x="4.15692" y="180" xlink:href="#bottoms" />
<use x="1.38564" y="184.8" xlink:href="#tops" />
<use x="4.15692" y="184.8" xlink:href="#bottoms" />
<use x="1.38564" y="189.6" xlink:href="#tops" />
<use x="4.15692" y="189.6" xlink:href="#bottoms" />
<use x="1.38564" y="194.4" xlink:href="#tops" />
<use x="4.15692" y="194.4" xlink:href="#bottoms" />
<use x="1.38564" y="199.2" xlink:href="#tops" />
<use x="4.15692" y="199.2" xlink:href="#bottoms" />
<use x="1.38564" y="204" xlink:href="#tops" />
<use x="4.15692" y="204" xlink:href="#bottoms" />
<use x="1.38564" y="208.8" xlink:href="#tops" />
<use x="4.15692" y="208.8" xlink:href="#bottoms" />
<use x="1.38564" y="213.6" xlink:href="#tops" />
<use x="4.15692" y="213.6" xlink:href="#bottoms" />
<use x="1.38564" y="218.4" xlink:href="#tops" />
<use x="4.15692" y="218.4" xlink:href="#bottoms" />
<use x="1.38564" y="223.2" xlink:href="#tops" />
<use x="4.15692" y="223.2" xlink:href="#bottoms" />
<use x="1.38564" y="228" xlink:href="#tops" />
<use x="4.15692" y="228" xlink:href="#bottoms" />
<use x="1.38564" y="232.8" xlink:href="#tops" />
<use x="4.15692" y="232.8" xlink:href="#bottoms" />
<use x="1.38564" y="237.6" xlink:href="#tops" />
<use x="4.15692" y="237.6" xlink:href="#bottoms" />
<use x="1.38564" y="242.4" xlink:href="#tops" />
<use x="4.15692" y="242.4" xlink:href="#bottoms" />
<use x="1.38564" y="247.2" xlink:href="#tops" />
<use x="4.15692" y="247.2" xlink:href="#bottoms" />
<use x="1.38564" y="252" xlink:href="#tops" />
<use x="4.15692" y="252" xlink:href="#bottoms" />
<use x="1.38564" y="256.8" xlink:href="#tops" />
<use x="4.15692" y="256.8" xlink:href="#bottoms" />
<use x="1.38564" y="261.6" xlink:href="#tops" />
<use x="4.15692" y="261.6" xlink:href="#bottoms" />
<use x="1.38564" y="266.4" xlink:href="#tops" />
<use x="4.15692" y="266.4" xlink:href="#bottoms" />
<use x="1.38564" y="271.2" xlink:href="#tops" />
<use x="4.15692" y="271.2" xlink:href="#bottoms" />
<use x="1.38564" y="276" xlink:href="#tops" />
<use x="4.15692" y="276" xlink:href="#bottoms" />
<use x="1.38564" y="280.8" xlink:href="#tops" />
<use x="4.15692" y="280.8" xlink:href="#bottoms" />
<use x="1.38564" y="285.6" xlink:href="#tops" />
<use x="4.15692" y="285.6" xlink:href="#bottoms" />
<use x="1.38564" y="290.4" xlink:href="#tops" />
<use x="4.15692" y="290.4" xlink:href="#bottoms" />
<use x="1.38564" y="295.2" xlink:href="#tops" />
<use x="4.15692" y="295.2" xlink:href="#bottoms" />
<use x="1.38564" y="300" xlink:href="#tops" />
<use x="4.15692" y="300" xlink:href="#bottoms" />
<use x="1.38564" y="304.8" xlink:href="#tops" />
<use x="4.15692" y="304.8" xlink:href="#bottoms" />
<use x="1.38564" y="309.6" xlink:href="#tops" />
<use x="4.15692" y="309.6" xlink:href="#bottoms" />
<use x="1.38564" y="314.4" xlink:href="#tops" />
<use x="4.15692" y="314.4" xlink:href="#bottoms" />
<use x="1.38564" y="319.2" xlink:href="#tops" />
<use x="4.15692" y="319.2" xlink:href="#bottoms" />
<use x="1.38564" y="324" xlink:href="#tops" />
<use x="4.15692" y="324" xlink:href="#bottoms" />
<use x="1.38564" y="328.8" xlink:href="#tops" />
<use x="4.15692" y="328.8" xlink:href="#bottoms" />
<use x="1.38564" y="333.6" xlink:href="#tops" />
<use x="4.15692" y="333.6" xlink:href="#bottoms" />
<use x="1.38564" y="338.4" xlink:href="#tops" />
<use x="4.15692" y="338.4" xlink:href="#bottoms" />
<use x="1.38564" y="343.2" xlink:href="#tops" />
<use x="4.15692" y="343.2" xlink:href="#bottoms" />
<use x="1.38564" y="348" xlink:href="#tops" />
<use x="4.15692" y="348" xlink:href="#bottoms" />
<use x="1.38564" y="352.8" xlink:href="#tops" />
<use x="4.15692" y="352.8" xlink:href="#bottoms" />
<use x="1.38564" y="357.6" xlink:href="#tops" />
<use x="4.15692" y="357.6" xlink:href="#bottoms" />
<use x="1.38564" y="362.4" xlink:href="#tops" />
<use x="4.15692" y="362.4" xlink:href="#bottoms" />
<use x="1.38564" y="367.2" xlink:href="#tops" />
<use x="4.15692" y="367.2" xlink:href="#bottoms" />
<use x="1.38564" y="372" xlink:href="#tops" />
<use x="4.15692" y="372" xlink:href="#bottoms" />
<use x="1.38564" y="376.8" xlink:href="#tops" />
<use x="4.15692" y="376.8" xlink:href="#bottoms" />
<use x="1.38564" y="381.6" xlink:href="#tops" />
<use x="4.15692" y="381.6" xlink:href="#bottoms" />
<use x="1.38564" y="386.4" xlink:href="#tops" />
<use x="4.15692" y="386.4" xlink:href="#bottoms" />
<use x="1.38564" y="391.2" xlink:href="#tops" />
<use x="4.15692" y="391.2" xlink:href="#bottoms" />
<use x="1.38564" y="396" xlink:href="#tops" />
<use x="4.15692" y="396" xlink:href="#bottoms" />
<use x="1.38564" y="400.8" xlink:href="#tops" />
<use x="4.15692" y="400.8" xlink:href="#bottoms" />
<use x="1.38564" y="405.6" xlink:href="#tops" />
<use x="4.15692" y="405.6" xlink:href="#bottoms" />
<use x="1.38564" y="410.4" xlink:href="#tops" />
<use x="4.15692" y="410.4" xlink:href="#bottoms" />
<use x="1.38564" y="415.2" xlink:href="#tops" />
<use x="4.15692" y="415.2" xlink:href="#bottoms" />
<use x="1.38564" y="420" xlink:href="#tops" />
<use x="4.15692" y="420" xlink:href="#bottoms" />
<use x="1.38564" y="424.8" xlink:href="#tops" />
<use x="4.15692" y="424.8" xlink:href="#bottoms" />
<use x="1.38564" y="429.6" xlink:href="#tops" />
<use x="4.15692" y="429.6" xlink:href="#bottoms" />
<use x="1.38564" y="434.4" xlink:href="#tops" />
<use x="4.15692" y="434.4" xlink:href="#bottoms" />
<use x="1.38564" y="439.2" xlink:href="#tops" />
<use x="4.15692" y="439.2" xlink:href="#bottoms" />
<use x="1.38564" y="444" xlink:href="#tops" />
<use x="4.15692" y="444" xlink:href="#bottoms" />
<use x="1.38564" y="448.8" xlink:href="#tops" />
<use x="4.15692" y="448.8" xlink:href="#bottoms" />
<use x="1.38564" y="453.6" xlink:href="#tops" />
<use x="4.15692" y="453.6" xlink:href="#bottoms" />
<use x="1.38564" y="458.4" xlink:href="#tops" />
<use x="4.15692" y="458.4" xlink:href="#bottoms" />
<use x="1.38564" y="463.2" xlink:href="#tops" />
<use x="4.15692" y="463.2" xlink:href="#bottoms" />
<use x="1.38564" y="468" xlink:href="#tops" />
<use x="4.15692" y="468" xlink:href="#bottoms" />
<use x="1.38564" y="472.8" xlink:href="#tops" />
<use x="4.15692" y="472.8" xlink:href="#bottoms" />
<use x="1.38564" y="477.6" xlink:href="#tops" />
<use x="4.15692" y="477.6" xlink:href="#bottoms" />
<use x="1.38564" y="482.4" xlink:href="#tops" />
<use x="4.15692" y="482.4" xlink:href="#bottoms" />
<use x="1.38564" y="487.2" xlink:href="#tops" />
<use x="4.15692" y="487.2" xlink:href="#bottoms" />
<use x="1.38564" y="492" xlink:href="#tops" />
<use x="4.15692" y="492" xlink:href="#bottoms" />
<use x="1.38564" y="496.8" xlink:href="#tops" />
<use x="4.15692" y="496.8" xlink:href="#bottoms" />
<use x="1.38564" y="501.6" xlink:href="#tops" />
<use x="4.15692" y="501.6" xlink:href="#bottoms" />
<use x="1.38564" y="506.4" xlink:href="#tops" />
<use x="4.15692" y="506.4" xlink:href="#bottoms" />
<use x="1.38564" y="511.2" xlink:href="#tops" />
<use x="4.15692" y="511.2" xlink:href="#bottoms" />
<use x="1.38564" y="516" xlink:href="#tops" />
<use x="4.15692" y="516" xlink:href="#bottoms" />
<use x="1.38564" y="520.8" xlink:href="#tops" />
<use x="4.15692" y="520.8" xlink:href="#bottoms" />
<use x="1.38564" y="525.6" xlink:href="#tops" />
<use x="4.15692" y="525.6" xlink:href="#bottoms" />
<use x="1.38564" y="530.4" xlink:href="#tops" />
<use x="4.15692" y="530.4" xlink:href="#bottoms" />
<use x="1.38564" y="535.2" xlink:href="#tops" />
<use x="4.15692" y="535.2" xlink:href="#bottoms" />
<use x="1.38564" y="540" xlink:href="#tops" />
<use x="4.15692" y="540" xlink:href="#bottoms" />
<use x="1.38564" y="544.8" xlink:href="#tops" />
<use x="4.15692" y="544.8" xlink:href="#bottoms" />
<use x="1.38564" y="549.6" xlink:href="#tops" />
<use x="4.15692" y="549.6" xlink:href="#bottoms" />
<use x="1.38564" y="554.4" xlink:href="#tops" />
<use x="4.15692" y="554.4" xlink:href="#bottoms" />
<use x="1.38564" y="559.2" xlink:href="#tops" />
<use x="4.15692" y="559.2" xlink:href="#bottoms" />
<use x="1.38564" y="564" xlink:href="#tops" />
<use x="4.15692" y="564" xlink:href="#bottoms" />
<use x="1.38564" y="568.8" xlink:href="#tops" />
<use x="4.15692" y="568.8" xlink:href="#bottoms" />
<use x="1.38564" y="573.6" xlink:href="#tops" />
<use x="4.15692" y="573.6" xlink:href="#bottoms" />
<use x="1.38564" y="578.4" xlink:href="#tops" />
<use x="4.15692" y="578.4" xlink:href="#bottoms" />
<use x="1.38564" y="583.2" xlink:href="#tops" />
<use x="4.15692" y="583.2" xlink:href="#bottoms" />
<use x="1.38564" y="588" xlink:href="#tops" />
<use x="4.15692" y="588" xlink:href="#bottoms" />
<use x="1.38564" y="592.8" xlink:href="#tops" />
<use x="4.15692" y="592.8" xlink:href="#bottoms" />
<use x="1.38564" y="597.6" xlink:href="#tops" />
<use x="4.15692" y="597.6" xlink:href="#bottoms" />
<use x="1.38564" y="602.4" xlink:href="#tops" />
<use x="4.15692" y="602.4" xlink:href="#bottoms" />
<use x="1.38564" y="607.2" xlink:href="#tops" />
<use x="4.15692" y="607.2" xlink:href="#bottoms" />
<use x="1.38564" y="612" xlink:href="#tops" />
<use x="4.15692" y="612" xlink:href="#bottoms" />
<use x="1.38564" y="616.8" xlink:href="#tops" />
<use x="4.15692" y="616.8" xlink:href="#bottoms" />
<use x="1.38564" y="621.6" xlink:href="#tops" />
<use x="4.15692" y="621.6" xlink:href="#bottoms" />
<use x="1.38564" y="626.4" xlink:href="#tops" />
<use x="4.15692" y="626.4" xlink:href="#bottoms" />
<use x="1.38564" y="631.2" xlink:href="#tops" />
<use x="4.15692" y="631.2" xlink:href="#bottoms" />
<use x="1.38564" y="636" xlink:href="#tops" />
<use x="4.15692" y="636" xlink:href="#bottoms" />
<use x="1.38564" y="640.8" xlink:href="#tops" />
<use x="4.15692" y="640.8" xlink:href="#bottoms" />
<use x="1.38564" y="645.6" xlink:href="#tops" />
<use x="4.15692" y="645.6" xlink:href="#bottoms" />
<use x="1.38564" y="650.4" xlink:href="#tops" />
<use x="4.15692" y="650.4" xlink:href="#bottoms" />
<use x="1.38564" y="655.2" xlink:href="#tops" />
<use x="4.15692" y="655.2" xlink:href="#bottoms" />
<use x="1.38564" y="660" xlink:href="#tops" />
<use x="4.15692" y="660" xlink:href="#bottoms" />
<use x="1.38564" y="664.8" xlink:href="#tops" />
<use x="4.15692" y="664.8" xlink:href="#bottoms" />
<use x="1.38564" y="669.6" xlink:href="#tops" />
<use x="4.15692" y="669.6" xlink:href="#bottoms" />
<use x="1.38564" y="674.4" xlink:href="#tops" />
<use x="4.15692" y="674.4" xlink:href="#bottoms" />
<use x="1.38564" y="679.2" xlink:href="#tops" />
<use x="4.15692" y="679.2" xlink:href="#bottoms" />
<use x="1.38564" y="684" xlink:href="#tops" />
<use x="4.15692" y="684" xlink:href="#bottoms" />
<use x="1.38564" y="688.8" xlink:href="#tops" />
<use x="4.15692" y="688.8" xlink:href="#bottoms" />
<use x="1.38564" y="693.6" xlink:href="#tops" />
<use x="4.15692" y="693.6" xlink:href="#bottoms" />
<use x="1.38564" y="698.4" xlink:href="#tops" />
<use x="4.15692" y="698.4" xlink:href="#bottoms" />
<use x="1.38564" y="703.2" xlink:href="#tops" />
<use x="4.15692" y="703.2" xlink:href="#bottoms" />
<use x="1.38564" y="708" xlink:href="#tops" />
<use x="4.15692" y="708" xlink:href="#bottoms" />
<use x="1.38564" y="712.8" xlink:href="#tops" />
<use x="4.15692" y="712.8" xlink:href="#bottoms" />
<use x="1.38564" y="717.6" xlink:href="#tops" />
<use x="4.15692" y="717.6" xlink:href="#bottoms" />
<use x="1.38564" y="722.4" xlink:href="#tops" />
<use x="4.15692" y="722.4" xlink:href="#bottoms" />
<use x="1.38564" y="727.2" xlink:href="#tops" />
<use x="4.15692" y="727.2" xlink:href="#bottoms" />
<use x="1.38564" y="732" xlink:href="#tops" />
<use x="4.15692" y="732" xlink:href="#bottoms" />
<use x="1.38564" y="736.8" xlink:href="#tops" />
<use x="4.15692" y="736.8" xlink:href="#bottoms" />
<use x="1.38564" y="741.6" xlink:href="#tops" />
<use x="4.15692" y="741.6" xlink:href="#bottoms" />
<use x="1.38564" y="746.4" xlink:href="#tops" />
<use x="4.15692" y="746.4" xlink:href="#bottoms" />
<use x="1.38564" y="751.2" xlink:href="#tops" />
<use x="4.15692" y="751.2" xlink:href="#bottoms" />
<use x="1.38564" y="756" xlink:href="#tops" />
<use x="4.15692" y="756" xlink:href="#bottoms" />
<use x="1.38564" y="760.8" xlink:href="#tops" />
<use x="4.15692" y="760.8" xlink:href="#bottoms" />
<use x="1.38564" y="765.6" xlink:href="#tops" />
<use x="4.15692" y="765.6" xlink:href="#bottoms" />
<use x="1.38564" y="770.4" xlink:href="#tops" />
<use x="4.15692" y="770.4" xlink:href="#bottoms" />
</g>
</g>
</svg>
