<?xml version='1.0' encoding='UTF-8' standalone='no'?>
<!DOCTYPE svg PUBLIC "-//W3C//DTD SVG 1.1//EN" "http://www.w3.org/Graphics/SVG/1.1/DTD/svg11.dtd">
<svg xmlns="http://www.w3.org/2000/svg" xmlns:xlink="http://www.w3.org/1999/xlink" width="840.5" height="887.31" version="1.1">
<defs>
<path id="bottoms" d="M 0 0 l 13.8564 24 m 27.7128 0 l 13.8564 -24 m 27.7128 0 l 13.8564 24 m 27.7128 0 l 13.8564 -24 m 27.7128 0 l 13.8564 24 m 27.7128 0 l 13.8564 -24 m 27.7128 0 l 13.8564 24 m 27.7128 0 l 13.8564 -24 m 27.7128 0 l 13.8564 24 m 27.7128 0 l 13.8564 -24 m 27.7128 0 l 13.8564 24 m 27.7128 0 l 13.8564 -24 m 27.7128 0 l 13.8564 24 m 27.7128 0 l 13.8564 -24 m 27.7128 0 l 13.8564 24 m 27.7128 0 l 13.8564 -24 m 27.7128 0 l 13.8564 24 m 27.7128 0 l 13.8564 -24 m 27.7128 0 l 13.8564 24 m 27.7128 0 l 13.8564 -24 m 27.7128 0"/>
<path id="tops" d="M 0 0 l 27.7128 0 13.8564 -24 27.7128 0 13.8564 24 27.7128 0 13.8564 -24 27.7128 0 13.8564 24 27.7128 0 13.8564 -24 27.7128 0 13.8564 24 27.7128 0 13.8564 -24 27.7128 0 13.8564 24 27.7128 0 13.8564 -24 27.7128 0 13.8564 24 27.7128 0 13.8564 -24 27.7128 0 13.8564 24 27.7128 0 13.8564 -24 27.7128 0 13.8564 24 27.7128 0 13.8564 -24 27.7128 0 13.8564 24 27.7128 0 13.8564 -24 27.7128 0 13.8564 24 27.7128 0 13.8564 -24 27.7128 0 13.8564 24 27.7128 0"/>
<path id="outline" d="M 0 0 l 27.7128 0 13.8564 -24 27.7128 0 13.8564 24 27.7128 0 13.8564 -24 27.7128 0 13.8564 24 27.7128 0 13.8564 -24 27.7128 0 13.8564 24 27.7128 0 13.8564 -24 27.7128 0 13.8564 24 27.7128 0 13.8564 -24 27.7128 0 13.8564 24 27.7128 0 13.8564 -24 27.7128 0 13.8564 24 27.7128 0 13.8564 -24 27.7128 0 13.8564 24 27.7128 0 13.8564 -24 27.7128 0 13.8564 24 27.7128 0 13.8564 -24 27.7128 0 13.8564 24 27.7128 0 13.8564 -24 27.7128 0 13.8564 24 27.7128 0 13.8564 24 -13.8564 24 13.8564 24 -13.8564 24 13.8564 24 -13.8564 24 13.8564 24 -13.8564 24 13.8564 24 -13.8564 24 13.8564 24 -13.8564 24 13.8564 24 -13.8564 24 13.8564 24 -13.8564 24 13.8564 24 -13.8564 24 13.8564 24 -13.8564 24 13.8564 24 -13.8564 24 13.8564 24 -13.8564 24 13.8564 24 -13.8564 24 13.8564 24 -13.8564 24 13.8564 24 -13.8564 24 13.8564 24 -13.8564 24 13.8564 24 -13.8564 24 -27.7128 0 -13.8564 -24 -27.7128 0 -13.8564 24 -27.7128 0 -13.8564 -24 -27.7128 0 -13.8564 24 -27.7128 0 -13.8564 -24 -27.7128 0 -13.8564 24 -27.7128 0 -13.8564 -24 -27.7128 0 -13.8564 24 -27.7128 0 -13.8564 -24 -27.7128 0 -13.8564 24 -27.7128 0 -13.8564 -24 -27.7128 0 -13.8564 24 -27.7128 0 -13.8564 -24 -27.7128 0 -13.8564 24 -27.7128 0 -13.8564 -24 -27.7128 0 -13.8564 24 -27.7128 0 -13.8564 -24 -27.7128 0 -13.8564 24 -27.7128 0 -13.8564 -24 -27.7128 0 -13.8564 24 -27.7128 0 -13.8564 -24 13.8564 -24 -13.8564 -24 13.8564 -24 -13.8564 -24 13.8564 -24 -13.8564 -24 13.8564 -24 -13.8564 -24 13.8564 -24 -13.8564 -24 13.8564 -24 -13.8564 -24 13.8564 -24 -13.8564 -24 13.8564 -24 -13.8564 -24 13.8564 -24 -13.8564 -24 13.8564 -24 -13.8564 -24 13.8564 -24 -13.8564 -24 13.8564 -24 -13.8564 -24 13.8564 -24 -13.8564 -24 13.8564 -24 -13.8564 -24 13.8564 -24 -13.8564 -24 13.8564 -24 -13.8564 -24 z"/>
</defs>
<g transform="translate(840.5,0.25) rotate(90)">
<g id="grid" style="fill: none; stroke: #000000; stroke-opacity: 1; stroke-width: 0.5; ">
<use x="13.8564" y="24" xlink:href="#outline"/>
<use x="41.5692" y="24" xlink:href="#bottoms"/>
<use x="13.8564" y="72" xlink:href="#tops"/>
<use x="41.5692" y="72" xlink:href="#bottoms"/>
<use x="13.8564" y="120" xlink:href="#tops"/>
<use x="41.5692" y="120" xlink:href="#bottoms"/>
<use x="13.8564" y="168" xlink:href="#tops"/>
<use x="41.5692" y="168" xlink:href="#bottoms"/>
<use x="13.8564" y="216" xlink:href="#tops"/>
<use x="41.5692" y="216" xlink:href="#bottoms"/>
<use x="13.8564" y="264" xlink:href="#tops"/>
<use x="41.5692" y="264" xlink:href="#bottoms"/>
<use x="13.8564" y="312" xlink:href="#tops"/>
<use x="41.5692" y="312" xlink:href="#bottoms"/>
<use x="13.8564" y="360" xlink:href="#tops"/>
<use x="41.5692" y="360" xlink:href="#bottoms"/>
<use x="13.8564" y="408" xlink:href="#tops"/>
<use x="41.5692" y="408" xlink:href="#bottoms"/>
<use x="13.8564" y="456" xlink:href="#tops"/>
<use x="41.5692" y="456" xlink:href="#bottoms"/>
<use x="13.8564" y="504" xlink:href="#tops"/>
<use x="41.5692" y="504" xlink:href="#bottoms"/>
<use x="13.8564" y="552" xlink:href="#tops"/>
<use x="41.5692" y="552" xlink:href="#bottoms"/>
<use x="13.8564" y="600" xlink:href="#tops"/>
<use x="41.5692" y="600" xlink:href="#bottoms"/>
<use x="13.8564" y="648" xlink:href="#tops"/>
<use x="41.5692" y="648" xlink:href="#bottoms"/>
<use x="13.8564" y="696" xlink:href="#tops"/>
<use x="41.5692" y="696" xlink:href="#bottoms"/>
<use x="13.8564" y="744" xlink:href="#tops"/>
<use x="41.5692" y="744" xlink:href="#bottoms"/>
<use x="13.8564" y="792" xlink:href="#tops"/>
<use x="41.5692" y="792" xlink:href="#bottoms"/>
</g>
<g id="coordinates" style="fill: #000000; fill-opacity: 1; font-family: Atkinson Hyperlegible; font-size: 10.667px; text-anchor: middle; ">
<text x="44.7128" y="48" transform="rotate(-90 44.7128 48)">16,10</text>
<text x="86.282" y="24" transform="rotate(-90 86.282 24)">17,9</text>
<text x="127.851" y="48" transform="rotate(-90 127.851 48)">16,8</text>
<text x="169.42" y="24" transform="rotate(-90 169.42 24)">17,7</text>
<text x="210.99" y="48" transform="rotate(-90 210.99 48)">16,6</text>
<text x="252.559" y="24" transform="rotate(-90 252.559 24)">17,5</text>
<text x="294.128" y="48" transform="rotate(-90 294.128 48)">16,4</text>
<text x="335.697" y="24" transform="rotate(-90 335.697 24)">17,3</text>
<text x="377.267" y="48" transform="rotate(-90 377.267 48)">16,2</text>
<text x="418.836" y="24" transform="rotate(-90 418.836 24)">17,1</text>
<text x="460.405" y="48" transform="rotate(-90 460.405 48)">16,0</text>
<text x="501.974" y="24" transform="rotate(-90 501.974 24)">17,-1</text>
<text x="543.543" y="48" transform="rotate(-90 543.543 48)">16,-2</text>
<text x="585.113" y="24" transform="rotate(-90 585.113 24)">17,-3</text>
<text x="626.682" y="48" transform="rotate(-90 626.682 48)">16,-4</text>
<text x="668.251" y="24" transform="rotate(-90 668.251 24)">17,-5</text>
<text x="709.82" y="48" transform="rotate(-90 709.82 48)">16,-6</text>
<text x="751.39" y="24" transform="rotate(-90 751.39 24)">17,-7</text>
<text x="792.959" y="48" transform="rotate(-90 792.959 48)">16,-8</text>
<text x="834.528" y="24" transform="rotate(-90 834.528 24)">17,-9</text>
<text x="876.097" y="48" transform="rotate(-90 876.097 48)">16,-10</text>
<text x="44.7128" y="96" transform="rotate(-90 44.7128 96)">14,10</text>
<text x="86.282" y="72" transform="rotate(-90 86.282 72)">15,9</text>
<text x="127.851" y="96" transform="rotate(-90 127.851 96)">14,8</text>
<text x="169.42" y="72" transform="rotate(-90 169.42 72)">15,7</text>
<text x="210.99" y="96" transform="rotate(-90 210.99 96)">14,6</text>
<text x="252.559" y="72" transform="rotate(-90 252.559 72)">15,5</text>
<text x="294.128" y="96" transform="rotate(-90 294.128 96)">14,4</text>
<text x="335.697" y="72" transform="rotate(-90 335.697 72)">15,3</text>
<text x="377.267" y="96" transform="rotate(-90 377.267 96)">14,2</text>
<text x="418.836" y="72" transform="rotate(-90 418.836 72)">15,1</text>
<text x="460.405" y="96" transform="rotate(-90 460.405 96)">14,0</text>
<text x="501.974" y="72" transform="rotate(-90 501.974 72)">15,-1</text>
<text x="543.543" y="96" transform="rotate(-90 543.543 96)">14,-2</text>
<text x="585.113" y="72" transform="rotate(-90 585.113 72)">15,-3</text>
<text x="626.682" y="96" transform="rotate(-90 626.682 96)">14,-4</text>
<text x="668.251" y="72" transform="rotate(-90 668.251 72)">15,-5</text>
<text x="709.82" y="96" transform="rotate(-90 709.82 96)">14,-6</text>
<text x="751.39" y="72" transform="rotate(-90 751.39 72)">15,-7</text>
<text x="792.959" y="96" transform="rotate(-90 792.959 96)">14,-8</text>
<text x="834.528" y="72" transform="rotate(-90 834.528 72)">15,-9</text>
<text x="876.097" y="96" transform="rotate(-90 876.097 96)">14,-10</text>
<text x="44.7128" y="144" transform="rotate(-90 44.7128 144)">12,10</text>
<text x="86.282" y="120" transform="rotate(-90 86.282 120)">13,9</text>
<text x="127.851" y="144" transform="rotate(-90 127.851 144)">12,8</text>
<text x="169.42" y="120" transform="rotate(-90 169.42 120)">13,7</text>
<text x="210.99" y="144" transform="rotate(-90 210.99 144)">12,6</text>
<text x="252.559" y="120" transform="rotate(-90 252.559 120)">13,5</text>
<text x="294.128" y="144" transform="rotate(-90 294.128 144)">12,4</text>
<text x="335.697" y="120" transform="rotate(-90 335.697 120)">13,3</text>
<text x="377.267" y="144" transform="rotate(-90 377.267 144)">12,2</text>
<text x="418.836" y="120" transform="rotate(-90 418.836 120)">13,1</text>
<text x="460.405" y="144" transform="rotate(-90 460.405 144)">12,0</text>
<text x="501.974" y="120" transform="rotate(-90 501.974 120)">13,-1</text>
<text x="543.543" y="144" transform="rotate(-90 543.543 144)">12,-2</text>
<text x="585.113" y="120" transform="rotate(-90 585.113 120)">13,-3</text>
<text x="626.682" y="144" transform="rotate(-90 626.682 144)">12,-4</text>
<text x="668.251" y="120" transform="rotate(-90 668.251 120)">13,-5</text>
<text x="709.82" y="144" transform="rotate(-90 709.82 144)">12,-6</text>
<text x="751.39" y="120" transform="rotate(-90 751.39 120)">13,-7</text>
<text x="792.959" y="144" transform="rotate(-90 792.959 144)">12,-8</text>
<text x="834.528" y="120" transform="rotate(-90 834.528 120)">13,-9</text>
<text x="876.097" y="144" transform="rotate(-90 876.097 144)">12,-10</text>
<text x="44.7128" y="192" transform="rotate(-90 44.7128 192)">10,10</text>
<text x="86.282" y="168" transform="rotate(-90 86.282 168)">11,9</text>
<text x="127.851" y="192" transform="rotate(-90 127.851 192)">10,8</text>
<text x="169.42" y="168" transform="rotate(-90 169.42 168)">11,7</text>
<text x="210.99" y="192" transform="rotate(-90 210.99 192)">10,6</text>
<text x="252.559" y="168" transform="rotate(-90 252.559 168)">11,5</text>
<text x="294.128" y="192" transform="rotate(-90 294.128 192)">10,4</text>
<text x="335.697" y="168" transform="rotate(-90 335.697 168)">11,3</text>
<text x="377.267" y="192" transform="rotate(-90 377.267 192)">10,2</text>
<text x="418.836" y="168" transform="rotate(-90 418.836 168)">11,1</text>
<text x="460.405" y="192" transform="rotate(-90 460.405 192)">10,0</text>
<text x="501.974" y="168" transform="rotate(-90 501.974 168)">11,-1</text>
<text x="543.543" y="192" transform="rotate(-90 543.543 192)">10,-2</text>
<text x="585.113" y="168" transform="rotate(-90 585.113 168)">11,-3</text>
<text x="626.682" y="192" transform="rotate(-90 626.682 192)">10,-4</text>
<text x="668.251" y="168" transform="rotate(-90 668.251 168)">11,-5</text>
<text x="709.82" y="192" transform="rotate(-90 709.82 192)">10,-6</text>
<text x="751.39" y="168" transform="rotate(-90 751.39 168)">11,-7</text>
<text x="792.959" y="192" transform="rotate(-90 792.959 192)">10,-8</text>
<text x="834.528" y="168" transform="rotate(-90 834.528 168)">11,-9</text>
<text x="876.097" y="192" transform="rotate(-90 876.097 192)">10,-10</text>
<text x="44.7128" y="240" transform="rotate(-90 44.7128 240)">8,10</text>
<text x="86.282" y="216" transform="rotate(-90 86.282 216)">9,9</text>
<text x="127.851" y="240" transform="rotate(-90 127.851 240)">8,8</text>
<text x="169.42" y="216" transform="rotate(-90 169.42 216)">9,7</text>
<text x="210.99" y="240" transform="rotate(-90 210.99 240)">8,6</text>
<text x="252.559" y="216" transform="rotate(-90 252.559 216)">9,5</text>
<text x="294.128" y="240" transform="rotate(-90 294.128 240)">8,4</text>
<text x="335.697" y="216" transform="rotate(-90 335.697 216)">9,3</text>
<text x="377.267" y="240" transform="rotate(-90 377.267 240)">8,2</text>
<text x="418.836" y="216" transform="rotate(-90 418.836 216)">9,1</text>
<text x="460.405" y="240" transform="rotate(-90 460.405 240)">8,0</text>
<text x="501.974" y="216" transform="rotate(-90 501.974 216)">9,-1</text>
<text x="543.543" y="240" transform="rotate(-90 543.543 240)">8,-2</text>
<text x="585.113" y="216" transform="rotate(-90 585.113 216)">9,-3</text>
<text x="626.682" y="240" transform="rotate(-90 626.682 240)">8,-4</text>
<text x="668.251" y="216" transform="rotate(-90 668.251 216)">9,-5</text>
<text x="709.82" y="240" transform="rotate(-90 709.82 240)">8,-6</text>
<text x="751.39" y="216" transform="rotate(-90 751.39 216)">9,-7</text>
<text x="792.959" y="240" transform="rotate(-90 792.959 240)">8,-8</text>
<text x="834.528" y="216" transform="rotate(-90 834.528 216)">9,-9</text>
<text x="876.097" y="240" transform="rotate(-90 876.097 240)">8,-10</text>
<text x="44.7128" y="288" transform="rotate(-90 44.7128 288)">6,10</text>
<text x="86.282" y="264" transform="rotate(-90 86.282 264)">7,9</text>
<text x="127.851" y="288" transform="rotate(-90 127.851 288)">6,8</text>
<text x="169.42" y="264" transform="rotate(-90 169.42 264)">7,7</text>
<text x="210.99" y="288" transform="rotate(-90 210.99 288)">6,6</text>
<text x="252.559" y="264" transform="rotate(-90 252.559 264)">7,5</text>
<text x="294.128" y="288" transform="rotate(-90 294.128 288)">6,4</text>
<text x="335.697" y="264" transform="rotate(-90 335.697 264)">7,3</text>
<text x="377.267" y="288" transform="rotate(-90 377.267 288)">6,2</text>
<text x="418.836" y="264" transform="rotate(-90 418.836 264)">7,1</text>
<text x="460.405" y="288" transform="rotate(-90 460.405 288)">6,0</text>
<text x="501.974" y="264" transform="rotate(-90 501.974 264)">7,-1</text>
<text x="543.543" y="288" transform="rotate(-90 543.543 288)">6,-2</text>
<text x="585.113" y="264" transform="rotate(-90 585.113 264)">7,-3</text>
<text x="626.682" y="288" transform="rotate(-90 626.682 288)">6,-4</text>
<text x="668.251" y="264" transform="rotate(-90 668.251 264)">7,-5</text>
<text x="709.82" y="288" transform="rotate(-90 709.82 288)">6,-6</text>
<text x="751.39" y="264" transform="rotate(-90 751.39 264)">7,-7</text>
<text x="792.959" y="288" transform="rotate(-90 792.959 288)">6,-8</text>
<text x="834.528" y="264" transform="rotate(-90 834.528 264)">7,-9</text>
<text x="876.097" y="288" transform="rotate(-90 876.097 288)">6,-10</text>
<text x="44.7128" y="336" transform="rotate(-90 44.7128 336)">4,10</text>
<text x="86.282" y="312" transform="rotate(-90 86.282 312)">5,9</text>
<text x="127.851" y="336" transform="rotate(-90 127.851 336)">4,8</text>
<text x="169.42" y="312" transform="rotate(-90 169.42 312)">5,7</text>
<text x="210.99" y="336" transform="rotate(-90 210.99 336)">4,6</text>
<text x="252.559" y="312" transform="rotate(-90 252.559 312)">5,5</text>
<text x="294.128" y="336" transform="rotate(-90 294.128 336)">4,4</text>
<text x="335.697" y="312" transform="rotate(-90 335.697 312)">5,3</text>
<text x="377.267" y="336" transform="rotate(-90 377.267 336)">4,2</text>
<text x="418.836" y="312" transform="rotate(-90 418.836 312)">5,1</text>
<text x="460.405" y="336" transform="rotate(-90 460.405 336)">4,0</text>
<text x="501.974" y="312" transform="rotate(-90 501.974 312)">5,-1</text>
<text x="543.543" y="336" transform="rotate(-90 543.543 336)">4,-2</text>
<text x="585.113" y="312" transform="rotate(-90 585.113 312)">5,-3</text>
<text x="626.682" y="336" transform="rotate(-90 626.682 336)">4,-4</text>
<text x="668.251" y="312" transform="rotate(-90 668.251 312)">5,-5</text>
<text x="709.82" y="336" transform="rotate(-90 709.82 336)">4,-6</text>
<text x="751.39" y="312" transform="rotate(-90 751.39 312)">5,-7</text>
<text x="792.959" y="336" transform="rotate(-90 792.959 336)">4,-8</text>
<text x="834.528" y="312" transform="rotate(-90 834.528 312)">5,-9</text>
<text x="876.097" y="336" transform="rotate(-90 876.097 336)">4,-10</text>
<text x="44.7128" y="384" transform="rotate(-90 44.7128 384)">2,10</text>
<text x="86.282" y="360" transform="rotate(-90 86.282 360)">3,9</text>
<text x="127.851" y="384" transform="rotate(-90 127.851 384)">2,8</text>
<text x="169.42" y="360" transform="rotate(-90 169.42 360)">3,7</text>
<text x="210.99" y="384" transform="rotate(-90 210.99 384)">2,6</text>
<text x="252.559" y="360" transform="rotate(-90 252.559 360)">3,5</text>
<text x="294.128" y="384" transform="rotate(-90 294.128 384)">2,4</text>
<text x="335.697" y="360" transform="rotate(-90 335.697 360)">3,3</text>
<text x="377.267" y="384" transform="rotate(-90 377.267 384)">2,2</text>
<text x="418.836" y="360" transform="rotate(-90 418.836 360)">3,1</text>
<text x="460.405" y="384" transform="rotate(-90 460.405 384)">2,0</text>
<text x="501.974" y="360" transform="rotate(-90 501.974 360)">3,-1</text>
<text x="543.543" y="384" transform="rotate(-90 543.543 384)">2,-2</text>
<text x="585.113" y="360" transform="rotate(-90 585.113 360)">3,-3</text>
<text x="626.682" y="384" transform="rotate(-90 626.682 384)">2,-4</text>
<text x="668.251" y="360" transform="rotate(-90 668.251 360)">3,-5</text>
<text x="709.82" y="384" transform="rotate(-90 709.82 384)">2,-6</text>
<text x="751.39" y="360" transform="rotate(-90 751.39 360)">3,-7</text>
<text x="792.959" y="384" transform="rotate(-90 792.959 384)">2,-8</text>
<text x="834.528" y="360" transform="rotate(-90 834.528 360)">3,-9</text>
<text x="876.097" y="384" transform="rotate(-90 876.097 384)">2,-10</text>
<text x="44.7128" y="432" transform="rotate(-90 44.7128 432)">0,10</text>
<text x="86.282" y="408" transform="rotate(-90 86.282 408)">1,9</text>
<text x="127.851" y="432" transform="rotate(-90 127.851 432)">0,8</text>
<text x="169.42" y="408" transform="rotate(-90 169.42 408)">1,7</text>
<text x="210.99" y="432" transform="rotate(-90 210.99 432)">0,6</text>
<text x="252.559" y="408" transform="rotate(-90 252.559 408)">1,5</text>
<text x="294.128" y="432" transform="rotate(-90 294.128 432)">0,4</text>
<text x="335.697" y="408" transform="rotate(-90 335.697 408)">1,3</text>
<text x="377.267" y="432" transform="rotate(-90 377.267 432)">0,2</text>
<text x="418.836" y="408" transform="rotate(-90 418.836 408)">1,1</text>
<text x="460.405" y="432" transform="rotate(-90 460.405 432)">0,0</text>
<text x="501.974" y="408" transform="rotate(-90 501.974 408)">1,-1</text>
<text x="543.543" y="432" transform="rotate(-90 543.543 432)">0,-2</text>
<text x="585.113" y="408" transform="rotate(-90 585.113 408)">1,-3</text>
<text x="626.682" y="432" transform="rotate(-90 626.682 432)">0,-4</text>
<text x="668.251" y="408" transform="rotate(-90 668.251 408)">1,-5</text>
<text x="709.82" y="432" transform="rotate(-90 709.82 432)">0,-6</text>
<text x="751.39" y="408" transform="rotate(-90 751.39 408)">1,-7</text>
<text x="792.959" y="432" transform="rotate(-90 792.959 432)">0,-8</text>
<text x="834.528" y="408" transform="rotate(-90 834.528 408)">1,-9</text>
<text x="876.097" y="432" transform="rotate(-90 876.097 432)">0,-10</text>
<text x="44.7128" y="480" transform="rotate(-90 44.7128 480)">-2,10</text>
<text x="86.282" y="456" transform="rotate(-90 86.282 456)">-1,9</text>
<text x="127.851" y="480" transform="rotate(-90 127.851 480)">-2,8</text>
<text x="169.42" y="456" transform="rotate(-90 169.42 456)">-1,7</text>
<text x="210.99" y="480" transform="rotate(-90 210.99 480)">-2,6</text>
<text x="252.559" y="456" transform="rotate(-90 252.559 456)">-1,5</text>
<text x="294.128" y="480" transform="rotate(-90 294.128 480)">-2,4</text>
<text x="335.697" y="456" transform="rotate(-90 335.697 456)">-1,3</text>
<text x="377.267" y="480" transform="rotate(-90 377.267 480)">-2,2</text>
<text x="418.836" y="456" transform="rotate(-90 418.836 456)">-1,1</text>
<text x="460.405" y="480" transform="rotate(-90 460.405 480)">-2,0</text>
<text x="501.974" y="456" transform="rotate(-90 501.974 456)">-1,-1</text>
<text x="543.543" y="480" transform="rotate(-90 543.543 480)">-2,-2</text>
<text x="585.113" y="456" transform="rotate(-90 585.113 456)">-1,-3</text>
<text x="626.682" y="480" transform="rotate(-90 626.682 480)">-2,-4</text>
<text x="668.251" y="456" transform="rotate(-90 668.251 456)">-1,-5</text>
<text x="709.82" y="480" transform="rotate(-90 709.82 480)">-2,-6</text>
<text x="751.39" y="456" transform="rotate(-90 751.39 456)">-1,-7</text>
<text x="792.959" y="480" transform="rotate(-90 792.959 480)">-2,-8</text>
<text x="834.528" y="456" transform="rotate(-90 834.528 456)">-1,-9</text>
<text x="876.097" y="480" transform="rotate(-90 876.097 480)">-2,-10</text>
<text x="44.7128" y="528" transform="rotate(-90 44.7128 528)">-4,10</text>
<text x="86.282" y="504" transform="rotate(-90 86.282 504)">-3,9</text>
<text x="127.851" y="528" transform="rotate(-90 127.851 528)">-4,8</text>
<text x="169.42" y="504" transform="rotate(-90 169.42 504)">-3,7</text>
<text x="210.99" y="528" transform="rotate(-90 210.99 528)">-4,6</text>
<text x="252.559" y="504" transform="rotate(-90 252.559 504)">-3,5</text>
<text x="294.128" y="528" transform="rotate(-90 294.128 528)">-4,4</text>
<text x="335.697" y="504" transform="rotate(-90 335.697 504)">-3,3</text>
<text x="377.267" y="528" transform="rotate(-90 377.267 528)">-4,2</text>
<text x="418.836" y="504" transform="rotate(-90 418.836 504)">-3,1</text>
<text x="460.405" y="528" transform="rotate(-90 460.405 528)">-4,0</text>
<text x="501.974" y="504" transform="rotate(-90 501.974 504)">-3,-1</text>
<text x="543.543" y="528" transform="rotate(-90 543.543 528)">-4,-2</text>
<text x="585.113" y="504" transform="rotate(-90 585.113 504)">-3,-3</text>
<text x="626.682" y="528" transform="rotate(-90 626.682 528)">-4,-4</text>
<text x="668.251" y="504" transform="rotate(-90 668.251 504)">-3,-5</text>
<text x="709.82" y="528" transform="rotate(-90 709.82 528)">-4,-6</text>
<text x="751.39" y="504" transform="rotate(-90 751.39 504)">-3,-7</text>
<text x="792.959" y="528" transform="rotate(-90 792.959 528)">-4,-8</text>
<text x="834.528" y="504" transform="rotate(-90 834.528 504)">-3,-9</text>
<text x="876.097" y="528" transform="rotate(-90 876.097 528)">-4,-10</text>
<text x="44.7128" y="576" transform="rotate(-90 44.7128 576)">-6,10</text>
<text x="86.282" y="552" transform="rotate(-90 86.282 552)">-5,9</text>
<text x="127.851" y="576" transform="rotate(-90 127.851 576)">-6,8</text>
<text x="169.42" y="552" transform="rotate(-90 169.42 552)">-5,7</text>
<text x="210.99" y="576" transform="rotate(-90 210.99 576)">-6,6</text>
<text x="252.559" y="552" transform="rotate(-90 252.559 552)">-5,5</text>
<text x="294.128" y="576" transform="rotate(-90 294.128 576)">-6,4</text>
<text x="335.697" y="552" transform="rotate(-90 335.697 552)">-5,3</text>
<text x="377.267" y="576" transform="rotate(-90 377.267 576)">-6,2</text>
<text x="418.836" y="552" transform="rotate(-90 418.836 552)">-5,1</text>
<text x="460.405" y="576" transform="rotate(-90 460.405 576)">-6,0</text>
<text x="501.974" y="552" transform="rotate(-90 501.974 552)">-5,-1</text>
<text x="543.543" y="576" transform="rotate(-90 543.543 576)">-6,-2</text>
<text x="585.113" y="552" transform="rotate(-90 585.113 552)">-5,-3</text>
<text x="626.682" y="576" transform="rotate(-90 626.682 576)">-6,-4</text>
<text x="668.251" y="552" transform="rotate(-90 668.251 552)">-5,-5</text>
<text x="709.82" y="576" transform="rotate(-90 709.82 576)">-6,-6</text>
<text x="751.39" y="552" transform="rotate(-90 751.39 552)">-5,-7</text>
<text x="792.959" y="576" transform="rotate(-90 792.959 576)">-6,-8</text>
<text x="834.528" y="552" transform="rotate(-90 834.528 552)">-5,-9</text>
<text x="876.097" y="576" transform="rotate(-90 876.097 576)">-6,-10</text>
<text x="44.7128" y="624" transform="rotate(-90 44.7128 624)">-8,10</text>
<text x="86.282" y="600" transform="rotate(-90 86.282 600)">-7,9</text>
<text x="127.851" y="624" transform="rotate(-90 127.851 624)">-8,8</text>
<text x="169.42" y="600" transform="rotate(-90 169.42 600)">-7,7</text>
<text x="210.99" y="624" transform="rotate(-90 210.99 624)">-8,6</text>
<text x="252.559" y="600" transform="rotate(-90 252.559 600)">-7,5</text>
<text x="294.128" y="624" transform="rotate(-90 294.128 624)">-8,4</text>
<text x="335.697" y="600" transform="rotate(-90 335.697 600)">-7,3</text>
<text x="377.267" y="624" transform="rotate(-90 377.267 624)">-8,2</text>
<text x="418.836" y="600" transform="rotate(-90 418.836 600)">-7,1</text>
<text x="460.405" y="624" transform="rotate(-90 460.405 624)">-8,0</text>
<text x="501.974" y="600" transform="rotate(-90 501.974 600)">-7,-1</text>
<text x="543.543" y="624" transform="rotate(-90 543.543 624)">-8,-2</text>
<text x="585.113" y="600" transform="rotate(-90 585.113 600)">-7,-3</text>
<text x="626.682" y="624" transform="rotate(-90 626.682 624)">-8,-4</text>
<text x="668.251" y="600" transform="rotate(-90 668.251 600)">-7,-5</text>
<text x="709.82" y="624" transform="rotate(-90 709.82 624)">-8,-6</text>
<text x="751.39" y="600" transform="rotate(-90 751.39 600)">-7,-7</text>
<text x="792.959" y="624" transform="rotate(-90 792.959 624)">-8,-8</text>
<text x="834.528" y="600" transform="rotate(-90 834.528 600)">-7,-9</text>
<text x="876.097" y="624" transform="rotate(-90 876.097 624)">-8,-10</text>
<text x="44.7128" y="672" transform="rotate(-90 44.7128 672)">-10,10</text>
<text x="86.282" y="648" transform="rotate(-90 86.282 648)">-9,9</text>
<text x="127.851" y="672" transform="rotate(-90 127.851 672)">-10,8</text>
<text x="169.42" y="648" transform="rotate(-90 169.42 648)">-9,7</text>
<text x="210.99" y="672" transform="rotate(-90 210.99 672)">-10,6</text>
<text x="252.559" y="648" transform="rotate(-90 252.559 648)">-9,5</text>
<text x="294.128" y="672" transform="rotate(-90 294.128 672)">-10,4</text>
<text x="335.697" y="648" transform="rotate(-90 335.697 648)">-9,3</text>
<text x="377.267" y="672" transform="rotate(-90 377.267 672)">-10,2</text>
<text x="418.836" y="648" transform="rotate(-90 418.836 648)">-9,1</text>
<text x="460.405" y="672" transform="rotate(-90 460.405 672)">-10,0</text>
<text x="501.974" y="648" transform="rotate(-90 501.974 648)">-9,-1</text>
<text x="543.543" y="672" transform="rotate(-90 543.543 672)">-10,-2</text>
<text x="585.113" y="648" transform="rotate(-90 585.113 648)">-9,-3</text>
<text x="626.682" y="672" transform="rotate(-90 626.682 672)">-10,-4</text>
<text x="668.251" y="648" transform="rotate(-90 668.251 648)">-9,-5</text>
<text x="709.82" y="672" transform="rotate(-90 709.82 672)">-10,-6</text>
<text x="751.39" y="648" transform="rotate(-90 751.39 648)">-9,-7</text>
<text x="792.959" y="672" transform="rotate(-90 792.959 672)">-10,-8</text>
<text x="834.528" y="648" transform="rotate(-90 834.528 648)">-9,-9</text>
<text x="876.097" y="672" transform="rotate(-90 876.097 672)">-10,-10</text>
<text x="44.7128" y="720" transform="rotate(-90 44.7128 720)">-12,10</text>
<text x="86.282" y="696" transform="rotate(-90 86.282 696)">-11,9</text>
<text x="127.851" y="720" transform="rotate(-90 127.851 720)">-12,8</text>
<text x="169.42" y="696" transform="rotate(-90 169.42 696)">-11,7</text>
<text x="210.99" y="720" transform="rotate(-90 210.99 720)">-12,6</text>
<text x="252.559" y="696" transform="rotate(-90 252.559 696)">-11,5</text>
<text x="294.128" y="720" transform="rotate(-90 294.128 720)">-12,4</text>
<text x="335.697" y="696" transform="rotate(-90 335.697 696)">-11,3</text>
<text x="377.267" y="720" transform="rotate(-90 377.267 720)">-12,2</text>
<text x="418.836" y="696" transform="rotate(-90 418.836 696)">-11,1</text>
<text x="460.405" y="720" transform="rotate(-90 460.405 720)">-12,0</text>
<text x="501.974" y="696" transform="rotate(-90 501.974 696)">-11,-1</text>
<text x="543.543" y="720" transform="rotate(-90 543.543 720)">-12,-2</text>
<text x="585.113" y="696" transform="rotate(-90 585.113 696)">-11,-3</text>
<text x="626.682" y="720" transform="rotate(-90 626.682 720)">-12,-4</text>
<text x="668.251" y="696" transform="rotate(-90 668.251 696)">-11,-5</text>
<text x="709.82" y="720" transform="rotate(-90 709.82 720)">-12,-6</text>
<text x="751.39" y="696" transform="rotate(-90 751.39 696)">-11,-7</text>
<text x="792.959" y="720" transform="rotate(-90 792.959 720)">-12,-8</text>
<text x="834.528" y="696" transform="rotate(-90 834.528 696)">-11,-9</text>
<text x="876.097" y="720" transform="rotate(-90 876.097 720)">-12,-10</text>
<text x="44.7128" y="768" transform="rotate(-90 44.7128 768)">-14,10</text>
<text x="86.282" y="744" transform="rotate(-90 86.282 744)">-13,9</text>
<text x="127.851" y="768" transform="rotate(-90 127.851 768)">-14,8</text>
<text x="169.42" y="744" transform="rotate(-90 169.42 744)">-13,7</text>
<text x="210.99" y="768" transform="rotate(-90 210.99 768)">-14,6</text>
<text x="252.559" y="744" transform="rotate(-90 252.559 744)">-13,5</text>
<text x="294.128" y="768" transform="rotate(-90 294.128 768)">-14,4</text>
<text x="335.697" y="744" transform="rotate(-90 335.697 744)">-13,3</text>
<text x="377.267" y="768" transform="rotate(-90 377.267 768)">-14,2</text>
<text x="418.836" y="744" transform="rotate(-90 418.836 744)">-13,1</text>
<text x="460.405" y="768" transform="rotate(-90 460.405 768)">-14,0</text>
<text x="501.974" y="744" transform="rotate(-90 501.974 744)">-13,-1</text>
<text x="543.543" y="768" transform="rotate(-90 543.543 768)">-14,-2</text>
<text x="585.113" y="744" transform="rotate(-90 585.113 744)">-13,-3</text>
<text x="626.682" y="768" transform="rotate(-90 626.682 768)">-14,-4</text>
<text x="668.251" y="744" transform="rotate(-90 668.251 744)">-13,-5</text>
<text x="709.82" y="768" transform="rotate(-90 709.82 768)">-14,-6</text>
<text x="751.39" y="744" transform="rotate(-90 751.39 744)">-13,-7</text>
<text x="792.959" y="768" transform="rotate(-90 792.959 768)">-14,-8</text>
<text x="834.528" y="744" transform="rotate(-90 834.528 744)">-13,-9</text>
<text x="876.097" y="768" transform="rotate(-90 876.097 768)">-14,-10</text>
<text x="44.7128" y="816" transform="rotate(-90 44.7128 816)">-16,10</text>
<text x="86.282" y="792" transform="rotate(-90 86.282 792)">-15,9</text>
<text x="127.851" y="816" transform="rotate(-90 127.851 816)">-16,8</text>
<text x="169.42" y="792" transform="rotate(-90 169.42 792)">-15,7</text>
<text x="210.99" y="816" transform="rotate(-90 210.99 816)">-16,6</text>
<text x="252.559" y="792" transform="rotate(-90 252.559 792)">-15,5</text>
<text x="294.128" y="816" transform="rotate(-90 294.128 816)">-16,4</text>
<text x="335.697" y="792" transform="rotate(-90 335.697 792)">-15,3</text>
<text x="377.267" y="816" transform="rotate(-90 377.267 816)">-16,2</text>
<text x="418.836" y="792" transform="rotate(-90 418.836 792)">-15,1</text>
<text x="460.405" y="816" transform="rotate(-90 460.405 816)">-16,0</text>
<text x="501.974" y="792" transform="rotate(-90 501.974 792)">-15,-1</text>
<text x="543.543" y="816" transform="rotate(-90 543.543 816)">-16,-2</text>
<text x="585.113" y="792" transform="rotate(-90 585.113 792)">-15,-3</text>
<text x="626.682" y="816" transform="rotate(-90 626.682 816)">-16,-4</text>
<text x="668.251" y="792" transform="rotate(-90 668.251 792)">-15,-5</text>
<text x="709.82" y="816" transform="rotate(-90 709.82 816)">-16,-6</text>
<text x="751.39" y="792" transform="rotate(-90 751.39 792)">-15,-7</text>
<text x="792.959" y="816" transform="rotate(-90 792.959 816)">-16,-8</text>
<text x="834.528" y="792" transform="rotate(-90 834.528 792)">-15,-9</text>
<text x="876.097" y="816" transform="rotate(-90 876.097 816)">-16,-10</text>
</g>
</g>
</svg>
