<?xml version="1.0" standalone="no"?>
<!DOCTYPE svg PUBLIC "-//W3C//DTD SVG 1.1//EN"
   "http://www.w3.org/Graphics/SVG/1.1/DTD/svg11.dtd">
<svg width="780.02" height="887.31" version="1.1"
   xmlns="http://www.w3.org/2000/svg"
   xmlns:xlink="http://www.w3.org/1999/xlink">
<defs>
<path id="bottoms" d="M 0 0 l 2.21703 3.84 m 4.43405 0 l 2.21703 -3.84 m 4.43405 0 l 2.21703 3.84 m 4.43405 0 l 2.21703 -3.84 m 4.43405 0 l 2.21703 3.84 m 4.43405 0 l 2.21703 -3.84 m 4.43405 0 l 2.21703 3.84 m 4.43405 0 l 2.21703 -3.84 m 4.43405 0 l 2.21703 3.84 m 4.43405 0 l 2.21703 -3.84 m 4.43405 0 l 2.21703 3.84 m 4.43405 0 l 2.21703 -3.84 m 4.43405 0 l 2.21703 3.84 m 4.43405 0 l 2.21703 -3.84 m 4.43405 0 l 2.21703 3.84 m 4.43405 0 l 2.21703 -3.84 m 4.43405 0 l 2.21703 3.84 m 4.43405 0 l 2.21703 -3.84 m 4.43405 0 l 2.21703 3.84 m 4.43405 0 l 2.21703 -3.84 m 4.43405 0 l 2.21703 3.84 m 4.43405 0 l 2.21703 -3.84 m 4.43405 0 l 2.21703 3.84 m 4.43405 0 l 2.21703 -3.84 m 4.43405 0 l 2.21703 3.84 m 4.43405 0 l 2.21703 -3.84 m 4.43405 0 l 2.21703 3.84 m 4.43405 0 l 2.21703 -3.84 m 4.43405 0 l 2.21703 3.84 m 4.43405 0 l 2.21703 -3.84 m 4.43405 0 l 2.21703 3.84 m 4.43405 0 l 2.21703 -3.84 m 4.43405 0 l 2.21703 3.84 m 4.43405 0 l 2.21703 -3.84 m 4.43405 0 l 2.21703 3.84 m 4.43405 0 l 2.21703 -3.84 m 4.43405 0 l 2.21703 3.84 m 4.43405 0 l 2.21703 -3.84 m 4.43405 0 l 2.21703 3.84 m 4.43405 0 l 2.21703 -3.84 m 4.43405 0 l 2.21703 3.84 m 4.43405 0 l 2.21703 -3.84 m 4.43405 0 l 2.21703 3.84 m 4.43405 0 l 2.21703 -3.84 m 4.43405 0 l 2.21703 3.84 m 4.43405 0 l 2.21703 -3.84 m 4.43405 0 l 2.21703 3.84 m 4.43405 0 l 2.21703 -3.84 m 4.43405 0 l 2.21703 3.84 m 4.43405 0 l 2.21703 -3.84 m 4.43405 0 l 2.21703 3.84 m 4.43405 0 l 2.21703 -3.84 m 4.43405 0 l 2.21703 3.84 m 4.43405 0 l 2.21703 -3.84 m 4.43405 0 l 2.21703 3.84 m 4.43405 0 l 2.21703 -3.84 m 4.43405 0 l 2.21703 3.84 m 4.43405 0 l 2.21703 -3.84 m 4.43405 0 l 2.21703 3.84 m 4.43405 0 l 2.21703 -3.84 m 4.43405 0 l 2.21703 3.84 m 4.43405 0 l 2.21703 -3.84 m 4.43405 0 l 2.21703 3.84 m 4.43405 0 l 2.21703 -3.84 m 4.43405 0 l 2.21703 3.84 m 4.43405 0 l 2.21703 -3.84 m 4.43405 0 l 2.21703 3.84 m 4.43405 0 l 2.21703 -3.84 m 4.43405 0 l 2.21703 3.84 m 4.43405 0 l 2.21703 -3.84 m 4.43405 0 l 2.21703 3.84 m 4.43405 0 l 2.21703 -3.84 m 4.43405 0 l 2.21703 3.84 m 4.43405 0 l 2.21703 -3.84 m 4.43405 0 l 2.21703 3.84 m 4.43405 0 l 2.21703 -3.84 m 4.43405 0 l 2.21703 3.84 m 4.43405 0 l 2.21703 -3.84 m 4.43405 0 l 2.21703 3.84 m 4.43405 0 l 2.21703 -3.84 m 4.43405 0 l 2.21703 3.84 m 4.43405 0 l 2.21703 -3.84 m 4.43405 0 l 2.21703 3.84 m 4.43405 0 l 2.21703 -3.84 m 4.43405 0 l 2.21703 3.84 m 4.43405 0 l 2.21703 -3.84 m 4.43405 0 l 2.21703 3.84 m 4.43405 0 l 2.21703 -3.84 m 4.43405 0 l 2.21703 3.84 m 4.43405 0 l 2.21703 -3.84 m 4.43405 0 l 2.21703 3.84 m 4.43405 0 l 2.21703 -3.84 m 4.43405 0 l 2.21703 3.84 m 4.43405 0 l 2.21703 -3.84 m 4.43405 0 l 2.21703 3.84 m 4.43405 0 l 2.21703 -3.84 m 4.43405 0 l 2.21703 3.84 m 4.43405 0 l 2.21703 -3.84 m 4.43405 0 l 2.21703 3.84 m 4.43405 0 l 2.21703 -3.84 m 4.43405 0 l 2.21703 3.84 m 4.43405 0 l 2.21703 -3.84 m 4.43405 0 l 2.21703 3.84 m 4.43405 0 l 2.21703 -3.84 m 4.43405 0 l 2.21703 3.84 m 4.43405 0 l 2.21703 -3.84 m 4.43405 0 l 2.21703 3.84 m 4.43405 0 l 2.21703 -3.84 m 4.43405 0 l 2.21703 3.84 m 4.43405 0 l 2.21703 -3.84 m 4.43405 0 l 2.21703 3.84 m 4.43405 0 l 2.21703 -3.84 m 4.43405 0 l 2.21703 3.84 m 4.43405 0 l 2.21703 -3.84 m 4.43405 0 l 2.21703 3.84 m 4.43405 0 l 2.21703 -3.84 m 4.43405 0 l 2.21703 3.84 m 4.43405 0 l 2.21703 -3.84 m 4.43405 0 l 2.21703 3.84 m 4.43405 0 l 2.21703 -3.84 m 4.43405 0 l 2.21703 3.84 m 4.43405 0 l 2.21703 -3.84 m 4.43405 0 l 2.21703 3.84 m 4.43405 0 l 2.21703 -3.84 m 4.43405 0 l 2.21703 3.84 m 4.43405 0 l 2.21703 -3.84 m 4.43405 0 l 2.21703 3.84 m 4.43405 0 l 2.21703 -3.84 m 4.43405 0 l 2.21703 3.84 m 4.43405 0 l 2.21703 -3.84 m 4.43405 0 l 2.21703 3.84 m 4.43405 0 l 2.21703 -3.84 m 4.43405 0" />
<path id="tops" d="M 0 0 l 4.43405 0 2.21703 -3.84 4.43405 0 2.21703 3.84 4.43405 0 2.21703 -3.84 4.43405 0 2.21703 3.84 4.43405 0 2.21703 -3.84 4.43405 0 2.21703 3.84 4.43405 0 2.21703 -3.84 4.43405 0 2.21703 3.84 4.43405 0 2.21703 -3.84 4.43405 0 2.21703 3.84 4.43405 0 2.21703 -3.84 4.43405 0 2.21703 3.84 4.43405 0 2.21703 -3.84 4.43405 0 2.21703 3.84 4.43405 0 2.21703 -3.84 4.43405 0 2.21703 3.84 4.43405 0 2.21703 -3.84 4.43405 0 2.21703 3.84 4.43405 0 2.21703 -3.84 4.43405 0 2.21703 3.84 4.43405 0 2.21703 -3.84 4.43405 0 2.21703 3.84 4.43405 0 2.21703 -3.84 4.43405 0 2.21703 3.84 4.43405 0 2.21703 -3.84 4.43405 0 2.21703 3.84 4.43405 0 2.21703 -3.84 4.43405 0 2.21703 3.84 4.43405 0 2.21703 -3.84 4.43405 0 2.21703 3.84 4.43405 0 2.21703 -3.84 4.43405 0 2.21703 3.84 4.43405 0 2.21703 -3.84 4.43405 0 2.21703 3.84 4.43405 0 2.21703 -3.84 4.43405 0 2.21703 3.84 4.43405 0 2.21703 -3.84 4.43405 0 2.21703 3.84 4.43405 0 2.21703 -3.84 4.43405 0 2.21703 3.84 4.43405 0 2.21703 -3.84 4.43405 0 2.21703 3.84 4.43405 0 2.21703 -3.84 4.43405 0 2.21703 3.84 4.43405 0 2.21703 -3.84 4.43405 0 2.21703 3.84 4.43405 0 2.21703 -3.84 4.43405 0 2.21703 3.84 4.43405 0 2.21703 -3.84 4.43405 0 2.21703 3.84 4.43405 0 2.21703 -3.84 4.43405 0 2.21703 3.84 4.43405 0 2.21703 -3.84 4.43405 0 2.21703 3.84 4.43405 0 2.21703 -3.84 4.43405 0 2.21703 3.84 4.43405 0 2.21703 -3.84 4.43405 0 2.21703 3.84 4.43405 0 2.21703 -3.84 4.43405 0 2.21703 3.84 4.43405 0 2.21703 -3.84 4.43405 0 2.21703 3.84 4.43405 0 2.21703 -3.84 4.43405 0 2.21703 3.84 4.43405 0 2.21703 -3.84 4.43405 0 2.21703 3.84 4.43405 0 2.21703 -3.84 4.43405 0 2.21703 3.84 4.43405 0 2.21703 -3.84 4.43405 0 2.21703 3.84 4.43405 0 2.21703 -3.84 4.43405 0 2.21703 3.84 4.43405 0 2.21703 -3.84 4.43405 0 2.21703 3.84 4.43405 0 2.21703 -3.84 4.43405 0 2.21703 3.84 4.43405 0 2.21703 -3.84 4.43405 0 2.21703 3.84 4.43405 0 2.21703 -3.84 4.43405 0 2.21703 3.84 4.43405 0 2.21703 -3.84 4.43405 0 2.21703 3.84 4.43405 0 2.21703 -3.84 4.43405 0 2.21703 3.84 4.43405 0 2.21703 -3.84 4.43405 0 2.21703 3.84 4.43405 0 2.21703 -3.84 4.43405 0 2.21703 3.84 4.43405 0 2.21703 -3.84 4.43405 0 2.21703 3.84 4.43405 0 2.21703 -3.84 4.43405 0 2.21703 3.84 4.43405 0 2.21703 -3.84 4.43405 0 2.21703 3.84 4.43405 0 2.21703 -3.84 4.43405 0 2.21703 3.84 4.43405 0 2.21703 -3.84 4.43405 0 2.21703 3.84 4.43405 0 2.21703 -3.84 4.43405 0 2.21703 3.84 4.43405 0 2.21703 -3.84 4.43405 0 2.21703 3.84 4.43405 0 2.21703 -3.84 4.43405 0 2.21703 3.84 4.43405 0 2.21703 -3.84 4.43405 0 2.21703 3.84 4.43405 0 2.21703 -3.84 4.43405 0 2.21703 3.84 4.43405 0 2.21703 -3.84 4.43405 0 2.21703 3.84 4.43405 0 2.21703 -3.84 4.43405 0 2.21703 3.84 4.43405 0 2.21703 -3.84 4.43405 0 2.21703 3.84 4.43405 0 2.21703 -3.84 4.43405 0 2.21703 3.84 4.43405 0 2.21703 -3.84 4.43405 0 2.21703 3.84 4.43405 0 2.21703 -3.84 4.43405 0 2.21703 3.84 4.43405 0 2.21703 -3.84 4.43405 0 2.21703 3.84 4.43405 0 2.21703 -3.84 4.43405 0 2.21703 3.84 4.43405 0 2.21703 -3.84 4.43405 0 2.21703 3.84 4.43405 0 2.21703 -3.84 4.43405 0 2.21703 3.84 4.43405 0 2.21703 -3.84 4.43405 0 2.21703 3.84 4.43405 0 2.21703 -3.84 4.43405 0 2.21703 3.84 4.43405 0" />
<path id="outline" d="M 0 0 l 4.43405 0 2.21703 -3.84 4.43405 0 2.21703 3.84 4.43405 0 2.21703 -3.84 4.43405 0 2.21703 3.84 4.43405 0 2.21703 -3.84 4.43405 0 2.21703 3.84 4.43405 0 2.21703 -3.84 4.43405 0 2.21703 3.84 4.43405 0 2.21703 -3.84 4.43405 0 2.21703 3.84 4.43405 0 2.21703 -3.84 4.43405 0 2.21703 3.84 4.43405 0 2.21703 -3.84 4.43405 0 2.21703 3.84 4.43405 0 2.21703 -3.84 4.43405 0 2.21703 3.84 4.43405 0 2.21703 -3.84 4.43405 0 2.21703 3.84 4.43405 0 2.21703 -3.84 4.43405 0 2.21703 3.84 4.43405 0 2.21703 -3.84 4.43405 0 2.21703 3.84 4.43405 0 2.21703 -3.84 4.43405 0 2.21703 3.84 4.43405 0 2.21703 -3.84 4.43405 0 2.21703 3.84 4.43405 0 2.21703 -3.84 4.43405 0 2.21703 3.84 4.43405 0 2.21703 -3.84 4.43405 0 2.21703 3.84 4.43405 0 2.21703 -3.84 4.43405 0 2.21703 3.84 4.43405 0 2.21703 -3.84 4.43405 0 2.21703 3.84 4.43405 0 2.21703 -3.84 4.43405 0 2.21703 3.84 4.43405 0 2.21703 -3.84 4.43405 0 2.21703 3.84 4.43405 0 2.21703 -3.84 4.43405 0 2.21703 3.84 4.43405 0 2.21703 -3.84 4.43405 0 2.21703 3.84 4.43405 0 2.21703 -3.84 4.43405 0 2.21703 3.84 4.43405 0 2.21703 -3.84 4.43405 0 2.21703 3.84 4.43405 0 2.21703 -3.84 4.43405 0 2.21703 3.84 4.43405 0 2.21703 -3.84 4.43405 0 2.21703 3.84 4.43405 0 2.21703 -3.84 4.43405 0 2.21703 3.84 4.43405 0 2.21703 -3.84 4.43405 0 2.21703 3.84 4.43405 0 2.21703 -3.84 4.43405 0 2.21703 3.84 4.43405 0 2.21703 -3.84 4.43405 0 2.21703 3.84 4.43405 0 2.21703 -3.84 4.43405 0 2.21703 3.84 4.43405 0 2.21703 -3.84 4.43405 0 2.21703 3.84 4.43405 0 2.21703 -3.84 4.43405 0 2.21703 3.84 4.43405 0 2.21703 -3.84 4.43405 0 2.21703 3.84 4.43405 0 2.21703 -3.84 4.43405 0 2.21703 3.84 4.43405 0 2.21703 -3.84 4.43405 0 2.21703 3.84 4.43405 0 2.21703 -3.84 4.43405 0 2.21703 3.84 4.43405 0 2.21703 -3.84 4.43405 0 2.21703 3.84 4.43405 0 2.21703 -3.84 4.43405 0 2.21703 3.84 4.43405 0 2.21703 -3.84 4.43405 0 2.21703 3.84 4.43405 0 2.21703 -3.84 4.43405 0 2.21703 3.84 4.43405 0 2.21703 -3.84 4.43405 0 2.21703 3.84 4.43405 0 2.21703 -3.84 4.43405 0 2.21703 3.84 4.43405 0 2.21703 -3.84 4.43405 0 2.21703 3.84 4.43405 0 2.21703 -3.84 4.43405 0 2.21703 3.84 4.43405 0 2.21703 -3.84 4.43405 0 2.21703 3.84 4.43405 0 2.21703 -3.84 4.43405 0 2.21703 3.84 4.43405 0 2.21703 -3.84 4.43405 0 2.21703 3.84 4.43405 0 2.21703 -3.84 4.43405 0 2.21703 3.84 4.43405 0 2.21703 -3.84 4.43405 0 2.21703 3.84 4.43405 0 2.21703 -3.84 4.43405 0 2.21703 3.84 4.43405 0 2.21703 -3.84 4.43405 0 2.21703 3.84 4.43405 0 2.21703 -3.84 4.43405 0 2.21703 3.84 4.43405 0 2.21703 -3.84 4.43405 0 2.21703 3.84 4.43405 0 2.21703 -3.84 4.43405 0 2.21703 3.84 4.43405 0 2.21703 -3.84 4.43405 0 2.21703 3.84 4.43405 0 2.21703 -3.84 4.43405 0 2.21703 3.84 4.43405 0 2.21703 -3.84 4.43405 0 2.21703 3.84 4.43405 0 2.21703 -3.84 4.43405 0 2.21703 3.84 4.43405 0 2.21703 -3.84 4.43405 0 2.21703 3.84 4.43405 0 2.21703 -3.84 4.43405 0 2.21703 3.84 4.43405 0 2.21703 -3.84 4.43405 0 2.21703 3.84 4.43405 0 2.21703 -3.84 4.43405 0 2.21703 3.84 4.43405 0 2.21703 -3.84 4.43405 0 2.21703 3.84 4.43405 0 2.21703 -3.84 4.43405 0 2.21703 3.84 4.43405 0 2.21703 -3.84 4.43405 0 2.21703 3.84 4.43405 0 2.21703 -3.84 4.43405 0 2.21703 3.84 4.43405 0 2.21703 3.84 -2.21703 3.84 2.21703 3.84 -2.21703 3.84 2.21703 3.84 -2.21703 3.84 2.21703 3.84 -2.21703 3.84 2.21703 3.84 -2.21703 3.84 2.21703 3.84 -2.21703 3.84 2.21703 3.84 -2.21703 3.84 2.21703 3.84 -2.21703 3.84 2.21703 3.84 -2.21703 3.84 2.21703 3.84 -2.21703 3.84 2.21703 3.84 -2.21703 3.84 2.21703 3.84 -2.21703 3.84 2.21703 3.84 -2.21703 3.84 2.21703 3.84 -2.21703 3.84 2.21703 3.84 -2.21703 3.84 2.21703 3.84 -2.21703 3.84 2.21703 3.84 -2.21703 3.84 2.21703 3.84 -2.21703 3.84 2.21703 3.84 -2.21703 3.84 2.21703 3.84 -2.21703 3.84 2.21703 3.84 -2.21703 3.84 2.21703 3.84 -2.21703 3.84 2.21703 3.84 -2.21703 3.84 2.21703 3.84 -2.21703 3.84 2.21703 3.84 -2.21703 3.84 2.21703 3.84 -2.21703 3.84 2.21703 3.84 -2.21703 3.84 2.21703 3.84 -2.21703 3.84 2.21703 3.84 -2.21703 3.84 2.21703 3.84 -2.21703 3.84 2.21703 3.84 -2.21703 3.84 2.21703 3.84 -2.21703 3.84 2.21703 3.84 -2.21703 3.84 2.21703 3.84 -2.21703 3.84 2.21703 3.84 -2.21703 3.84 2.21703 3.84 -2.21703 3.84 2.21703 3.84 -2.21703 3.84 2.21703 3.84 -2.21703 3.84 2.21703 3.84 -2.21703 3.84 2.21703 3.84 -2.21703 3.84 2.21703 3.84 -2.21703 3.84 2.21703 3.84 -2.21703 3.84 2.21703 3.84 -2.21703 3.84 2.21703 3.84 -2.21703 3.84 2.21703 3.84 -2.21703 3.84 2.21703 3.84 -2.21703 3.84 2.21703 3.84 -2.21703 3.84 2.21703 3.84 -2.21703 3.84 2.21703 3.84 -2.21703 3.84 2.21703 3.84 -2.21703 3.84 2.21703 3.84 -2.21703 3.84 2.21703 3.84 -2.21703 3.84 2.21703 3.84 -2.21703 3.84 2.21703 3.84 -2.21703 3.84 2.21703 3.84 -2.21703 3.84 2.21703 3.84 -2.21703 3.84 2.21703 3.84 -2.21703 3.84 2.21703 3.84 -2.21703 3.84 2.21703 3.84 -2.21703 3.84 2.21703 3.84 -2.21703 3.84 2.21703 3.84 -2.21703 3.84 2.21703 3.84 -2.21703 3.84 2.21703 3.84 -2.21703 3.84 2.21703 3.84 -2.21703 3.84 2.21703 3.84 -2.21703 3.84 2.21703 3.84 -2.21703 3.84 2.21703 3.84 -2.21703 3.84 2.21703 3.84 -2.21703 3.84 2.21703 3.84 -2.21703 3.84 2.21703 3.84 -2.21703 3.84 2.21703 3.84 -2.21703 3.84 2.21703 3.84 -2.21703 3.84 2.21703 3.84 -2.21703 3.84 2.21703 3.84 -2.21703 3.84 2.21703 3.84 -2.21703 3.84 2.21703 3.84 -2.21703 3.84 2.21703 3.84 -2.21703 3.84 2.21703 3.84 -2.21703 3.84 2.21703 3.84 -2.21703 3.84 2.21703 3.84 -2.21703 3.84 2.21703 3.84 -2.21703 3.84 2.21703 3.84 -2.21703 3.84 2.21703 3.84 -2.21703 3.84 2.21703 3.84 -2.21703 3.84 2.21703 3.84 -2.21703 3.84 2.21703 3.84 -2.21703 3.84 2.21703 3.84 -2.21703 3.84 2.21703 3.84 -2.21703 3.84 2.21703 3.84 -2.21703 3.84 2.21703 3.84 -2.21703 3.84 2.21703 3.84 -2.21703 3.84 2.21703 3.84 -2.21703 3.84 2.21703 3.84 -2.21703 3.84 2.21703 3.84 -2.21703 3.84 2.21703 3.84 -2.21703 3.84 2.21703 3.84 -2.21703 3.84 2.21703 3.84 -2.21703 3.84 2.21703 3.84 -2.21703 3.84 2.21703 3.84 -2.21703 3.84 2.21703 3.84 -2.21703 3.84 2.21703 3.84 -2.21703 3.84 -4.43405 0 -2.21703 -3.84 -4.43405 0 -2.21703 3.84 -4.43405 0 -2.21703 -3.84 -4.43405 0 -2.21703 3.84 -4.43405 0 -2.21703 -3.84 -4.43405 0 -2.21703 3.84 -4.43405 0 -2.21703 -3.84 -4.43405 0 -2.21703 3.84 -4.43405 0 -2.21703 -3.84 -4.43405 0 -2.21703 3.84 -4.43405 0 -2.21703 -3.84 -4.43405 0 -2.21703 3.84 -4.43405 0 -2.21703 -3.84 -4.43405 0 -2.21703 3.84 -4.43405 0 -2.21703 -3.84 -4.43405 0 -2.21703 3.84 -4.43405 0 -2.21703 -3.84 -4.43405 0 -2.21703 3.84 -4.43405 0 -2.21703 -3.84 -4.43405 0 -2.21703 3.84 -4.43405 0 -2.21703 -3.84 -4.43405 0 -2.21703 3.84 -4.43405 0 -2.21703 -3.84 -4.43405 0 -2.21703 3.84 -4.43405 0 -2.21703 -3.84 -4.43405 0 -2.21703 3.84 -4.43405 0 -2.21703 -3.84 -4.43405 0 -2.21703 3.84 -4.43405 0 -2.21703 -3.84 -4.43405 0 -2.21703 3.84 -4.43405 0 -2.21703 -3.84 -4.43405 0 -2.21703 3.84 -4.43405 0 -2.21703 -3.84 -4.43405 0 -2.21703 3.84 -4.43405 0 -2.21703 -3.84 -4.43405 0 -2.21703 3.84 -4.43405 0 -2.21703 -3.84 -4.43405 0 -2.21703 3.84 -4.43405 0 -2.21703 -3.84 -4.43405 0 -2.21703 3.84 -4.43405 0 -2.21703 -3.84 -4.43405 0 -2.21703 3.84 -4.43405 0 -2.21703 -3.84 -4.43405 0 -2.21703 3.84 -4.43405 0 -2.21703 -3.84 -4.43405 0 -2.21703 3.84 -4.43405 0 -2.21703 -3.84 -4.43405 0 -2.21703 3.84 -4.43405 0 -2.21703 -3.84 -4.43405 0 -2.21703 3.84 -4.43405 0 -2.21703 -3.84 -4.43405 0 -2.21703 3.84 -4.43405 0 -2.21703 -3.84 -4.43405 0 -2.21703 3.84 -4.43405 0 -2.21703 -3.84 -4.43405 0 -2.21703 3.84 -4.43405 0 -2.21703 -3.84 -4.43405 0 -2.21703 3.84 -4.43405 0 -2.21703 -3.84 -4.43405 0 -2.21703 3.84 -4.43405 0 -2.21703 -3.84 -4.43405 0 -2.21703 3.84 -4.43405 0 -2.21703 -3.84 -4.43405 0 -2.21703 3.84 -4.43405 0 -2.21703 -3.84 -4.43405 0 -2.21703 3.84 -4.43405 0 -2.21703 -3.84 -4.43405 0 -2.21703 3.84 -4.43405 0 -2.21703 -3.84 -4.43405 0 -2.21703 3.84 -4.43405 0 -2.21703 -3.84 -4.43405 0 -2.21703 3.84 -4.43405 0 -2.21703 -3.84 -4.43405 0 -2.21703 3.84 -4.43405 0 -2.21703 -3.84 -4.43405 0 -2.21703 3.84 -4.43405 0 -2.21703 -3.84 -4.43405 0 -2.21703 3.84 -4.43405 0 -2.21703 -3.84 -4.43405 0 -2.21703 3.84 -4.43405 0 -2.21703 -3.84 -4.43405 0 -2.21703 3.84 -4.43405 0 -2.21703 -3.84 -4.43405 0 -2.21703 3.84 -4.43405 0 -2.21703 -3.84 -4.43405 0 -2.21703 3.84 -4.43405 0 -2.21703 -3.84 -4.43405 0 -2.21703 3.84 -4.43405 0 -2.21703 -3.84 -4.43405 0 -2.21703 3.84 -4.43405 0 -2.21703 -3.84 -4.43405 0 -2.21703 3.84 -4.43405 0 -2.21703 -3.84 -4.43405 0 -2.21703 3.84 -4.43405 0 -2.21703 -3.84 -4.43405 0 -2.21703 3.84 -4.43405 0 -2.21703 -3.84 -4.43405 0 -2.21703 3.84 -4.43405 0 -2.21703 -3.84 -4.43405 0 -2.21703 3.84 -4.43405 0 -2.21703 -3.84 -4.43405 0 -2.21703 3.84 -4.43405 0 -2.21703 -3.84 -4.43405 0 -2.21703 3.84 -4.43405 0 -2.21703 -3.84 -4.43405 0 -2.21703 3.84 -4.43405 0 -2.21703 -3.84 -4.43405 0 -2.21703 3.84 -4.43405 0 -2.21703 -3.84 -4.43405 0 -2.21703 3.84 -4.43405 0 -2.21703 -3.84 -4.43405 0 -2.21703 3.84 -4.43405 0 -2.21703 -3.84 -4.43405 0 -2.21703 3.84 -4.43405 0 -2.21703 -3.84 -4.43405 0 -2.21703 3.84 -4.43405 0 -2.21703 -3.84 -4.43405 0 -2.21703 3.84 -4.43405 0 -2.21703 -3.84 -4.43405 0 -2.21703 3.84 -4.43405 0 -2.21703 -3.84 -4.43405 0 -2.21703 3.84 -4.43405 0 -2.21703 -3.84 -4.43405 0 -2.21703 3.84 -4.43405 0 -2.21703 -3.84 -4.43405 0 -2.21703 3.84 -4.43405 0 -2.21703 -3.84 -4.43405 0 -2.21703 3.84 -4.43405 0 -2.21703 -3.84 -4.43405 0 -2.21703 3.84 -4.43405 0 -2.21703 -3.84 -4.43405 0 -2.21703 3.84 -4.43405 0 -2.21703 -3.84 2.21703 -3.84 -2.21703 -3.84 2.21703 -3.84 -2.21703 -3.84 2.21703 -3.84 -2.21703 -3.84 2.21703 -3.84 -2.21703 -3.84 2.21703 -3.84 -2.21703 -3.84 2.21703 -3.84 -2.21703 -3.84 2.21703 -3.84 -2.21703 -3.84 2.21703 -3.84 -2.21703 -3.84 2.21703 -3.84 -2.21703 -3.84 2.21703 -3.84 -2.21703 -3.84 2.21703 -3.84 -2.21703 -3.84 2.21703 -3.84 -2.21703 -3.84 2.21703 -3.84 -2.21703 -3.84 2.21703 -3.84 -2.21703 -3.84 2.21703 -3.84 -2.21703 -3.84 2.21703 -3.84 -2.21703 -3.84 2.21703 -3.84 -2.21703 -3.84 2.21703 -3.84 -2.21703 -3.84 2.21703 -3.84 -2.21703 -3.84 2.21703 -3.84 -2.21703 -3.84 2.21703 -3.84 -2.21703 -3.84 2.21703 -3.84 -2.21703 -3.84 2.21703 -3.84 -2.21703 -3.84 2.21703 -3.84 -2.21703 -3.84 2.21703 -3.84 -2.21703 -3.84 2.21703 -3.84 -2.21703 -3.84 2.21703 -3.84 -2.21703 -3.84 2.21703 -3.84 -2.21703 -3.84 2.21703 -3.84 -2.21703 -3.84 2.21703 -3.84 -2.21703 -3.84 2.21703 -3.84 -2.21703 -3.84 2.21703 -3.84 -2.21703 -3.84 2.21703 -3.84 -2.21703 -3.84 2.21703 -3.84 -2.21703 -3.84 2.21703 -3.84 -2.21703 -3.84 2.21703 -3.84 -2.21703 -3.84 2.21703 -3.84 -2.21703 -3.84 2.21703 -3.84 -2.21703 -3.84 2.21703 -3.84 -2.21703 -3.84 2.21703 -3.84 -2.21703 -3.84 2.21703 -3.84 -2.21703 -3.84 2.21703 -3.84 -2.21703 -3.84 2.21703 -3.84 -2.21703 -3.84 2.21703 -3.84 -2.21703 -3.84 2.21703 -3.84 -2.21703 -3.84 2.21703 -3.84 -2.21703 -3.84 2.21703 -3.84 -2.21703 -3.84 2.21703 -3.84 -2.21703 -3.84 2.21703 -3.84 -2.21703 -3.84 2.21703 -3.84 -2.21703 -3.84 2.21703 -3.84 -2.21703 -3.84 2.21703 -3.84 -2.21703 -3.84 2.21703 -3.84 -2.21703 -3.84 2.21703 -3.84 -2.21703 -3.84 2.21703 -3.84 -2.21703 -3.84 2.21703 -3.84 -2.21703 -3.84 2.21703 -3.84 -2.21703 -3.84 2.21703 -3.84 -2.21703 -3.84 2.21703 -3.84 -2.21703 -3.84 2.21703 -3.84 -2.21703 -3.84 2.21703 -3.84 -2.21703 -3.84 2.21703 -3.84 -2.21703 -3.84 2.21703 -3.84 -2.21703 -3.84 2.21703 -3.84 -2.21703 -3.84 2.21703 -3.84 -2.21703 -3.84 2.21703 -3.84 -2.21703 -3.84 2.21703 -3.84 -2.21703 -3.84 2.21703 -3.84 -2.21703 -3.84 2.21703 -3.84 -2.21703 -3.84 2.21703 -3.84 -2.21703 -3.84 2.21703 -3.84 -2.21703 -3.84 2.21703 -3.84 -2.21703 -3.84 2.21703 -3.84 -2.21703 -3.84 2.21703 -3.84 -2.21703 -3.84 2.21703 -3.84 -2.21703 -3.84 2.21703 -3.84 -2.21703 -3.84 2.21703 -3.84 -2.21703 -3.84 2.21703 -3.84 -2.21703 -3.84 2.21703 -3.84 -2.21703 -3.84 2.21703 -3.84 -2.21703 -3.84 2.21703 -3.84 -2.21703 -3.84 2.21703 -3.84 -2.21703 -3.84 2.21703 -3.84 -2.21703 -3.84 2.21703 -3.84 -2.21703 -3.84 2.21703 -3.84 -2.21703 -3.84 2.21703 -3.84 -2.21703 -3.84 2.21703 -3.84 -2.21703 -3.84 2.21703 -3.84 -2.21703 -3.84 2.21703 -3.84 -2.21703 -3.84 2.21703 -3.84 -2.21703 -3.84 2.21703 -3.84 -2.21703 -3.84 2.21703 -3.84 -2.21703 -3.84 2.21703 -3.84 -2.21703 -3.84 2.21703 -3.84 -2.21703 -3.84 2.21703 -3.84 -2.21703 -3.84 2.21703 -3.84 -2.21703 -3.84 2.21703 -3.84 -2.21703 -3.84 2.21703 -3.84 -2.21703 -3.84 2.21703 -3.84 -2.21703 -3.84 2.21703 -3.84 -2.21703 -3.84 z" />
</defs>
<g transform="translate(780.02,0.25) rotate(90)">
<g id="grid" style="fill: none; stroke: #000000; stroke-opacity: 1; stroke-width: 0.5; ">
<use x="2.21703" y="3.84" xlink:href="#outline" />
<use x="6.65108" y="3.84" xlink:href="#bottoms" />
<use x="2.21703" y="11.52" xlink:href="#tops" />
<use x="6.65108" y="11.52" xlink:href="#bottoms" />
<use x="2.21703" y="19.2" xlink:href="#tops" />
<use x="6.65108" y="19.2" xlink:href="#bottoms" />
<use x="2.21703" y="26.88" xlink:href="#tops" />
<use x="6.65108" y="26.88" xlink:href="#bottoms" />
<use x="2.21703" y="34.56" xlink:href="#tops" />
<use x="6.65108" y="34.56" xlink:href="#bottoms" />
<use x="2.21703" y="42.24" xlink:href="#tops" />
<use x="6.65108" y="42.24" xlink:href="#bottoms" />
<use x="2.21703" y="49.92" xlink:href="#tops" />
<use x="6.65108" y="49.92" xlink:href="#bottoms" />
<use x="2.21703" y="57.6" xlink:href="#tops" />
<use x="6.65108" y="57.6" xlink:href="#bottoms" />
<use x="2.21703" y="65.28" xlink:href="#tops" />
<use x="6.65108" y="65.28" xlink:href="#bottoms" />
<use x="2.21703" y="72.96" xlink:href="#tops" />
<use x="6.65108" y="72.96" xlink:href="#bottoms" />
<use x="2.21703" y="80.64" xlink:href="#tops" />
<use x="6.65108" y="80.64" xlink:href="#bottoms" />
<use x="2.21703" y="88.32" xlink:href="#tops" />
<use x="6.65108" y="88.32" xlink:href="#bottoms" />
<use x="2.21703" y="96" xlink:href="#tops" />
<use x="6.65108" y="96" xlink:href="#bottoms" />
<use x="2.21703" y="103.68" xlink:href="#tops" />
<use x="6.65108" y="103.68" xlink:href="#bottoms" />
<use x="2.21703" y="111.36" xlink:href="#tops" />
<use x="6.65108" y="111.36" xlink:href="#bottoms" />
<use x="2.21703" y="119.04" xlink:href="#tops" />
<use x="6.65108" y="119.04" xlink:href="#bottoms" />
<use x="2.21703" y="126.72" xlink:href="#tops" />
<use x="6.65108" y="126.72" xlink:href="#bottoms" />
<use x="2.21703" y="134.4" xlink:href="#tops" />
<use x="6.65108" y="134.4" xlink:href="#bottoms" />
<use x="2.21703" y="142.08" xlink:href="#tops" />
<use x="6.65108" y="142.08" xlink:href="#bottoms" />
<use x="2.21703" y="149.76" xlink:href="#tops" />
<use x="6.65108" y="149.76" xlink:href="#bottoms" />
<use x="2.21703" y="157.44" xlink:href="#tops" />
<use x="6.65108" y="157.44" xlink:href="#bottoms" />
<use x="2.21703" y="165.12" xlink:href="#tops" />
<use x="6.65108" y="165.12" xlink:href="#bottoms" />
<use x="2.21703" y="172.8" xlink:href="#tops" />
<use x="6.65108" y="172.8" xlink:href="#bottoms" />
<use x="2.21703" y="180.48" xlink:href="#tops" />
<use x="6.65108" y="180.48" xlink:href="#bottoms" />
<use x="2.21703" y="188.16" xlink:href="#tops" />
<use x="6.65108" y="188.16" xlink:href="#bottoms" />
<use x="2.21703" y="195.84" xlink:href="#tops" />
<use x="6.65108" y="195.84" xlink:href="#bottoms" />
<use x="2.21703" y="203.52" xlink:href="#tops" />
<use x="6.65108" y="203.52" xlink:href="#bottoms" />
<use x="2.21703" y="211.2" xlink:href="#tops" />
<use x="6.65108" y="211.2" xlink:href="#bottoms" />
<use x="2.21703" y="218.88" xlink:href="#tops" />
<use x="6.65108" y="218.88" xlink:href="#bottoms" />
<use x="2.21703" y="226.56" xlink:href="#tops" />
<use x="6.65108" y="226.56" xlink:href="#bottoms" />
<use x="2.21703" y="234.24" xlink:href="#tops" />
<use x="6.65108" y="234.24" xlink:href="#bottoms" />
<use x="2.21703" y="241.92" xlink:href="#tops" />
<use x="6.65108" y="241.92" xlink:href="#bottoms" />
<use x="2.21703" y="249.6" xlink:href="#tops" />
<use x="6.65108" y="249.6" xlink:href="#bottoms" />
<use x="2.21703" y="257.28" xlink:href="#tops" />
<use x="6.65108" y="257.28" xlink:href="#bottoms" />
<use x="2.21703" y="264.96" xlink:href="#tops" />
<use x="6.65108" y="264.96" xlink:href="#bottoms" />
<use x="2.21703" y="272.64" xlink:href="#tops" />
<use x="6.65108" y="272.64" xlink:href="#bottoms" />
<use x="2.21703" y="280.32" xlink:href="#tops" />
<use x="6.65108" y="280.32" xlink:href="#bottoms" />
<use x="2.21703" y="288" xlink:href="#tops" />
<use x="6.65108" y="288" xlink:href="#bottoms" />
<use x="2.21703" y="295.68" xlink:href="#tops" />
<use x="6.65108" y="295.68" xlink:href="#bottoms" />
<use x="2.21703" y="303.36" xlink:href="#tops" />
<use x="6.65108" y="303.36" xlink:href="#bottoms" />
<use x="2.21703" y="311.04" xlink:href="#tops" />
<use x="6.65108" y="311.04" xlink:href="#bottoms" />
<use x="2.21703" y="318.72" xlink:href="#tops" />
<use x="6.65108" y="318.72" xlink:href="#bottoms" />
<use x="2.21703" y="326.4" xlink:href="#tops" />
<use x="6.65108" y="326.4" xlink:href="#bottoms" />
<use x="2.21703" y="334.08" xlink:href="#tops" />
<use x="6.65108" y="334.08" xlink:href="#bottoms" />
<use x="2.21703" y="341.76" xlink:href="#tops" />
<use x="6.65108" y="341.76" xlink:href="#bottoms" />
<use x="2.21703" y="349.44" xlink:href="#tops" />
<use x="6.65108" y="349.44" xlink:href="#bottoms" />
<use x="2.21703" y="357.12" xlink:href="#tops" />
<use x="6.65108" y="357.12" xlink:href="#bottoms" />
<use x="2.21703" y="364.8" xlink:href="#tops" />
<use x="6.65108" y="364.8" xlink:href="#bottoms" />
<use x="2.21703" y="372.48" xlink:href="#tops" />
<use x="6.65108" y="372.48" xlink:href="#bottoms" />
<use x="2.21703" y="380.16" xlink:href="#tops" />
<use x="6.65108" y="380.16" xlink:href="#bottoms" />
<use x="2.21703" y="387.84" xlink:href="#tops" />
<use x="6.65108" y="387.84" xlink:href="#bottoms" />
<use x="2.21703" y="395.52" xlink:href="#tops" />
<use x="6.65108" y="395.52" xlink:href="#bottoms" />
<use x="2.21703" y="403.2" xlink:href="#tops" />
<use x="6.65108" y="403.2" xlink:href="#bottoms" />
<use x="2.21703" y="410.88" xlink:href="#tops" />
<use x="6.65108" y="410.88" xlink:href="#bottoms" />
<use x="2.21703" y="418.56" xlink:href="#tops" />
<use x="6.65108" y="418.56" xlink:href="#bottoms" />
<use x="2.21703" y="426.24" xlink:href="#tops" />
<use x="6.65108" y="426.24" xlink:href="#bottoms" />
<use x="2.21703" y="433.92" xlink:href="#tops" />
<use x="6.65108" y="433.92" xlink:href="#bottoms" />
<use x="2.21703" y="441.6" xlink:href="#tops" />
<use x="6.65108" y="441.6" xlink:href="#bottoms" />
<use x="2.21703" y="449.28" xlink:href="#tops" />
<use x="6.65108" y="449.28" xlink:href="#bottoms" />
<use x="2.21703" y="456.96" xlink:href="#tops" />
<use x="6.65108" y="456.96" xlink:href="#bottoms" />
<use x="2.21703" y="464.64" xlink:href="#tops" />
<use x="6.65108" y="464.64" xlink:href="#bottoms" />
<use x="2.21703" y="472.32" xlink:href="#tops" />
<use x="6.65108" y="472.32" xlink:href="#bottoms" />
<use x="2.21703" y="480" xlink:href="#tops" />
<use x="6.65108" y="480" xlink:href="#bottoms" />
<use x="2.21703" y="487.68" xlink:href="#tops" />
<use x="6.65108" y="487.68" xlink:href="#bottoms" />
<use x="2.21703" y="495.36" xlink:href="#tops" />
<use x="6.65108" y="495.36" xlink:href="#bottoms" />
<use x="2.21703" y="503.04" xlink:href="#tops" />
<use x="6.65108" y="503.04" xlink:href="#bottoms" />
<use x="2.21703" y="510.72" xlink:href="#tops" />
<use x="6.65108" y="510.72" xlink:href="#bottoms" />
<use x="2.21703" y="518.4" xlink:href="#tops" />
<use x="6.65108" y="518.4" xlink:href="#bottoms" />
<use x="2.21703" y="526.08" xlink:href="#tops" />
<use x="6.65108" y="526.08" xlink:href="#bottoms" />
<use x="2.21703" y="533.76" xlink:href="#tops" />
<use x="6.65108" y="533.76" xlink:href="#bottoms" />
<use x="2.21703" y="541.44" xlink:href="#tops" />
<use x="6.65108" y="541.44" xlink:href="#bottoms" />
<use x="2.21703" y="549.12" xlink:href="#tops" />
<use x="6.65108" y="549.12" xlink:href="#bottoms" />
<use x="2.21703" y="556.8" xlink:href="#tops" />
<use x="6.65108" y="556.8" xlink:href="#bottoms" />
<use x="2.21703" y="564.48" xlink:href="#tops" />
<use x="6.65108" y="564.48" xlink:href="#bottoms" />
<use x="2.21703" y="572.16" xlink:href="#tops" />
<use x="6.65108" y="572.16" xlink:href="#bottoms" />
<use x="2.21703" y="579.84" xlink:href="#tops" />
<use x="6.65108" y="579.84" xlink:href="#bottoms" />
<use x="2.21703" y="587.52" xlink:href="#tops" />
<use x="6.65108" y="587.52" xlink:href="#bottoms" />
<use x="2.21703" y="595.2" xlink:href="#tops" />
<use x="6.65108" y="595.2" xlink:href="#bottoms" />
<use x="2.21703" y="602.88" xlink:href="#tops" />
<use x="6.65108" y="602.88" xlink:href="#bottoms" />
<use x="2.21703" y="610.56" xlink:href="#tops" />
<use x="6.65108" y="610.56" xlink:href="#bottoms" />
<use x="2.21703" y="618.24" xlink:href="#tops" />
<use x="6.65108" y="618.24" xlink:href="#bottoms" />
<use x="2.21703" y="625.92" xlink:href="#tops" />
<use x="6.65108" y="625.92" xlink:href="#bottoms" />
<use x="2.21703" y="633.6" xlink:href="#tops" />
<use x="6.65108" y="633.6" xlink:href="#bottoms" />
<use x="2.21703" y="641.28" xlink:href="#tops" />
<use x="6.65108" y="641.28" xlink:href="#bottoms" />
<use x="2.21703" y="648.96" xlink:href="#tops" />
<use x="6.65108" y="648.96" xlink:href="#bottoms" />
<use x="2.21703" y="656.64" xlink:href="#tops" />
<use x="6.65108" y="656.64" xlink:href="#bottoms" />
<use x="2.21703" y="664.32" xlink:href="#tops" />
<use x="6.65108" y="664.32" xlink:href="#bottoms" />
<use x="2.21703" y="672" xlink:href="#tops" />
<use x="6.65108" y="672" xlink:href="#bottoms" />
<use x="2.21703" y="679.68" xlink:href="#tops" />
<use x="6.65108" y="679.68" xlink:href="#bottoms" />
<use x="2.21703" y="687.36" xlink:href="#tops" />
<use x="6.65108" y="687.36" xlink:href="#bottoms" />
<use x="2.21703" y="695.04" xlink:href="#tops" />
<use x="6.65108" y="695.04" xlink:href="#bottoms" />
<use x="2.21703" y="702.72" xlink:href="#tops" />
<use x="6.65108" y="702.72" xlink:href="#bottoms" />
<use x="2.21703" y="710.4" xlink:href="#tops" />
<use x="6.65108" y="710.4" xlink:href="#bottoms" />
<use x="2.21703" y="718.08" xlink:href="#tops" />
<use x="6.65108" y="718.08" xlink:href="#bottoms" />
<use x="2.21703" y="725.76" xlink:href="#tops" />
<use x="6.65108" y="725.76" xlink:href="#bottoms" />
<use x="2.21703" y="733.44" xlink:href="#tops" />
<use x="6.65108" y="733.44" xlink:href="#bottoms" />
<use x="2.21703" y="741.12" xlink:href="#tops" />
<use x="6.65108" y="741.12" xlink:href="#bottoms" />
<use x="2.21703" y="748.8" xlink:href="#tops" />
<use x="6.65108" y="748.8" xlink:href="#bottoms" />
<use x="2.21703" y="756.48" xlink:href="#tops" />
<use x="6.65108" y="756.48" xlink:href="#bottoms" />
<use x="2.21703" y="764.16" xlink:href="#tops" />
<use x="6.65108" y="764.16" xlink:href="#bottoms" />
<use x="2.21703" y="771.84" xlink:href="#tops" />
<use x="6.65108" y="771.84" xlink:href="#bottoms" />
</g>
</g>
</svg>
