<?xml version="1.0" standalone="no"?>
<!DOCTYPE svg PUBLIC "-//W3C//DTD SVG 1.1//EN"
   "http://www.w3.org/Graphics/SVG/1.1/DTD/svg11.dtd">
<svg width="820.864" height="887.31" version="1.1"
   xmlns="http://www.w3.org/2000/svg"
   xmlns:xlink="http://www.w3.org/1999/xlink">
<defs>
<path id="bottoms" d="M 0 0 l 10.0774 17.4545 m 20.1548 0 l 10.0774 -17.4545 m 20.1548 0 l 10.0774 17.4545 m 20.1548 0 l 10.0774 -17.4545 m 20.1548 0 l 10.0774 17.4545 m 20.1548 0 l 10.0774 -17.4545 m 20.1548 0 l 10.0774 17.4545 m 20.1548 0 l 10.0774 -17.4545 m 20.1548 0 l 10.0774 17.4545 m 20.1548 0 l 10.0774 -17.4545 m 20.1548 0 l 10.0774 17.4545 m 20.1548 0 l 10.0774 -17.4545 m 20.1548 0 l 10.0774 17.4545 m 20.1548 0 l 10.0774 -17.4545 m 20.1548 0 l 10.0774 17.4545 m 20.1548 0 l 10.0774 -17.4545 m 20.1548 0 l 10.0774 17.4545 m 20.1548 0 l 10.0774 -17.4545 m 20.1548 0 l 10.0774 17.4545 m 20.1548 0 l 10.0774 -17.4545 m 20.1548 0 l 10.0774 17.4545 m 20.1548 0 l 10.0774 -17.4545 m 20.1548 0 l 10.0774 17.4545 m 20.1548 0 l 10.0774 -17.4545 m 20.1548 0 l 10.0774 17.4545 m 20.1548 0 l 10.0774 -17.4545 m 20.1548 0 l 10.0774 17.4545 m 20.1548 0 l 10.0774 -17.4545 m 20.1548 0" />
<path id="tops" d="M 0 0 l 20.1548 0 10.0774 -17.4545 20.1548 0 10.0774 17.4545 20.1548 0 10.0774 -17.4545 20.1548 0 10.0774 17.4545 20.1548 0 10.0774 -17.4545 20.1548 0 10.0774 17.4545 20.1548 0 10.0774 -17.4545 20.1548 0 10.0774 17.4545 20.1548 0 10.0774 -17.4545 20.1548 0 10.0774 17.4545 20.1548 0 10.0774 -17.4545 20.1548 0 10.0774 17.4545 20.1548 0 10.0774 -17.4545 20.1548 0 10.0774 17.4545 20.1548 0 10.0774 -17.4545 20.1548 0 10.0774 17.4545 20.1548 0 10.0774 -17.4545 20.1548 0 10.0774 17.4545 20.1548 0 10.0774 -17.4545 20.1548 0 10.0774 17.4545 20.1548 0 10.0774 -17.4545 20.1548 0 10.0774 17.4545 20.1548 0 10.0774 -17.4545 20.1548 0 10.0774 17.4545 20.1548 0 10.0774 -17.4545 20.1548 0 10.0774 17.4545 20.1548 0 10.0774 -17.4545 20.1548 0 10.0774 17.4545 20.1548 0" />
<path id="outline" d="M 0 0 l 20.1548 0 10.0774 -17.4545 20.1548 0 10.0774 17.4545 20.1548 0 10.0774 -17.4545 20.1548 0 10.0774 17.4545 20.1548 0 10.0774 -17.4545 20.1548 0 10.0774 17.4545 20.1548 0 10.0774 -17.4545 20.1548 0 10.0774 17.4545 20.1548 0 10.0774 -17.4545 20.1548 0 10.0774 17.4545 20.1548 0 10.0774 -17.4545 20.1548 0 10.0774 17.4545 20.1548 0 10.0774 -17.4545 20.1548 0 10.0774 17.4545 20.1548 0 10.0774 -17.4545 20.1548 0 10.0774 17.4545 20.1548 0 10.0774 -17.4545 20.1548 0 10.0774 17.4545 20.1548 0 10.0774 -17.4545 20.1548 0 10.0774 17.4545 20.1548 0 10.0774 -17.4545 20.1548 0 10.0774 17.4545 20.1548 0 10.0774 -17.4545 20.1548 0 10.0774 17.4545 20.1548 0 10.0774 -17.4545 20.1548 0 10.0774 17.4545 20.1548 0 10.0774 -17.4545 20.1548 0 10.0774 17.4545 20.1548 0 10.0774 17.4545 -10.0774 17.4545 10.0774 17.4545 -10.0774 17.4545 10.0774 17.4545 -10.0774 17.4545 10.0774 17.4545 -10.0774 17.4545 10.0774 17.4545 -10.0774 17.4545 10.0774 17.4545 -10.0774 17.4545 10.0774 17.4545 -10.0774 17.4545 10.0774 17.4545 -10.0774 17.4545 10.0774 17.4545 -10.0774 17.4545 10.0774 17.4545 -10.0774 17.4545 10.0774 17.4545 -10.0774 17.4545 10.0774 17.4545 -10.0774 17.4545 10.0774 17.4545 -10.0774 17.4545 10.0774 17.4545 -10.0774 17.4545 10.0774 17.4545 -10.0774 17.4545 10.0774 17.4545 -10.0774 17.4545 10.0774 17.4545 -10.0774 17.4545 10.0774 17.4545 -10.0774 17.4545 10.0774 17.4545 -10.0774 17.4545 10.0774 17.4545 -10.0774 17.4545 10.0774 17.4545 -10.0774 17.4545 10.0774 17.4545 -10.0774 17.4545 10.0774 17.4545 -10.0774 17.4545 -20.1548 0 -10.0774 -17.4545 -20.1548 0 -10.0774 17.4545 -20.1548 0 -10.0774 -17.4545 -20.1548 0 -10.0774 17.4545 -20.1548 0 -10.0774 -17.4545 -20.1548 0 -10.0774 17.4545 -20.1548 0 -10.0774 -17.4545 -20.1548 0 -10.0774 17.4545 -20.1548 0 -10.0774 -17.4545 -20.1548 0 -10.0774 17.4545 -20.1548 0 -10.0774 -17.4545 -20.1548 0 -10.0774 17.4545 -20.1548 0 -10.0774 -17.4545 -20.1548 0 -10.0774 17.4545 -20.1548 0 -10.0774 -17.4545 -20.1548 0 -10.0774 17.4545 -20.1548 0 -10.0774 -17.4545 -20.1548 0 -10.0774 17.4545 -20.1548 0 -10.0774 -17.4545 -20.1548 0 -10.0774 17.4545 -20.1548 0 -10.0774 -17.4545 -20.1548 0 -10.0774 17.4545 -20.1548 0 -10.0774 -17.4545 -20.1548 0 -10.0774 17.4545 -20.1548 0 -10.0774 -17.4545 -20.1548 0 -10.0774 17.4545 -20.1548 0 -10.0774 -17.4545 -20.1548 0 -10.0774 17.4545 -20.1548 0 -10.0774 -17.4545 10.0774 -17.4545 -10.0774 -17.4545 10.0774 -17.4545 -10.0774 -17.4545 10.0774 -17.4545 -10.0774 -17.4545 10.0774 -17.4545 -10.0774 -17.4545 10.0774 -17.4545 -10.0774 -17.4545 10.0774 -17.4545 -10.0774 -17.4545 10.0774 -17.4545 -10.0774 -17.4545 10.0774 -17.4545 -10.0774 -17.4545 10.0774 -17.4545 -10.0774 -17.4545 10.0774 -17.4545 -10.0774 -17.4545 10.0774 -17.4545 -10.0774 -17.4545 10.0774 -17.4545 -10.0774 -17.4545 10.0774 -17.4545 -10.0774 -17.4545 10.0774 -17.4545 -10.0774 -17.4545 10.0774 -17.4545 -10.0774 -17.4545 10.0774 -17.4545 -10.0774 -17.4545 10.0774 -17.4545 -10.0774 -17.4545 10.0774 -17.4545 -10.0774 -17.4545 10.0774 -17.4545 -10.0774 -17.4545 10.0774 -17.4545 -10.0774 -17.4545 10.0774 -17.4545 -10.0774 -17.4545 10.0774 -17.4545 -10.0774 -17.4545 z" />
</defs>
<g transform="translate(820.864,0.25) rotate(90)">
<g id="grid" style="fill: none; stroke: #000000; stroke-opacity: 1; stroke-width: 0.5; ">
<use x="10.0774" y="17.4545" xlink:href="#outline" />
<use x="30.2322" y="17.4545" xlink:href="#bottoms" />
<use x="10.0774" y="52.3636" xlink:href="#tops" />
<use x="30.2322" y="52.3636" xlink:href="#bottoms" />
<use x="10.0774" y="87.2727" xlink:href="#tops" />
<use x="30.2322" y="87.2727" xlink:href="#bottoms" />
<use x="10.0774" y="122.182" xlink:href="#tops" />
<use x="30.2322" y="122.182" xlink:href="#bottoms" />
<use x="10.0774" y="157.091" xlink:href="#tops" />
<use x="30.2322" y="157.091" xlink:href="#bottoms" />
<use x="10.0774" y="192" xlink:href="#tops" />
<use x="30.2322" y="192" xlink:href="#bottoms" />
<use x="10.0774" y="226.909" xlink:href="#tops" />
<use x="30.2322" y="226.909" xlink:href="#bottoms" />
<use x="10.0774" y="261.818" xlink:href="#tops" />
<use x="30.2322" y="261.818" xlink:href="#bottoms" />
<use x="10.0774" y="296.727" xlink:href="#tops" />
<use x="30.2322" y="296.727" xlink:href="#bottoms" />
<use x="10.0774" y="331.636" xlink:href="#tops" />
<use x="30.2322" y="331.636" xlink:href="#bottoms" />
<use x="10.0774" y="366.545" xlink:href="#tops" />
<use x="30.2322" y="366.545" xlink:href="#bottoms" />
<use x="10.0774" y="401.455" xlink:href="#tops" />
<use x="30.2322" y="401.455" xlink:href="#bottoms" />
<use x="10.0774" y="436.364" xlink:href="#tops" />
<use x="30.2322" y="436.364" xlink:href="#bottoms" />
<use x="10.0774" y="471.273" xlink:href="#tops" />
<use x="30.2322" y="471.273" xlink:href="#bottoms" />
<use x="10.0774" y="506.182" xlink:href="#tops" />
<use x="30.2322" y="506.182" xlink:href="#bottoms" />
<use x="10.0774" y="541.091" xlink:href="#tops" />
<use x="30.2322" y="541.091" xlink:href="#bottoms" />
<use x="10.0774" y="576" xlink:href="#tops" />
<use x="30.2322" y="576" xlink:href="#bottoms" />
<use x="10.0774" y="610.909" xlink:href="#tops" />
<use x="30.2322" y="610.909" xlink:href="#bottoms" />
<use x="10.0774" y="645.818" xlink:href="#tops" />
<use x="30.2322" y="645.818" xlink:href="#bottoms" />
<use x="10.0774" y="680.727" xlink:href="#tops" />
<use x="30.2322" y="680.727" xlink:href="#bottoms" />
<use x="10.0774" y="715.636" xlink:href="#tops" />
<use x="30.2322" y="715.636" xlink:href="#bottoms" />
<use x="10.0774" y="750.545" xlink:href="#tops" />
<use x="30.2322" y="750.545" xlink:href="#bottoms" />
<use x="10.0774" y="785.455" xlink:href="#tops" />
<use x="30.2322" y="785.455" xlink:href="#bottoms" />
</g>
<g id="coordinates" style="fill: #000000; fill-opacity: 1; font-family: Atkinson Hyperlegible; font-size: 8px; text-anchor: middle; ">
<text x="32.1548" y="34.9091" transform="rotate(-90 32.1548 34.9091)">23,29</text>
<text x="62.3869" y="17.4545" transform="rotate(-90 62.3869 17.4545)">23,28</text>
<text x="92.6191" y="34.9091" transform="rotate(-90 92.6191 34.9091)">23,27</text>
<text x="122.851" y="17.4545" transform="rotate(-90 122.851 17.4545)">23,26</text>
<text x="153.083" y="34.9091" transform="rotate(-90 153.083 34.9091)">23,25</text>
<text x="183.316" y="17.4545" transform="rotate(-90 183.316 17.4545)">23,24</text>
<text x="213.548" y="34.9091" transform="rotate(-90 213.548 34.9091)">23,23</text>
<text x="243.78" y="17.4545" transform="rotate(-90 243.78 17.4545)">23,22</text>
<text x="274.012" y="34.9091" transform="rotate(-90 274.012 34.9091)">23,21</text>
<text x="304.244" y="17.4545" transform="rotate(-90 304.244 17.4545)">23,20</text>
<text x="334.476" y="34.9091" transform="rotate(-90 334.476 34.9091)">23,19</text>
<text x="364.709" y="17.4545" transform="rotate(-90 364.709 17.4545)">23,18</text>
<text x="394.941" y="34.9091" transform="rotate(-90 394.941 34.9091)">23,17</text>
<text x="425.173" y="17.4545" transform="rotate(-90 425.173 17.4545)">23,16</text>
<text x="455.405" y="34.9091" transform="rotate(-90 455.405 34.9091)">23,15</text>
<text x="485.637" y="17.4545" transform="rotate(-90 485.637 17.4545)">23,14</text>
<text x="515.869" y="34.9091" transform="rotate(-90 515.869 34.9091)">23,13</text>
<text x="546.101" y="17.4545" transform="rotate(-90 546.101 17.4545)">23,12</text>
<text x="576.334" y="34.9091" transform="rotate(-90 576.334 34.9091)">23,11</text>
<text x="606.566" y="17.4545" transform="rotate(-90 606.566 17.4545)">23,10</text>
<text x="636.798" y="34.9091" transform="rotate(-90 636.798 34.9091)">23,9</text>
<text x="667.03" y="17.4545" transform="rotate(-90 667.03 17.4545)">23,8</text>
<text x="697.262" y="34.9091" transform="rotate(-90 697.262 34.9091)">23,7</text>
<text x="727.494" y="17.4545" transform="rotate(-90 727.494 17.4545)">23,6</text>
<text x="757.727" y="34.9091" transform="rotate(-90 757.727 34.9091)">23,5</text>
<text x="787.959" y="17.4545" transform="rotate(-90 787.959 17.4545)">23,4</text>
<text x="818.191" y="34.9091" transform="rotate(-90 818.191 34.9091)">23,3</text>
<text x="848.423" y="17.4545" transform="rotate(-90 848.423 17.4545)">23,2</text>
<text x="878.655" y="34.9091" transform="rotate(-90 878.655 34.9091)">23,1</text>
<text x="32.1548" y="69.8182" transform="rotate(-90 32.1548 69.8182)">22,29</text>
<text x="62.3869" y="52.3636" transform="rotate(-90 62.3869 52.3636)">22,28</text>
<text x="92.6191" y="69.8182" transform="rotate(-90 92.6191 69.8182)">22,27</text>
<text x="122.851" y="52.3636" transform="rotate(-90 122.851 52.3636)">22,26</text>
<text x="153.083" y="69.8182" transform="rotate(-90 153.083 69.8182)">22,25</text>
<text x="183.316" y="52.3636" transform="rotate(-90 183.316 52.3636)">22,24</text>
<text x="213.548" y="69.8182" transform="rotate(-90 213.548 69.8182)">22,23</text>
<text x="243.78" y="52.3636" transform="rotate(-90 243.78 52.3636)">22,22</text>
<text x="274.012" y="69.8182" transform="rotate(-90 274.012 69.8182)">22,21</text>
<text x="304.244" y="52.3636" transform="rotate(-90 304.244 52.3636)">22,20</text>
<text x="334.476" y="69.8182" transform="rotate(-90 334.476 69.8182)">22,19</text>
<text x="364.709" y="52.3636" transform="rotate(-90 364.709 52.3636)">22,18</text>
<text x="394.941" y="69.8182" transform="rotate(-90 394.941 69.8182)">22,17</text>
<text x="425.173" y="52.3636" transform="rotate(-90 425.173 52.3636)">22,16</text>
<text x="455.405" y="69.8182" transform="rotate(-90 455.405 69.8182)">22,15</text>
<text x="485.637" y="52.3636" transform="rotate(-90 485.637 52.3636)">22,14</text>
<text x="515.869" y="69.8182" transform="rotate(-90 515.869 69.8182)">22,13</text>
<text x="546.101" y="52.3636" transform="rotate(-90 546.101 52.3636)">22,12</text>
<text x="576.334" y="69.8182" transform="rotate(-90 576.334 69.8182)">22,11</text>
<text x="606.566" y="52.3636" transform="rotate(-90 606.566 52.3636)">22,10</text>
<text x="636.798" y="69.8182" transform="rotate(-90 636.798 69.8182)">22,9</text>
<text x="667.03" y="52.3636" transform="rotate(-90 667.03 52.3636)">22,8</text>
<text x="697.262" y="69.8182" transform="rotate(-90 697.262 69.8182)">22,7</text>
<text x="727.494" y="52.3636" transform="rotate(-90 727.494 52.3636)">22,6</text>
<text x="757.727" y="69.8182" transform="rotate(-90 757.727 69.8182)">22,5</text>
<text x="787.959" y="52.3636" transform="rotate(-90 787.959 52.3636)">22,4</text>
<text x="818.191" y="69.8182" transform="rotate(-90 818.191 69.8182)">22,3</text>
<text x="848.423" y="52.3636" transform="rotate(-90 848.423 52.3636)">22,2</text>
<text x="878.655" y="69.8182" transform="rotate(-90 878.655 69.8182)">22,1</text>
<text x="32.1548" y="104.727" transform="rotate(-90 32.1548 104.727)">21,29</text>
<text x="62.3869" y="87.2727" transform="rotate(-90 62.3869 87.2727)">21,28</text>
<text x="92.6191" y="104.727" transform="rotate(-90 92.6191 104.727)">21,27</text>
<text x="122.851" y="87.2727" transform="rotate(-90 122.851 87.2727)">21,26</text>
<text x="153.083" y="104.727" transform="rotate(-90 153.083 104.727)">21,25</text>
<text x="183.316" y="87.2727" transform="rotate(-90 183.316 87.2727)">21,24</text>
<text x="213.548" y="104.727" transform="rotate(-90 213.548 104.727)">21,23</text>
<text x="243.78" y="87.2727" transform="rotate(-90 243.78 87.2727)">21,22</text>
<text x="274.012" y="104.727" transform="rotate(-90 274.012 104.727)">21,21</text>
<text x="304.244" y="87.2727" transform="rotate(-90 304.244 87.2727)">21,20</text>
<text x="334.476" y="104.727" transform="rotate(-90 334.476 104.727)">21,19</text>
<text x="364.709" y="87.2727" transform="rotate(-90 364.709 87.2727)">21,18</text>
<text x="394.941" y="104.727" transform="rotate(-90 394.941 104.727)">21,17</text>
<text x="425.173" y="87.2727" transform="rotate(-90 425.173 87.2727)">21,16</text>
<text x="455.405" y="104.727" transform="rotate(-90 455.405 104.727)">21,15</text>
<text x="485.637" y="87.2727" transform="rotate(-90 485.637 87.2727)">21,14</text>
<text x="515.869" y="104.727" transform="rotate(-90 515.869 104.727)">21,13</text>
<text x="546.101" y="87.2727" transform="rotate(-90 546.101 87.2727)">21,12</text>
<text x="576.334" y="104.727" transform="rotate(-90 576.334 104.727)">21,11</text>
<text x="606.566" y="87.2727" transform="rotate(-90 606.566 87.2727)">21,10</text>
<text x="636.798" y="104.727" transform="rotate(-90 636.798 104.727)">21,9</text>
<text x="667.03" y="87.2727" transform="rotate(-90 667.03 87.2727)">21,8</text>
<text x="697.262" y="104.727" transform="rotate(-90 697.262 104.727)">21,7</text>
<text x="727.494" y="87.2727" transform="rotate(-90 727.494 87.2727)">21,6</text>
<text x="757.727" y="104.727" transform="rotate(-90 757.727 104.727)">21,5</text>
<text x="787.959" y="87.2727" transform="rotate(-90 787.959 87.2727)">21,4</text>
<text x="818.191" y="104.727" transform="rotate(-90 818.191 104.727)">21,3</text>
<text x="848.423" y="87.2727" transform="rotate(-90 848.423 87.2727)">21,2</text>
<text x="878.655" y="104.727" transform="rotate(-90 878.655 104.727)">21,1</text>
<text x="32.1548" y="139.636" transform="rotate(-90 32.1548 139.636)">20,29</text>
<text x="62.3869" y="122.182" transform="rotate(-90 62.3869 122.182)">20,28</text>
<text x="92.6191" y="139.636" transform="rotate(-90 92.6191 139.636)">20,27</text>
<text x="122.851" y="122.182" transform="rotate(-90 122.851 122.182)">20,26</text>
<text x="153.083" y="139.636" transform="rotate(-90 153.083 139.636)">20,25</text>
<text x="183.316" y="122.182" transform="rotate(-90 183.316 122.182)">20,24</text>
<text x="213.548" y="139.636" transform="rotate(-90 213.548 139.636)">20,23</text>
<text x="243.78" y="122.182" transform="rotate(-90 243.78 122.182)">20,22</text>
<text x="274.012" y="139.636" transform="rotate(-90 274.012 139.636)">20,21</text>
<text x="304.244" y="122.182" transform="rotate(-90 304.244 122.182)">20,20</text>
<text x="334.476" y="139.636" transform="rotate(-90 334.476 139.636)">20,19</text>
<text x="364.709" y="122.182" transform="rotate(-90 364.709 122.182)">20,18</text>
<text x="394.941" y="139.636" transform="rotate(-90 394.941 139.636)">20,17</text>
<text x="425.173" y="122.182" transform="rotate(-90 425.173 122.182)">20,16</text>
<text x="455.405" y="139.636" transform="rotate(-90 455.405 139.636)">20,15</text>
<text x="485.637" y="122.182" transform="rotate(-90 485.637 122.182)">20,14</text>
<text x="515.869" y="139.636" transform="rotate(-90 515.869 139.636)">20,13</text>
<text x="546.101" y="122.182" transform="rotate(-90 546.101 122.182)">20,12</text>
<text x="576.334" y="139.636" transform="rotate(-90 576.334 139.636)">20,11</text>
<text x="606.566" y="122.182" transform="rotate(-90 606.566 122.182)">20,10</text>
<text x="636.798" y="139.636" transform="rotate(-90 636.798 139.636)">20,9</text>
<text x="667.03" y="122.182" transform="rotate(-90 667.03 122.182)">20,8</text>
<text x="697.262" y="139.636" transform="rotate(-90 697.262 139.636)">20,7</text>
<text x="727.494" y="122.182" transform="rotate(-90 727.494 122.182)">20,6</text>
<text x="757.727" y="139.636" transform="rotate(-90 757.727 139.636)">20,5</text>
<text x="787.959" y="122.182" transform="rotate(-90 787.959 122.182)">20,4</text>
<text x="818.191" y="139.636" transform="rotate(-90 818.191 139.636)">20,3</text>
<text x="848.423" y="122.182" transform="rotate(-90 848.423 122.182)">20,2</text>
<text x="878.655" y="139.636" transform="rotate(-90 878.655 139.636)">20,1</text>
<text x="32.1548" y="174.545" transform="rotate(-90 32.1548 174.545)">19,29</text>
<text x="62.3869" y="157.091" transform="rotate(-90 62.3869 157.091)">19,28</text>
<text x="92.6191" y="174.545" transform="rotate(-90 92.6191 174.545)">19,27</text>
<text x="122.851" y="157.091" transform="rotate(-90 122.851 157.091)">19,26</text>
<text x="153.083" y="174.545" transform="rotate(-90 153.083 174.545)">19,25</text>
<text x="183.316" y="157.091" transform="rotate(-90 183.316 157.091)">19,24</text>
<text x="213.548" y="174.545" transform="rotate(-90 213.548 174.545)">19,23</text>
<text x="243.78" y="157.091" transform="rotate(-90 243.78 157.091)">19,22</text>
<text x="274.012" y="174.545" transform="rotate(-90 274.012 174.545)">19,21</text>
<text x="304.244" y="157.091" transform="rotate(-90 304.244 157.091)">19,20</text>
<text x="334.476" y="174.545" transform="rotate(-90 334.476 174.545)">19,19</text>
<text x="364.709" y="157.091" transform="rotate(-90 364.709 157.091)">19,18</text>
<text x="394.941" y="174.545" transform="rotate(-90 394.941 174.545)">19,17</text>
<text x="425.173" y="157.091" transform="rotate(-90 425.173 157.091)">19,16</text>
<text x="455.405" y="174.545" transform="rotate(-90 455.405 174.545)">19,15</text>
<text x="485.637" y="157.091" transform="rotate(-90 485.637 157.091)">19,14</text>
<text x="515.869" y="174.545" transform="rotate(-90 515.869 174.545)">19,13</text>
<text x="546.101" y="157.091" transform="rotate(-90 546.101 157.091)">19,12</text>
<text x="576.334" y="174.545" transform="rotate(-90 576.334 174.545)">19,11</text>
<text x="606.566" y="157.091" transform="rotate(-90 606.566 157.091)">19,10</text>
<text x="636.798" y="174.545" transform="rotate(-90 636.798 174.545)">19,9</text>
<text x="667.03" y="157.091" transform="rotate(-90 667.03 157.091)">19,8</text>
<text x="697.262" y="174.545" transform="rotate(-90 697.262 174.545)">19,7</text>
<text x="727.494" y="157.091" transform="rotate(-90 727.494 157.091)">19,6</text>
<text x="757.727" y="174.545" transform="rotate(-90 757.727 174.545)">19,5</text>
<text x="787.959" y="157.091" transform="rotate(-90 787.959 157.091)">19,4</text>
<text x="818.191" y="174.545" transform="rotate(-90 818.191 174.545)">19,3</text>
<text x="848.423" y="157.091" transform="rotate(-90 848.423 157.091)">19,2</text>
<text x="878.655" y="174.545" transform="rotate(-90 878.655 174.545)">19,1</text>
<text x="32.1548" y="209.455" transform="rotate(-90 32.1548 209.455)">18,29</text>
<text x="62.3869" y="192" transform="rotate(-90 62.3869 192)">18,28</text>
<text x="92.6191" y="209.455" transform="rotate(-90 92.6191 209.455)">18,27</text>
<text x="122.851" y="192" transform="rotate(-90 122.851 192)">18,26</text>
<text x="153.083" y="209.455" transform="rotate(-90 153.083 209.455)">18,25</text>
<text x="183.316" y="192" transform="rotate(-90 183.316 192)">18,24</text>
<text x="213.548" y="209.455" transform="rotate(-90 213.548 209.455)">18,23</text>
<text x="243.78" y="192" transform="rotate(-90 243.78 192)">18,22</text>
<text x="274.012" y="209.455" transform="rotate(-90 274.012 209.455)">18,21</text>
<text x="304.244" y="192" transform="rotate(-90 304.244 192)">18,20</text>
<text x="334.476" y="209.455" transform="rotate(-90 334.476 209.455)">18,19</text>
<text x="364.709" y="192" transform="rotate(-90 364.709 192)">18,18</text>
<text x="394.941" y="209.455" transform="rotate(-90 394.941 209.455)">18,17</text>
<text x="425.173" y="192" transform="rotate(-90 425.173 192)">18,16</text>
<text x="455.405" y="209.455" transform="rotate(-90 455.405 209.455)">18,15</text>
<text x="485.637" y="192" transform="rotate(-90 485.637 192)">18,14</text>
<text x="515.869" y="209.455" transform="rotate(-90 515.869 209.455)">18,13</text>
<text x="546.101" y="192" transform="rotate(-90 546.101 192)">18,12</text>
<text x="576.334" y="209.455" transform="rotate(-90 576.334 209.455)">18,11</text>
<text x="606.566" y="192" transform="rotate(-90 606.566 192)">18,10</text>
<text x="636.798" y="209.455" transform="rotate(-90 636.798 209.455)">18,9</text>
<text x="667.03" y="192" transform="rotate(-90 667.03 192)">18,8</text>
<text x="697.262" y="209.455" transform="rotate(-90 697.262 209.455)">18,7</text>
<text x="727.494" y="192" transform="rotate(-90 727.494 192)">18,6</text>
<text x="757.727" y="209.455" transform="rotate(-90 757.727 209.455)">18,5</text>
<text x="787.959" y="192" transform="rotate(-90 787.959 192)">18,4</text>
<text x="818.191" y="209.455" transform="rotate(-90 818.191 209.455)">18,3</text>
<text x="848.423" y="192" transform="rotate(-90 848.423 192)">18,2</text>
<text x="878.655" y="209.455" transform="rotate(-90 878.655 209.455)">18,1</text>
<text x="32.1548" y="244.364" transform="rotate(-90 32.1548 244.364)">17,29</text>
<text x="62.3869" y="226.909" transform="rotate(-90 62.3869 226.909)">17,28</text>
<text x="92.6191" y="244.364" transform="rotate(-90 92.6191 244.364)">17,27</text>
<text x="122.851" y="226.909" transform="rotate(-90 122.851 226.909)">17,26</text>
<text x="153.083" y="244.364" transform="rotate(-90 153.083 244.364)">17,25</text>
<text x="183.316" y="226.909" transform="rotate(-90 183.316 226.909)">17,24</text>
<text x="213.548" y="244.364" transform="rotate(-90 213.548 244.364)">17,23</text>
<text x="243.78" y="226.909" transform="rotate(-90 243.78 226.909)">17,22</text>
<text x="274.012" y="244.364" transform="rotate(-90 274.012 244.364)">17,21</text>
<text x="304.244" y="226.909" transform="rotate(-90 304.244 226.909)">17,20</text>
<text x="334.476" y="244.364" transform="rotate(-90 334.476 244.364)">17,19</text>
<text x="364.709" y="226.909" transform="rotate(-90 364.709 226.909)">17,18</text>
<text x="394.941" y="244.364" transform="rotate(-90 394.941 244.364)">17,17</text>
<text x="425.173" y="226.909" transform="rotate(-90 425.173 226.909)">17,16</text>
<text x="455.405" y="244.364" transform="rotate(-90 455.405 244.364)">17,15</text>
<text x="485.637" y="226.909" transform="rotate(-90 485.637 226.909)">17,14</text>
<text x="515.869" y="244.364" transform="rotate(-90 515.869 244.364)">17,13</text>
<text x="546.101" y="226.909" transform="rotate(-90 546.101 226.909)">17,12</text>
<text x="576.334" y="244.364" transform="rotate(-90 576.334 244.364)">17,11</text>
<text x="606.566" y="226.909" transform="rotate(-90 606.566 226.909)">17,10</text>
<text x="636.798" y="244.364" transform="rotate(-90 636.798 244.364)">17,9</text>
<text x="667.03" y="226.909" transform="rotate(-90 667.03 226.909)">17,8</text>
<text x="697.262" y="244.364" transform="rotate(-90 697.262 244.364)">17,7</text>
<text x="727.494" y="226.909" transform="rotate(-90 727.494 226.909)">17,6</text>
<text x="757.727" y="244.364" transform="rotate(-90 757.727 244.364)">17,5</text>
<text x="787.959" y="226.909" transform="rotate(-90 787.959 226.909)">17,4</text>
<text x="818.191" y="244.364" transform="rotate(-90 818.191 244.364)">17,3</text>
<text x="848.423" y="226.909" transform="rotate(-90 848.423 226.909)">17,2</text>
<text x="878.655" y="244.364" transform="rotate(-90 878.655 244.364)">17,1</text>
<text x="32.1548" y="279.273" transform="rotate(-90 32.1548 279.273)">16,29</text>
<text x="62.3869" y="261.818" transform="rotate(-90 62.3869 261.818)">16,28</text>
<text x="92.6191" y="279.273" transform="rotate(-90 92.6191 279.273)">16,27</text>
<text x="122.851" y="261.818" transform="rotate(-90 122.851 261.818)">16,26</text>
<text x="153.083" y="279.273" transform="rotate(-90 153.083 279.273)">16,25</text>
<text x="183.316" y="261.818" transform="rotate(-90 183.316 261.818)">16,24</text>
<text x="213.548" y="279.273" transform="rotate(-90 213.548 279.273)">16,23</text>
<text x="243.78" y="261.818" transform="rotate(-90 243.78 261.818)">16,22</text>
<text x="274.012" y="279.273" transform="rotate(-90 274.012 279.273)">16,21</text>
<text x="304.244" y="261.818" transform="rotate(-90 304.244 261.818)">16,20</text>
<text x="334.476" y="279.273" transform="rotate(-90 334.476 279.273)">16,19</text>
<text x="364.709" y="261.818" transform="rotate(-90 364.709 261.818)">16,18</text>
<text x="394.941" y="279.273" transform="rotate(-90 394.941 279.273)">16,17</text>
<text x="425.173" y="261.818" transform="rotate(-90 425.173 261.818)">16,16</text>
<text x="455.405" y="279.273" transform="rotate(-90 455.405 279.273)">16,15</text>
<text x="485.637" y="261.818" transform="rotate(-90 485.637 261.818)">16,14</text>
<text x="515.869" y="279.273" transform="rotate(-90 515.869 279.273)">16,13</text>
<text x="546.101" y="261.818" transform="rotate(-90 546.101 261.818)">16,12</text>
<text x="576.334" y="279.273" transform="rotate(-90 576.334 279.273)">16,11</text>
<text x="606.566" y="261.818" transform="rotate(-90 606.566 261.818)">16,10</text>
<text x="636.798" y="279.273" transform="rotate(-90 636.798 279.273)">16,9</text>
<text x="667.03" y="261.818" transform="rotate(-90 667.03 261.818)">16,8</text>
<text x="697.262" y="279.273" transform="rotate(-90 697.262 279.273)">16,7</text>
<text x="727.494" y="261.818" transform="rotate(-90 727.494 261.818)">16,6</text>
<text x="757.727" y="279.273" transform="rotate(-90 757.727 279.273)">16,5</text>
<text x="787.959" y="261.818" transform="rotate(-90 787.959 261.818)">16,4</text>
<text x="818.191" y="279.273" transform="rotate(-90 818.191 279.273)">16,3</text>
<text x="848.423" y="261.818" transform="rotate(-90 848.423 261.818)">16,2</text>
<text x="878.655" y="279.273" transform="rotate(-90 878.655 279.273)">16,1</text>
<text x="32.1548" y="314.182" transform="rotate(-90 32.1548 314.182)">15,29</text>
<text x="62.3869" y="296.727" transform="rotate(-90 62.3869 296.727)">15,28</text>
<text x="92.6191" y="314.182" transform="rotate(-90 92.6191 314.182)">15,27</text>
<text x="122.851" y="296.727" transform="rotate(-90 122.851 296.727)">15,26</text>
<text x="153.083" y="314.182" transform="rotate(-90 153.083 314.182)">15,25</text>
<text x="183.316" y="296.727" transform="rotate(-90 183.316 296.727)">15,24</text>
<text x="213.548" y="314.182" transform="rotate(-90 213.548 314.182)">15,23</text>
<text x="243.78" y="296.727" transform="rotate(-90 243.78 296.727)">15,22</text>
<text x="274.012" y="314.182" transform="rotate(-90 274.012 314.182)">15,21</text>
<text x="304.244" y="296.727" transform="rotate(-90 304.244 296.727)">15,20</text>
<text x="334.476" y="314.182" transform="rotate(-90 334.476 314.182)">15,19</text>
<text x="364.709" y="296.727" transform="rotate(-90 364.709 296.727)">15,18</text>
<text x="394.941" y="314.182" transform="rotate(-90 394.941 314.182)">15,17</text>
<text x="425.173" y="296.727" transform="rotate(-90 425.173 296.727)">15,16</text>
<text x="455.405" y="314.182" transform="rotate(-90 455.405 314.182)">15,15</text>
<text x="485.637" y="296.727" transform="rotate(-90 485.637 296.727)">15,14</text>
<text x="515.869" y="314.182" transform="rotate(-90 515.869 314.182)">15,13</text>
<text x="546.101" y="296.727" transform="rotate(-90 546.101 296.727)">15,12</text>
<text x="576.334" y="314.182" transform="rotate(-90 576.334 314.182)">15,11</text>
<text x="606.566" y="296.727" transform="rotate(-90 606.566 296.727)">15,10</text>
<text x="636.798" y="314.182" transform="rotate(-90 636.798 314.182)">15,9</text>
<text x="667.03" y="296.727" transform="rotate(-90 667.03 296.727)">15,8</text>
<text x="697.262" y="314.182" transform="rotate(-90 697.262 314.182)">15,7</text>
<text x="727.494" y="296.727" transform="rotate(-90 727.494 296.727)">15,6</text>
<text x="757.727" y="314.182" transform="rotate(-90 757.727 314.182)">15,5</text>
<text x="787.959" y="296.727" transform="rotate(-90 787.959 296.727)">15,4</text>
<text x="818.191" y="314.182" transform="rotate(-90 818.191 314.182)">15,3</text>
<text x="848.423" y="296.727" transform="rotate(-90 848.423 296.727)">15,2</text>
<text x="878.655" y="314.182" transform="rotate(-90 878.655 314.182)">15,1</text>
<text x="32.1548" y="349.091" transform="rotate(-90 32.1548 349.091)">14,29</text>
<text x="62.3869" y="331.636" transform="rotate(-90 62.3869 331.636)">14,28</text>
<text x="92.6191" y="349.091" transform="rotate(-90 92.6191 349.091)">14,27</text>
<text x="122.851" y="331.636" transform="rotate(-90 122.851 331.636)">14,26</text>
<text x="153.083" y="349.091" transform="rotate(-90 153.083 349.091)">14,25</text>
<text x="183.316" y="331.636" transform="rotate(-90 183.316 331.636)">14,24</text>
<text x="213.548" y="349.091" transform="rotate(-90 213.548 349.091)">14,23</text>
<text x="243.78" y="331.636" transform="rotate(-90 243.78 331.636)">14,22</text>
<text x="274.012" y="349.091" transform="rotate(-90 274.012 349.091)">14,21</text>
<text x="304.244" y="331.636" transform="rotate(-90 304.244 331.636)">14,20</text>
<text x="334.476" y="349.091" transform="rotate(-90 334.476 349.091)">14,19</text>
<text x="364.709" y="331.636" transform="rotate(-90 364.709 331.636)">14,18</text>
<text x="394.941" y="349.091" transform="rotate(-90 394.941 349.091)">14,17</text>
<text x="425.173" y="331.636" transform="rotate(-90 425.173 331.636)">14,16</text>
<text x="455.405" y="349.091" transform="rotate(-90 455.405 349.091)">14,15</text>
<text x="485.637" y="331.636" transform="rotate(-90 485.637 331.636)">14,14</text>
<text x="515.869" y="349.091" transform="rotate(-90 515.869 349.091)">14,13</text>
<text x="546.101" y="331.636" transform="rotate(-90 546.101 331.636)">14,12</text>
<text x="576.334" y="349.091" transform="rotate(-90 576.334 349.091)">14,11</text>
<text x="606.566" y="331.636" transform="rotate(-90 606.566 331.636)">14,10</text>
<text x="636.798" y="349.091" transform="rotate(-90 636.798 349.091)">14,9</text>
<text x="667.03" y="331.636" transform="rotate(-90 667.03 331.636)">14,8</text>
<text x="697.262" y="349.091" transform="rotate(-90 697.262 349.091)">14,7</text>
<text x="727.494" y="331.636" transform="rotate(-90 727.494 331.636)">14,6</text>
<text x="757.727" y="349.091" transform="rotate(-90 757.727 349.091)">14,5</text>
<text x="787.959" y="331.636" transform="rotate(-90 787.959 331.636)">14,4</text>
<text x="818.191" y="349.091" transform="rotate(-90 818.191 349.091)">14,3</text>
<text x="848.423" y="331.636" transform="rotate(-90 848.423 331.636)">14,2</text>
<text x="878.655" y="349.091" transform="rotate(-90 878.655 349.091)">14,1</text>
<text x="32.1548" y="384" transform="rotate(-90 32.1548 384)">13,29</text>
<text x="62.3869" y="366.545" transform="rotate(-90 62.3869 366.545)">13,28</text>
<text x="92.6191" y="384" transform="rotate(-90 92.6191 384)">13,27</text>
<text x="122.851" y="366.545" transform="rotate(-90 122.851 366.545)">13,26</text>
<text x="153.083" y="384" transform="rotate(-90 153.083 384)">13,25</text>
<text x="183.316" y="366.545" transform="rotate(-90 183.316 366.545)">13,24</text>
<text x="213.548" y="384" transform="rotate(-90 213.548 384)">13,23</text>
<text x="243.78" y="366.545" transform="rotate(-90 243.78 366.545)">13,22</text>
<text x="274.012" y="384" transform="rotate(-90 274.012 384)">13,21</text>
<text x="304.244" y="366.545" transform="rotate(-90 304.244 366.545)">13,20</text>
<text x="334.476" y="384" transform="rotate(-90 334.476 384)">13,19</text>
<text x="364.709" y="366.545" transform="rotate(-90 364.709 366.545)">13,18</text>
<text x="394.941" y="384" transform="rotate(-90 394.941 384)">13,17</text>
<text x="425.173" y="366.545" transform="rotate(-90 425.173 366.545)">13,16</text>
<text x="455.405" y="384" transform="rotate(-90 455.405 384)">13,15</text>
<text x="485.637" y="366.545" transform="rotate(-90 485.637 366.545)">13,14</text>
<text x="515.869" y="384" transform="rotate(-90 515.869 384)">13,13</text>
<text x="546.101" y="366.545" transform="rotate(-90 546.101 366.545)">13,12</text>
<text x="576.334" y="384" transform="rotate(-90 576.334 384)">13,11</text>
<text x="606.566" y="366.545" transform="rotate(-90 606.566 366.545)">13,10</text>
<text x="636.798" y="384" transform="rotate(-90 636.798 384)">13,9</text>
<text x="667.03" y="366.545" transform="rotate(-90 667.03 366.545)">13,8</text>
<text x="697.262" y="384" transform="rotate(-90 697.262 384)">13,7</text>
<text x="727.494" y="366.545" transform="rotate(-90 727.494 366.545)">13,6</text>
<text x="757.727" y="384" transform="rotate(-90 757.727 384)">13,5</text>
<text x="787.959" y="366.545" transform="rotate(-90 787.959 366.545)">13,4</text>
<text x="818.191" y="384" transform="rotate(-90 818.191 384)">13,3</text>
<text x="848.423" y="366.545" transform="rotate(-90 848.423 366.545)">13,2</text>
<text x="878.655" y="384" transform="rotate(-90 878.655 384)">13,1</text>
<text x="32.1548" y="418.909" transform="rotate(-90 32.1548 418.909)">12,29</text>
<text x="62.3869" y="401.455" transform="rotate(-90 62.3869 401.455)">12,28</text>
<text x="92.6191" y="418.909" transform="rotate(-90 92.6191 418.909)">12,27</text>
<text x="122.851" y="401.455" transform="rotate(-90 122.851 401.455)">12,26</text>
<text x="153.083" y="418.909" transform="rotate(-90 153.083 418.909)">12,25</text>
<text x="183.316" y="401.455" transform="rotate(-90 183.316 401.455)">12,24</text>
<text x="213.548" y="418.909" transform="rotate(-90 213.548 418.909)">12,23</text>
<text x="243.78" y="401.455" transform="rotate(-90 243.78 401.455)">12,22</text>
<text x="274.012" y="418.909" transform="rotate(-90 274.012 418.909)">12,21</text>
<text x="304.244" y="401.455" transform="rotate(-90 304.244 401.455)">12,20</text>
<text x="334.476" y="418.909" transform="rotate(-90 334.476 418.909)">12,19</text>
<text x="364.709" y="401.455" transform="rotate(-90 364.709 401.455)">12,18</text>
<text x="394.941" y="418.909" transform="rotate(-90 394.941 418.909)">12,17</text>
<text x="425.173" y="401.455" transform="rotate(-90 425.173 401.455)">12,16</text>
<text x="455.405" y="418.909" transform="rotate(-90 455.405 418.909)">12,15</text>
<text x="485.637" y="401.455" transform="rotate(-90 485.637 401.455)">12,14</text>
<text x="515.869" y="418.909" transform="rotate(-90 515.869 418.909)">12,13</text>
<text x="546.101" y="401.455" transform="rotate(-90 546.101 401.455)">12,12</text>
<text x="576.334" y="418.909" transform="rotate(-90 576.334 418.909)">12,11</text>
<text x="606.566" y="401.455" transform="rotate(-90 606.566 401.455)">12,10</text>
<text x="636.798" y="418.909" transform="rotate(-90 636.798 418.909)">12,9</text>
<text x="667.03" y="401.455" transform="rotate(-90 667.03 401.455)">12,8</text>
<text x="697.262" y="418.909" transform="rotate(-90 697.262 418.909)">12,7</text>
<text x="727.494" y="401.455" transform="rotate(-90 727.494 401.455)">12,6</text>
<text x="757.727" y="418.909" transform="rotate(-90 757.727 418.909)">12,5</text>
<text x="787.959" y="401.455" transform="rotate(-90 787.959 401.455)">12,4</text>
<text x="818.191" y="418.909" transform="rotate(-90 818.191 418.909)">12,3</text>
<text x="848.423" y="401.455" transform="rotate(-90 848.423 401.455)">12,2</text>
<text x="878.655" y="418.909" transform="rotate(-90 878.655 418.909)">12,1</text>
<text x="32.1548" y="453.818" transform="rotate(-90 32.1548 453.818)">11,29</text>
<text x="62.3869" y="436.364" transform="rotate(-90 62.3869 436.364)">11,28</text>
<text x="92.6191" y="453.818" transform="rotate(-90 92.6191 453.818)">11,27</text>
<text x="122.851" y="436.364" transform="rotate(-90 122.851 436.364)">11,26</text>
<text x="153.083" y="453.818" transform="rotate(-90 153.083 453.818)">11,25</text>
<text x="183.316" y="436.364" transform="rotate(-90 183.316 436.364)">11,24</text>
<text x="213.548" y="453.818" transform="rotate(-90 213.548 453.818)">11,23</text>
<text x="243.78" y="436.364" transform="rotate(-90 243.78 436.364)">11,22</text>
<text x="274.012" y="453.818" transform="rotate(-90 274.012 453.818)">11,21</text>
<text x="304.244" y="436.364" transform="rotate(-90 304.244 436.364)">11,20</text>
<text x="334.476" y="453.818" transform="rotate(-90 334.476 453.818)">11,19</text>
<text x="364.709" y="436.364" transform="rotate(-90 364.709 436.364)">11,18</text>
<text x="394.941" y="453.818" transform="rotate(-90 394.941 453.818)">11,17</text>
<text x="425.173" y="436.364" transform="rotate(-90 425.173 436.364)">11,16</text>
<text x="455.405" y="453.818" transform="rotate(-90 455.405 453.818)">11,15</text>
<text x="485.637" y="436.364" transform="rotate(-90 485.637 436.364)">11,14</text>
<text x="515.869" y="453.818" transform="rotate(-90 515.869 453.818)">11,13</text>
<text x="546.101" y="436.364" transform="rotate(-90 546.101 436.364)">11,12</text>
<text x="576.334" y="453.818" transform="rotate(-90 576.334 453.818)">11,11</text>
<text x="606.566" y="436.364" transform="rotate(-90 606.566 436.364)">11,10</text>
<text x="636.798" y="453.818" transform="rotate(-90 636.798 453.818)">11,9</text>
<text x="667.03" y="436.364" transform="rotate(-90 667.03 436.364)">11,8</text>
<text x="697.262" y="453.818" transform="rotate(-90 697.262 453.818)">11,7</text>
<text x="727.494" y="436.364" transform="rotate(-90 727.494 436.364)">11,6</text>
<text x="757.727" y="453.818" transform="rotate(-90 757.727 453.818)">11,5</text>
<text x="787.959" y="436.364" transform="rotate(-90 787.959 436.364)">11,4</text>
<text x="818.191" y="453.818" transform="rotate(-90 818.191 453.818)">11,3</text>
<text x="848.423" y="436.364" transform="rotate(-90 848.423 436.364)">11,2</text>
<text x="878.655" y="453.818" transform="rotate(-90 878.655 453.818)">11,1</text>
<text x="32.1548" y="488.727" transform="rotate(-90 32.1548 488.727)">10,29</text>
<text x="62.3869" y="471.273" transform="rotate(-90 62.3869 471.273)">10,28</text>
<text x="92.6191" y="488.727" transform="rotate(-90 92.6191 488.727)">10,27</text>
<text x="122.851" y="471.273" transform="rotate(-90 122.851 471.273)">10,26</text>
<text x="153.083" y="488.727" transform="rotate(-90 153.083 488.727)">10,25</text>
<text x="183.316" y="471.273" transform="rotate(-90 183.316 471.273)">10,24</text>
<text x="213.548" y="488.727" transform="rotate(-90 213.548 488.727)">10,23</text>
<text x="243.78" y="471.273" transform="rotate(-90 243.78 471.273)">10,22</text>
<text x="274.012" y="488.727" transform="rotate(-90 274.012 488.727)">10,21</text>
<text x="304.244" y="471.273" transform="rotate(-90 304.244 471.273)">10,20</text>
<text x="334.476" y="488.727" transform="rotate(-90 334.476 488.727)">10,19</text>
<text x="364.709" y="471.273" transform="rotate(-90 364.709 471.273)">10,18</text>
<text x="394.941" y="488.727" transform="rotate(-90 394.941 488.727)">10,17</text>
<text x="425.173" y="471.273" transform="rotate(-90 425.173 471.273)">10,16</text>
<text x="455.405" y="488.727" transform="rotate(-90 455.405 488.727)">10,15</text>
<text x="485.637" y="471.273" transform="rotate(-90 485.637 471.273)">10,14</text>
<text x="515.869" y="488.727" transform="rotate(-90 515.869 488.727)">10,13</text>
<text x="546.101" y="471.273" transform="rotate(-90 546.101 471.273)">10,12</text>
<text x="576.334" y="488.727" transform="rotate(-90 576.334 488.727)">10,11</text>
<text x="606.566" y="471.273" transform="rotate(-90 606.566 471.273)">10,10</text>
<text x="636.798" y="488.727" transform="rotate(-90 636.798 488.727)">10,9</text>
<text x="667.03" y="471.273" transform="rotate(-90 667.03 471.273)">10,8</text>
<text x="697.262" y="488.727" transform="rotate(-90 697.262 488.727)">10,7</text>
<text x="727.494" y="471.273" transform="rotate(-90 727.494 471.273)">10,6</text>
<text x="757.727" y="488.727" transform="rotate(-90 757.727 488.727)">10,5</text>
<text x="787.959" y="471.273" transform="rotate(-90 787.959 471.273)">10,4</text>
<text x="818.191" y="488.727" transform="rotate(-90 818.191 488.727)">10,3</text>
<text x="848.423" y="471.273" transform="rotate(-90 848.423 471.273)">10,2</text>
<text x="878.655" y="488.727" transform="rotate(-90 878.655 488.727)">10,1</text>
<text x="32.1548" y="523.636" transform="rotate(-90 32.1548 523.636)">9,29</text>
<text x="62.3869" y="506.182" transform="rotate(-90 62.3869 506.182)">9,28</text>
<text x="92.6191" y="523.636" transform="rotate(-90 92.6191 523.636)">9,27</text>
<text x="122.851" y="506.182" transform="rotate(-90 122.851 506.182)">9,26</text>
<text x="153.083" y="523.636" transform="rotate(-90 153.083 523.636)">9,25</text>
<text x="183.316" y="506.182" transform="rotate(-90 183.316 506.182)">9,24</text>
<text x="213.548" y="523.636" transform="rotate(-90 213.548 523.636)">9,23</text>
<text x="243.78" y="506.182" transform="rotate(-90 243.78 506.182)">9,22</text>
<text x="274.012" y="523.636" transform="rotate(-90 274.012 523.636)">9,21</text>
<text x="304.244" y="506.182" transform="rotate(-90 304.244 506.182)">9,20</text>
<text x="334.476" y="523.636" transform="rotate(-90 334.476 523.636)">9,19</text>
<text x="364.709" y="506.182" transform="rotate(-90 364.709 506.182)">9,18</text>
<text x="394.941" y="523.636" transform="rotate(-90 394.941 523.636)">9,17</text>
<text x="425.173" y="506.182" transform="rotate(-90 425.173 506.182)">9,16</text>
<text x="455.405" y="523.636" transform="rotate(-90 455.405 523.636)">9,15</text>
<text x="485.637" y="506.182" transform="rotate(-90 485.637 506.182)">9,14</text>
<text x="515.869" y="523.636" transform="rotate(-90 515.869 523.636)">9,13</text>
<text x="546.101" y="506.182" transform="rotate(-90 546.101 506.182)">9,12</text>
<text x="576.334" y="523.636" transform="rotate(-90 576.334 523.636)">9,11</text>
<text x="606.566" y="506.182" transform="rotate(-90 606.566 506.182)">9,10</text>
<text x="636.798" y="523.636" transform="rotate(-90 636.798 523.636)">9,9</text>
<text x="667.03" y="506.182" transform="rotate(-90 667.03 506.182)">9,8</text>
<text x="697.262" y="523.636" transform="rotate(-90 697.262 523.636)">9,7</text>
<text x="727.494" y="506.182" transform="rotate(-90 727.494 506.182)">9,6</text>
<text x="757.727" y="523.636" transform="rotate(-90 757.727 523.636)">9,5</text>
<text x="787.959" y="506.182" transform="rotate(-90 787.959 506.182)">9,4</text>
<text x="818.191" y="523.636" transform="rotate(-90 818.191 523.636)">9,3</text>
<text x="848.423" y="506.182" transform="rotate(-90 848.423 506.182)">9,2</text>
<text x="878.655" y="523.636" transform="rotate(-90 878.655 523.636)">9,1</text>
<text x="32.1548" y="558.545" transform="rotate(-90 32.1548 558.545)">8,29</text>
<text x="62.3869" y="541.091" transform="rotate(-90 62.3869 541.091)">8,28</text>
<text x="92.6191" y="558.545" transform="rotate(-90 92.6191 558.545)">8,27</text>
<text x="122.851" y="541.091" transform="rotate(-90 122.851 541.091)">8,26</text>
<text x="153.083" y="558.545" transform="rotate(-90 153.083 558.545)">8,25</text>
<text x="183.316" y="541.091" transform="rotate(-90 183.316 541.091)">8,24</text>
<text x="213.548" y="558.545" transform="rotate(-90 213.548 558.545)">8,23</text>
<text x="243.78" y="541.091" transform="rotate(-90 243.78 541.091)">8,22</text>
<text x="274.012" y="558.545" transform="rotate(-90 274.012 558.545)">8,21</text>
<text x="304.244" y="541.091" transform="rotate(-90 304.244 541.091)">8,20</text>
<text x="334.476" y="558.545" transform="rotate(-90 334.476 558.545)">8,19</text>
<text x="364.709" y="541.091" transform="rotate(-90 364.709 541.091)">8,18</text>
<text x="394.941" y="558.545" transform="rotate(-90 394.941 558.545)">8,17</text>
<text x="425.173" y="541.091" transform="rotate(-90 425.173 541.091)">8,16</text>
<text x="455.405" y="558.545" transform="rotate(-90 455.405 558.545)">8,15</text>
<text x="485.637" y="541.091" transform="rotate(-90 485.637 541.091)">8,14</text>
<text x="515.869" y="558.545" transform="rotate(-90 515.869 558.545)">8,13</text>
<text x="546.101" y="541.091" transform="rotate(-90 546.101 541.091)">8,12</text>
<text x="576.334" y="558.545" transform="rotate(-90 576.334 558.545)">8,11</text>
<text x="606.566" y="541.091" transform="rotate(-90 606.566 541.091)">8,10</text>
<text x="636.798" y="558.545" transform="rotate(-90 636.798 558.545)">8,9</text>
<text x="667.03" y="541.091" transform="rotate(-90 667.03 541.091)">8,8</text>
<text x="697.262" y="558.545" transform="rotate(-90 697.262 558.545)">8,7</text>
<text x="727.494" y="541.091" transform="rotate(-90 727.494 541.091)">8,6</text>
<text x="757.727" y="558.545" transform="rotate(-90 757.727 558.545)">8,5</text>
<text x="787.959" y="541.091" transform="rotate(-90 787.959 541.091)">8,4</text>
<text x="818.191" y="558.545" transform="rotate(-90 818.191 558.545)">8,3</text>
<text x="848.423" y="541.091" transform="rotate(-90 848.423 541.091)">8,2</text>
<text x="878.655" y="558.545" transform="rotate(-90 878.655 558.545)">8,1</text>
<text x="32.1548" y="593.455" transform="rotate(-90 32.1548 593.455)">7,29</text>
<text x="62.3869" y="576" transform="rotate(-90 62.3869 576)">7,28</text>
<text x="92.6191" y="593.455" transform="rotate(-90 92.6191 593.455)">7,27</text>
<text x="122.851" y="576" transform="rotate(-90 122.851 576)">7,26</text>
<text x="153.083" y="593.455" transform="rotate(-90 153.083 593.455)">7,25</text>
<text x="183.316" y="576" transform="rotate(-90 183.316 576)">7,24</text>
<text x="213.548" y="593.455" transform="rotate(-90 213.548 593.455)">7,23</text>
<text x="243.78" y="576" transform="rotate(-90 243.78 576)">7,22</text>
<text x="274.012" y="593.455" transform="rotate(-90 274.012 593.455)">7,21</text>
<text x="304.244" y="576" transform="rotate(-90 304.244 576)">7,20</text>
<text x="334.476" y="593.455" transform="rotate(-90 334.476 593.455)">7,19</text>
<text x="364.709" y="576" transform="rotate(-90 364.709 576)">7,18</text>
<text x="394.941" y="593.455" transform="rotate(-90 394.941 593.455)">7,17</text>
<text x="425.173" y="576" transform="rotate(-90 425.173 576)">7,16</text>
<text x="455.405" y="593.455" transform="rotate(-90 455.405 593.455)">7,15</text>
<text x="485.637" y="576" transform="rotate(-90 485.637 576)">7,14</text>
<text x="515.869" y="593.455" transform="rotate(-90 515.869 593.455)">7,13</text>
<text x="546.101" y="576" transform="rotate(-90 546.101 576)">7,12</text>
<text x="576.334" y="593.455" transform="rotate(-90 576.334 593.455)">7,11</text>
<text x="606.566" y="576" transform="rotate(-90 606.566 576)">7,10</text>
<text x="636.798" y="593.455" transform="rotate(-90 636.798 593.455)">7,9</text>
<text x="667.03" y="576" transform="rotate(-90 667.03 576)">7,8</text>
<text x="697.262" y="593.455" transform="rotate(-90 697.262 593.455)">7,7</text>
<text x="727.494" y="576" transform="rotate(-90 727.494 576)">7,6</text>
<text x="757.727" y="593.455" transform="rotate(-90 757.727 593.455)">7,5</text>
<text x="787.959" y="576" transform="rotate(-90 787.959 576)">7,4</text>
<text x="818.191" y="593.455" transform="rotate(-90 818.191 593.455)">7,3</text>
<text x="848.423" y="576" transform="rotate(-90 848.423 576)">7,2</text>
<text x="878.655" y="593.455" transform="rotate(-90 878.655 593.455)">7,1</text>
<text x="32.1548" y="628.364" transform="rotate(-90 32.1548 628.364)">6,29</text>
<text x="62.3869" y="610.909" transform="rotate(-90 62.3869 610.909)">6,28</text>
<text x="92.6191" y="628.364" transform="rotate(-90 92.6191 628.364)">6,27</text>
<text x="122.851" y="610.909" transform="rotate(-90 122.851 610.909)">6,26</text>
<text x="153.083" y="628.364" transform="rotate(-90 153.083 628.364)">6,25</text>
<text x="183.316" y="610.909" transform="rotate(-90 183.316 610.909)">6,24</text>
<text x="213.548" y="628.364" transform="rotate(-90 213.548 628.364)">6,23</text>
<text x="243.78" y="610.909" transform="rotate(-90 243.78 610.909)">6,22</text>
<text x="274.012" y="628.364" transform="rotate(-90 274.012 628.364)">6,21</text>
<text x="304.244" y="610.909" transform="rotate(-90 304.244 610.909)">6,20</text>
<text x="334.476" y="628.364" transform="rotate(-90 334.476 628.364)">6,19</text>
<text x="364.709" y="610.909" transform="rotate(-90 364.709 610.909)">6,18</text>
<text x="394.941" y="628.364" transform="rotate(-90 394.941 628.364)">6,17</text>
<text x="425.173" y="610.909" transform="rotate(-90 425.173 610.909)">6,16</text>
<text x="455.405" y="628.364" transform="rotate(-90 455.405 628.364)">6,15</text>
<text x="485.637" y="610.909" transform="rotate(-90 485.637 610.909)">6,14</text>
<text x="515.869" y="628.364" transform="rotate(-90 515.869 628.364)">6,13</text>
<text x="546.101" y="610.909" transform="rotate(-90 546.101 610.909)">6,12</text>
<text x="576.334" y="628.364" transform="rotate(-90 576.334 628.364)">6,11</text>
<text x="606.566" y="610.909" transform="rotate(-90 606.566 610.909)">6,10</text>
<text x="636.798" y="628.364" transform="rotate(-90 636.798 628.364)">6,9</text>
<text x="667.03" y="610.909" transform="rotate(-90 667.03 610.909)">6,8</text>
<text x="697.262" y="628.364" transform="rotate(-90 697.262 628.364)">6,7</text>
<text x="727.494" y="610.909" transform="rotate(-90 727.494 610.909)">6,6</text>
<text x="757.727" y="628.364" transform="rotate(-90 757.727 628.364)">6,5</text>
<text x="787.959" y="610.909" transform="rotate(-90 787.959 610.909)">6,4</text>
<text x="818.191" y="628.364" transform="rotate(-90 818.191 628.364)">6,3</text>
<text x="848.423" y="610.909" transform="rotate(-90 848.423 610.909)">6,2</text>
<text x="878.655" y="628.364" transform="rotate(-90 878.655 628.364)">6,1</text>
<text x="32.1548" y="663.273" transform="rotate(-90 32.1548 663.273)">5,29</text>
<text x="62.3869" y="645.818" transform="rotate(-90 62.3869 645.818)">5,28</text>
<text x="92.6191" y="663.273" transform="rotate(-90 92.6191 663.273)">5,27</text>
<text x="122.851" y="645.818" transform="rotate(-90 122.851 645.818)">5,26</text>
<text x="153.083" y="663.273" transform="rotate(-90 153.083 663.273)">5,25</text>
<text x="183.316" y="645.818" transform="rotate(-90 183.316 645.818)">5,24</text>
<text x="213.548" y="663.273" transform="rotate(-90 213.548 663.273)">5,23</text>
<text x="243.78" y="645.818" transform="rotate(-90 243.78 645.818)">5,22</text>
<text x="274.012" y="663.273" transform="rotate(-90 274.012 663.273)">5,21</text>
<text x="304.244" y="645.818" transform="rotate(-90 304.244 645.818)">5,20</text>
<text x="334.476" y="663.273" transform="rotate(-90 334.476 663.273)">5,19</text>
<text x="364.709" y="645.818" transform="rotate(-90 364.709 645.818)">5,18</text>
<text x="394.941" y="663.273" transform="rotate(-90 394.941 663.273)">5,17</text>
<text x="425.173" y="645.818" transform="rotate(-90 425.173 645.818)">5,16</text>
<text x="455.405" y="663.273" transform="rotate(-90 455.405 663.273)">5,15</text>
<text x="485.637" y="645.818" transform="rotate(-90 485.637 645.818)">5,14</text>
<text x="515.869" y="663.273" transform="rotate(-90 515.869 663.273)">5,13</text>
<text x="546.101" y="645.818" transform="rotate(-90 546.101 645.818)">5,12</text>
<text x="576.334" y="663.273" transform="rotate(-90 576.334 663.273)">5,11</text>
<text x="606.566" y="645.818" transform="rotate(-90 606.566 645.818)">5,10</text>
<text x="636.798" y="663.273" transform="rotate(-90 636.798 663.273)">5,9</text>
<text x="667.03" y="645.818" transform="rotate(-90 667.03 645.818)">5,8</text>
<text x="697.262" y="663.273" transform="rotate(-90 697.262 663.273)">5,7</text>
<text x="727.494" y="645.818" transform="rotate(-90 727.494 645.818)">5,6</text>
<text x="757.727" y="663.273" transform="rotate(-90 757.727 663.273)">5,5</text>
<text x="787.959" y="645.818" transform="rotate(-90 787.959 645.818)">5,4</text>
<text x="818.191" y="663.273" transform="rotate(-90 818.191 663.273)">5,3</text>
<text x="848.423" y="645.818" transform="rotate(-90 848.423 645.818)">5,2</text>
<text x="878.655" y="663.273" transform="rotate(-90 878.655 663.273)">5,1</text>
<text x="32.1548" y="698.182" transform="rotate(-90 32.1548 698.182)">4,29</text>
<text x="62.3869" y="680.727" transform="rotate(-90 62.3869 680.727)">4,28</text>
<text x="92.6191" y="698.182" transform="rotate(-90 92.6191 698.182)">4,27</text>
<text x="122.851" y="680.727" transform="rotate(-90 122.851 680.727)">4,26</text>
<text x="153.083" y="698.182" transform="rotate(-90 153.083 698.182)">4,25</text>
<text x="183.316" y="680.727" transform="rotate(-90 183.316 680.727)">4,24</text>
<text x="213.548" y="698.182" transform="rotate(-90 213.548 698.182)">4,23</text>
<text x="243.78" y="680.727" transform="rotate(-90 243.78 680.727)">4,22</text>
<text x="274.012" y="698.182" transform="rotate(-90 274.012 698.182)">4,21</text>
<text x="304.244" y="680.727" transform="rotate(-90 304.244 680.727)">4,20</text>
<text x="334.476" y="698.182" transform="rotate(-90 334.476 698.182)">4,19</text>
<text x="364.709" y="680.727" transform="rotate(-90 364.709 680.727)">4,18</text>
<text x="394.941" y="698.182" transform="rotate(-90 394.941 698.182)">4,17</text>
<text x="425.173" y="680.727" transform="rotate(-90 425.173 680.727)">4,16</text>
<text x="455.405" y="698.182" transform="rotate(-90 455.405 698.182)">4,15</text>
<text x="485.637" y="680.727" transform="rotate(-90 485.637 680.727)">4,14</text>
<text x="515.869" y="698.182" transform="rotate(-90 515.869 698.182)">4,13</text>
<text x="546.101" y="680.727" transform="rotate(-90 546.101 680.727)">4,12</text>
<text x="576.334" y="698.182" transform="rotate(-90 576.334 698.182)">4,11</text>
<text x="606.566" y="680.727" transform="rotate(-90 606.566 680.727)">4,10</text>
<text x="636.798" y="698.182" transform="rotate(-90 636.798 698.182)">4,9</text>
<text x="667.03" y="680.727" transform="rotate(-90 667.03 680.727)">4,8</text>
<text x="697.262" y="698.182" transform="rotate(-90 697.262 698.182)">4,7</text>
<text x="727.494" y="680.727" transform="rotate(-90 727.494 680.727)">4,6</text>
<text x="757.727" y="698.182" transform="rotate(-90 757.727 698.182)">4,5</text>
<text x="787.959" y="680.727" transform="rotate(-90 787.959 680.727)">4,4</text>
<text x="818.191" y="698.182" transform="rotate(-90 818.191 698.182)">4,3</text>
<text x="848.423" y="680.727" transform="rotate(-90 848.423 680.727)">4,2</text>
<text x="878.655" y="698.182" transform="rotate(-90 878.655 698.182)">4,1</text>
<text x="32.1548" y="733.091" transform="rotate(-90 32.1548 733.091)">3,29</text>
<text x="62.3869" y="715.636" transform="rotate(-90 62.3869 715.636)">3,28</text>
<text x="92.6191" y="733.091" transform="rotate(-90 92.6191 733.091)">3,27</text>
<text x="122.851" y="715.636" transform="rotate(-90 122.851 715.636)">3,26</text>
<text x="153.083" y="733.091" transform="rotate(-90 153.083 733.091)">3,25</text>
<text x="183.316" y="715.636" transform="rotate(-90 183.316 715.636)">3,24</text>
<text x="213.548" y="733.091" transform="rotate(-90 213.548 733.091)">3,23</text>
<text x="243.78" y="715.636" transform="rotate(-90 243.78 715.636)">3,22</text>
<text x="274.012" y="733.091" transform="rotate(-90 274.012 733.091)">3,21</text>
<text x="304.244" y="715.636" transform="rotate(-90 304.244 715.636)">3,20</text>
<text x="334.476" y="733.091" transform="rotate(-90 334.476 733.091)">3,19</text>
<text x="364.709" y="715.636" transform="rotate(-90 364.709 715.636)">3,18</text>
<text x="394.941" y="733.091" transform="rotate(-90 394.941 733.091)">3,17</text>
<text x="425.173" y="715.636" transform="rotate(-90 425.173 715.636)">3,16</text>
<text x="455.405" y="733.091" transform="rotate(-90 455.405 733.091)">3,15</text>
<text x="485.637" y="715.636" transform="rotate(-90 485.637 715.636)">3,14</text>
<text x="515.869" y="733.091" transform="rotate(-90 515.869 733.091)">3,13</text>
<text x="546.101" y="715.636" transform="rotate(-90 546.101 715.636)">3,12</text>
<text x="576.334" y="733.091" transform="rotate(-90 576.334 733.091)">3,11</text>
<text x="606.566" y="715.636" transform="rotate(-90 606.566 715.636)">3,10</text>
<text x="636.798" y="733.091" transform="rotate(-90 636.798 733.091)">3,9</text>
<text x="667.03" y="715.636" transform="rotate(-90 667.03 715.636)">3,8</text>
<text x="697.262" y="733.091" transform="rotate(-90 697.262 733.091)">3,7</text>
<text x="727.494" y="715.636" transform="rotate(-90 727.494 715.636)">3,6</text>
<text x="757.727" y="733.091" transform="rotate(-90 757.727 733.091)">3,5</text>
<text x="787.959" y="715.636" transform="rotate(-90 787.959 715.636)">3,4</text>
<text x="818.191" y="733.091" transform="rotate(-90 818.191 733.091)">3,3</text>
<text x="848.423" y="715.636" transform="rotate(-90 848.423 715.636)">3,2</text>
<text x="878.655" y="733.091" transform="rotate(-90 878.655 733.091)">3,1</text>
<text x="32.1548" y="768" transform="rotate(-90 32.1548 768)">2,29</text>
<text x="62.3869" y="750.545" transform="rotate(-90 62.3869 750.545)">2,28</text>
<text x="92.6191" y="768" transform="rotate(-90 92.6191 768)">2,27</text>
<text x="122.851" y="750.545" transform="rotate(-90 122.851 750.545)">2,26</text>
<text x="153.083" y="768" transform="rotate(-90 153.083 768)">2,25</text>
<text x="183.316" y="750.545" transform="rotate(-90 183.316 750.545)">2,24</text>
<text x="213.548" y="768" transform="rotate(-90 213.548 768)">2,23</text>
<text x="243.78" y="750.545" transform="rotate(-90 243.78 750.545)">2,22</text>
<text x="274.012" y="768" transform="rotate(-90 274.012 768)">2,21</text>
<text x="304.244" y="750.545" transform="rotate(-90 304.244 750.545)">2,20</text>
<text x="334.476" y="768" transform="rotate(-90 334.476 768)">2,19</text>
<text x="364.709" y="750.545" transform="rotate(-90 364.709 750.545)">2,18</text>
<text x="394.941" y="768" transform="rotate(-90 394.941 768)">2,17</text>
<text x="425.173" y="750.545" transform="rotate(-90 425.173 750.545)">2,16</text>
<text x="455.405" y="768" transform="rotate(-90 455.405 768)">2,15</text>
<text x="485.637" y="750.545" transform="rotate(-90 485.637 750.545)">2,14</text>
<text x="515.869" y="768" transform="rotate(-90 515.869 768)">2,13</text>
<text x="546.101" y="750.545" transform="rotate(-90 546.101 750.545)">2,12</text>
<text x="576.334" y="768" transform="rotate(-90 576.334 768)">2,11</text>
<text x="606.566" y="750.545" transform="rotate(-90 606.566 750.545)">2,10</text>
<text x="636.798" y="768" transform="rotate(-90 636.798 768)">2,9</text>
<text x="667.03" y="750.545" transform="rotate(-90 667.03 750.545)">2,8</text>
<text x="697.262" y="768" transform="rotate(-90 697.262 768)">2,7</text>
<text x="727.494" y="750.545" transform="rotate(-90 727.494 750.545)">2,6</text>
<text x="757.727" y="768" transform="rotate(-90 757.727 768)">2,5</text>
<text x="787.959" y="750.545" transform="rotate(-90 787.959 750.545)">2,4</text>
<text x="818.191" y="768" transform="rotate(-90 818.191 768)">2,3</text>
<text x="848.423" y="750.545" transform="rotate(-90 848.423 750.545)">2,2</text>
<text x="878.655" y="768" transform="rotate(-90 878.655 768)">2,1</text>
<text x="32.1548" y="802.909" transform="rotate(-90 32.1548 802.909)">1,29</text>
<text x="62.3869" y="785.455" transform="rotate(-90 62.3869 785.455)">1,28</text>
<text x="92.6191" y="802.909" transform="rotate(-90 92.6191 802.909)">1,27</text>
<text x="122.851" y="785.455" transform="rotate(-90 122.851 785.455)">1,26</text>
<text x="153.083" y="802.909" transform="rotate(-90 153.083 802.909)">1,25</text>
<text x="183.316" y="785.455" transform="rotate(-90 183.316 785.455)">1,24</text>
<text x="213.548" y="802.909" transform="rotate(-90 213.548 802.909)">1,23</text>
<text x="243.78" y="785.455" transform="rotate(-90 243.78 785.455)">1,22</text>
<text x="274.012" y="802.909" transform="rotate(-90 274.012 802.909)">1,21</text>
<text x="304.244" y="785.455" transform="rotate(-90 304.244 785.455)">1,20</text>
<text x="334.476" y="802.909" transform="rotate(-90 334.476 802.909)">1,19</text>
<text x="364.709" y="785.455" transform="rotate(-90 364.709 785.455)">1,18</text>
<text x="394.941" y="802.909" transform="rotate(-90 394.941 802.909)">1,17</text>
<text x="425.173" y="785.455" transform="rotate(-90 425.173 785.455)">1,16</text>
<text x="455.405" y="802.909" transform="rotate(-90 455.405 802.909)">1,15</text>
<text x="485.637" y="785.455" transform="rotate(-90 485.637 785.455)">1,14</text>
<text x="515.869" y="802.909" transform="rotate(-90 515.869 802.909)">1,13</text>
<text x="546.101" y="785.455" transform="rotate(-90 546.101 785.455)">1,12</text>
<text x="576.334" y="802.909" transform="rotate(-90 576.334 802.909)">1,11</text>
<text x="606.566" y="785.455" transform="rotate(-90 606.566 785.455)">1,10</text>
<text x="636.798" y="802.909" transform="rotate(-90 636.798 802.909)">1,9</text>
<text x="667.03" y="785.455" transform="rotate(-90 667.03 785.455)">1,8</text>
<text x="697.262" y="802.909" transform="rotate(-90 697.262 802.909)">1,7</text>
<text x="727.494" y="785.455" transform="rotate(-90 727.494 785.455)">1,6</text>
<text x="757.727" y="802.909" transform="rotate(-90 757.727 802.909)">1,5</text>
<text x="787.959" y="785.455" transform="rotate(-90 787.959 785.455)">1,4</text>
<text x="818.191" y="802.909" transform="rotate(-90 818.191 802.909)">1,3</text>
<text x="848.423" y="785.455" transform="rotate(-90 848.423 785.455)">1,2</text>
<text x="878.655" y="802.909" transform="rotate(-90 878.655 802.909)">1,1</text>
</g>
</g>
</svg>
