<?xml version='1.0' encoding='UTF-8' standalone='no'?>
<!DOCTYPE svg PUBLIC "-//W3C//DTD SVG 1.1//EN" "http://www.w3.org/Graphics/SVG/1.1/DTD/svg11.dtd">
<svg xmlns="http://www.w3.org/2000/svg" xmlns:xlink="http://www.w3.org/1999/xlink" width="820.864" height="887.31" version="1.1">
<defs>
<path id="bottoms" d="M 0 0 l 10.0774 17.4545 m 20.1548 0 l 10.0774 -17.4545 m 20.1548 0 l 10.0774 17.4545 m 20.1548 0 l 10.0774 -17.4545 m 20.1548 0 l 10.0774 17.4545 m 20.1548 0 l 10.0774 -17.4545 m 20.1548 0 l 10.0774 17.4545 m 20.1548 0 l 10.0774 -17.4545 m 20.1548 0 l 10.0774 17.4545 m 20.1548 0 l 10.0774 -17.4545 m 20.1548 0 l 10.0774 17.4545 m 20.1548 0 l 10.0774 -17.4545 m 20.1548 0 l 10.0774 17.4545 m 20.1548 0 l 10.0774 -17.4545 m 20.1548 0 l 10.0774 17.4545 m 20.1548 0 l 10.0774 -17.4545 m 20.1548 0 l 10.0774 17.4545 m 20.1548 0 l 10.0774 -17.4545 m 20.1548 0 l 10.0774 17.4545 m 20.1548 0 l 10.0774 -17.4545 m 20.1548 0 l 10.0774 17.4545 m 20.1548 0 l 10.0774 -17.4545 m 20.1548 0 l 10.0774 17.4545 m 20.1548 0 l 10.0774 -17.4545 m 20.1548 0 l 10.0774 17.4545 m 20.1548 0 l 10.0774 -17.4545 m 20.1548 0 l 10.0774 17.4545 m 20.1548 0 l 10.0774 -17.4545 m 20.1548 0"/>
<path id="tops" d="M 0 0 l 20.1548 0 10.0774 -17.4545 20.1548 0 10.0774 17.4545 20.1548 0 10.0774 -17.4545 20.1548 0 10.0774 17.4545 20.1548 0 10.0774 -17.4545 20.1548 0 10.0774 17.4545 20.1548 0 10.0774 -17.4545 20.1548 0 10.0774 17.4545 20.1548 0 10.0774 -17.4545 20.1548 0 10.0774 17.4545 20.1548 0 10.0774 -17.4545 20.1548 0 10.0774 17.4545 20.1548 0 10.0774 -17.4545 20.1548 0 10.0774 17.4545 20.1548 0 10.0774 -17.4545 20.1548 0 10.0774 17.4545 20.1548 0 10.0774 -17.4545 20.1548 0 10.0774 17.4545 20.1548 0 10.0774 -17.4545 20.1548 0 10.0774 17.4545 20.1548 0 10.0774 -17.4545 20.1548 0 10.0774 17.4545 20.1548 0 10.0774 -17.4545 20.1548 0 10.0774 17.4545 20.1548 0 10.0774 -17.4545 20.1548 0 10.0774 17.4545 20.1548 0 10.0774 -17.4545 20.1548 0 10.0774 17.4545 20.1548 0"/>
<path id="outline" d="M 0 0 l 20.1548 0 10.0774 -17.4545 20.1548 0 10.0774 17.4545 20.1548 0 10.0774 -17.4545 20.1548 0 10.0774 17.4545 20.1548 0 10.0774 -17.4545 20.1548 0 10.0774 17.4545 20.1548 0 10.0774 -17.4545 20.1548 0 10.0774 17.4545 20.1548 0 10.0774 -17.4545 20.1548 0 10.0774 17.4545 20.1548 0 10.0774 -17.4545 20.1548 0 10.0774 17.4545 20.1548 0 10.0774 -17.4545 20.1548 0 10.0774 17.4545 20.1548 0 10.0774 -17.4545 20.1548 0 10.0774 17.4545 20.1548 0 10.0774 -17.4545 20.1548 0 10.0774 17.4545 20.1548 0 10.0774 -17.4545 20.1548 0 10.0774 17.4545 20.1548 0 10.0774 -17.4545 20.1548 0 10.0774 17.4545 20.1548 0 10.0774 -17.4545 20.1548 0 10.0774 17.4545 20.1548 0 10.0774 -17.4545 20.1548 0 10.0774 17.4545 20.1548 0 10.0774 -17.4545 20.1548 0 10.0774 17.4545 20.1548 0 10.0774 17.4545 -10.0774 17.4545 10.0774 17.4545 -10.0774 17.4545 10.0774 17.4545 -10.0774 17.4545 10.0774 17.4545 -10.0774 17.4545 10.0774 17.4545 -10.0774 17.4545 10.0774 17.4545 -10.0774 17.4545 10.0774 17.4545 -10.0774 17.4545 10.0774 17.4545 -10.0774 17.4545 10.0774 17.4545 -10.0774 17.4545 10.0774 17.4545 -10.0774 17.4545 10.0774 17.4545 -10.0774 17.4545 10.0774 17.4545 -10.0774 17.4545 10.0774 17.4545 -10.0774 17.4545 10.0774 17.4545 -10.0774 17.4545 10.0774 17.4545 -10.0774 17.4545 10.0774 17.4545 -10.0774 17.4545 10.0774 17.4545 -10.0774 17.4545 10.0774 17.4545 -10.0774 17.4545 10.0774 17.4545 -10.0774 17.4545 10.0774 17.4545 -10.0774 17.4545 10.0774 17.4545 -10.0774 17.4545 10.0774 17.4545 -10.0774 17.4545 10.0774 17.4545 -10.0774 17.4545 -20.1548 0 -10.0774 -17.4545 -20.1548 0 -10.0774 17.4545 -20.1548 0 -10.0774 -17.4545 -20.1548 0 -10.0774 17.4545 -20.1548 0 -10.0774 -17.4545 -20.1548 0 -10.0774 17.4545 -20.1548 0 -10.0774 -17.4545 -20.1548 0 -10.0774 17.4545 -20.1548 0 -10.0774 -17.4545 -20.1548 0 -10.0774 17.4545 -20.1548 0 -10.0774 -17.4545 -20.1548 0 -10.0774 17.4545 -20.1548 0 -10.0774 -17.4545 -20.1548 0 -10.0774 17.4545 -20.1548 0 -10.0774 -17.4545 -20.1548 0 -10.0774 17.4545 -20.1548 0 -10.0774 -17.4545 -20.1548 0 -10.0774 17.4545 -20.1548 0 -10.0774 -17.4545 -20.1548 0 -10.0774 17.4545 -20.1548 0 -10.0774 -17.4545 -20.1548 0 -10.0774 17.4545 -20.1548 0 -10.0774 -17.4545 -20.1548 0 -10.0774 17.4545 -20.1548 0 -10.0774 -17.4545 -20.1548 0 -10.0774 17.4545 -20.1548 0 -10.0774 -17.4545 -20.1548 0 -10.0774 17.4545 -20.1548 0 -10.0774 -17.4545 10.0774 -17.4545 -10.0774 -17.4545 10.0774 -17.4545 -10.0774 -17.4545 10.0774 -17.4545 -10.0774 -17.4545 10.0774 -17.4545 -10.0774 -17.4545 10.0774 -17.4545 -10.0774 -17.4545 10.0774 -17.4545 -10.0774 -17.4545 10.0774 -17.4545 -10.0774 -17.4545 10.0774 -17.4545 -10.0774 -17.4545 10.0774 -17.4545 -10.0774 -17.4545 10.0774 -17.4545 -10.0774 -17.4545 10.0774 -17.4545 -10.0774 -17.4545 10.0774 -17.4545 -10.0774 -17.4545 10.0774 -17.4545 -10.0774 -17.4545 10.0774 -17.4545 -10.0774 -17.4545 10.0774 -17.4545 -10.0774 -17.4545 10.0774 -17.4545 -10.0774 -17.4545 10.0774 -17.4545 -10.0774 -17.4545 10.0774 -17.4545 -10.0774 -17.4545 10.0774 -17.4545 -10.0774 -17.4545 10.0774 -17.4545 -10.0774 -17.4545 10.0774 -17.4545 -10.0774 -17.4545 10.0774 -17.4545 -10.0774 -17.4545 z"/>
</defs>
<g transform="translate(820.864,0.25) rotate(90)">
<g id="grid" style="fill: none; stroke: #000000; stroke-opacity: 1; stroke-width: 0.5; ">
<use x="10.0774" y="17.4545" xlink:href="#outline"/>
<use x="30.2322" y="17.4545" xlink:href="#bottoms"/>
<use x="10.0774" y="52.3636" xlink:href="#tops"/>
<use x="30.2322" y="52.3636" xlink:href="#bottoms"/>
<use x="10.0774" y="87.2727" xlink:href="#tops"/>
<use x="30.2322" y="87.2727" xlink:href="#bottoms"/>
<use x="10.0774" y="122.182" xlink:href="#tops"/>
<use x="30.2322" y="122.182" xlink:href="#bottoms"/>
<use x="10.0774" y="157.091" xlink:href="#tops"/>
<use x="30.2322" y="157.091" xlink:href="#bottoms"/>
<use x="10.0774" y="192" xlink:href="#tops"/>
<use x="30.2322" y="192" xlink:href="#bottoms"/>
<use x="10.0774" y="226.909" xlink:href="#tops"/>
<use x="30.2322" y="226.909" xlink:href="#bottoms"/>
<use x="10.0774" y="261.818" xlink:href="#tops"/>
<use x="30.2322" y="261.818" xlink:href="#bottoms"/>
<use x="10.0774" y="296.727" xlink:href="#tops"/>
<use x="30.2322" y="296.727" xlink:href="#bottoms"/>
<use x="10.0774" y="331.636" xlink:href="#tops"/>
<use x="30.2322" y="331.636" xlink:href="#bottoms"/>
<use x="10.0774" y="366.545" xlink:href="#tops"/>
<use x="30.2322" y="366.545" xlink:href="#bottoms"/>
<use x="10.0774" y="401.455" xlink:href="#tops"/>
<use x="30.2322" y="401.455" xlink:href="#bottoms"/>
<use x="10.0774" y="436.364" xlink:href="#tops"/>
<use x="30.2322" y="436.364" xlink:href="#bottoms"/>
<use x="10.0774" y="471.273" xlink:href="#tops"/>
<use x="30.2322" y="471.273" xlink:href="#bottoms"/>
<use x="10.0774" y="506.182" xlink:href="#tops"/>
<use x="30.2322" y="506.182" xlink:href="#bottoms"/>
<use x="10.0774" y="541.091" xlink:href="#tops"/>
<use x="30.2322" y="541.091" xlink:href="#bottoms"/>
<use x="10.0774" y="576" xlink:href="#tops"/>
<use x="30.2322" y="576" xlink:href="#bottoms"/>
<use x="10.0774" y="610.909" xlink:href="#tops"/>
<use x="30.2322" y="610.909" xlink:href="#bottoms"/>
<use x="10.0774" y="645.818" xlink:href="#tops"/>
<use x="30.2322" y="645.818" xlink:href="#bottoms"/>
<use x="10.0774" y="680.727" xlink:href="#tops"/>
<use x="30.2322" y="680.727" xlink:href="#bottoms"/>
<use x="10.0774" y="715.636" xlink:href="#tops"/>
<use x="30.2322" y="715.636" xlink:href="#bottoms"/>
<use x="10.0774" y="750.545" xlink:href="#tops"/>
<use x="30.2322" y="750.545" xlink:href="#bottoms"/>
<use x="10.0774" y="785.455" xlink:href="#tops"/>
<use x="30.2322" y="785.455" xlink:href="#bottoms"/>
</g>
<g id="coordinates" style="fill: #000000; fill-opacity: 1; font-family: Atkinson Hyperlegible; font-size: 8px; text-anchor: middle; ">
<text x="30.1548" y="34.9091" transform="rotate(-90 30.1548 34.9091)">22,14</text>
<text x="60.3869" y="17.4545" transform="rotate(-90 60.3869 17.4545)">23,13</text>
<text x="90.6191" y="34.9091" transform="rotate(-90 90.6191 34.9091)">22,12</text>
<text x="120.851" y="17.4545" transform="rotate(-90 120.851 17.4545)">23,11</text>
<text x="151.083" y="34.9091" transform="rotate(-90 151.083 34.9091)">22,10</text>
<text x="181.316" y="17.4545" transform="rotate(-90 181.316 17.4545)">23,9</text>
<text x="211.548" y="34.9091" transform="rotate(-90 211.548 34.9091)">22,8</text>
<text x="241.78" y="17.4545" transform="rotate(-90 241.78 17.4545)">23,7</text>
<text x="272.012" y="34.9091" transform="rotate(-90 272.012 34.9091)">22,6</text>
<text x="302.244" y="17.4545" transform="rotate(-90 302.244 17.4545)">23,5</text>
<text x="332.476" y="34.9091" transform="rotate(-90 332.476 34.9091)">22,4</text>
<text x="362.709" y="17.4545" transform="rotate(-90 362.709 17.4545)">23,3</text>
<text x="392.941" y="34.9091" transform="rotate(-90 392.941 34.9091)">22,2</text>
<text x="423.173" y="17.4545" transform="rotate(-90 423.173 17.4545)">23,1</text>
<text x="453.405" y="34.9091" transform="rotate(-90 453.405 34.9091)">22,0</text>
<text x="483.637" y="17.4545" transform="rotate(-90 483.637 17.4545)">23,-1</text>
<text x="513.869" y="34.9091" transform="rotate(-90 513.869 34.9091)">22,-2</text>
<text x="544.101" y="17.4545" transform="rotate(-90 544.101 17.4545)">23,-3</text>
<text x="574.334" y="34.9091" transform="rotate(-90 574.334 34.9091)">22,-4</text>
<text x="604.566" y="17.4545" transform="rotate(-90 604.566 17.4545)">23,-5</text>
<text x="634.798" y="34.9091" transform="rotate(-90 634.798 34.9091)">22,-6</text>
<text x="665.03" y="17.4545" transform="rotate(-90 665.03 17.4545)">23,-7</text>
<text x="695.262" y="34.9091" transform="rotate(-90 695.262 34.9091)">22,-8</text>
<text x="725.494" y="17.4545" transform="rotate(-90 725.494 17.4545)">23,-9</text>
<text x="755.727" y="34.9091" transform="rotate(-90 755.727 34.9091)">22,-10</text>
<text x="785.959" y="17.4545" transform="rotate(-90 785.959 17.4545)">23,-11</text>
<text x="816.191" y="34.9091" transform="rotate(-90 816.191 34.9091)">22,-12</text>
<text x="846.423" y="17.4545" transform="rotate(-90 846.423 17.4545)">23,-13</text>
<text x="876.655" y="34.9091" transform="rotate(-90 876.655 34.9091)">22,-14</text>
<text x="30.1548" y="69.8182" transform="rotate(-90 30.1548 69.8182)">20,14</text>
<text x="60.3869" y="52.3636" transform="rotate(-90 60.3869 52.3636)">21,13</text>
<text x="90.6191" y="69.8182" transform="rotate(-90 90.6191 69.8182)">20,12</text>
<text x="120.851" y="52.3636" transform="rotate(-90 120.851 52.3636)">21,11</text>
<text x="151.083" y="69.8182" transform="rotate(-90 151.083 69.8182)">20,10</text>
<text x="181.316" y="52.3636" transform="rotate(-90 181.316 52.3636)">21,9</text>
<text x="211.548" y="69.8182" transform="rotate(-90 211.548 69.8182)">20,8</text>
<text x="241.78" y="52.3636" transform="rotate(-90 241.78 52.3636)">21,7</text>
<text x="272.012" y="69.8182" transform="rotate(-90 272.012 69.8182)">20,6</text>
<text x="302.244" y="52.3636" transform="rotate(-90 302.244 52.3636)">21,5</text>
<text x="332.476" y="69.8182" transform="rotate(-90 332.476 69.8182)">20,4</text>
<text x="362.709" y="52.3636" transform="rotate(-90 362.709 52.3636)">21,3</text>
<text x="392.941" y="69.8182" transform="rotate(-90 392.941 69.8182)">20,2</text>
<text x="423.173" y="52.3636" transform="rotate(-90 423.173 52.3636)">21,1</text>
<text x="453.405" y="69.8182" transform="rotate(-90 453.405 69.8182)">20,0</text>
<text x="483.637" y="52.3636" transform="rotate(-90 483.637 52.3636)">21,-1</text>
<text x="513.869" y="69.8182" transform="rotate(-90 513.869 69.8182)">20,-2</text>
<text x="544.101" y="52.3636" transform="rotate(-90 544.101 52.3636)">21,-3</text>
<text x="574.334" y="69.8182" transform="rotate(-90 574.334 69.8182)">20,-4</text>
<text x="604.566" y="52.3636" transform="rotate(-90 604.566 52.3636)">21,-5</text>
<text x="634.798" y="69.8182" transform="rotate(-90 634.798 69.8182)">20,-6</text>
<text x="665.03" y="52.3636" transform="rotate(-90 665.03 52.3636)">21,-7</text>
<text x="695.262" y="69.8182" transform="rotate(-90 695.262 69.8182)">20,-8</text>
<text x="725.494" y="52.3636" transform="rotate(-90 725.494 52.3636)">21,-9</text>
<text x="755.727" y="69.8182" transform="rotate(-90 755.727 69.8182)">20,-10</text>
<text x="785.959" y="52.3636" transform="rotate(-90 785.959 52.3636)">21,-11</text>
<text x="816.191" y="69.8182" transform="rotate(-90 816.191 69.8182)">20,-12</text>
<text x="846.423" y="52.3636" transform="rotate(-90 846.423 52.3636)">21,-13</text>
<text x="876.655" y="69.8182" transform="rotate(-90 876.655 69.8182)">20,-14</text>
<text x="30.1548" y="104.727" transform="rotate(-90 30.1548 104.727)">18,14</text>
<text x="60.3869" y="87.2727" transform="rotate(-90 60.3869 87.2727)">19,13</text>
<text x="90.6191" y="104.727" transform="rotate(-90 90.6191 104.727)">18,12</text>
<text x="120.851" y="87.2727" transform="rotate(-90 120.851 87.2727)">19,11</text>
<text x="151.083" y="104.727" transform="rotate(-90 151.083 104.727)">18,10</text>
<text x="181.316" y="87.2727" transform="rotate(-90 181.316 87.2727)">19,9</text>
<text x="211.548" y="104.727" transform="rotate(-90 211.548 104.727)">18,8</text>
<text x="241.78" y="87.2727" transform="rotate(-90 241.78 87.2727)">19,7</text>
<text x="272.012" y="104.727" transform="rotate(-90 272.012 104.727)">18,6</text>
<text x="302.244" y="87.2727" transform="rotate(-90 302.244 87.2727)">19,5</text>
<text x="332.476" y="104.727" transform="rotate(-90 332.476 104.727)">18,4</text>
<text x="362.709" y="87.2727" transform="rotate(-90 362.709 87.2727)">19,3</text>
<text x="392.941" y="104.727" transform="rotate(-90 392.941 104.727)">18,2</text>
<text x="423.173" y="87.2727" transform="rotate(-90 423.173 87.2727)">19,1</text>
<text x="453.405" y="104.727" transform="rotate(-90 453.405 104.727)">18,0</text>
<text x="483.637" y="87.2727" transform="rotate(-90 483.637 87.2727)">19,-1</text>
<text x="513.869" y="104.727" transform="rotate(-90 513.869 104.727)">18,-2</text>
<text x="544.101" y="87.2727" transform="rotate(-90 544.101 87.2727)">19,-3</text>
<text x="574.334" y="104.727" transform="rotate(-90 574.334 104.727)">18,-4</text>
<text x="604.566" y="87.2727" transform="rotate(-90 604.566 87.2727)">19,-5</text>
<text x="634.798" y="104.727" transform="rotate(-90 634.798 104.727)">18,-6</text>
<text x="665.03" y="87.2727" transform="rotate(-90 665.03 87.2727)">19,-7</text>
<text x="695.262" y="104.727" transform="rotate(-90 695.262 104.727)">18,-8</text>
<text x="725.494" y="87.2727" transform="rotate(-90 725.494 87.2727)">19,-9</text>
<text x="755.727" y="104.727" transform="rotate(-90 755.727 104.727)">18,-10</text>
<text x="785.959" y="87.2727" transform="rotate(-90 785.959 87.2727)">19,-11</text>
<text x="816.191" y="104.727" transform="rotate(-90 816.191 104.727)">18,-12</text>
<text x="846.423" y="87.2727" transform="rotate(-90 846.423 87.2727)">19,-13</text>
<text x="876.655" y="104.727" transform="rotate(-90 876.655 104.727)">18,-14</text>
<text x="30.1548" y="139.636" transform="rotate(-90 30.1548 139.636)">16,14</text>
<text x="60.3869" y="122.182" transform="rotate(-90 60.3869 122.182)">17,13</text>
<text x="90.6191" y="139.636" transform="rotate(-90 90.6191 139.636)">16,12</text>
<text x="120.851" y="122.182" transform="rotate(-90 120.851 122.182)">17,11</text>
<text x="151.083" y="139.636" transform="rotate(-90 151.083 139.636)">16,10</text>
<text x="181.316" y="122.182" transform="rotate(-90 181.316 122.182)">17,9</text>
<text x="211.548" y="139.636" transform="rotate(-90 211.548 139.636)">16,8</text>
<text x="241.78" y="122.182" transform="rotate(-90 241.78 122.182)">17,7</text>
<text x="272.012" y="139.636" transform="rotate(-90 272.012 139.636)">16,6</text>
<text x="302.244" y="122.182" transform="rotate(-90 302.244 122.182)">17,5</text>
<text x="332.476" y="139.636" transform="rotate(-90 332.476 139.636)">16,4</text>
<text x="362.709" y="122.182" transform="rotate(-90 362.709 122.182)">17,3</text>
<text x="392.941" y="139.636" transform="rotate(-90 392.941 139.636)">16,2</text>
<text x="423.173" y="122.182" transform="rotate(-90 423.173 122.182)">17,1</text>
<text x="453.405" y="139.636" transform="rotate(-90 453.405 139.636)">16,0</text>
<text x="483.637" y="122.182" transform="rotate(-90 483.637 122.182)">17,-1</text>
<text x="513.869" y="139.636" transform="rotate(-90 513.869 139.636)">16,-2</text>
<text x="544.101" y="122.182" transform="rotate(-90 544.101 122.182)">17,-3</text>
<text x="574.334" y="139.636" transform="rotate(-90 574.334 139.636)">16,-4</text>
<text x="604.566" y="122.182" transform="rotate(-90 604.566 122.182)">17,-5</text>
<text x="634.798" y="139.636" transform="rotate(-90 634.798 139.636)">16,-6</text>
<text x="665.03" y="122.182" transform="rotate(-90 665.03 122.182)">17,-7</text>
<text x="695.262" y="139.636" transform="rotate(-90 695.262 139.636)">16,-8</text>
<text x="725.494" y="122.182" transform="rotate(-90 725.494 122.182)">17,-9</text>
<text x="755.727" y="139.636" transform="rotate(-90 755.727 139.636)">16,-10</text>
<text x="785.959" y="122.182" transform="rotate(-90 785.959 122.182)">17,-11</text>
<text x="816.191" y="139.636" transform="rotate(-90 816.191 139.636)">16,-12</text>
<text x="846.423" y="122.182" transform="rotate(-90 846.423 122.182)">17,-13</text>
<text x="876.655" y="139.636" transform="rotate(-90 876.655 139.636)">16,-14</text>
<text x="30.1548" y="174.545" transform="rotate(-90 30.1548 174.545)">14,14</text>
<text x="60.3869" y="157.091" transform="rotate(-90 60.3869 157.091)">15,13</text>
<text x="90.6191" y="174.545" transform="rotate(-90 90.6191 174.545)">14,12</text>
<text x="120.851" y="157.091" transform="rotate(-90 120.851 157.091)">15,11</text>
<text x="151.083" y="174.545" transform="rotate(-90 151.083 174.545)">14,10</text>
<text x="181.316" y="157.091" transform="rotate(-90 181.316 157.091)">15,9</text>
<text x="211.548" y="174.545" transform="rotate(-90 211.548 174.545)">14,8</text>
<text x="241.78" y="157.091" transform="rotate(-90 241.78 157.091)">15,7</text>
<text x="272.012" y="174.545" transform="rotate(-90 272.012 174.545)">14,6</text>
<text x="302.244" y="157.091" transform="rotate(-90 302.244 157.091)">15,5</text>
<text x="332.476" y="174.545" transform="rotate(-90 332.476 174.545)">14,4</text>
<text x="362.709" y="157.091" transform="rotate(-90 362.709 157.091)">15,3</text>
<text x="392.941" y="174.545" transform="rotate(-90 392.941 174.545)">14,2</text>
<text x="423.173" y="157.091" transform="rotate(-90 423.173 157.091)">15,1</text>
<text x="453.405" y="174.545" transform="rotate(-90 453.405 174.545)">14,0</text>
<text x="483.637" y="157.091" transform="rotate(-90 483.637 157.091)">15,-1</text>
<text x="513.869" y="174.545" transform="rotate(-90 513.869 174.545)">14,-2</text>
<text x="544.101" y="157.091" transform="rotate(-90 544.101 157.091)">15,-3</text>
<text x="574.334" y="174.545" transform="rotate(-90 574.334 174.545)">14,-4</text>
<text x="604.566" y="157.091" transform="rotate(-90 604.566 157.091)">15,-5</text>
<text x="634.798" y="174.545" transform="rotate(-90 634.798 174.545)">14,-6</text>
<text x="665.03" y="157.091" transform="rotate(-90 665.03 157.091)">15,-7</text>
<text x="695.262" y="174.545" transform="rotate(-90 695.262 174.545)">14,-8</text>
<text x="725.494" y="157.091" transform="rotate(-90 725.494 157.091)">15,-9</text>
<text x="755.727" y="174.545" transform="rotate(-90 755.727 174.545)">14,-10</text>
<text x="785.959" y="157.091" transform="rotate(-90 785.959 157.091)">15,-11</text>
<text x="816.191" y="174.545" transform="rotate(-90 816.191 174.545)">14,-12</text>
<text x="846.423" y="157.091" transform="rotate(-90 846.423 157.091)">15,-13</text>
<text x="876.655" y="174.545" transform="rotate(-90 876.655 174.545)">14,-14</text>
<text x="30.1548" y="209.455" transform="rotate(-90 30.1548 209.455)">12,14</text>
<text x="60.3869" y="192" transform="rotate(-90 60.3869 192)">13,13</text>
<text x="90.6191" y="209.455" transform="rotate(-90 90.6191 209.455)">12,12</text>
<text x="120.851" y="192" transform="rotate(-90 120.851 192)">13,11</text>
<text x="151.083" y="209.455" transform="rotate(-90 151.083 209.455)">12,10</text>
<text x="181.316" y="192" transform="rotate(-90 181.316 192)">13,9</text>
<text x="211.548" y="209.455" transform="rotate(-90 211.548 209.455)">12,8</text>
<text x="241.78" y="192" transform="rotate(-90 241.78 192)">13,7</text>
<text x="272.012" y="209.455" transform="rotate(-90 272.012 209.455)">12,6</text>
<text x="302.244" y="192" transform="rotate(-90 302.244 192)">13,5</text>
<text x="332.476" y="209.455" transform="rotate(-90 332.476 209.455)">12,4</text>
<text x="362.709" y="192" transform="rotate(-90 362.709 192)">13,3</text>
<text x="392.941" y="209.455" transform="rotate(-90 392.941 209.455)">12,2</text>
<text x="423.173" y="192" transform="rotate(-90 423.173 192)">13,1</text>
<text x="453.405" y="209.455" transform="rotate(-90 453.405 209.455)">12,0</text>
<text x="483.637" y="192" transform="rotate(-90 483.637 192)">13,-1</text>
<text x="513.869" y="209.455" transform="rotate(-90 513.869 209.455)">12,-2</text>
<text x="544.101" y="192" transform="rotate(-90 544.101 192)">13,-3</text>
<text x="574.334" y="209.455" transform="rotate(-90 574.334 209.455)">12,-4</text>
<text x="604.566" y="192" transform="rotate(-90 604.566 192)">13,-5</text>
<text x="634.798" y="209.455" transform="rotate(-90 634.798 209.455)">12,-6</text>
<text x="665.03" y="192" transform="rotate(-90 665.03 192)">13,-7</text>
<text x="695.262" y="209.455" transform="rotate(-90 695.262 209.455)">12,-8</text>
<text x="725.494" y="192" transform="rotate(-90 725.494 192)">13,-9</text>
<text x="755.727" y="209.455" transform="rotate(-90 755.727 209.455)">12,-10</text>
<text x="785.959" y="192" transform="rotate(-90 785.959 192)">13,-11</text>
<text x="816.191" y="209.455" transform="rotate(-90 816.191 209.455)">12,-12</text>
<text x="846.423" y="192" transform="rotate(-90 846.423 192)">13,-13</text>
<text x="876.655" y="209.455" transform="rotate(-90 876.655 209.455)">12,-14</text>
<text x="30.1548" y="244.364" transform="rotate(-90 30.1548 244.364)">10,14</text>
<text x="60.3869" y="226.909" transform="rotate(-90 60.3869 226.909)">11,13</text>
<text x="90.6191" y="244.364" transform="rotate(-90 90.6191 244.364)">10,12</text>
<text x="120.851" y="226.909" transform="rotate(-90 120.851 226.909)">11,11</text>
<text x="151.083" y="244.364" transform="rotate(-90 151.083 244.364)">10,10</text>
<text x="181.316" y="226.909" transform="rotate(-90 181.316 226.909)">11,9</text>
<text x="211.548" y="244.364" transform="rotate(-90 211.548 244.364)">10,8</text>
<text x="241.78" y="226.909" transform="rotate(-90 241.78 226.909)">11,7</text>
<text x="272.012" y="244.364" transform="rotate(-90 272.012 244.364)">10,6</text>
<text x="302.244" y="226.909" transform="rotate(-90 302.244 226.909)">11,5</text>
<text x="332.476" y="244.364" transform="rotate(-90 332.476 244.364)">10,4</text>
<text x="362.709" y="226.909" transform="rotate(-90 362.709 226.909)">11,3</text>
<text x="392.941" y="244.364" transform="rotate(-90 392.941 244.364)">10,2</text>
<text x="423.173" y="226.909" transform="rotate(-90 423.173 226.909)">11,1</text>
<text x="453.405" y="244.364" transform="rotate(-90 453.405 244.364)">10,0</text>
<text x="483.637" y="226.909" transform="rotate(-90 483.637 226.909)">11,-1</text>
<text x="513.869" y="244.364" transform="rotate(-90 513.869 244.364)">10,-2</text>
<text x="544.101" y="226.909" transform="rotate(-90 544.101 226.909)">11,-3</text>
<text x="574.334" y="244.364" transform="rotate(-90 574.334 244.364)">10,-4</text>
<text x="604.566" y="226.909" transform="rotate(-90 604.566 226.909)">11,-5</text>
<text x="634.798" y="244.364" transform="rotate(-90 634.798 244.364)">10,-6</text>
<text x="665.03" y="226.909" transform="rotate(-90 665.03 226.909)">11,-7</text>
<text x="695.262" y="244.364" transform="rotate(-90 695.262 244.364)">10,-8</text>
<text x="725.494" y="226.909" transform="rotate(-90 725.494 226.909)">11,-9</text>
<text x="755.727" y="244.364" transform="rotate(-90 755.727 244.364)">10,-10</text>
<text x="785.959" y="226.909" transform="rotate(-90 785.959 226.909)">11,-11</text>
<text x="816.191" y="244.364" transform="rotate(-90 816.191 244.364)">10,-12</text>
<text x="846.423" y="226.909" transform="rotate(-90 846.423 226.909)">11,-13</text>
<text x="876.655" y="244.364" transform="rotate(-90 876.655 244.364)">10,-14</text>
<text x="30.1548" y="279.273" transform="rotate(-90 30.1548 279.273)">8,14</text>
<text x="60.3869" y="261.818" transform="rotate(-90 60.3869 261.818)">9,13</text>
<text x="90.6191" y="279.273" transform="rotate(-90 90.6191 279.273)">8,12</text>
<text x="120.851" y="261.818" transform="rotate(-90 120.851 261.818)">9,11</text>
<text x="151.083" y="279.273" transform="rotate(-90 151.083 279.273)">8,10</text>
<text x="181.316" y="261.818" transform="rotate(-90 181.316 261.818)">9,9</text>
<text x="211.548" y="279.273" transform="rotate(-90 211.548 279.273)">8,8</text>
<text x="241.78" y="261.818" transform="rotate(-90 241.78 261.818)">9,7</text>
<text x="272.012" y="279.273" transform="rotate(-90 272.012 279.273)">8,6</text>
<text x="302.244" y="261.818" transform="rotate(-90 302.244 261.818)">9,5</text>
<text x="332.476" y="279.273" transform="rotate(-90 332.476 279.273)">8,4</text>
<text x="362.709" y="261.818" transform="rotate(-90 362.709 261.818)">9,3</text>
<text x="392.941" y="279.273" transform="rotate(-90 392.941 279.273)">8,2</text>
<text x="423.173" y="261.818" transform="rotate(-90 423.173 261.818)">9,1</text>
<text x="453.405" y="279.273" transform="rotate(-90 453.405 279.273)">8,0</text>
<text x="483.637" y="261.818" transform="rotate(-90 483.637 261.818)">9,-1</text>
<text x="513.869" y="279.273" transform="rotate(-90 513.869 279.273)">8,-2</text>
<text x="544.101" y="261.818" transform="rotate(-90 544.101 261.818)">9,-3</text>
<text x="574.334" y="279.273" transform="rotate(-90 574.334 279.273)">8,-4</text>
<text x="604.566" y="261.818" transform="rotate(-90 604.566 261.818)">9,-5</text>
<text x="634.798" y="279.273" transform="rotate(-90 634.798 279.273)">8,-6</text>
<text x="665.03" y="261.818" transform="rotate(-90 665.03 261.818)">9,-7</text>
<text x="695.262" y="279.273" transform="rotate(-90 695.262 279.273)">8,-8</text>
<text x="725.494" y="261.818" transform="rotate(-90 725.494 261.818)">9,-9</text>
<text x="755.727" y="279.273" transform="rotate(-90 755.727 279.273)">8,-10</text>
<text x="785.959" y="261.818" transform="rotate(-90 785.959 261.818)">9,-11</text>
<text x="816.191" y="279.273" transform="rotate(-90 816.191 279.273)">8,-12</text>
<text x="846.423" y="261.818" transform="rotate(-90 846.423 261.818)">9,-13</text>
<text x="876.655" y="279.273" transform="rotate(-90 876.655 279.273)">8,-14</text>
<text x="30.1548" y="314.182" transform="rotate(-90 30.1548 314.182)">6,14</text>
<text x="60.3869" y="296.727" transform="rotate(-90 60.3869 296.727)">7,13</text>
<text x="90.6191" y="314.182" transform="rotate(-90 90.6191 314.182)">6,12</text>
<text x="120.851" y="296.727" transform="rotate(-90 120.851 296.727)">7,11</text>
<text x="151.083" y="314.182" transform="rotate(-90 151.083 314.182)">6,10</text>
<text x="181.316" y="296.727" transform="rotate(-90 181.316 296.727)">7,9</text>
<text x="211.548" y="314.182" transform="rotate(-90 211.548 314.182)">6,8</text>
<text x="241.78" y="296.727" transform="rotate(-90 241.78 296.727)">7,7</text>
<text x="272.012" y="314.182" transform="rotate(-90 272.012 314.182)">6,6</text>
<text x="302.244" y="296.727" transform="rotate(-90 302.244 296.727)">7,5</text>
<text x="332.476" y="314.182" transform="rotate(-90 332.476 314.182)">6,4</text>
<text x="362.709" y="296.727" transform="rotate(-90 362.709 296.727)">7,3</text>
<text x="392.941" y="314.182" transform="rotate(-90 392.941 314.182)">6,2</text>
<text x="423.173" y="296.727" transform="rotate(-90 423.173 296.727)">7,1</text>
<text x="453.405" y="314.182" transform="rotate(-90 453.405 314.182)">6,0</text>
<text x="483.637" y="296.727" transform="rotate(-90 483.637 296.727)">7,-1</text>
<text x="513.869" y="314.182" transform="rotate(-90 513.869 314.182)">6,-2</text>
<text x="544.101" y="296.727" transform="rotate(-90 544.101 296.727)">7,-3</text>
<text x="574.334" y="314.182" transform="rotate(-90 574.334 314.182)">6,-4</text>
<text x="604.566" y="296.727" transform="rotate(-90 604.566 296.727)">7,-5</text>
<text x="634.798" y="314.182" transform="rotate(-90 634.798 314.182)">6,-6</text>
<text x="665.03" y="296.727" transform="rotate(-90 665.03 296.727)">7,-7</text>
<text x="695.262" y="314.182" transform="rotate(-90 695.262 314.182)">6,-8</text>
<text x="725.494" y="296.727" transform="rotate(-90 725.494 296.727)">7,-9</text>
<text x="755.727" y="314.182" transform="rotate(-90 755.727 314.182)">6,-10</text>
<text x="785.959" y="296.727" transform="rotate(-90 785.959 296.727)">7,-11</text>
<text x="816.191" y="314.182" transform="rotate(-90 816.191 314.182)">6,-12</text>
<text x="846.423" y="296.727" transform="rotate(-90 846.423 296.727)">7,-13</text>
<text x="876.655" y="314.182" transform="rotate(-90 876.655 314.182)">6,-14</text>
<text x="30.1548" y="349.091" transform="rotate(-90 30.1548 349.091)">4,14</text>
<text x="60.3869" y="331.636" transform="rotate(-90 60.3869 331.636)">5,13</text>
<text x="90.6191" y="349.091" transform="rotate(-90 90.6191 349.091)">4,12</text>
<text x="120.851" y="331.636" transform="rotate(-90 120.851 331.636)">5,11</text>
<text x="151.083" y="349.091" transform="rotate(-90 151.083 349.091)">4,10</text>
<text x="181.316" y="331.636" transform="rotate(-90 181.316 331.636)">5,9</text>
<text x="211.548" y="349.091" transform="rotate(-90 211.548 349.091)">4,8</text>
<text x="241.78" y="331.636" transform="rotate(-90 241.78 331.636)">5,7</text>
<text x="272.012" y="349.091" transform="rotate(-90 272.012 349.091)">4,6</text>
<text x="302.244" y="331.636" transform="rotate(-90 302.244 331.636)">5,5</text>
<text x="332.476" y="349.091" transform="rotate(-90 332.476 349.091)">4,4</text>
<text x="362.709" y="331.636" transform="rotate(-90 362.709 331.636)">5,3</text>
<text x="392.941" y="349.091" transform="rotate(-90 392.941 349.091)">4,2</text>
<text x="423.173" y="331.636" transform="rotate(-90 423.173 331.636)">5,1</text>
<text x="453.405" y="349.091" transform="rotate(-90 453.405 349.091)">4,0</text>
<text x="483.637" y="331.636" transform="rotate(-90 483.637 331.636)">5,-1</text>
<text x="513.869" y="349.091" transform="rotate(-90 513.869 349.091)">4,-2</text>
<text x="544.101" y="331.636" transform="rotate(-90 544.101 331.636)">5,-3</text>
<text x="574.334" y="349.091" transform="rotate(-90 574.334 349.091)">4,-4</text>
<text x="604.566" y="331.636" transform="rotate(-90 604.566 331.636)">5,-5</text>
<text x="634.798" y="349.091" transform="rotate(-90 634.798 349.091)">4,-6</text>
<text x="665.03" y="331.636" transform="rotate(-90 665.03 331.636)">5,-7</text>
<text x="695.262" y="349.091" transform="rotate(-90 695.262 349.091)">4,-8</text>
<text x="725.494" y="331.636" transform="rotate(-90 725.494 331.636)">5,-9</text>
<text x="755.727" y="349.091" transform="rotate(-90 755.727 349.091)">4,-10</text>
<text x="785.959" y="331.636" transform="rotate(-90 785.959 331.636)">5,-11</text>
<text x="816.191" y="349.091" transform="rotate(-90 816.191 349.091)">4,-12</text>
<text x="846.423" y="331.636" transform="rotate(-90 846.423 331.636)">5,-13</text>
<text x="876.655" y="349.091" transform="rotate(-90 876.655 349.091)">4,-14</text>
<text x="30.1548" y="384" transform="rotate(-90 30.1548 384)">2,14</text>
<text x="60.3869" y="366.545" transform="rotate(-90 60.3869 366.545)">3,13</text>
<text x="90.6191" y="384" transform="rotate(-90 90.6191 384)">2,12</text>
<text x="120.851" y="366.545" transform="rotate(-90 120.851 366.545)">3,11</text>
<text x="151.083" y="384" transform="rotate(-90 151.083 384)">2,10</text>
<text x="181.316" y="366.545" transform="rotate(-90 181.316 366.545)">3,9</text>
<text x="211.548" y="384" transform="rotate(-90 211.548 384)">2,8</text>
<text x="241.78" y="366.545" transform="rotate(-90 241.78 366.545)">3,7</text>
<text x="272.012" y="384" transform="rotate(-90 272.012 384)">2,6</text>
<text x="302.244" y="366.545" transform="rotate(-90 302.244 366.545)">3,5</text>
<text x="332.476" y="384" transform="rotate(-90 332.476 384)">2,4</text>
<text x="362.709" y="366.545" transform="rotate(-90 362.709 366.545)">3,3</text>
<text x="392.941" y="384" transform="rotate(-90 392.941 384)">2,2</text>
<text x="423.173" y="366.545" transform="rotate(-90 423.173 366.545)">3,1</text>
<text x="453.405" y="384" transform="rotate(-90 453.405 384)">2,0</text>
<text x="483.637" y="366.545" transform="rotate(-90 483.637 366.545)">3,-1</text>
<text x="513.869" y="384" transform="rotate(-90 513.869 384)">2,-2</text>
<text x="544.101" y="366.545" transform="rotate(-90 544.101 366.545)">3,-3</text>
<text x="574.334" y="384" transform="rotate(-90 574.334 384)">2,-4</text>
<text x="604.566" y="366.545" transform="rotate(-90 604.566 366.545)">3,-5</text>
<text x="634.798" y="384" transform="rotate(-90 634.798 384)">2,-6</text>
<text x="665.03" y="366.545" transform="rotate(-90 665.03 366.545)">3,-7</text>
<text x="695.262" y="384" transform="rotate(-90 695.262 384)">2,-8</text>
<text x="725.494" y="366.545" transform="rotate(-90 725.494 366.545)">3,-9</text>
<text x="755.727" y="384" transform="rotate(-90 755.727 384)">2,-10</text>
<text x="785.959" y="366.545" transform="rotate(-90 785.959 366.545)">3,-11</text>
<text x="816.191" y="384" transform="rotate(-90 816.191 384)">2,-12</text>
<text x="846.423" y="366.545" transform="rotate(-90 846.423 366.545)">3,-13</text>
<text x="876.655" y="384" transform="rotate(-90 876.655 384)">2,-14</text>
<text x="30.1548" y="418.909" transform="rotate(-90 30.1548 418.909)">0,14</text>
<text x="60.3869" y="401.455" transform="rotate(-90 60.3869 401.455)">1,13</text>
<text x="90.6191" y="418.909" transform="rotate(-90 90.6191 418.909)">0,12</text>
<text x="120.851" y="401.455" transform="rotate(-90 120.851 401.455)">1,11</text>
<text x="151.083" y="418.909" transform="rotate(-90 151.083 418.909)">0,10</text>
<text x="181.316" y="401.455" transform="rotate(-90 181.316 401.455)">1,9</text>
<text x="211.548" y="418.909" transform="rotate(-90 211.548 418.909)">0,8</text>
<text x="241.78" y="401.455" transform="rotate(-90 241.78 401.455)">1,7</text>
<text x="272.012" y="418.909" transform="rotate(-90 272.012 418.909)">0,6</text>
<text x="302.244" y="401.455" transform="rotate(-90 302.244 401.455)">1,5</text>
<text x="332.476" y="418.909" transform="rotate(-90 332.476 418.909)">0,4</text>
<text x="362.709" y="401.455" transform="rotate(-90 362.709 401.455)">1,3</text>
<text x="392.941" y="418.909" transform="rotate(-90 392.941 418.909)">0,2</text>
<text x="423.173" y="401.455" transform="rotate(-90 423.173 401.455)">1,1</text>
<text x="453.405" y="418.909" transform="rotate(-90 453.405 418.909)">0,0</text>
<text x="483.637" y="401.455" transform="rotate(-90 483.637 401.455)">1,-1</text>
<text x="513.869" y="418.909" transform="rotate(-90 513.869 418.909)">0,-2</text>
<text x="544.101" y="401.455" transform="rotate(-90 544.101 401.455)">1,-3</text>
<text x="574.334" y="418.909" transform="rotate(-90 574.334 418.909)">0,-4</text>
<text x="604.566" y="401.455" transform="rotate(-90 604.566 401.455)">1,-5</text>
<text x="634.798" y="418.909" transform="rotate(-90 634.798 418.909)">0,-6</text>
<text x="665.03" y="401.455" transform="rotate(-90 665.03 401.455)">1,-7</text>
<text x="695.262" y="418.909" transform="rotate(-90 695.262 418.909)">0,-8</text>
<text x="725.494" y="401.455" transform="rotate(-90 725.494 401.455)">1,-9</text>
<text x="755.727" y="418.909" transform="rotate(-90 755.727 418.909)">0,-10</text>
<text x="785.959" y="401.455" transform="rotate(-90 785.959 401.455)">1,-11</text>
<text x="816.191" y="418.909" transform="rotate(-90 816.191 418.909)">0,-12</text>
<text x="846.423" y="401.455" transform="rotate(-90 846.423 401.455)">1,-13</text>
<text x="876.655" y="418.909" transform="rotate(-90 876.655 418.909)">0,-14</text>
<text x="30.1548" y="453.818" transform="rotate(-90 30.1548 453.818)">-2,14</text>
<text x="60.3869" y="436.364" transform="rotate(-90 60.3869 436.364)">-1,13</text>
<text x="90.6191" y="453.818" transform="rotate(-90 90.6191 453.818)">-2,12</text>
<text x="120.851" y="436.364" transform="rotate(-90 120.851 436.364)">-1,11</text>
<text x="151.083" y="453.818" transform="rotate(-90 151.083 453.818)">-2,10</text>
<text x="181.316" y="436.364" transform="rotate(-90 181.316 436.364)">-1,9</text>
<text x="211.548" y="453.818" transform="rotate(-90 211.548 453.818)">-2,8</text>
<text x="241.78" y="436.364" transform="rotate(-90 241.78 436.364)">-1,7</text>
<text x="272.012" y="453.818" transform="rotate(-90 272.012 453.818)">-2,6</text>
<text x="302.244" y="436.364" transform="rotate(-90 302.244 436.364)">-1,5</text>
<text x="332.476" y="453.818" transform="rotate(-90 332.476 453.818)">-2,4</text>
<text x="362.709" y="436.364" transform="rotate(-90 362.709 436.364)">-1,3</text>
<text x="392.941" y="453.818" transform="rotate(-90 392.941 453.818)">-2,2</text>
<text x="423.173" y="436.364" transform="rotate(-90 423.173 436.364)">-1,1</text>
<text x="453.405" y="453.818" transform="rotate(-90 453.405 453.818)">-2,0</text>
<text x="483.637" y="436.364" transform="rotate(-90 483.637 436.364)">-1,-1</text>
<text x="513.869" y="453.818" transform="rotate(-90 513.869 453.818)">-2,-2</text>
<text x="544.101" y="436.364" transform="rotate(-90 544.101 436.364)">-1,-3</text>
<text x="574.334" y="453.818" transform="rotate(-90 574.334 453.818)">-2,-4</text>
<text x="604.566" y="436.364" transform="rotate(-90 604.566 436.364)">-1,-5</text>
<text x="634.798" y="453.818" transform="rotate(-90 634.798 453.818)">-2,-6</text>
<text x="665.03" y="436.364" transform="rotate(-90 665.03 436.364)">-1,-7</text>
<text x="695.262" y="453.818" transform="rotate(-90 695.262 453.818)">-2,-8</text>
<text x="725.494" y="436.364" transform="rotate(-90 725.494 436.364)">-1,-9</text>
<text x="755.727" y="453.818" transform="rotate(-90 755.727 453.818)">-2,-10</text>
<text x="785.959" y="436.364" transform="rotate(-90 785.959 436.364)">-1,-11</text>
<text x="816.191" y="453.818" transform="rotate(-90 816.191 453.818)">-2,-12</text>
<text x="846.423" y="436.364" transform="rotate(-90 846.423 436.364)">-1,-13</text>
<text x="876.655" y="453.818" transform="rotate(-90 876.655 453.818)">-2,-14</text>
<text x="30.1548" y="488.727" transform="rotate(-90 30.1548 488.727)">-4,14</text>
<text x="60.3869" y="471.273" transform="rotate(-90 60.3869 471.273)">-3,13</text>
<text x="90.6191" y="488.727" transform="rotate(-90 90.6191 488.727)">-4,12</text>
<text x="120.851" y="471.273" transform="rotate(-90 120.851 471.273)">-3,11</text>
<text x="151.083" y="488.727" transform="rotate(-90 151.083 488.727)">-4,10</text>
<text x="181.316" y="471.273" transform="rotate(-90 181.316 471.273)">-3,9</text>
<text x="211.548" y="488.727" transform="rotate(-90 211.548 488.727)">-4,8</text>
<text x="241.78" y="471.273" transform="rotate(-90 241.78 471.273)">-3,7</text>
<text x="272.012" y="488.727" transform="rotate(-90 272.012 488.727)">-4,6</text>
<text x="302.244" y="471.273" transform="rotate(-90 302.244 471.273)">-3,5</text>
<text x="332.476" y="488.727" transform="rotate(-90 332.476 488.727)">-4,4</text>
<text x="362.709" y="471.273" transform="rotate(-90 362.709 471.273)">-3,3</text>
<text x="392.941" y="488.727" transform="rotate(-90 392.941 488.727)">-4,2</text>
<text x="423.173" y="471.273" transform="rotate(-90 423.173 471.273)">-3,1</text>
<text x="453.405" y="488.727" transform="rotate(-90 453.405 488.727)">-4,0</text>
<text x="483.637" y="471.273" transform="rotate(-90 483.637 471.273)">-3,-1</text>
<text x="513.869" y="488.727" transform="rotate(-90 513.869 488.727)">-4,-2</text>
<text x="544.101" y="471.273" transform="rotate(-90 544.101 471.273)">-3,-3</text>
<text x="574.334" y="488.727" transform="rotate(-90 574.334 488.727)">-4,-4</text>
<text x="604.566" y="471.273" transform="rotate(-90 604.566 471.273)">-3,-5</text>
<text x="634.798" y="488.727" transform="rotate(-90 634.798 488.727)">-4,-6</text>
<text x="665.03" y="471.273" transform="rotate(-90 665.03 471.273)">-3,-7</text>
<text x="695.262" y="488.727" transform="rotate(-90 695.262 488.727)">-4,-8</text>
<text x="725.494" y="471.273" transform="rotate(-90 725.494 471.273)">-3,-9</text>
<text x="755.727" y="488.727" transform="rotate(-90 755.727 488.727)">-4,-10</text>
<text x="785.959" y="471.273" transform="rotate(-90 785.959 471.273)">-3,-11</text>
<text x="816.191" y="488.727" transform="rotate(-90 816.191 488.727)">-4,-12</text>
<text x="846.423" y="471.273" transform="rotate(-90 846.423 471.273)">-3,-13</text>
<text x="876.655" y="488.727" transform="rotate(-90 876.655 488.727)">-4,-14</text>
<text x="30.1548" y="523.636" transform="rotate(-90 30.1548 523.636)">-6,14</text>
<text x="60.3869" y="506.182" transform="rotate(-90 60.3869 506.182)">-5,13</text>
<text x="90.6191" y="523.636" transform="rotate(-90 90.6191 523.636)">-6,12</text>
<text x="120.851" y="506.182" transform="rotate(-90 120.851 506.182)">-5,11</text>
<text x="151.083" y="523.636" transform="rotate(-90 151.083 523.636)">-6,10</text>
<text x="181.316" y="506.182" transform="rotate(-90 181.316 506.182)">-5,9</text>
<text x="211.548" y="523.636" transform="rotate(-90 211.548 523.636)">-6,8</text>
<text x="241.78" y="506.182" transform="rotate(-90 241.78 506.182)">-5,7</text>
<text x="272.012" y="523.636" transform="rotate(-90 272.012 523.636)">-6,6</text>
<text x="302.244" y="506.182" transform="rotate(-90 302.244 506.182)">-5,5</text>
<text x="332.476" y="523.636" transform="rotate(-90 332.476 523.636)">-6,4</text>
<text x="362.709" y="506.182" transform="rotate(-90 362.709 506.182)">-5,3</text>
<text x="392.941" y="523.636" transform="rotate(-90 392.941 523.636)">-6,2</text>
<text x="423.173" y="506.182" transform="rotate(-90 423.173 506.182)">-5,1</text>
<text x="453.405" y="523.636" transform="rotate(-90 453.405 523.636)">-6,0</text>
<text x="483.637" y="506.182" transform="rotate(-90 483.637 506.182)">-5,-1</text>
<text x="513.869" y="523.636" transform="rotate(-90 513.869 523.636)">-6,-2</text>
<text x="544.101" y="506.182" transform="rotate(-90 544.101 506.182)">-5,-3</text>
<text x="574.334" y="523.636" transform="rotate(-90 574.334 523.636)">-6,-4</text>
<text x="604.566" y="506.182" transform="rotate(-90 604.566 506.182)">-5,-5</text>
<text x="634.798" y="523.636" transform="rotate(-90 634.798 523.636)">-6,-6</text>
<text x="665.03" y="506.182" transform="rotate(-90 665.03 506.182)">-5,-7</text>
<text x="695.262" y="523.636" transform="rotate(-90 695.262 523.636)">-6,-8</text>
<text x="725.494" y="506.182" transform="rotate(-90 725.494 506.182)">-5,-9</text>
<text x="755.727" y="523.636" transform="rotate(-90 755.727 523.636)">-6,-10</text>
<text x="785.959" y="506.182" transform="rotate(-90 785.959 506.182)">-5,-11</text>
<text x="816.191" y="523.636" transform="rotate(-90 816.191 523.636)">-6,-12</text>
<text x="846.423" y="506.182" transform="rotate(-90 846.423 506.182)">-5,-13</text>
<text x="876.655" y="523.636" transform="rotate(-90 876.655 523.636)">-6,-14</text>
<text x="30.1548" y="558.545" transform="rotate(-90 30.1548 558.545)">-8,14</text>
<text x="60.3869" y="541.091" transform="rotate(-90 60.3869 541.091)">-7,13</text>
<text x="90.6191" y="558.545" transform="rotate(-90 90.6191 558.545)">-8,12</text>
<text x="120.851" y="541.091" transform="rotate(-90 120.851 541.091)">-7,11</text>
<text x="151.083" y="558.545" transform="rotate(-90 151.083 558.545)">-8,10</text>
<text x="181.316" y="541.091" transform="rotate(-90 181.316 541.091)">-7,9</text>
<text x="211.548" y="558.545" transform="rotate(-90 211.548 558.545)">-8,8</text>
<text x="241.78" y="541.091" transform="rotate(-90 241.78 541.091)">-7,7</text>
<text x="272.012" y="558.545" transform="rotate(-90 272.012 558.545)">-8,6</text>
<text x="302.244" y="541.091" transform="rotate(-90 302.244 541.091)">-7,5</text>
<text x="332.476" y="558.545" transform="rotate(-90 332.476 558.545)">-8,4</text>
<text x="362.709" y="541.091" transform="rotate(-90 362.709 541.091)">-7,3</text>
<text x="392.941" y="558.545" transform="rotate(-90 392.941 558.545)">-8,2</text>
<text x="423.173" y="541.091" transform="rotate(-90 423.173 541.091)">-7,1</text>
<text x="453.405" y="558.545" transform="rotate(-90 453.405 558.545)">-8,0</text>
<text x="483.637" y="541.091" transform="rotate(-90 483.637 541.091)">-7,-1</text>
<text x="513.869" y="558.545" transform="rotate(-90 513.869 558.545)">-8,-2</text>
<text x="544.101" y="541.091" transform="rotate(-90 544.101 541.091)">-7,-3</text>
<text x="574.334" y="558.545" transform="rotate(-90 574.334 558.545)">-8,-4</text>
<text x="604.566" y="541.091" transform="rotate(-90 604.566 541.091)">-7,-5</text>
<text x="634.798" y="558.545" transform="rotate(-90 634.798 558.545)">-8,-6</text>
<text x="665.03" y="541.091" transform="rotate(-90 665.03 541.091)">-7,-7</text>
<text x="695.262" y="558.545" transform="rotate(-90 695.262 558.545)">-8,-8</text>
<text x="725.494" y="541.091" transform="rotate(-90 725.494 541.091)">-7,-9</text>
<text x="755.727" y="558.545" transform="rotate(-90 755.727 558.545)">-8,-10</text>
<text x="785.959" y="541.091" transform="rotate(-90 785.959 541.091)">-7,-11</text>
<text x="816.191" y="558.545" transform="rotate(-90 816.191 558.545)">-8,-12</text>
<text x="846.423" y="541.091" transform="rotate(-90 846.423 541.091)">-7,-13</text>
<text x="876.655" y="558.545" transform="rotate(-90 876.655 558.545)">-8,-14</text>
<text x="30.1548" y="593.455" transform="rotate(-90 30.1548 593.455)">-10,14</text>
<text x="60.3869" y="576" transform="rotate(-90 60.3869 576)">-9,13</text>
<text x="90.6191" y="593.455" transform="rotate(-90 90.6191 593.455)">-10,12</text>
<text x="120.851" y="576" transform="rotate(-90 120.851 576)">-9,11</text>
<text x="151.083" y="593.455" transform="rotate(-90 151.083 593.455)">-10,10</text>
<text x="181.316" y="576" transform="rotate(-90 181.316 576)">-9,9</text>
<text x="211.548" y="593.455" transform="rotate(-90 211.548 593.455)">-10,8</text>
<text x="241.78" y="576" transform="rotate(-90 241.78 576)">-9,7</text>
<text x="272.012" y="593.455" transform="rotate(-90 272.012 593.455)">-10,6</text>
<text x="302.244" y="576" transform="rotate(-90 302.244 576)">-9,5</text>
<text x="332.476" y="593.455" transform="rotate(-90 332.476 593.455)">-10,4</text>
<text x="362.709" y="576" transform="rotate(-90 362.709 576)">-9,3</text>
<text x="392.941" y="593.455" transform="rotate(-90 392.941 593.455)">-10,2</text>
<text x="423.173" y="576" transform="rotate(-90 423.173 576)">-9,1</text>
<text x="453.405" y="593.455" transform="rotate(-90 453.405 593.455)">-10,0</text>
<text x="483.637" y="576" transform="rotate(-90 483.637 576)">-9,-1</text>
<text x="513.869" y="593.455" transform="rotate(-90 513.869 593.455)">-10,-2</text>
<text x="544.101" y="576" transform="rotate(-90 544.101 576)">-9,-3</text>
<text x="574.334" y="593.455" transform="rotate(-90 574.334 593.455)">-10,-4</text>
<text x="604.566" y="576" transform="rotate(-90 604.566 576)">-9,-5</text>
<text x="634.798" y="593.455" transform="rotate(-90 634.798 593.455)">-10,-6</text>
<text x="665.03" y="576" transform="rotate(-90 665.03 576)">-9,-7</text>
<text x="695.262" y="593.455" transform="rotate(-90 695.262 593.455)">-10,-8</text>
<text x="725.494" y="576" transform="rotate(-90 725.494 576)">-9,-9</text>
<text x="755.727" y="593.455" transform="rotate(-90 755.727 593.455)">-10,-10</text>
<text x="785.959" y="576" transform="rotate(-90 785.959 576)">-9,-11</text>
<text x="816.191" y="593.455" transform="rotate(-90 816.191 593.455)">-10,-12</text>
<text x="846.423" y="576" transform="rotate(-90 846.423 576)">-9,-13</text>
<text x="876.655" y="593.455" transform="rotate(-90 876.655 593.455)">-10,-14</text>
<text x="30.1548" y="628.364" transform="rotate(-90 30.1548 628.364)">-12,14</text>
<text x="60.3869" y="610.909" transform="rotate(-90 60.3869 610.909)">-11,13</text>
<text x="90.6191" y="628.364" transform="rotate(-90 90.6191 628.364)">-12,12</text>
<text x="120.851" y="610.909" transform="rotate(-90 120.851 610.909)">-11,11</text>
<text x="151.083" y="628.364" transform="rotate(-90 151.083 628.364)">-12,10</text>
<text x="181.316" y="610.909" transform="rotate(-90 181.316 610.909)">-11,9</text>
<text x="211.548" y="628.364" transform="rotate(-90 211.548 628.364)">-12,8</text>
<text x="241.78" y="610.909" transform="rotate(-90 241.78 610.909)">-11,7</text>
<text x="272.012" y="628.364" transform="rotate(-90 272.012 628.364)">-12,6</text>
<text x="302.244" y="610.909" transform="rotate(-90 302.244 610.909)">-11,5</text>
<text x="332.476" y="628.364" transform="rotate(-90 332.476 628.364)">-12,4</text>
<text x="362.709" y="610.909" transform="rotate(-90 362.709 610.909)">-11,3</text>
<text x="392.941" y="628.364" transform="rotate(-90 392.941 628.364)">-12,2</text>
<text x="423.173" y="610.909" transform="rotate(-90 423.173 610.909)">-11,1</text>
<text x="453.405" y="628.364" transform="rotate(-90 453.405 628.364)">-12,0</text>
<text x="483.637" y="610.909" transform="rotate(-90 483.637 610.909)">-11,-1</text>
<text x="513.869" y="628.364" transform="rotate(-90 513.869 628.364)">-12,-2</text>
<text x="544.101" y="610.909" transform="rotate(-90 544.101 610.909)">-11,-3</text>
<text x="574.334" y="628.364" transform="rotate(-90 574.334 628.364)">-12,-4</text>
<text x="604.566" y="610.909" transform="rotate(-90 604.566 610.909)">-11,-5</text>
<text x="634.798" y="628.364" transform="rotate(-90 634.798 628.364)">-12,-6</text>
<text x="665.03" y="610.909" transform="rotate(-90 665.03 610.909)">-11,-7</text>
<text x="695.262" y="628.364" transform="rotate(-90 695.262 628.364)">-12,-8</text>
<text x="725.494" y="610.909" transform="rotate(-90 725.494 610.909)">-11,-9</text>
<text x="755.727" y="628.364" transform="rotate(-90 755.727 628.364)">-12,-10</text>
<text x="785.959" y="610.909" transform="rotate(-90 785.959 610.909)">-11,-11</text>
<text x="816.191" y="628.364" transform="rotate(-90 816.191 628.364)">-12,-12</text>
<text x="846.423" y="610.909" transform="rotate(-90 846.423 610.909)">-11,-13</text>
<text x="876.655" y="628.364" transform="rotate(-90 876.655 628.364)">-12,-14</text>
<text x="30.1548" y="663.273" transform="rotate(-90 30.1548 663.273)">-14,14</text>
<text x="60.3869" y="645.818" transform="rotate(-90 60.3869 645.818)">-13,13</text>
<text x="90.6191" y="663.273" transform="rotate(-90 90.6191 663.273)">-14,12</text>
<text x="120.851" y="645.818" transform="rotate(-90 120.851 645.818)">-13,11</text>
<text x="151.083" y="663.273" transform="rotate(-90 151.083 663.273)">-14,10</text>
<text x="181.316" y="645.818" transform="rotate(-90 181.316 645.818)">-13,9</text>
<text x="211.548" y="663.273" transform="rotate(-90 211.548 663.273)">-14,8</text>
<text x="241.78" y="645.818" transform="rotate(-90 241.78 645.818)">-13,7</text>
<text x="272.012" y="663.273" transform="rotate(-90 272.012 663.273)">-14,6</text>
<text x="302.244" y="645.818" transform="rotate(-90 302.244 645.818)">-13,5</text>
<text x="332.476" y="663.273" transform="rotate(-90 332.476 663.273)">-14,4</text>
<text x="362.709" y="645.818" transform="rotate(-90 362.709 645.818)">-13,3</text>
<text x="392.941" y="663.273" transform="rotate(-90 392.941 663.273)">-14,2</text>
<text x="423.173" y="645.818" transform="rotate(-90 423.173 645.818)">-13,1</text>
<text x="453.405" y="663.273" transform="rotate(-90 453.405 663.273)">-14,0</text>
<text x="483.637" y="645.818" transform="rotate(-90 483.637 645.818)">-13,-1</text>
<text x="513.869" y="663.273" transform="rotate(-90 513.869 663.273)">-14,-2</text>
<text x="544.101" y="645.818" transform="rotate(-90 544.101 645.818)">-13,-3</text>
<text x="574.334" y="663.273" transform="rotate(-90 574.334 663.273)">-14,-4</text>
<text x="604.566" y="645.818" transform="rotate(-90 604.566 645.818)">-13,-5</text>
<text x="634.798" y="663.273" transform="rotate(-90 634.798 663.273)">-14,-6</text>
<text x="665.03" y="645.818" transform="rotate(-90 665.03 645.818)">-13,-7</text>
<text x="695.262" y="663.273" transform="rotate(-90 695.262 663.273)">-14,-8</text>
<text x="725.494" y="645.818" transform="rotate(-90 725.494 645.818)">-13,-9</text>
<text x="755.727" y="663.273" transform="rotate(-90 755.727 663.273)">-14,-10</text>
<text x="785.959" y="645.818" transform="rotate(-90 785.959 645.818)">-13,-11</text>
<text x="816.191" y="663.273" transform="rotate(-90 816.191 663.273)">-14,-12</text>
<text x="846.423" y="645.818" transform="rotate(-90 846.423 645.818)">-13,-13</text>
<text x="876.655" y="663.273" transform="rotate(-90 876.655 663.273)">-14,-14</text>
<text x="30.1548" y="698.182" transform="rotate(-90 30.1548 698.182)">-16,14</text>
<text x="60.3869" y="680.727" transform="rotate(-90 60.3869 680.727)">-15,13</text>
<text x="90.6191" y="698.182" transform="rotate(-90 90.6191 698.182)">-16,12</text>
<text x="120.851" y="680.727" transform="rotate(-90 120.851 680.727)">-15,11</text>
<text x="151.083" y="698.182" transform="rotate(-90 151.083 698.182)">-16,10</text>
<text x="181.316" y="680.727" transform="rotate(-90 181.316 680.727)">-15,9</text>
<text x="211.548" y="698.182" transform="rotate(-90 211.548 698.182)">-16,8</text>
<text x="241.78" y="680.727" transform="rotate(-90 241.78 680.727)">-15,7</text>
<text x="272.012" y="698.182" transform="rotate(-90 272.012 698.182)">-16,6</text>
<text x="302.244" y="680.727" transform="rotate(-90 302.244 680.727)">-15,5</text>
<text x="332.476" y="698.182" transform="rotate(-90 332.476 698.182)">-16,4</text>
<text x="362.709" y="680.727" transform="rotate(-90 362.709 680.727)">-15,3</text>
<text x="392.941" y="698.182" transform="rotate(-90 392.941 698.182)">-16,2</text>
<text x="423.173" y="680.727" transform="rotate(-90 423.173 680.727)">-15,1</text>
<text x="453.405" y="698.182" transform="rotate(-90 453.405 698.182)">-16,0</text>
<text x="483.637" y="680.727" transform="rotate(-90 483.637 680.727)">-15,-1</text>
<text x="513.869" y="698.182" transform="rotate(-90 513.869 698.182)">-16,-2</text>
<text x="544.101" y="680.727" transform="rotate(-90 544.101 680.727)">-15,-3</text>
<text x="574.334" y="698.182" transform="rotate(-90 574.334 698.182)">-16,-4</text>
<text x="604.566" y="680.727" transform="rotate(-90 604.566 680.727)">-15,-5</text>
<text x="634.798" y="698.182" transform="rotate(-90 634.798 698.182)">-16,-6</text>
<text x="665.03" y="680.727" transform="rotate(-90 665.03 680.727)">-15,-7</text>
<text x="695.262" y="698.182" transform="rotate(-90 695.262 698.182)">-16,-8</text>
<text x="725.494" y="680.727" transform="rotate(-90 725.494 680.727)">-15,-9</text>
<text x="755.727" y="698.182" transform="rotate(-90 755.727 698.182)">-16,-10</text>
<text x="785.959" y="680.727" transform="rotate(-90 785.959 680.727)">-15,-11</text>
<text x="816.191" y="698.182" transform="rotate(-90 816.191 698.182)">-16,-12</text>
<text x="846.423" y="680.727" transform="rotate(-90 846.423 680.727)">-15,-13</text>
<text x="876.655" y="698.182" transform="rotate(-90 876.655 698.182)">-16,-14</text>
<text x="30.1548" y="733.091" transform="rotate(-90 30.1548 733.091)">-18,14</text>
<text x="60.3869" y="715.636" transform="rotate(-90 60.3869 715.636)">-17,13</text>
<text x="90.6191" y="733.091" transform="rotate(-90 90.6191 733.091)">-18,12</text>
<text x="120.851" y="715.636" transform="rotate(-90 120.851 715.636)">-17,11</text>
<text x="151.083" y="733.091" transform="rotate(-90 151.083 733.091)">-18,10</text>
<text x="181.316" y="715.636" transform="rotate(-90 181.316 715.636)">-17,9</text>
<text x="211.548" y="733.091" transform="rotate(-90 211.548 733.091)">-18,8</text>
<text x="241.78" y="715.636" transform="rotate(-90 241.78 715.636)">-17,7</text>
<text x="272.012" y="733.091" transform="rotate(-90 272.012 733.091)">-18,6</text>
<text x="302.244" y="715.636" transform="rotate(-90 302.244 715.636)">-17,5</text>
<text x="332.476" y="733.091" transform="rotate(-90 332.476 733.091)">-18,4</text>
<text x="362.709" y="715.636" transform="rotate(-90 362.709 715.636)">-17,3</text>
<text x="392.941" y="733.091" transform="rotate(-90 392.941 733.091)">-18,2</text>
<text x="423.173" y="715.636" transform="rotate(-90 423.173 715.636)">-17,1</text>
<text x="453.405" y="733.091" transform="rotate(-90 453.405 733.091)">-18,0</text>
<text x="483.637" y="715.636" transform="rotate(-90 483.637 715.636)">-17,-1</text>
<text x="513.869" y="733.091" transform="rotate(-90 513.869 733.091)">-18,-2</text>
<text x="544.101" y="715.636" transform="rotate(-90 544.101 715.636)">-17,-3</text>
<text x="574.334" y="733.091" transform="rotate(-90 574.334 733.091)">-18,-4</text>
<text x="604.566" y="715.636" transform="rotate(-90 604.566 715.636)">-17,-5</text>
<text x="634.798" y="733.091" transform="rotate(-90 634.798 733.091)">-18,-6</text>
<text x="665.03" y="715.636" transform="rotate(-90 665.03 715.636)">-17,-7</text>
<text x="695.262" y="733.091" transform="rotate(-90 695.262 733.091)">-18,-8</text>
<text x="725.494" y="715.636" transform="rotate(-90 725.494 715.636)">-17,-9</text>
<text x="755.727" y="733.091" transform="rotate(-90 755.727 733.091)">-18,-10</text>
<text x="785.959" y="715.636" transform="rotate(-90 785.959 715.636)">-17,-11</text>
<text x="816.191" y="733.091" transform="rotate(-90 816.191 733.091)">-18,-12</text>
<text x="846.423" y="715.636" transform="rotate(-90 846.423 715.636)">-17,-13</text>
<text x="876.655" y="733.091" transform="rotate(-90 876.655 733.091)">-18,-14</text>
<text x="30.1548" y="768" transform="rotate(-90 30.1548 768)">-20,14</text>
<text x="60.3869" y="750.545" transform="rotate(-90 60.3869 750.545)">-19,13</text>
<text x="90.6191" y="768" transform="rotate(-90 90.6191 768)">-20,12</text>
<text x="120.851" y="750.545" transform="rotate(-90 120.851 750.545)">-19,11</text>
<text x="151.083" y="768" transform="rotate(-90 151.083 768)">-20,10</text>
<text x="181.316" y="750.545" transform="rotate(-90 181.316 750.545)">-19,9</text>
<text x="211.548" y="768" transform="rotate(-90 211.548 768)">-20,8</text>
<text x="241.78" y="750.545" transform="rotate(-90 241.78 750.545)">-19,7</text>
<text x="272.012" y="768" transform="rotate(-90 272.012 768)">-20,6</text>
<text x="302.244" y="750.545" transform="rotate(-90 302.244 750.545)">-19,5</text>
<text x="332.476" y="768" transform="rotate(-90 332.476 768)">-20,4</text>
<text x="362.709" y="750.545" transform="rotate(-90 362.709 750.545)">-19,3</text>
<text x="392.941" y="768" transform="rotate(-90 392.941 768)">-20,2</text>
<text x="423.173" y="750.545" transform="rotate(-90 423.173 750.545)">-19,1</text>
<text x="453.405" y="768" transform="rotate(-90 453.405 768)">-20,0</text>
<text x="483.637" y="750.545" transform="rotate(-90 483.637 750.545)">-19,-1</text>
<text x="513.869" y="768" transform="rotate(-90 513.869 768)">-20,-2</text>
<text x="544.101" y="750.545" transform="rotate(-90 544.101 750.545)">-19,-3</text>
<text x="574.334" y="768" transform="rotate(-90 574.334 768)">-20,-4</text>
<text x="604.566" y="750.545" transform="rotate(-90 604.566 750.545)">-19,-5</text>
<text x="634.798" y="768" transform="rotate(-90 634.798 768)">-20,-6</text>
<text x="665.03" y="750.545" transform="rotate(-90 665.03 750.545)">-19,-7</text>
<text x="695.262" y="768" transform="rotate(-90 695.262 768)">-20,-8</text>
<text x="725.494" y="750.545" transform="rotate(-90 725.494 750.545)">-19,-9</text>
<text x="755.727" y="768" transform="rotate(-90 755.727 768)">-20,-10</text>
<text x="785.959" y="750.545" transform="rotate(-90 785.959 750.545)">-19,-11</text>
<text x="816.191" y="768" transform="rotate(-90 816.191 768)">-20,-12</text>
<text x="846.423" y="750.545" transform="rotate(-90 846.423 750.545)">-19,-13</text>
<text x="876.655" y="768" transform="rotate(-90 876.655 768)">-20,-14</text>
<text x="30.1548" y="802.909" transform="rotate(-90 30.1548 802.909)">-22,14</text>
<text x="60.3869" y="785.455" transform="rotate(-90 60.3869 785.455)">-21,13</text>
<text x="90.6191" y="802.909" transform="rotate(-90 90.6191 802.909)">-22,12</text>
<text x="120.851" y="785.455" transform="rotate(-90 120.851 785.455)">-21,11</text>
<text x="151.083" y="802.909" transform="rotate(-90 151.083 802.909)">-22,10</text>
<text x="181.316" y="785.455" transform="rotate(-90 181.316 785.455)">-21,9</text>
<text x="211.548" y="802.909" transform="rotate(-90 211.548 802.909)">-22,8</text>
<text x="241.78" y="785.455" transform="rotate(-90 241.78 785.455)">-21,7</text>
<text x="272.012" y="802.909" transform="rotate(-90 272.012 802.909)">-22,6</text>
<text x="302.244" y="785.455" transform="rotate(-90 302.244 785.455)">-21,5</text>
<text x="332.476" y="802.909" transform="rotate(-90 332.476 802.909)">-22,4</text>
<text x="362.709" y="785.455" transform="rotate(-90 362.709 785.455)">-21,3</text>
<text x="392.941" y="802.909" transform="rotate(-90 392.941 802.909)">-22,2</text>
<text x="423.173" y="785.455" transform="rotate(-90 423.173 785.455)">-21,1</text>
<text x="453.405" y="802.909" transform="rotate(-90 453.405 802.909)">-22,0</text>
<text x="483.637" y="785.455" transform="rotate(-90 483.637 785.455)">-21,-1</text>
<text x="513.869" y="802.909" transform="rotate(-90 513.869 802.909)">-22,-2</text>
<text x="544.101" y="785.455" transform="rotate(-90 544.101 785.455)">-21,-3</text>
<text x="574.334" y="802.909" transform="rotate(-90 574.334 802.909)">-22,-4</text>
<text x="604.566" y="785.455" transform="rotate(-90 604.566 785.455)">-21,-5</text>
<text x="634.798" y="802.909" transform="rotate(-90 634.798 802.909)">-22,-6</text>
<text x="665.03" y="785.455" transform="rotate(-90 665.03 785.455)">-21,-7</text>
<text x="695.262" y="802.909" transform="rotate(-90 695.262 802.909)">-22,-8</text>
<text x="725.494" y="785.455" transform="rotate(-90 725.494 785.455)">-21,-9</text>
<text x="755.727" y="802.909" transform="rotate(-90 755.727 802.909)">-22,-10</text>
<text x="785.959" y="785.455" transform="rotate(-90 785.959 785.455)">-21,-11</text>
<text x="816.191" y="802.909" transform="rotate(-90 816.191 802.909)">-22,-12</text>
<text x="846.423" y="785.455" transform="rotate(-90 846.423 785.455)">-21,-13</text>
<text x="876.655" y="802.909" transform="rotate(-90 876.655 802.909)">-22,-14</text>
</g>
</g>
</svg>
