<?xml version="1.0" standalone="no"?>
<!DOCTYPE svg PUBLIC "-//W3C//DTD SVG 1.1//EN"
   "http://www.w3.org/Graphics/SVG/1.1/DTD/svg11.dtd">
<svg width="1056.5" height="887.31" version="1.1"
   xmlns="http://www.w3.org/2000/svg"
   xmlns:xlink="http://www.w3.org/1999/xlink">
<defs>
<path id="bottoms" d="M 0 0 l 55.4256 96 m 110.851 0 l 55.4256 -96 m 110.851 0 l 55.4256 96 m 110.851 0 l 55.4256 -96 m 110.851 0" />
<path id="tops" d="M 0 0 l 110.851 0 55.4256 -96 110.851 0 55.4256 96 110.851 0 55.4256 -96 110.851 0 55.4256 96 110.851 0" />
<path id="outline" d="M 0 0 l 110.851 0 55.4256 -96 110.851 0 55.4256 96 110.851 0 55.4256 -96 110.851 0 55.4256 96 110.851 0 55.4256 96 -55.4256 96 55.4256 96 -55.4256 96 55.4256 96 -55.4256 96 55.4256 96 -55.4256 96 55.4256 96 -55.4256 96 -110.851 0 -55.4256 -96 -110.851 0 -55.4256 96 -110.851 0 -55.4256 -96 -110.851 0 -55.4256 96 -110.851 0 -55.4256 -96 55.4256 -96 -55.4256 -96 55.4256 -96 -55.4256 -96 55.4256 -96 -55.4256 -96 55.4256 -96 -55.4256 -96 z" />
</defs>
<g transform="translate(1056.5,0.25) rotate(90)">
<g id="grid" style="fill: none; stroke: #000000; stroke-opacity: 1; stroke-width: 0.5; ">
<use x="55.4256" y="96" xlink:href="#outline" />
<use x="166.277" y="96" xlink:href="#bottoms" />
<use x="55.4256" y="288" xlink:href="#tops" />
<use x="166.277" y="288" xlink:href="#bottoms" />
<use x="55.4256" y="480" xlink:href="#tops" />
<use x="166.277" y="480" xlink:href="#bottoms" />
<use x="55.4256" y="672" xlink:href="#tops" />
<use x="166.277" y="672" xlink:href="#bottoms" />
<use x="55.4256" y="864" xlink:href="#tops" />
<use x="166.277" y="864" xlink:href="#bottoms" />
</g>
<g id="coordinates" style="fill: #000000; fill-opacity: 1; font-family: Atkinson Hyperlegible; font-size: 10.667px; text-anchor: middle; ">
<text x="194.851" y="192" transform="rotate(-90 194.851 192)">5,5</text>
<text x="361.128" y="96" transform="rotate(-90 361.128 96)">5,4</text>
<text x="527.405" y="192" transform="rotate(-90 527.405 192)">5,3</text>
<text x="693.682" y="96" transform="rotate(-90 693.682 96)">5,2</text>
<text x="859.959" y="192" transform="rotate(-90 859.959 192)">5,1</text>
<text x="194.851" y="384" transform="rotate(-90 194.851 384)">4,5</text>
<text x="361.128" y="288" transform="rotate(-90 361.128 288)">4,4</text>
<text x="527.405" y="384" transform="rotate(-90 527.405 384)">4,3</text>
<text x="693.682" y="288" transform="rotate(-90 693.682 288)">4,2</text>
<text x="859.959" y="384" transform="rotate(-90 859.959 384)">4,1</text>
<text x="194.851" y="576" transform="rotate(-90 194.851 576)">3,5</text>
<text x="361.128" y="480" transform="rotate(-90 361.128 480)">3,4</text>
<text x="527.405" y="576" transform="rotate(-90 527.405 576)">3,3</text>
<text x="693.682" y="480" transform="rotate(-90 693.682 480)">3,2</text>
<text x="859.959" y="576" transform="rotate(-90 859.959 576)">3,1</text>
<text x="194.851" y="768" transform="rotate(-90 194.851 768)">2,5</text>
<text x="361.128" y="672" transform="rotate(-90 361.128 672)">2,4</text>
<text x="527.405" y="768" transform="rotate(-90 527.405 768)">2,3</text>
<text x="693.682" y="672" transform="rotate(-90 693.682 672)">2,2</text>
<text x="859.959" y="768" transform="rotate(-90 859.959 768)">2,1</text>
<text x="194.851" y="960" transform="rotate(-90 194.851 960)">1,5</text>
<text x="361.128" y="864" transform="rotate(-90 361.128 864)">1,4</text>
<text x="527.405" y="960" transform="rotate(-90 527.405 960)">1,3</text>
<text x="693.682" y="864" transform="rotate(-90 693.682 864)">1,2</text>
<text x="859.959" y="960" transform="rotate(-90 859.959 960)">1,1</text>
</g>
</g>
</svg>
