<?xml version="1.0" standalone="no"?>
<!DOCTYPE svg PUBLIC "-//W3C//DTD SVG 1.1//EN"
   "http://www.w3.org/Graphics/SVG/1.1/DTD/svg11.dtd">
<svg width="960.5" height="1035.11" version="1.1"
   xmlns="http://www.w3.org/2000/svg"
   xmlns:xlink="http://www.w3.org/1999/xlink">
<defs>
<path id="bottoms" d="M 0 0 l 36.9504 64 m 73.9008 0 l 36.9504 -64 m 73.9008 0 l 36.9504 64 m 73.9008 0 l 36.9504 -64 m 73.9008 0 l 36.9504 64 m 73.9008 0 l 36.9504 -64 m 73.9008 0 l 36.9504 64 m 73.9008 0 l 36.9504 -64 m 73.9008 0" />
<path id="tops" d="M 0 0 l 73.9008 0 36.9504 -64 73.9008 0 36.9504 64 73.9008 0 36.9504 -64 73.9008 0 36.9504 64 73.9008 0 36.9504 -64 73.9008 0 36.9504 64 73.9008 0 36.9504 -64 73.9008 0 36.9504 64 73.9008 0" />
<path id="outline" d="M 0 0 l 73.9008 0 36.9504 -64 73.9008 0 36.9504 64 73.9008 0 36.9504 -64 73.9008 0 36.9504 64 73.9008 0 36.9504 -64 73.9008 0 36.9504 64 73.9008 0 36.9504 -64 73.9008 0 36.9504 64 73.9008 0 36.9504 64 -36.9504 64 36.9504 64 -36.9504 64 36.9504 64 -36.9504 64 36.9504 64 -36.9504 64 36.9504 64 -36.9504 64 36.9504 64 -36.9504 64 36.9504 64 -36.9504 64 -73.9008 0 -36.9504 -64 -73.9008 0 -36.9504 64 -73.9008 0 -36.9504 -64 -73.9008 0 -36.9504 64 -73.9008 0 -36.9504 -64 -73.9008 0 -36.9504 64 -73.9008 0 -36.9504 -64 -73.9008 0 -36.9504 64 -73.9008 0 -36.9504 -64 36.9504 -64 -36.9504 -64 36.9504 -64 -36.9504 -64 36.9504 -64 -36.9504 -64 36.9504 -64 -36.9504 -64 36.9504 -64 -36.9504 -64 36.9504 -64 -36.9504 -64 z" />
</defs>
<g transform="translate(960.5,0.25) rotate(90)">
<g id="grid" style="fill: none; stroke: #000000; stroke-opacity: 1; stroke-width: 0.5; ">
<use x="36.9504" y="64" xlink:href="#outline" />
<use x="110.851" y="64" xlink:href="#bottoms" />
<use x="36.9504" y="192" xlink:href="#tops" />
<use x="110.851" y="192" xlink:href="#bottoms" />
<use x="36.9504" y="320" xlink:href="#tops" />
<use x="110.851" y="320" xlink:href="#bottoms" />
<use x="36.9504" y="448" xlink:href="#tops" />
<use x="110.851" y="448" xlink:href="#bottoms" />
<use x="36.9504" y="576" xlink:href="#tops" />
<use x="110.851" y="576" xlink:href="#bottoms" />
<use x="36.9504" y="704" xlink:href="#tops" />
<use x="110.851" y="704" xlink:href="#bottoms" />
<use x="36.9504" y="832" xlink:href="#tops" />
<use x="110.851" y="832" xlink:href="#bottoms" />
</g>
</g>
</svg>
