<?xml version="1.0" standalone="no"?>
<!DOCTYPE svg PUBLIC "-//W3C//DTD SVG 1.1//EN"
   "http://www.w3.org/Graphics/SVG/1.1/DTD/svg11.dtd">
<svg width="787.7" height="902.09" version="1.1"
   xmlns="http://www.w3.org/2000/svg"
   xmlns:xlink="http://www.w3.org/1999/xlink">
<defs>
<path id="bottoms" d="M 0 0 l 3.69504 6.4 m 7.39008 0 l 3.69504 -6.4 m 7.39008 0 l 3.69504 6.4 m 7.39008 0 l 3.69504 -6.4 m 7.39008 0 l 3.69504 6.4 m 7.39008 0 l 3.69504 -6.4 m 7.39008 0 l 3.69504 6.4 m 7.39008 0 l 3.69504 -6.4 m 7.39008 0 l 3.69504 6.4 m 7.39008 0 l 3.69504 -6.4 m 7.39008 0 l 3.69504 6.4 m 7.39008 0 l 3.69504 -6.4 m 7.39008 0 l 3.69504 6.4 m 7.39008 0 l 3.69504 -6.4 m 7.39008 0 l 3.69504 6.4 m 7.39008 0 l 3.69504 -6.4 m 7.39008 0 l 3.69504 6.4 m 7.39008 0 l 3.69504 -6.4 m 7.39008 0 l 3.69504 6.4 m 7.39008 0 l 3.69504 -6.4 m 7.39008 0 l 3.69504 6.4 m 7.39008 0 l 3.69504 -6.4 m 7.39008 0 l 3.69504 6.4 m 7.39008 0 l 3.69504 -6.4 m 7.39008 0 l 3.69504 6.4 m 7.39008 0 l 3.69504 -6.4 m 7.39008 0 l 3.69504 6.4 m 7.39008 0 l 3.69504 -6.4 m 7.39008 0 l 3.69504 6.4 m 7.39008 0 l 3.69504 -6.4 m 7.39008 0 l 3.69504 6.4 m 7.39008 0 l 3.69504 -6.4 m 7.39008 0 l 3.69504 6.4 m 7.39008 0 l 3.69504 -6.4 m 7.39008 0 l 3.69504 6.4 m 7.39008 0 l 3.69504 -6.4 m 7.39008 0 l 3.69504 6.4 m 7.39008 0 l 3.69504 -6.4 m 7.39008 0 l 3.69504 6.4 m 7.39008 0 l 3.69504 -6.4 m 7.39008 0 l 3.69504 6.4 m 7.39008 0 l 3.69504 -6.4 m 7.39008 0 l 3.69504 6.4 m 7.39008 0 l 3.69504 -6.4 m 7.39008 0 l 3.69504 6.4 m 7.39008 0 l 3.69504 -6.4 m 7.39008 0 l 3.69504 6.4 m 7.39008 0 l 3.69504 -6.4 m 7.39008 0 l 3.69504 6.4 m 7.39008 0 l 3.69504 -6.4 m 7.39008 0 l 3.69504 6.4 m 7.39008 0 l 3.69504 -6.4 m 7.39008 0 l 3.69504 6.4 m 7.39008 0 l 3.69504 -6.4 m 7.39008 0 l 3.69504 6.4 m 7.39008 0 l 3.69504 -6.4 m 7.39008 0 l 3.69504 6.4 m 7.39008 0 l 3.69504 -6.4 m 7.39008 0 l 3.69504 6.4 m 7.39008 0 l 3.69504 -6.4 m 7.39008 0 l 3.69504 6.4 m 7.39008 0 l 3.69504 -6.4 m 7.39008 0 l 3.69504 6.4 m 7.39008 0 l 3.69504 -6.4 m 7.39008 0 l 3.69504 6.4 m 7.39008 0 l 3.69504 -6.4 m 7.39008 0 l 3.69504 6.4 m 7.39008 0 l 3.69504 -6.4 m 7.39008 0 l 3.69504 6.4 m 7.39008 0 l 3.69504 -6.4 m 7.39008 0 l 3.69504 6.4 m 7.39008 0 l 3.69504 -6.4 m 7.39008 0 l 3.69504 6.4 m 7.39008 0 l 3.69504 -6.4 m 7.39008 0 l 3.69504 6.4 m 7.39008 0 l 3.69504 -6.4 m 7.39008 0 l 3.69504 6.4 m 7.39008 0 l 3.69504 -6.4 m 7.39008 0 l 3.69504 6.4 m 7.39008 0 l 3.69504 -6.4 m 7.39008 0" />
<path id="tops" d="M 0 0 l 7.39008 0 3.69504 -6.4 7.39008 0 3.69504 6.4 7.39008 0 3.69504 -6.4 7.39008 0 3.69504 6.4 7.39008 0 3.69504 -6.4 7.39008 0 3.69504 6.4 7.39008 0 3.69504 -6.4 7.39008 0 3.69504 6.4 7.39008 0 3.69504 -6.4 7.39008 0 3.69504 6.4 7.39008 0 3.69504 -6.4 7.39008 0 3.69504 6.4 7.39008 0 3.69504 -6.4 7.39008 0 3.69504 6.4 7.39008 0 3.69504 -6.4 7.39008 0 3.69504 6.4 7.39008 0 3.69504 -6.4 7.39008 0 3.69504 6.4 7.39008 0 3.69504 -6.4 7.39008 0 3.69504 6.4 7.39008 0 3.69504 -6.4 7.39008 0 3.69504 6.4 7.39008 0 3.69504 -6.4 7.39008 0 3.69504 6.4 7.39008 0 3.69504 -6.4 7.39008 0 3.69504 6.4 7.39008 0 3.69504 -6.4 7.39008 0 3.69504 6.4 7.39008 0 3.69504 -6.4 7.39008 0 3.69504 6.4 7.39008 0 3.69504 -6.4 7.39008 0 3.69504 6.4 7.39008 0 3.69504 -6.4 7.39008 0 3.69504 6.4 7.39008 0 3.69504 -6.4 7.39008 0 3.69504 6.4 7.39008 0 3.69504 -6.4 7.39008 0 3.69504 6.4 7.39008 0 3.69504 -6.4 7.39008 0 3.69504 6.4 7.39008 0 3.69504 -6.4 7.39008 0 3.69504 6.4 7.39008 0 3.69504 -6.4 7.39008 0 3.69504 6.4 7.39008 0 3.69504 -6.4 7.39008 0 3.69504 6.4 7.39008 0 3.69504 -6.4 7.39008 0 3.69504 6.4 7.39008 0 3.69504 -6.4 7.39008 0 3.69504 6.4 7.39008 0 3.69504 -6.4 7.39008 0 3.69504 6.4 7.39008 0 3.69504 -6.4 7.39008 0 3.69504 6.4 7.39008 0 3.69504 -6.4 7.39008 0 3.69504 6.4 7.39008 0 3.69504 -6.4 7.39008 0 3.69504 6.4 7.39008 0 3.69504 -6.4 7.39008 0 3.69504 6.4 7.39008 0 3.69504 -6.4 7.39008 0 3.69504 6.4 7.39008 0 3.69504 -6.4 7.39008 0 3.69504 6.4 7.39008 0 3.69504 -6.4 7.39008 0 3.69504 6.4 7.39008 0 3.69504 -6.4 7.39008 0 3.69504 6.4 7.39008 0 3.69504 -6.4 7.39008 0 3.69504 6.4 7.39008 0 3.69504 -6.4 7.39008 0 3.69504 6.4 7.39008 0 3.69504 -6.4 7.39008 0 3.69504 6.4 7.39008 0 3.69504 -6.4 7.39008 0 3.69504 6.4 7.39008 0 3.69504 -6.4 7.39008 0 3.69504 6.4 7.39008 0 3.69504 -6.4 7.39008 0 3.69504 6.4 7.39008 0" />
<path id="outline" d="M 0 0 l 7.39008 0 3.69504 -6.4 7.39008 0 3.69504 6.4 7.39008 0 3.69504 -6.4 7.39008 0 3.69504 6.4 7.39008 0 3.69504 -6.4 7.39008 0 3.69504 6.4 7.39008 0 3.69504 -6.4 7.39008 0 3.69504 6.4 7.39008 0 3.69504 -6.4 7.39008 0 3.69504 6.4 7.39008 0 3.69504 -6.4 7.39008 0 3.69504 6.4 7.39008 0 3.69504 -6.4 7.39008 0 3.69504 6.4 7.39008 0 3.69504 -6.4 7.39008 0 3.69504 6.4 7.39008 0 3.69504 -6.4 7.39008 0 3.69504 6.4 7.39008 0 3.69504 -6.4 7.39008 0 3.69504 6.4 7.39008 0 3.69504 -6.4 7.39008 0 3.69504 6.4 7.39008 0 3.69504 -6.4 7.39008 0 3.69504 6.4 7.39008 0 3.69504 -6.4 7.39008 0 3.69504 6.4 7.39008 0 3.69504 -6.4 7.39008 0 3.69504 6.4 7.39008 0 3.69504 -6.4 7.39008 0 3.69504 6.4 7.39008 0 3.69504 -6.4 7.39008 0 3.69504 6.4 7.39008 0 3.69504 -6.4 7.39008 0 3.69504 6.4 7.39008 0 3.69504 -6.4 7.39008 0 3.69504 6.4 7.39008 0 3.69504 -6.4 7.39008 0 3.69504 6.4 7.39008 0 3.69504 -6.4 7.39008 0 3.69504 6.4 7.39008 0 3.69504 -6.4 7.39008 0 3.69504 6.4 7.39008 0 3.69504 -6.4 7.39008 0 3.69504 6.4 7.39008 0 3.69504 -6.4 7.39008 0 3.69504 6.4 7.39008 0 3.69504 -6.4 7.39008 0 3.69504 6.4 7.39008 0 3.69504 -6.4 7.39008 0 3.69504 6.4 7.39008 0 3.69504 -6.4 7.39008 0 3.69504 6.4 7.39008 0 3.69504 -6.4 7.39008 0 3.69504 6.4 7.39008 0 3.69504 -6.4 7.39008 0 3.69504 6.4 7.39008 0 3.69504 -6.4 7.39008 0 3.69504 6.4 7.39008 0 3.69504 -6.4 7.39008 0 3.69504 6.4 7.39008 0 3.69504 -6.4 7.39008 0 3.69504 6.4 7.39008 0 3.69504 -6.4 7.39008 0 3.69504 6.4 7.39008 0 3.69504 -6.4 7.39008 0 3.69504 6.4 7.39008 0 3.69504 -6.4 7.39008 0 3.69504 6.4 7.39008 0 3.69504 -6.4 7.39008 0 3.69504 6.4 7.39008 0 3.69504 -6.4 7.39008 0 3.69504 6.4 7.39008 0 3.69504 -6.4 7.39008 0 3.69504 6.4 7.39008 0 3.69504 -6.4 7.39008 0 3.69504 6.4 7.39008 0 3.69504 -6.4 7.39008 0 3.69504 6.4 7.39008 0 3.69504 -6.4 7.39008 0 3.69504 6.4 7.39008 0 3.69504 6.4 -3.69504 6.4 3.69504 6.4 -3.69504 6.4 3.69504 6.4 -3.69504 6.4 3.69504 6.4 -3.69504 6.4 3.69504 6.4 -3.69504 6.4 3.69504 6.4 -3.69504 6.4 3.69504 6.4 -3.69504 6.4 3.69504 6.4 -3.69504 6.4 3.69504 6.4 -3.69504 6.4 3.69504 6.4 -3.69504 6.4 3.69504 6.4 -3.69504 6.4 3.69504 6.4 -3.69504 6.4 3.69504 6.4 -3.69504 6.4 3.69504 6.4 -3.69504 6.4 3.69504 6.4 -3.69504 6.4 3.69504 6.4 -3.69504 6.4 3.69504 6.4 -3.69504 6.4 3.69504 6.4 -3.69504 6.4 3.69504 6.4 -3.69504 6.4 3.69504 6.4 -3.69504 6.4 3.69504 6.4 -3.69504 6.4 3.69504 6.4 -3.69504 6.4 3.69504 6.4 -3.69504 6.4 3.69504 6.4 -3.69504 6.4 3.69504 6.4 -3.69504 6.4 3.69504 6.4 -3.69504 6.4 3.69504 6.4 -3.69504 6.4 3.69504 6.4 -3.69504 6.4 3.69504 6.4 -3.69504 6.4 3.69504 6.4 -3.69504 6.4 3.69504 6.4 -3.69504 6.4 3.69504 6.4 -3.69504 6.4 3.69504 6.4 -3.69504 6.4 3.69504 6.4 -3.69504 6.4 3.69504 6.4 -3.69504 6.4 3.69504 6.4 -3.69504 6.4 3.69504 6.4 -3.69504 6.4 3.69504 6.4 -3.69504 6.4 3.69504 6.4 -3.69504 6.4 3.69504 6.4 -3.69504 6.4 3.69504 6.4 -3.69504 6.4 3.69504 6.4 -3.69504 6.4 3.69504 6.4 -3.69504 6.4 3.69504 6.4 -3.69504 6.4 3.69504 6.4 -3.69504 6.4 3.69504 6.4 -3.69504 6.4 3.69504 6.4 -3.69504 6.4 3.69504 6.4 -3.69504 6.4 3.69504 6.4 -3.69504 6.4 3.69504 6.4 -3.69504 6.4 3.69504 6.4 -3.69504 6.4 3.69504 6.4 -3.69504 6.4 3.69504 6.4 -3.69504 6.4 3.69504 6.4 -3.69504 6.4 3.69504 6.4 -3.69504 6.4 3.69504 6.4 -3.69504 6.4 3.69504 6.4 -3.69504 6.4 3.69504 6.4 -3.69504 6.4 3.69504 6.4 -3.69504 6.4 3.69504 6.4 -3.69504 6.4 3.69504 6.4 -3.69504 6.4 -7.39008 0 -3.69504 -6.4 -7.39008 0 -3.69504 6.4 -7.39008 0 -3.69504 -6.4 -7.39008 0 -3.69504 6.4 -7.39008 0 -3.69504 -6.4 -7.39008 0 -3.69504 6.4 -7.39008 0 -3.69504 -6.4 -7.39008 0 -3.69504 6.4 -7.39008 0 -3.69504 -6.4 -7.39008 0 -3.69504 6.4 -7.39008 0 -3.69504 -6.4 -7.39008 0 -3.69504 6.4 -7.39008 0 -3.69504 -6.4 -7.39008 0 -3.69504 6.4 -7.39008 0 -3.69504 -6.4 -7.39008 0 -3.69504 6.4 -7.39008 0 -3.69504 -6.4 -7.39008 0 -3.69504 6.4 -7.39008 0 -3.69504 -6.4 -7.39008 0 -3.69504 6.4 -7.39008 0 -3.69504 -6.4 -7.39008 0 -3.69504 6.4 -7.39008 0 -3.69504 -6.4 -7.39008 0 -3.69504 6.4 -7.39008 0 -3.69504 -6.4 -7.39008 0 -3.69504 6.4 -7.39008 0 -3.69504 -6.4 -7.39008 0 -3.69504 6.4 -7.39008 0 -3.69504 -6.4 -7.39008 0 -3.69504 6.4 -7.39008 0 -3.69504 -6.4 -7.39008 0 -3.69504 6.4 -7.39008 0 -3.69504 -6.4 -7.39008 0 -3.69504 6.4 -7.39008 0 -3.69504 -6.4 -7.39008 0 -3.69504 6.4 -7.39008 0 -3.69504 -6.4 -7.39008 0 -3.69504 6.4 -7.39008 0 -3.69504 -6.4 -7.39008 0 -3.69504 6.4 -7.39008 0 -3.69504 -6.4 -7.39008 0 -3.69504 6.4 -7.39008 0 -3.69504 -6.4 -7.39008 0 -3.69504 6.4 -7.39008 0 -3.69504 -6.4 -7.39008 0 -3.69504 6.4 -7.39008 0 -3.69504 -6.4 -7.39008 0 -3.69504 6.4 -7.39008 0 -3.69504 -6.4 -7.39008 0 -3.69504 6.4 -7.39008 0 -3.69504 -6.4 -7.39008 0 -3.69504 6.4 -7.39008 0 -3.69504 -6.4 -7.39008 0 -3.69504 6.4 -7.39008 0 -3.69504 -6.4 -7.39008 0 -3.69504 6.4 -7.39008 0 -3.69504 -6.4 -7.39008 0 -3.69504 6.4 -7.39008 0 -3.69504 -6.4 -7.39008 0 -3.69504 6.4 -7.39008 0 -3.69504 -6.4 -7.39008 0 -3.69504 6.4 -7.39008 0 -3.69504 -6.4 -7.39008 0 -3.69504 6.4 -7.39008 0 -3.69504 -6.4 -7.39008 0 -3.69504 6.4 -7.39008 0 -3.69504 -6.4 -7.39008 0 -3.69504 6.4 -7.39008 0 -3.69504 -6.4 -7.39008 0 -3.69504 6.4 -7.39008 0 -3.69504 -6.4 -7.39008 0 -3.69504 6.4 -7.39008 0 -3.69504 -6.4 -7.39008 0 -3.69504 6.4 -7.39008 0 -3.69504 -6.4 -7.39008 0 -3.69504 6.4 -7.39008 0 -3.69504 -6.4 -7.39008 0 -3.69504 6.4 -7.39008 0 -3.69504 -6.4 -7.39008 0 -3.69504 6.4 -7.39008 0 -3.69504 -6.4 3.69504 -6.4 -3.69504 -6.4 3.69504 -6.4 -3.69504 -6.4 3.69504 -6.4 -3.69504 -6.4 3.69504 -6.4 -3.69504 -6.4 3.69504 -6.4 -3.69504 -6.4 3.69504 -6.4 -3.69504 -6.4 3.69504 -6.4 -3.69504 -6.4 3.69504 -6.4 -3.69504 -6.4 3.69504 -6.4 -3.69504 -6.4 3.69504 -6.4 -3.69504 -6.4 3.69504 -6.4 -3.69504 -6.4 3.69504 -6.4 -3.69504 -6.4 3.69504 -6.4 -3.69504 -6.4 3.69504 -6.4 -3.69504 -6.4 3.69504 -6.4 -3.69504 -6.4 3.69504 -6.4 -3.69504 -6.4 3.69504 -6.4 -3.69504 -6.4 3.69504 -6.4 -3.69504 -6.4 3.69504 -6.4 -3.69504 -6.4 3.69504 -6.4 -3.69504 -6.4 3.69504 -6.4 -3.69504 -6.4 3.69504 -6.4 -3.69504 -6.4 3.69504 -6.4 -3.69504 -6.4 3.69504 -6.4 -3.69504 -6.4 3.69504 -6.4 -3.69504 -6.4 3.69504 -6.4 -3.69504 -6.4 3.69504 -6.4 -3.69504 -6.4 3.69504 -6.4 -3.69504 -6.4 3.69504 -6.4 -3.69504 -6.4 3.69504 -6.4 -3.69504 -6.4 3.69504 -6.4 -3.69504 -6.4 3.69504 -6.4 -3.69504 -6.4 3.69504 -6.4 -3.69504 -6.4 3.69504 -6.4 -3.69504 -6.4 3.69504 -6.4 -3.69504 -6.4 3.69504 -6.4 -3.69504 -6.4 3.69504 -6.4 -3.69504 -6.4 3.69504 -6.4 -3.69504 -6.4 3.69504 -6.4 -3.69504 -6.4 3.69504 -6.4 -3.69504 -6.4 3.69504 -6.4 -3.69504 -6.4 3.69504 -6.4 -3.69504 -6.4 3.69504 -6.4 -3.69504 -6.4 3.69504 -6.4 -3.69504 -6.4 3.69504 -6.4 -3.69504 -6.4 3.69504 -6.4 -3.69504 -6.4 3.69504 -6.4 -3.69504 -6.4 3.69504 -6.4 -3.69504 -6.4 3.69504 -6.4 -3.69504 -6.4 3.69504 -6.4 -3.69504 -6.4 3.69504 -6.4 -3.69504 -6.4 3.69504 -6.4 -3.69504 -6.4 3.69504 -6.4 -3.69504 -6.4 3.69504 -6.4 -3.69504 -6.4 3.69504 -6.4 -3.69504 -6.4 3.69504 -6.4 -3.69504 -6.4 3.69504 -6.4 -3.69504 -6.4 3.69504 -6.4 -3.69504 -6.4 3.69504 -6.4 -3.69504 -6.4 3.69504 -6.4 -3.69504 -6.4 z" />
</defs>
<g transform="translate(787.7,0.25) rotate(90)">
<g id="grid" style="fill: none; stroke: #000000; stroke-opacity: 1; stroke-width: 0.5; ">
<use x="3.69504" y="6.4" xlink:href="#outline" />
<use x="11.0851" y="6.4" xlink:href="#bottoms" />
<use x="3.69504" y="19.2" xlink:href="#tops" />
<use x="11.0851" y="19.2" xlink:href="#bottoms" />
<use x="3.69504" y="32" xlink:href="#tops" />
<use x="11.0851" y="32" xlink:href="#bottoms" />
<use x="3.69504" y="44.8" xlink:href="#tops" />
<use x="11.0851" y="44.8" xlink:href="#bottoms" />
<use x="3.69504" y="57.6" xlink:href="#tops" />
<use x="11.0851" y="57.6" xlink:href="#bottoms" />
<use x="3.69504" y="70.4" xlink:href="#tops" />
<use x="11.0851" y="70.4" xlink:href="#bottoms" />
<use x="3.69504" y="83.2" xlink:href="#tops" />
<use x="11.0851" y="83.2" xlink:href="#bottoms" />
<use x="3.69504" y="96" xlink:href="#tops" />
<use x="11.0851" y="96" xlink:href="#bottoms" />
<use x="3.69504" y="108.8" xlink:href="#tops" />
<use x="11.0851" y="108.8" xlink:href="#bottoms" />
<use x="3.69504" y="121.6" xlink:href="#tops" />
<use x="11.0851" y="121.6" xlink:href="#bottoms" />
<use x="3.69504" y="134.4" xlink:href="#tops" />
<use x="11.0851" y="134.4" xlink:href="#bottoms" />
<use x="3.69504" y="147.2" xlink:href="#tops" />
<use x="11.0851" y="147.2" xlink:href="#bottoms" />
<use x="3.69504" y="160" xlink:href="#tops" />
<use x="11.0851" y="160" xlink:href="#bottoms" />
<use x="3.69504" y="172.8" xlink:href="#tops" />
<use x="11.0851" y="172.8" xlink:href="#bottoms" />
<use x="3.69504" y="185.6" xlink:href="#tops" />
<use x="11.0851" y="185.6" xlink:href="#bottoms" />
<use x="3.69504" y="198.4" xlink:href="#tops" />
<use x="11.0851" y="198.4" xlink:href="#bottoms" />
<use x="3.69504" y="211.2" xlink:href="#tops" />
<use x="11.0851" y="211.2" xlink:href="#bottoms" />
<use x="3.69504" y="224" xlink:href="#tops" />
<use x="11.0851" y="224" xlink:href="#bottoms" />
<use x="3.69504" y="236.8" xlink:href="#tops" />
<use x="11.0851" y="236.8" xlink:href="#bottoms" />
<use x="3.69504" y="249.6" xlink:href="#tops" />
<use x="11.0851" y="249.6" xlink:href="#bottoms" />
<use x="3.69504" y="262.4" xlink:href="#tops" />
<use x="11.0851" y="262.4" xlink:href="#bottoms" />
<use x="3.69504" y="275.2" xlink:href="#tops" />
<use x="11.0851" y="275.2" xlink:href="#bottoms" />
<use x="3.69504" y="288" xlink:href="#tops" />
<use x="11.0851" y="288" xlink:href="#bottoms" />
<use x="3.69504" y="300.8" xlink:href="#tops" />
<use x="11.0851" y="300.8" xlink:href="#bottoms" />
<use x="3.69504" y="313.6" xlink:href="#tops" />
<use x="11.0851" y="313.6" xlink:href="#bottoms" />
<use x="3.69504" y="326.4" xlink:href="#tops" />
<use x="11.0851" y="326.4" xlink:href="#bottoms" />
<use x="3.69504" y="339.2" xlink:href="#tops" />
<use x="11.0851" y="339.2" xlink:href="#bottoms" />
<use x="3.69504" y="352" xlink:href="#tops" />
<use x="11.0851" y="352" xlink:href="#bottoms" />
<use x="3.69504" y="364.8" xlink:href="#tops" />
<use x="11.0851" y="364.8" xlink:href="#bottoms" />
<use x="3.69504" y="377.6" xlink:href="#tops" />
<use x="11.0851" y="377.6" xlink:href="#bottoms" />
<use x="3.69504" y="390.4" xlink:href="#tops" />
<use x="11.0851" y="390.4" xlink:href="#bottoms" />
<use x="3.69504" y="403.2" xlink:href="#tops" />
<use x="11.0851" y="403.2" xlink:href="#bottoms" />
<use x="3.69504" y="416" xlink:href="#tops" />
<use x="11.0851" y="416" xlink:href="#bottoms" />
<use x="3.69504" y="428.8" xlink:href="#tops" />
<use x="11.0851" y="428.8" xlink:href="#bottoms" />
<use x="3.69504" y="441.6" xlink:href="#tops" />
<use x="11.0851" y="441.6" xlink:href="#bottoms" />
<use x="3.69504" y="454.4" xlink:href="#tops" />
<use x="11.0851" y="454.4" xlink:href="#bottoms" />
<use x="3.69504" y="467.2" xlink:href="#tops" />
<use x="11.0851" y="467.2" xlink:href="#bottoms" />
<use x="3.69504" y="480" xlink:href="#tops" />
<use x="11.0851" y="480" xlink:href="#bottoms" />
<use x="3.69504" y="492.8" xlink:href="#tops" />
<use x="11.0851" y="492.8" xlink:href="#bottoms" />
<use x="3.69504" y="505.6" xlink:href="#tops" />
<use x="11.0851" y="505.6" xlink:href="#bottoms" />
<use x="3.69504" y="518.4" xlink:href="#tops" />
<use x="11.0851" y="518.4" xlink:href="#bottoms" />
<use x="3.69504" y="531.2" xlink:href="#tops" />
<use x="11.0851" y="531.2" xlink:href="#bottoms" />
<use x="3.69504" y="544" xlink:href="#tops" />
<use x="11.0851" y="544" xlink:href="#bottoms" />
<use x="3.69504" y="556.8" xlink:href="#tops" />
<use x="11.0851" y="556.8" xlink:href="#bottoms" />
<use x="3.69504" y="569.6" xlink:href="#tops" />
<use x="11.0851" y="569.6" xlink:href="#bottoms" />
<use x="3.69504" y="582.4" xlink:href="#tops" />
<use x="11.0851" y="582.4" xlink:href="#bottoms" />
<use x="3.69504" y="595.2" xlink:href="#tops" />
<use x="11.0851" y="595.2" xlink:href="#bottoms" />
<use x="3.69504" y="608" xlink:href="#tops" />
<use x="11.0851" y="608" xlink:href="#bottoms" />
<use x="3.69504" y="620.8" xlink:href="#tops" />
<use x="11.0851" y="620.8" xlink:href="#bottoms" />
<use x="3.69504" y="633.6" xlink:href="#tops" />
<use x="11.0851" y="633.6" xlink:href="#bottoms" />
<use x="3.69504" y="646.4" xlink:href="#tops" />
<use x="11.0851" y="646.4" xlink:href="#bottoms" />
<use x="3.69504" y="659.2" xlink:href="#tops" />
<use x="11.0851" y="659.2" xlink:href="#bottoms" />
<use x="3.69504" y="672" xlink:href="#tops" />
<use x="11.0851" y="672" xlink:href="#bottoms" />
<use x="3.69504" y="684.8" xlink:href="#tops" />
<use x="11.0851" y="684.8" xlink:href="#bottoms" />
<use x="3.69504" y="697.6" xlink:href="#tops" />
<use x="11.0851" y="697.6" xlink:href="#bottoms" />
<use x="3.69504" y="710.4" xlink:href="#tops" />
<use x="11.0851" y="710.4" xlink:href="#bottoms" />
<use x="3.69504" y="723.2" xlink:href="#tops" />
<use x="11.0851" y="723.2" xlink:href="#bottoms" />
<use x="3.69504" y="736" xlink:href="#tops" />
<use x="11.0851" y="736" xlink:href="#bottoms" />
<use x="3.69504" y="748.8" xlink:href="#tops" />
<use x="11.0851" y="748.8" xlink:href="#bottoms" />
<use x="3.69504" y="761.6" xlink:href="#tops" />
<use x="11.0851" y="761.6" xlink:href="#bottoms" />
<use x="3.69504" y="774.4" xlink:href="#tops" />
<use x="11.0851" y="774.4" xlink:href="#bottoms" />
</g>
</g>
</svg>
