<?xml version="1.0" standalone="no"?>
<!DOCTYPE svg PUBLIC "-//W3C//DTD SVG 1.1//EN"
   "http://www.w3.org/Graphics/SVG/1.1/DTD/svg11.dtd">
<svg width="786.5" height="887.31" version="1.1"
   xmlns="http://www.w3.org/2000/svg"
   xmlns:xlink="http://www.w3.org/1999/xlink">
<defs>
<path id="bottoms" d="M 0 0 l 3.4641 6 m 6.9282 0 l 3.4641 -6 m 6.9282 0 l 3.4641 6 m 6.9282 0 l 3.4641 -6 m 6.9282 0 l 3.4641 6 m 6.9282 0 l 3.4641 -6 m 6.9282 0 l 3.4641 6 m 6.9282 0 l 3.4641 -6 m 6.9282 0 l 3.4641 6 m 6.9282 0 l 3.4641 -6 m 6.9282 0 l 3.4641 6 m 6.9282 0 l 3.4641 -6 m 6.9282 0 l 3.4641 6 m 6.9282 0 l 3.4641 -6 m 6.9282 0 l 3.4641 6 m 6.9282 0 l 3.4641 -6 m 6.9282 0 l 3.4641 6 m 6.9282 0 l 3.4641 -6 m 6.9282 0 l 3.4641 6 m 6.9282 0 l 3.4641 -6 m 6.9282 0 l 3.4641 6 m 6.9282 0 l 3.4641 -6 m 6.9282 0 l 3.4641 6 m 6.9282 0 l 3.4641 -6 m 6.9282 0 l 3.4641 6 m 6.9282 0 l 3.4641 -6 m 6.9282 0 l 3.4641 6 m 6.9282 0 l 3.4641 -6 m 6.9282 0 l 3.4641 6 m 6.9282 0 l 3.4641 -6 m 6.9282 0 l 3.4641 6 m 6.9282 0 l 3.4641 -6 m 6.9282 0 l 3.4641 6 m 6.9282 0 l 3.4641 -6 m 6.9282 0 l 3.4641 6 m 6.9282 0 l 3.4641 -6 m 6.9282 0 l 3.4641 6 m 6.9282 0 l 3.4641 -6 m 6.9282 0 l 3.4641 6 m 6.9282 0 l 3.4641 -6 m 6.9282 0 l 3.4641 6 m 6.9282 0 l 3.4641 -6 m 6.9282 0 l 3.4641 6 m 6.9282 0 l 3.4641 -6 m 6.9282 0 l 3.4641 6 m 6.9282 0 l 3.4641 -6 m 6.9282 0 l 3.4641 6 m 6.9282 0 l 3.4641 -6 m 6.9282 0 l 3.4641 6 m 6.9282 0 l 3.4641 -6 m 6.9282 0 l 3.4641 6 m 6.9282 0 l 3.4641 -6 m 6.9282 0 l 3.4641 6 m 6.9282 0 l 3.4641 -6 m 6.9282 0 l 3.4641 6 m 6.9282 0 l 3.4641 -6 m 6.9282 0 l 3.4641 6 m 6.9282 0 l 3.4641 -6 m 6.9282 0 l 3.4641 6 m 6.9282 0 l 3.4641 -6 m 6.9282 0 l 3.4641 6 m 6.9282 0 l 3.4641 -6 m 6.9282 0 l 3.4641 6 m 6.9282 0 l 3.4641 -6 m 6.9282 0 l 3.4641 6 m 6.9282 0 l 3.4641 -6 m 6.9282 0 l 3.4641 6 m 6.9282 0 l 3.4641 -6 m 6.9282 0 l 3.4641 6 m 6.9282 0 l 3.4641 -6 m 6.9282 0 l 3.4641 6 m 6.9282 0 l 3.4641 -6 m 6.9282 0 l 3.4641 6 m 6.9282 0 l 3.4641 -6 m 6.9282 0 l 3.4641 6 m 6.9282 0 l 3.4641 -6 m 6.9282 0 l 3.4641 6 m 6.9282 0 l 3.4641 -6 m 6.9282 0 l 3.4641 6 m 6.9282 0 l 3.4641 -6 m 6.9282 0 l 3.4641 6 m 6.9282 0 l 3.4641 -6 m 6.9282 0 l 3.4641 6 m 6.9282 0 l 3.4641 -6 m 6.9282 0" />
<path id="tops" d="M 0 0 l 6.9282 0 3.4641 -6 6.9282 0 3.4641 6 6.9282 0 3.4641 -6 6.9282 0 3.4641 6 6.9282 0 3.4641 -6 6.9282 0 3.4641 6 6.9282 0 3.4641 -6 6.9282 0 3.4641 6 6.9282 0 3.4641 -6 6.9282 0 3.4641 6 6.9282 0 3.4641 -6 6.9282 0 3.4641 6 6.9282 0 3.4641 -6 6.9282 0 3.4641 6 6.9282 0 3.4641 -6 6.9282 0 3.4641 6 6.9282 0 3.4641 -6 6.9282 0 3.4641 6 6.9282 0 3.4641 -6 6.9282 0 3.4641 6 6.9282 0 3.4641 -6 6.9282 0 3.4641 6 6.9282 0 3.4641 -6 6.9282 0 3.4641 6 6.9282 0 3.4641 -6 6.9282 0 3.4641 6 6.9282 0 3.4641 -6 6.9282 0 3.4641 6 6.9282 0 3.4641 -6 6.9282 0 3.4641 6 6.9282 0 3.4641 -6 6.9282 0 3.4641 6 6.9282 0 3.4641 -6 6.9282 0 3.4641 6 6.9282 0 3.4641 -6 6.9282 0 3.4641 6 6.9282 0 3.4641 -6 6.9282 0 3.4641 6 6.9282 0 3.4641 -6 6.9282 0 3.4641 6 6.9282 0 3.4641 -6 6.9282 0 3.4641 6 6.9282 0 3.4641 -6 6.9282 0 3.4641 6 6.9282 0 3.4641 -6 6.9282 0 3.4641 6 6.9282 0 3.4641 -6 6.9282 0 3.4641 6 6.9282 0 3.4641 -6 6.9282 0 3.4641 6 6.9282 0 3.4641 -6 6.9282 0 3.4641 6 6.9282 0 3.4641 -6 6.9282 0 3.4641 6 6.9282 0 3.4641 -6 6.9282 0 3.4641 6 6.9282 0 3.4641 -6 6.9282 0 3.4641 6 6.9282 0 3.4641 -6 6.9282 0 3.4641 6 6.9282 0 3.4641 -6 6.9282 0 3.4641 6 6.9282 0 3.4641 -6 6.9282 0 3.4641 6 6.9282 0 3.4641 -6 6.9282 0 3.4641 6 6.9282 0 3.4641 -6 6.9282 0 3.4641 6 6.9282 0 3.4641 -6 6.9282 0 3.4641 6 6.9282 0 3.4641 -6 6.9282 0 3.4641 6 6.9282 0 3.4641 -6 6.9282 0 3.4641 6 6.9282 0 3.4641 -6 6.9282 0 3.4641 6 6.9282 0 3.4641 -6 6.9282 0 3.4641 6 6.9282 0 3.4641 -6 6.9282 0 3.4641 6 6.9282 0 3.4641 -6 6.9282 0 3.4641 6 6.9282 0 3.4641 -6 6.9282 0 3.4641 6 6.9282 0" />
<path id="outline" d="M 0 0 l 6.9282 0 3.4641 -6 6.9282 0 3.4641 6 6.9282 0 3.4641 -6 6.9282 0 3.4641 6 6.9282 0 3.4641 -6 6.9282 0 3.4641 6 6.9282 0 3.4641 -6 6.9282 0 3.4641 6 6.9282 0 3.4641 -6 6.9282 0 3.4641 6 6.9282 0 3.4641 -6 6.9282 0 3.4641 6 6.9282 0 3.4641 -6 6.9282 0 3.4641 6 6.9282 0 3.4641 -6 6.9282 0 3.4641 6 6.9282 0 3.4641 -6 6.9282 0 3.4641 6 6.9282 0 3.4641 -6 6.9282 0 3.4641 6 6.9282 0 3.4641 -6 6.9282 0 3.4641 6 6.9282 0 3.4641 -6 6.9282 0 3.4641 6 6.9282 0 3.4641 -6 6.9282 0 3.4641 6 6.9282 0 3.4641 -6 6.9282 0 3.4641 6 6.9282 0 3.4641 -6 6.9282 0 3.4641 6 6.9282 0 3.4641 -6 6.9282 0 3.4641 6 6.9282 0 3.4641 -6 6.9282 0 3.4641 6 6.9282 0 3.4641 -6 6.9282 0 3.4641 6 6.9282 0 3.4641 -6 6.9282 0 3.4641 6 6.9282 0 3.4641 -6 6.9282 0 3.4641 6 6.9282 0 3.4641 -6 6.9282 0 3.4641 6 6.9282 0 3.4641 -6 6.9282 0 3.4641 6 6.9282 0 3.4641 -6 6.9282 0 3.4641 6 6.9282 0 3.4641 -6 6.9282 0 3.4641 6 6.9282 0 3.4641 -6 6.9282 0 3.4641 6 6.9282 0 3.4641 -6 6.9282 0 3.4641 6 6.9282 0 3.4641 -6 6.9282 0 3.4641 6 6.9282 0 3.4641 -6 6.9282 0 3.4641 6 6.9282 0 3.4641 -6 6.9282 0 3.4641 6 6.9282 0 3.4641 -6 6.9282 0 3.4641 6 6.9282 0 3.4641 -6 6.9282 0 3.4641 6 6.9282 0 3.4641 -6 6.9282 0 3.4641 6 6.9282 0 3.4641 -6 6.9282 0 3.4641 6 6.9282 0 3.4641 -6 6.9282 0 3.4641 6 6.9282 0 3.4641 -6 6.9282 0 3.4641 6 6.9282 0 3.4641 -6 6.9282 0 3.4641 6 6.9282 0 3.4641 -6 6.9282 0 3.4641 6 6.9282 0 3.4641 -6 6.9282 0 3.4641 6 6.9282 0 3.4641 -6 6.9282 0 3.4641 6 6.9282 0 3.4641 -6 6.9282 0 3.4641 6 6.9282 0 3.4641 -6 6.9282 0 3.4641 6 6.9282 0 3.4641 -6 6.9282 0 3.4641 6 6.9282 0 3.4641 6 -3.4641 6 3.4641 6 -3.4641 6 3.4641 6 -3.4641 6 3.4641 6 -3.4641 6 3.4641 6 -3.4641 6 3.4641 6 -3.4641 6 3.4641 6 -3.4641 6 3.4641 6 -3.4641 6 3.4641 6 -3.4641 6 3.4641 6 -3.4641 6 3.4641 6 -3.4641 6 3.4641 6 -3.4641 6 3.4641 6 -3.4641 6 3.4641 6 -3.4641 6 3.4641 6 -3.4641 6 3.4641 6 -3.4641 6 3.4641 6 -3.4641 6 3.4641 6 -3.4641 6 3.4641 6 -3.4641 6 3.4641 6 -3.4641 6 3.4641 6 -3.4641 6 3.4641 6 -3.4641 6 3.4641 6 -3.4641 6 3.4641 6 -3.4641 6 3.4641 6 -3.4641 6 3.4641 6 -3.4641 6 3.4641 6 -3.4641 6 3.4641 6 -3.4641 6 3.4641 6 -3.4641 6 3.4641 6 -3.4641 6 3.4641 6 -3.4641 6 3.4641 6 -3.4641 6 3.4641 6 -3.4641 6 3.4641 6 -3.4641 6 3.4641 6 -3.4641 6 3.4641 6 -3.4641 6 3.4641 6 -3.4641 6 3.4641 6 -3.4641 6 3.4641 6 -3.4641 6 3.4641 6 -3.4641 6 3.4641 6 -3.4641 6 3.4641 6 -3.4641 6 3.4641 6 -3.4641 6 3.4641 6 -3.4641 6 3.4641 6 -3.4641 6 3.4641 6 -3.4641 6 3.4641 6 -3.4641 6 3.4641 6 -3.4641 6 3.4641 6 -3.4641 6 3.4641 6 -3.4641 6 3.4641 6 -3.4641 6 3.4641 6 -3.4641 6 3.4641 6 -3.4641 6 3.4641 6 -3.4641 6 3.4641 6 -3.4641 6 3.4641 6 -3.4641 6 3.4641 6 -3.4641 6 3.4641 6 -3.4641 6 3.4641 6 -3.4641 6 3.4641 6 -3.4641 6 3.4641 6 -3.4641 6 3.4641 6 -3.4641 6 3.4641 6 -3.4641 6 3.4641 6 -3.4641 6 3.4641 6 -3.4641 6 -6.9282 0 -3.4641 -6 -6.9282 0 -3.4641 6 -6.9282 0 -3.4641 -6 -6.9282 0 -3.4641 6 -6.9282 0 -3.4641 -6 -6.9282 0 -3.4641 6 -6.9282 0 -3.4641 -6 -6.9282 0 -3.4641 6 -6.9282 0 -3.4641 -6 -6.9282 0 -3.4641 6 -6.9282 0 -3.4641 -6 -6.9282 0 -3.4641 6 -6.9282 0 -3.4641 -6 -6.9282 0 -3.4641 6 -6.9282 0 -3.4641 -6 -6.9282 0 -3.4641 6 -6.9282 0 -3.4641 -6 -6.9282 0 -3.4641 6 -6.9282 0 -3.4641 -6 -6.9282 0 -3.4641 6 -6.9282 0 -3.4641 -6 -6.9282 0 -3.4641 6 -6.9282 0 -3.4641 -6 -6.9282 0 -3.4641 6 -6.9282 0 -3.4641 -6 -6.9282 0 -3.4641 6 -6.9282 0 -3.4641 -6 -6.9282 0 -3.4641 6 -6.9282 0 -3.4641 -6 -6.9282 0 -3.4641 6 -6.9282 0 -3.4641 -6 -6.9282 0 -3.4641 6 -6.9282 0 -3.4641 -6 -6.9282 0 -3.4641 6 -6.9282 0 -3.4641 -6 -6.9282 0 -3.4641 6 -6.9282 0 -3.4641 -6 -6.9282 0 -3.4641 6 -6.9282 0 -3.4641 -6 -6.9282 0 -3.4641 6 -6.9282 0 -3.4641 -6 -6.9282 0 -3.4641 6 -6.9282 0 -3.4641 -6 -6.9282 0 -3.4641 6 -6.9282 0 -3.4641 -6 -6.9282 0 -3.4641 6 -6.9282 0 -3.4641 -6 -6.9282 0 -3.4641 6 -6.9282 0 -3.4641 -6 -6.9282 0 -3.4641 6 -6.9282 0 -3.4641 -6 -6.9282 0 -3.4641 6 -6.9282 0 -3.4641 -6 -6.9282 0 -3.4641 6 -6.9282 0 -3.4641 -6 -6.9282 0 -3.4641 6 -6.9282 0 -3.4641 -6 -6.9282 0 -3.4641 6 -6.9282 0 -3.4641 -6 -6.9282 0 -3.4641 6 -6.9282 0 -3.4641 -6 -6.9282 0 -3.4641 6 -6.9282 0 -3.4641 -6 -6.9282 0 -3.4641 6 -6.9282 0 -3.4641 -6 -6.9282 0 -3.4641 6 -6.9282 0 -3.4641 -6 -6.9282 0 -3.4641 6 -6.9282 0 -3.4641 -6 -6.9282 0 -3.4641 6 -6.9282 0 -3.4641 -6 -6.9282 0 -3.4641 6 -6.9282 0 -3.4641 -6 -6.9282 0 -3.4641 6 -6.9282 0 -3.4641 -6 -6.9282 0 -3.4641 6 -6.9282 0 -3.4641 -6 -6.9282 0 -3.4641 6 -6.9282 0 -3.4641 -6 -6.9282 0 -3.4641 6 -6.9282 0 -3.4641 -6 -6.9282 0 -3.4641 6 -6.9282 0 -3.4641 -6 -6.9282 0 -3.4641 6 -6.9282 0 -3.4641 -6 3.4641 -6 -3.4641 -6 3.4641 -6 -3.4641 -6 3.4641 -6 -3.4641 -6 3.4641 -6 -3.4641 -6 3.4641 -6 -3.4641 -6 3.4641 -6 -3.4641 -6 3.4641 -6 -3.4641 -6 3.4641 -6 -3.4641 -6 3.4641 -6 -3.4641 -6 3.4641 -6 -3.4641 -6 3.4641 -6 -3.4641 -6 3.4641 -6 -3.4641 -6 3.4641 -6 -3.4641 -6 3.4641 -6 -3.4641 -6 3.4641 -6 -3.4641 -6 3.4641 -6 -3.4641 -6 3.4641 -6 -3.4641 -6 3.4641 -6 -3.4641 -6 3.4641 -6 -3.4641 -6 3.4641 -6 -3.4641 -6 3.4641 -6 -3.4641 -6 3.4641 -6 -3.4641 -6 3.4641 -6 -3.4641 -6 3.4641 -6 -3.4641 -6 3.4641 -6 -3.4641 -6 3.4641 -6 -3.4641 -6 3.4641 -6 -3.4641 -6 3.4641 -6 -3.4641 -6 3.4641 -6 -3.4641 -6 3.4641 -6 -3.4641 -6 3.4641 -6 -3.4641 -6 3.4641 -6 -3.4641 -6 3.4641 -6 -3.4641 -6 3.4641 -6 -3.4641 -6 3.4641 -6 -3.4641 -6 3.4641 -6 -3.4641 -6 3.4641 -6 -3.4641 -6 3.4641 -6 -3.4641 -6 3.4641 -6 -3.4641 -6 3.4641 -6 -3.4641 -6 3.4641 -6 -3.4641 -6 3.4641 -6 -3.4641 -6 3.4641 -6 -3.4641 -6 3.4641 -6 -3.4641 -6 3.4641 -6 -3.4641 -6 3.4641 -6 -3.4641 -6 3.4641 -6 -3.4641 -6 3.4641 -6 -3.4641 -6 3.4641 -6 -3.4641 -6 3.4641 -6 -3.4641 -6 3.4641 -6 -3.4641 -6 3.4641 -6 -3.4641 -6 3.4641 -6 -3.4641 -6 3.4641 -6 -3.4641 -6 3.4641 -6 -3.4641 -6 3.4641 -6 -3.4641 -6 3.4641 -6 -3.4641 -6 3.4641 -6 -3.4641 -6 3.4641 -6 -3.4641 -6 3.4641 -6 -3.4641 -6 3.4641 -6 -3.4641 -6 3.4641 -6 -3.4641 -6 3.4641 -6 -3.4641 -6 3.4641 -6 -3.4641 -6 z" />
</defs>
<g transform="translate(786.5,0.25) rotate(90)">
<g id="grid" style="fill: none; stroke: #000000; stroke-opacity: 1; stroke-width: 0.5; ">
<use x="3.4641" y="6" xlink:href="#outline" />
<use x="10.3923" y="6" xlink:href="#bottoms" />
<use x="3.4641" y="18" xlink:href="#tops" />
<use x="10.3923" y="18" xlink:href="#bottoms" />
<use x="3.4641" y="30" xlink:href="#tops" />
<use x="10.3923" y="30" xlink:href="#bottoms" />
<use x="3.4641" y="42" xlink:href="#tops" />
<use x="10.3923" y="42" xlink:href="#bottoms" />
<use x="3.4641" y="54" xlink:href="#tops" />
<use x="10.3923" y="54" xlink:href="#bottoms" />
<use x="3.4641" y="66" xlink:href="#tops" />
<use x="10.3923" y="66" xlink:href="#bottoms" />
<use x="3.4641" y="78" xlink:href="#tops" />
<use x="10.3923" y="78" xlink:href="#bottoms" />
<use x="3.4641" y="90" xlink:href="#tops" />
<use x="10.3923" y="90" xlink:href="#bottoms" />
<use x="3.4641" y="102" xlink:href="#tops" />
<use x="10.3923" y="102" xlink:href="#bottoms" />
<use x="3.4641" y="114" xlink:href="#tops" />
<use x="10.3923" y="114" xlink:href="#bottoms" />
<use x="3.4641" y="126" xlink:href="#tops" />
<use x="10.3923" y="126" xlink:href="#bottoms" />
<use x="3.4641" y="138" xlink:href="#tops" />
<use x="10.3923" y="138" xlink:href="#bottoms" />
<use x="3.4641" y="150" xlink:href="#tops" />
<use x="10.3923" y="150" xlink:href="#bottoms" />
<use x="3.4641" y="162" xlink:href="#tops" />
<use x="10.3923" y="162" xlink:href="#bottoms" />
<use x="3.4641" y="174" xlink:href="#tops" />
<use x="10.3923" y="174" xlink:href="#bottoms" />
<use x="3.4641" y="186" xlink:href="#tops" />
<use x="10.3923" y="186" xlink:href="#bottoms" />
<use x="3.4641" y="198" xlink:href="#tops" />
<use x="10.3923" y="198" xlink:href="#bottoms" />
<use x="3.4641" y="210" xlink:href="#tops" />
<use x="10.3923" y="210" xlink:href="#bottoms" />
<use x="3.4641" y="222" xlink:href="#tops" />
<use x="10.3923" y="222" xlink:href="#bottoms" />
<use x="3.4641" y="234" xlink:href="#tops" />
<use x="10.3923" y="234" xlink:href="#bottoms" />
<use x="3.4641" y="246" xlink:href="#tops" />
<use x="10.3923" y="246" xlink:href="#bottoms" />
<use x="3.4641" y="258" xlink:href="#tops" />
<use x="10.3923" y="258" xlink:href="#bottoms" />
<use x="3.4641" y="270" xlink:href="#tops" />
<use x="10.3923" y="270" xlink:href="#bottoms" />
<use x="3.4641" y="282" xlink:href="#tops" />
<use x="10.3923" y="282" xlink:href="#bottoms" />
<use x="3.4641" y="294" xlink:href="#tops" />
<use x="10.3923" y="294" xlink:href="#bottoms" />
<use x="3.4641" y="306" xlink:href="#tops" />
<use x="10.3923" y="306" xlink:href="#bottoms" />
<use x="3.4641" y="318" xlink:href="#tops" />
<use x="10.3923" y="318" xlink:href="#bottoms" />
<use x="3.4641" y="330" xlink:href="#tops" />
<use x="10.3923" y="330" xlink:href="#bottoms" />
<use x="3.4641" y="342" xlink:href="#tops" />
<use x="10.3923" y="342" xlink:href="#bottoms" />
<use x="3.4641" y="354" xlink:href="#tops" />
<use x="10.3923" y="354" xlink:href="#bottoms" />
<use x="3.4641" y="366" xlink:href="#tops" />
<use x="10.3923" y="366" xlink:href="#bottoms" />
<use x="3.4641" y="378" xlink:href="#tops" />
<use x="10.3923" y="378" xlink:href="#bottoms" />
<use x="3.4641" y="390" xlink:href="#tops" />
<use x="10.3923" y="390" xlink:href="#bottoms" />
<use x="3.4641" y="402" xlink:href="#tops" />
<use x="10.3923" y="402" xlink:href="#bottoms" />
<use x="3.4641" y="414" xlink:href="#tops" />
<use x="10.3923" y="414" xlink:href="#bottoms" />
<use x="3.4641" y="426" xlink:href="#tops" />
<use x="10.3923" y="426" xlink:href="#bottoms" />
<use x="3.4641" y="438" xlink:href="#tops" />
<use x="10.3923" y="438" xlink:href="#bottoms" />
<use x="3.4641" y="450" xlink:href="#tops" />
<use x="10.3923" y="450" xlink:href="#bottoms" />
<use x="3.4641" y="462" xlink:href="#tops" />
<use x="10.3923" y="462" xlink:href="#bottoms" />
<use x="3.4641" y="474" xlink:href="#tops" />
<use x="10.3923" y="474" xlink:href="#bottoms" />
<use x="3.4641" y="486" xlink:href="#tops" />
<use x="10.3923" y="486" xlink:href="#bottoms" />
<use x="3.4641" y="498" xlink:href="#tops" />
<use x="10.3923" y="498" xlink:href="#bottoms" />
<use x="3.4641" y="510" xlink:href="#tops" />
<use x="10.3923" y="510" xlink:href="#bottoms" />
<use x="3.4641" y="522" xlink:href="#tops" />
<use x="10.3923" y="522" xlink:href="#bottoms" />
<use x="3.4641" y="534" xlink:href="#tops" />
<use x="10.3923" y="534" xlink:href="#bottoms" />
<use x="3.4641" y="546" xlink:href="#tops" />
<use x="10.3923" y="546" xlink:href="#bottoms" />
<use x="3.4641" y="558" xlink:href="#tops" />
<use x="10.3923" y="558" xlink:href="#bottoms" />
<use x="3.4641" y="570" xlink:href="#tops" />
<use x="10.3923" y="570" xlink:href="#bottoms" />
<use x="3.4641" y="582" xlink:href="#tops" />
<use x="10.3923" y="582" xlink:href="#bottoms" />
<use x="3.4641" y="594" xlink:href="#tops" />
<use x="10.3923" y="594" xlink:href="#bottoms" />
<use x="3.4641" y="606" xlink:href="#tops" />
<use x="10.3923" y="606" xlink:href="#bottoms" />
<use x="3.4641" y="618" xlink:href="#tops" />
<use x="10.3923" y="618" xlink:href="#bottoms" />
<use x="3.4641" y="630" xlink:href="#tops" />
<use x="10.3923" y="630" xlink:href="#bottoms" />
<use x="3.4641" y="642" xlink:href="#tops" />
<use x="10.3923" y="642" xlink:href="#bottoms" />
<use x="3.4641" y="654" xlink:href="#tops" />
<use x="10.3923" y="654" xlink:href="#bottoms" />
<use x="3.4641" y="666" xlink:href="#tops" />
<use x="10.3923" y="666" xlink:href="#bottoms" />
<use x="3.4641" y="678" xlink:href="#tops" />
<use x="10.3923" y="678" xlink:href="#bottoms" />
<use x="3.4641" y="690" xlink:href="#tops" />
<use x="10.3923" y="690" xlink:href="#bottoms" />
<use x="3.4641" y="702" xlink:href="#tops" />
<use x="10.3923" y="702" xlink:href="#bottoms" />
<use x="3.4641" y="714" xlink:href="#tops" />
<use x="10.3923" y="714" xlink:href="#bottoms" />
<use x="3.4641" y="726" xlink:href="#tops" />
<use x="10.3923" y="726" xlink:href="#bottoms" />
<use x="3.4641" y="738" xlink:href="#tops" />
<use x="10.3923" y="738" xlink:href="#bottoms" />
<use x="3.4641" y="750" xlink:href="#tops" />
<use x="10.3923" y="750" xlink:href="#bottoms" />
<use x="3.4641" y="762" xlink:href="#tops" />
<use x="10.3923" y="762" xlink:href="#bottoms" />
<use x="3.4641" y="774" xlink:href="#tops" />
<use x="10.3923" y="774" xlink:href="#bottoms" />
</g>
</g>
</svg>
