<?xml version="1.0" standalone="no"?>
<!DOCTYPE svg PUBLIC "-//W3C//DTD SVG 1.1//EN"
   "http://www.w3.org/Graphics/SVG/1.1/DTD/svg11.dtd">
<svg width="781.591" height="887.31" version="1.1"
   xmlns="http://www.w3.org/2000/svg"
   xmlns:xlink="http://www.w3.org/1999/xlink">
<defs>
<path id="bottoms" d="M 0 0 l 2.51935 4.36364 m 5.03869 0 l 2.51935 -4.36364 m 5.03869 0 l 2.51935 4.36364 m 5.03869 0 l 2.51935 -4.36364 m 5.03869 0 l 2.51935 4.36364 m 5.03869 0 l 2.51935 -4.36364 m 5.03869 0 l 2.51935 4.36364 m 5.03869 0 l 2.51935 -4.36364 m 5.03869 0 l 2.51935 4.36364 m 5.03869 0 l 2.51935 -4.36364 m 5.03869 0 l 2.51935 4.36364 m 5.03869 0 l 2.51935 -4.36364 m 5.03869 0 l 2.51935 4.36364 m 5.03869 0 l 2.51935 -4.36364 m 5.03869 0 l 2.51935 4.36364 m 5.03869 0 l 2.51935 -4.36364 m 5.03869 0 l 2.51935 4.36364 m 5.03869 0 l 2.51935 -4.36364 m 5.03869 0 l 2.51935 4.36364 m 5.03869 0 l 2.51935 -4.36364 m 5.03869 0 l 2.51935 4.36364 m 5.03869 0 l 2.51935 -4.36364 m 5.03869 0 l 2.51935 4.36364 m 5.03869 0 l 2.51935 -4.36364 m 5.03869 0 l 2.51935 4.36364 m 5.03869 0 l 2.51935 -4.36364 m 5.03869 0 l 2.51935 4.36364 m 5.03869 0 l 2.51935 -4.36364 m 5.03869 0 l 2.51935 4.36364 m 5.03869 0 l 2.51935 -4.36364 m 5.03869 0 l 2.51935 4.36364 m 5.03869 0 l 2.51935 -4.36364 m 5.03869 0 l 2.51935 4.36364 m 5.03869 0 l 2.51935 -4.36364 m 5.03869 0 l 2.51935 4.36364 m 5.03869 0 l 2.51935 -4.36364 m 5.03869 0 l 2.51935 4.36364 m 5.03869 0 l 2.51935 -4.36364 m 5.03869 0 l 2.51935 4.36364 m 5.03869 0 l 2.51935 -4.36364 m 5.03869 0 l 2.51935 4.36364 m 5.03869 0 l 2.51935 -4.36364 m 5.03869 0 l 2.51935 4.36364 m 5.03869 0 l 2.51935 -4.36364 m 5.03869 0 l 2.51935 4.36364 m 5.03869 0 l 2.51935 -4.36364 m 5.03869 0 l 2.51935 4.36364 m 5.03869 0 l 2.51935 -4.36364 m 5.03869 0 l 2.51935 4.36364 m 5.03869 0 l 2.51935 -4.36364 m 5.03869 0 l 2.51935 4.36364 m 5.03869 0 l 2.51935 -4.36364 m 5.03869 0 l 2.51935 4.36364 m 5.03869 0 l 2.51935 -4.36364 m 5.03869 0 l 2.51935 4.36364 m 5.03869 0 l 2.51935 -4.36364 m 5.03869 0 l 2.51935 4.36364 m 5.03869 0 l 2.51935 -4.36364 m 5.03869 0 l 2.51935 4.36364 m 5.03869 0 l 2.51935 -4.36364 m 5.03869 0 l 2.51935 4.36364 m 5.03869 0 l 2.51935 -4.36364 m 5.03869 0 l 2.51935 4.36364 m 5.03869 0 l 2.51935 -4.36364 m 5.03869 0 l 2.51935 4.36364 m 5.03869 0 l 2.51935 -4.36364 m 5.03869 0 l 2.51935 4.36364 m 5.03869 0 l 2.51935 -4.36364 m 5.03869 0 l 2.51935 4.36364 m 5.03869 0 l 2.51935 -4.36364 m 5.03869 0 l 2.51935 4.36364 m 5.03869 0 l 2.51935 -4.36364 m 5.03869 0 l 2.51935 4.36364 m 5.03869 0 l 2.51935 -4.36364 m 5.03869 0 l 2.51935 4.36364 m 5.03869 0 l 2.51935 -4.36364 m 5.03869 0 l 2.51935 4.36364 m 5.03869 0 l 2.51935 -4.36364 m 5.03869 0 l 2.51935 4.36364 m 5.03869 0 l 2.51935 -4.36364 m 5.03869 0 l 2.51935 4.36364 m 5.03869 0 l 2.51935 -4.36364 m 5.03869 0 l 2.51935 4.36364 m 5.03869 0 l 2.51935 -4.36364 m 5.03869 0 l 2.51935 4.36364 m 5.03869 0 l 2.51935 -4.36364 m 5.03869 0 l 2.51935 4.36364 m 5.03869 0 l 2.51935 -4.36364 m 5.03869 0 l 2.51935 4.36364 m 5.03869 0 l 2.51935 -4.36364 m 5.03869 0 l 2.51935 4.36364 m 5.03869 0 l 2.51935 -4.36364 m 5.03869 0 l 2.51935 4.36364 m 5.03869 0 l 2.51935 -4.36364 m 5.03869 0 l 2.51935 4.36364 m 5.03869 0 l 2.51935 -4.36364 m 5.03869 0 l 2.51935 4.36364 m 5.03869 0 l 2.51935 -4.36364 m 5.03869 0 l 2.51935 4.36364 m 5.03869 0 l 2.51935 -4.36364 m 5.03869 0 l 2.51935 4.36364 m 5.03869 0 l 2.51935 -4.36364 m 5.03869 0 l 2.51935 4.36364 m 5.03869 0 l 2.51935 -4.36364 m 5.03869 0 l 2.51935 4.36364 m 5.03869 0 l 2.51935 -4.36364 m 5.03869 0 l 2.51935 4.36364 m 5.03869 0 l 2.51935 -4.36364 m 5.03869 0 l 2.51935 4.36364 m 5.03869 0 l 2.51935 -4.36364 m 5.03869 0 l 2.51935 4.36364 m 5.03869 0 l 2.51935 -4.36364 m 5.03869 0 l 2.51935 4.36364 m 5.03869 0 l 2.51935 -4.36364 m 5.03869 0 l 2.51935 4.36364 m 5.03869 0 l 2.51935 -4.36364 m 5.03869 0" />
<path id="tops" d="M 0 0 l 5.03869 0 2.51935 -4.36364 5.03869 0 2.51935 4.36364 5.03869 0 2.51935 -4.36364 5.03869 0 2.51935 4.36364 5.03869 0 2.51935 -4.36364 5.03869 0 2.51935 4.36364 5.03869 0 2.51935 -4.36364 5.03869 0 2.51935 4.36364 5.03869 0 2.51935 -4.36364 5.03869 0 2.51935 4.36364 5.03869 0 2.51935 -4.36364 5.03869 0 2.51935 4.36364 5.03869 0 2.51935 -4.36364 5.03869 0 2.51935 4.36364 5.03869 0 2.51935 -4.36364 5.03869 0 2.51935 4.36364 5.03869 0 2.51935 -4.36364 5.03869 0 2.51935 4.36364 5.03869 0 2.51935 -4.36364 5.03869 0 2.51935 4.36364 5.03869 0 2.51935 -4.36364 5.03869 0 2.51935 4.36364 5.03869 0 2.51935 -4.36364 5.03869 0 2.51935 4.36364 5.03869 0 2.51935 -4.36364 5.03869 0 2.51935 4.36364 5.03869 0 2.51935 -4.36364 5.03869 0 2.51935 4.36364 5.03869 0 2.51935 -4.36364 5.03869 0 2.51935 4.36364 5.03869 0 2.51935 -4.36364 5.03869 0 2.51935 4.36364 5.03869 0 2.51935 -4.36364 5.03869 0 2.51935 4.36364 5.03869 0 2.51935 -4.36364 5.03869 0 2.51935 4.36364 5.03869 0 2.51935 -4.36364 5.03869 0 2.51935 4.36364 5.03869 0 2.51935 -4.36364 5.03869 0 2.51935 4.36364 5.03869 0 2.51935 -4.36364 5.03869 0 2.51935 4.36364 5.03869 0 2.51935 -4.36364 5.03869 0 2.51935 4.36364 5.03869 0 2.51935 -4.36364 5.03869 0 2.51935 4.36364 5.03869 0 2.51935 -4.36364 5.03869 0 2.51935 4.36364 5.03869 0 2.51935 -4.36364 5.03869 0 2.51935 4.36364 5.03869 0 2.51935 -4.36364 5.03869 0 2.51935 4.36364 5.03869 0 2.51935 -4.36364 5.03869 0 2.51935 4.36364 5.03869 0 2.51935 -4.36364 5.03869 0 2.51935 4.36364 5.03869 0 2.51935 -4.36364 5.03869 0 2.51935 4.36364 5.03869 0 2.51935 -4.36364 5.03869 0 2.51935 4.36364 5.03869 0 2.51935 -4.36364 5.03869 0 2.51935 4.36364 5.03869 0 2.51935 -4.36364 5.03869 0 2.51935 4.36364 5.03869 0 2.51935 -4.36364 5.03869 0 2.51935 4.36364 5.03869 0 2.51935 -4.36364 5.03869 0 2.51935 4.36364 5.03869 0 2.51935 -4.36364 5.03869 0 2.51935 4.36364 5.03869 0 2.51935 -4.36364 5.03869 0 2.51935 4.36364 5.03869 0 2.51935 -4.36364 5.03869 0 2.51935 4.36364 5.03869 0 2.51935 -4.36364 5.03869 0 2.51935 4.36364 5.03869 0 2.51935 -4.36364 5.03869 0 2.51935 4.36364 5.03869 0 2.51935 -4.36364 5.03869 0 2.51935 4.36364 5.03869 0 2.51935 -4.36364 5.03869 0 2.51935 4.36364 5.03869 0 2.51935 -4.36364 5.03869 0 2.51935 4.36364 5.03869 0 2.51935 -4.36364 5.03869 0 2.51935 4.36364 5.03869 0 2.51935 -4.36364 5.03869 0 2.51935 4.36364 5.03869 0 2.51935 -4.36364 5.03869 0 2.51935 4.36364 5.03869 0 2.51935 -4.36364 5.03869 0 2.51935 4.36364 5.03869 0 2.51935 -4.36364 5.03869 0 2.51935 4.36364 5.03869 0 2.51935 -4.36364 5.03869 0 2.51935 4.36364 5.03869 0 2.51935 -4.36364 5.03869 0 2.51935 4.36364 5.03869 0 2.51935 -4.36364 5.03869 0 2.51935 4.36364 5.03869 0 2.51935 -4.36364 5.03869 0 2.51935 4.36364 5.03869 0 2.51935 -4.36364 5.03869 0 2.51935 4.36364 5.03869 0 2.51935 -4.36364 5.03869 0 2.51935 4.36364 5.03869 0 2.51935 -4.36364 5.03869 0 2.51935 4.36364 5.03869 0 2.51935 -4.36364 5.03869 0 2.51935 4.36364 5.03869 0 2.51935 -4.36364 5.03869 0 2.51935 4.36364 5.03869 0 2.51935 -4.36364 5.03869 0 2.51935 4.36364 5.03869 0 2.51935 -4.36364 5.03869 0 2.51935 4.36364 5.03869 0" />
<path id="outline" d="M 0 0 l 5.03869 0 2.51935 -4.36364 5.03869 0 2.51935 4.36364 5.03869 0 2.51935 -4.36364 5.03869 0 2.51935 4.36364 5.03869 0 2.51935 -4.36364 5.03869 0 2.51935 4.36364 5.03869 0 2.51935 -4.36364 5.03869 0 2.51935 4.36364 5.03869 0 2.51935 -4.36364 5.03869 0 2.51935 4.36364 5.03869 0 2.51935 -4.36364 5.03869 0 2.51935 4.36364 5.03869 0 2.51935 -4.36364 5.03869 0 2.51935 4.36364 5.03869 0 2.51935 -4.36364 5.03869 0 2.51935 4.36364 5.03869 0 2.51935 -4.36364 5.03869 0 2.51935 4.36364 5.03869 0 2.51935 -4.36364 5.03869 0 2.51935 4.36364 5.03869 0 2.51935 -4.36364 5.03869 0 2.51935 4.36364 5.03869 0 2.51935 -4.36364 5.03869 0 2.51935 4.36364 5.03869 0 2.51935 -4.36364 5.03869 0 2.51935 4.36364 5.03869 0 2.51935 -4.36364 5.03869 0 2.51935 4.36364 5.03869 0 2.51935 -4.36364 5.03869 0 2.51935 4.36364 5.03869 0 2.51935 -4.36364 5.03869 0 2.51935 4.36364 5.03869 0 2.51935 -4.36364 5.03869 0 2.51935 4.36364 5.03869 0 2.51935 -4.36364 5.03869 0 2.51935 4.36364 5.03869 0 2.51935 -4.36364 5.03869 0 2.51935 4.36364 5.03869 0 2.51935 -4.36364 5.03869 0 2.51935 4.36364 5.03869 0 2.51935 -4.36364 5.03869 0 2.51935 4.36364 5.03869 0 2.51935 -4.36364 5.03869 0 2.51935 4.36364 5.03869 0 2.51935 -4.36364 5.03869 0 2.51935 4.36364 5.03869 0 2.51935 -4.36364 5.03869 0 2.51935 4.36364 5.03869 0 2.51935 -4.36364 5.03869 0 2.51935 4.36364 5.03869 0 2.51935 -4.36364 5.03869 0 2.51935 4.36364 5.03869 0 2.51935 -4.36364 5.03869 0 2.51935 4.36364 5.03869 0 2.51935 -4.36364 5.03869 0 2.51935 4.36364 5.03869 0 2.51935 -4.36364 5.03869 0 2.51935 4.36364 5.03869 0 2.51935 -4.36364 5.03869 0 2.51935 4.36364 5.03869 0 2.51935 -4.36364 5.03869 0 2.51935 4.36364 5.03869 0 2.51935 -4.36364 5.03869 0 2.51935 4.36364 5.03869 0 2.51935 -4.36364 5.03869 0 2.51935 4.36364 5.03869 0 2.51935 -4.36364 5.03869 0 2.51935 4.36364 5.03869 0 2.51935 -4.36364 5.03869 0 2.51935 4.36364 5.03869 0 2.51935 -4.36364 5.03869 0 2.51935 4.36364 5.03869 0 2.51935 -4.36364 5.03869 0 2.51935 4.36364 5.03869 0 2.51935 -4.36364 5.03869 0 2.51935 4.36364 5.03869 0 2.51935 -4.36364 5.03869 0 2.51935 4.36364 5.03869 0 2.51935 -4.36364 5.03869 0 2.51935 4.36364 5.03869 0 2.51935 -4.36364 5.03869 0 2.51935 4.36364 5.03869 0 2.51935 -4.36364 5.03869 0 2.51935 4.36364 5.03869 0 2.51935 -4.36364 5.03869 0 2.51935 4.36364 5.03869 0 2.51935 -4.36364 5.03869 0 2.51935 4.36364 5.03869 0 2.51935 -4.36364 5.03869 0 2.51935 4.36364 5.03869 0 2.51935 -4.36364 5.03869 0 2.51935 4.36364 5.03869 0 2.51935 -4.36364 5.03869 0 2.51935 4.36364 5.03869 0 2.51935 -4.36364 5.03869 0 2.51935 4.36364 5.03869 0 2.51935 -4.36364 5.03869 0 2.51935 4.36364 5.03869 0 2.51935 -4.36364 5.03869 0 2.51935 4.36364 5.03869 0 2.51935 -4.36364 5.03869 0 2.51935 4.36364 5.03869 0 2.51935 -4.36364 5.03869 0 2.51935 4.36364 5.03869 0 2.51935 -4.36364 5.03869 0 2.51935 4.36364 5.03869 0 2.51935 -4.36364 5.03869 0 2.51935 4.36364 5.03869 0 2.51935 -4.36364 5.03869 0 2.51935 4.36364 5.03869 0 2.51935 -4.36364 5.03869 0 2.51935 4.36364 5.03869 0 2.51935 -4.36364 5.03869 0 2.51935 4.36364 5.03869 0 2.51935 -4.36364 5.03869 0 2.51935 4.36364 5.03869 0 2.51935 4.36364 -2.51935 4.36364 2.51935 4.36364 -2.51935 4.36364 2.51935 4.36364 -2.51935 4.36364 2.51935 4.36364 -2.51935 4.36364 2.51935 4.36364 -2.51935 4.36364 2.51935 4.36364 -2.51935 4.36364 2.51935 4.36364 -2.51935 4.36364 2.51935 4.36364 -2.51935 4.36364 2.51935 4.36364 -2.51935 4.36364 2.51935 4.36364 -2.51935 4.36364 2.51935 4.36364 -2.51935 4.36364 2.51935 4.36364 -2.51935 4.36364 2.51935 4.36364 -2.51935 4.36364 2.51935 4.36364 -2.51935 4.36364 2.51935 4.36364 -2.51935 4.36364 2.51935 4.36364 -2.51935 4.36364 2.51935 4.36364 -2.51935 4.36364 2.51935 4.36364 -2.51935 4.36364 2.51935 4.36364 -2.51935 4.36364 2.51935 4.36364 -2.51935 4.36364 2.51935 4.36364 -2.51935 4.36364 2.51935 4.36364 -2.51935 4.36364 2.51935 4.36364 -2.51935 4.36364 2.51935 4.36364 -2.51935 4.36364 2.51935 4.36364 -2.51935 4.36364 2.51935 4.36364 -2.51935 4.36364 2.51935 4.36364 -2.51935 4.36364 2.51935 4.36364 -2.51935 4.36364 2.51935 4.36364 -2.51935 4.36364 2.51935 4.36364 -2.51935 4.36364 2.51935 4.36364 -2.51935 4.36364 2.51935 4.36364 -2.51935 4.36364 2.51935 4.36364 -2.51935 4.36364 2.51935 4.36364 -2.51935 4.36364 2.51935 4.36364 -2.51935 4.36364 2.51935 4.36364 -2.51935 4.36364 2.51935 4.36364 -2.51935 4.36364 2.51935 4.36364 -2.51935 4.36364 2.51935 4.36364 -2.51935 4.36364 2.51935 4.36364 -2.51935 4.36364 2.51935 4.36364 -2.51935 4.36364 2.51935 4.36364 -2.51935 4.36364 2.51935 4.36364 -2.51935 4.36364 2.51935 4.36364 -2.51935 4.36364 2.51935 4.36364 -2.51935 4.36364 2.51935 4.36364 -2.51935 4.36364 2.51935 4.36364 -2.51935 4.36364 2.51935 4.36364 -2.51935 4.36364 2.51935 4.36364 -2.51935 4.36364 2.51935 4.36364 -2.51935 4.36364 2.51935 4.36364 -2.51935 4.36364 2.51935 4.36364 -2.51935 4.36364 2.51935 4.36364 -2.51935 4.36364 2.51935 4.36364 -2.51935 4.36364 2.51935 4.36364 -2.51935 4.36364 2.51935 4.36364 -2.51935 4.36364 2.51935 4.36364 -2.51935 4.36364 2.51935 4.36364 -2.51935 4.36364 2.51935 4.36364 -2.51935 4.36364 2.51935 4.36364 -2.51935 4.36364 2.51935 4.36364 -2.51935 4.36364 2.51935 4.36364 -2.51935 4.36364 2.51935 4.36364 -2.51935 4.36364 2.51935 4.36364 -2.51935 4.36364 2.51935 4.36364 -2.51935 4.36364 2.51935 4.36364 -2.51935 4.36364 2.51935 4.36364 -2.51935 4.36364 2.51935 4.36364 -2.51935 4.36364 2.51935 4.36364 -2.51935 4.36364 2.51935 4.36364 -2.51935 4.36364 2.51935 4.36364 -2.51935 4.36364 2.51935 4.36364 -2.51935 4.36364 2.51935 4.36364 -2.51935 4.36364 2.51935 4.36364 -2.51935 4.36364 2.51935 4.36364 -2.51935 4.36364 2.51935 4.36364 -2.51935 4.36364 2.51935 4.36364 -2.51935 4.36364 2.51935 4.36364 -2.51935 4.36364 2.51935 4.36364 -2.51935 4.36364 2.51935 4.36364 -2.51935 4.36364 2.51935 4.36364 -2.51935 4.36364 2.51935 4.36364 -2.51935 4.36364 2.51935 4.36364 -2.51935 4.36364 2.51935 4.36364 -2.51935 4.36364 2.51935 4.36364 -2.51935 4.36364 2.51935 4.36364 -2.51935 4.36364 2.51935 4.36364 -2.51935 4.36364 2.51935 4.36364 -2.51935 4.36364 2.51935 4.36364 -2.51935 4.36364 -5.03869 0 -2.51935 -4.36364 -5.03869 0 -2.51935 4.36364 -5.03869 0 -2.51935 -4.36364 -5.03869 0 -2.51935 4.36364 -5.03869 0 -2.51935 -4.36364 -5.03869 0 -2.51935 4.36364 -5.03869 0 -2.51935 -4.36364 -5.03869 0 -2.51935 4.36364 -5.03869 0 -2.51935 -4.36364 -5.03869 0 -2.51935 4.36364 -5.03869 0 -2.51935 -4.36364 -5.03869 0 -2.51935 4.36364 -5.03869 0 -2.51935 -4.36364 -5.03869 0 -2.51935 4.36364 -5.03869 0 -2.51935 -4.36364 -5.03869 0 -2.51935 4.36364 -5.03869 0 -2.51935 -4.36364 -5.03869 0 -2.51935 4.36364 -5.03869 0 -2.51935 -4.36364 -5.03869 0 -2.51935 4.36364 -5.03869 0 -2.51935 -4.36364 -5.03869 0 -2.51935 4.36364 -5.03869 0 -2.51935 -4.36364 -5.03869 0 -2.51935 4.36364 -5.03869 0 -2.51935 -4.36364 -5.03869 0 -2.51935 4.36364 -5.03869 0 -2.51935 -4.36364 -5.03869 0 -2.51935 4.36364 -5.03869 0 -2.51935 -4.36364 -5.03869 0 -2.51935 4.36364 -5.03869 0 -2.51935 -4.36364 -5.03869 0 -2.51935 4.36364 -5.03869 0 -2.51935 -4.36364 -5.03869 0 -2.51935 4.36364 -5.03869 0 -2.51935 -4.36364 -5.03869 0 -2.51935 4.36364 -5.03869 0 -2.51935 -4.36364 -5.03869 0 -2.51935 4.36364 -5.03869 0 -2.51935 -4.36364 -5.03869 0 -2.51935 4.36364 -5.03869 0 -2.51935 -4.36364 -5.03869 0 -2.51935 4.36364 -5.03869 0 -2.51935 -4.36364 -5.03869 0 -2.51935 4.36364 -5.03869 0 -2.51935 -4.36364 -5.03869 0 -2.51935 4.36364 -5.03869 0 -2.51935 -4.36364 -5.03869 0 -2.51935 4.36364 -5.03869 0 -2.51935 -4.36364 -5.03869 0 -2.51935 4.36364 -5.03869 0 -2.51935 -4.36364 -5.03869 0 -2.51935 4.36364 -5.03869 0 -2.51935 -4.36364 -5.03869 0 -2.51935 4.36364 -5.03869 0 -2.51935 -4.36364 -5.03869 0 -2.51935 4.36364 -5.03869 0 -2.51935 -4.36364 -5.03869 0 -2.51935 4.36364 -5.03869 0 -2.51935 -4.36364 -5.03869 0 -2.51935 4.36364 -5.03869 0 -2.51935 -4.36364 -5.03869 0 -2.51935 4.36364 -5.03869 0 -2.51935 -4.36364 -5.03869 0 -2.51935 4.36364 -5.03869 0 -2.51935 -4.36364 -5.03869 0 -2.51935 4.36364 -5.03869 0 -2.51935 -4.36364 -5.03869 0 -2.51935 4.36364 -5.03869 0 -2.51935 -4.36364 -5.03869 0 -2.51935 4.36364 -5.03869 0 -2.51935 -4.36364 -5.03869 0 -2.51935 4.36364 -5.03869 0 -2.51935 -4.36364 -5.03869 0 -2.51935 4.36364 -5.03869 0 -2.51935 -4.36364 -5.03869 0 -2.51935 4.36364 -5.03869 0 -2.51935 -4.36364 -5.03869 0 -2.51935 4.36364 -5.03869 0 -2.51935 -4.36364 -5.03869 0 -2.51935 4.36364 -5.03869 0 -2.51935 -4.36364 -5.03869 0 -2.51935 4.36364 -5.03869 0 -2.51935 -4.36364 -5.03869 0 -2.51935 4.36364 -5.03869 0 -2.51935 -4.36364 -5.03869 0 -2.51935 4.36364 -5.03869 0 -2.51935 -4.36364 -5.03869 0 -2.51935 4.36364 -5.03869 0 -2.51935 -4.36364 -5.03869 0 -2.51935 4.36364 -5.03869 0 -2.51935 -4.36364 -5.03869 0 -2.51935 4.36364 -5.03869 0 -2.51935 -4.36364 -5.03869 0 -2.51935 4.36364 -5.03869 0 -2.51935 -4.36364 -5.03869 0 -2.51935 4.36364 -5.03869 0 -2.51935 -4.36364 -5.03869 0 -2.51935 4.36364 -5.03869 0 -2.51935 -4.36364 -5.03869 0 -2.51935 4.36364 -5.03869 0 -2.51935 -4.36364 -5.03869 0 -2.51935 4.36364 -5.03869 0 -2.51935 -4.36364 -5.03869 0 -2.51935 4.36364 -5.03869 0 -2.51935 -4.36364 -5.03869 0 -2.51935 4.36364 -5.03869 0 -2.51935 -4.36364 -5.03869 0 -2.51935 4.36364 -5.03869 0 -2.51935 -4.36364 -5.03869 0 -2.51935 4.36364 -5.03869 0 -2.51935 -4.36364 -5.03869 0 -2.51935 4.36364 -5.03869 0 -2.51935 -4.36364 -5.03869 0 -2.51935 4.36364 -5.03869 0 -2.51935 -4.36364 -5.03869 0 -2.51935 4.36364 -5.03869 0 -2.51935 -4.36364 2.51935 -4.36364 -2.51935 -4.36364 2.51935 -4.36364 -2.51935 -4.36364 2.51935 -4.36364 -2.51935 -4.36364 2.51935 -4.36364 -2.51935 -4.36364 2.51935 -4.36364 -2.51935 -4.36364 2.51935 -4.36364 -2.51935 -4.36364 2.51935 -4.36364 -2.51935 -4.36364 2.51935 -4.36364 -2.51935 -4.36364 2.51935 -4.36364 -2.51935 -4.36364 2.51935 -4.36364 -2.51935 -4.36364 2.51935 -4.36364 -2.51935 -4.36364 2.51935 -4.36364 -2.51935 -4.36364 2.51935 -4.36364 -2.51935 -4.36364 2.51935 -4.36364 -2.51935 -4.36364 2.51935 -4.36364 -2.51935 -4.36364 2.51935 -4.36364 -2.51935 -4.36364 2.51935 -4.36364 -2.51935 -4.36364 2.51935 -4.36364 -2.51935 -4.36364 2.51935 -4.36364 -2.51935 -4.36364 2.51935 -4.36364 -2.51935 -4.36364 2.51935 -4.36364 -2.51935 -4.36364 2.51935 -4.36364 -2.51935 -4.36364 2.51935 -4.36364 -2.51935 -4.36364 2.51935 -4.36364 -2.51935 -4.36364 2.51935 -4.36364 -2.51935 -4.36364 2.51935 -4.36364 -2.51935 -4.36364 2.51935 -4.36364 -2.51935 -4.36364 2.51935 -4.36364 -2.51935 -4.36364 2.51935 -4.36364 -2.51935 -4.36364 2.51935 -4.36364 -2.51935 -4.36364 2.51935 -4.36364 -2.51935 -4.36364 2.51935 -4.36364 -2.51935 -4.36364 2.51935 -4.36364 -2.51935 -4.36364 2.51935 -4.36364 -2.51935 -4.36364 2.51935 -4.36364 -2.51935 -4.36364 2.51935 -4.36364 -2.51935 -4.36364 2.51935 -4.36364 -2.51935 -4.36364 2.51935 -4.36364 -2.51935 -4.36364 2.51935 -4.36364 -2.51935 -4.36364 2.51935 -4.36364 -2.51935 -4.36364 2.51935 -4.36364 -2.51935 -4.36364 2.51935 -4.36364 -2.51935 -4.36364 2.51935 -4.36364 -2.51935 -4.36364 2.51935 -4.36364 -2.51935 -4.36364 2.51935 -4.36364 -2.51935 -4.36364 2.51935 -4.36364 -2.51935 -4.36364 2.51935 -4.36364 -2.51935 -4.36364 2.51935 -4.36364 -2.51935 -4.36364 2.51935 -4.36364 -2.51935 -4.36364 2.51935 -4.36364 -2.51935 -4.36364 2.51935 -4.36364 -2.51935 -4.36364 2.51935 -4.36364 -2.51935 -4.36364 2.51935 -4.36364 -2.51935 -4.36364 2.51935 -4.36364 -2.51935 -4.36364 2.51935 -4.36364 -2.51935 -4.36364 2.51935 -4.36364 -2.51935 -4.36364 2.51935 -4.36364 -2.51935 -4.36364 2.51935 -4.36364 -2.51935 -4.36364 2.51935 -4.36364 -2.51935 -4.36364 2.51935 -4.36364 -2.51935 -4.36364 2.51935 -4.36364 -2.51935 -4.36364 2.51935 -4.36364 -2.51935 -4.36364 2.51935 -4.36364 -2.51935 -4.36364 2.51935 -4.36364 -2.51935 -4.36364 2.51935 -4.36364 -2.51935 -4.36364 2.51935 -4.36364 -2.51935 -4.36364 2.51935 -4.36364 -2.51935 -4.36364 2.51935 -4.36364 -2.51935 -4.36364 2.51935 -4.36364 -2.51935 -4.36364 2.51935 -4.36364 -2.51935 -4.36364 2.51935 -4.36364 -2.51935 -4.36364 2.51935 -4.36364 -2.51935 -4.36364 2.51935 -4.36364 -2.51935 -4.36364 2.51935 -4.36364 -2.51935 -4.36364 2.51935 -4.36364 -2.51935 -4.36364 2.51935 -4.36364 -2.51935 -4.36364 2.51935 -4.36364 -2.51935 -4.36364 2.51935 -4.36364 -2.51935 -4.36364 2.51935 -4.36364 -2.51935 -4.36364 2.51935 -4.36364 -2.51935 -4.36364 2.51935 -4.36364 -2.51935 -4.36364 2.51935 -4.36364 -2.51935 -4.36364 2.51935 -4.36364 -2.51935 -4.36364 2.51935 -4.36364 -2.51935 -4.36364 2.51935 -4.36364 -2.51935 -4.36364 2.51935 -4.36364 -2.51935 -4.36364 2.51935 -4.36364 -2.51935 -4.36364 2.51935 -4.36364 -2.51935 -4.36364 z" />
</defs>
<g transform="translate(781.591,0.25) rotate(90)">
<g id="grid" style="fill: none; stroke: #000000; stroke-opacity: 1; stroke-width: 0.5; ">
<use x="2.51935" y="4.36364" xlink:href="#outline" />
<use x="7.55804" y="4.36364" xlink:href="#bottoms" />
<use x="2.51935" y="13.0909" xlink:href="#tops" />
<use x="7.55804" y="13.0909" xlink:href="#bottoms" />
<use x="2.51935" y="21.8182" xlink:href="#tops" />
<use x="7.55804" y="21.8182" xlink:href="#bottoms" />
<use x="2.51935" y="30.5455" xlink:href="#tops" />
<use x="7.55804" y="30.5455" xlink:href="#bottoms" />
<use x="2.51935" y="39.2727" xlink:href="#tops" />
<use x="7.55804" y="39.2727" xlink:href="#bottoms" />
<use x="2.51935" y="48" xlink:href="#tops" />
<use x="7.55804" y="48" xlink:href="#bottoms" />
<use x="2.51935" y="56.7273" xlink:href="#tops" />
<use x="7.55804" y="56.7273" xlink:href="#bottoms" />
<use x="2.51935" y="65.4545" xlink:href="#tops" />
<use x="7.55804" y="65.4545" xlink:href="#bottoms" />
<use x="2.51935" y="74.1818" xlink:href="#tops" />
<use x="7.55804" y="74.1818" xlink:href="#bottoms" />
<use x="2.51935" y="82.9091" xlink:href="#tops" />
<use x="7.55804" y="82.9091" xlink:href="#bottoms" />
<use x="2.51935" y="91.6364" xlink:href="#tops" />
<use x="7.55804" y="91.6364" xlink:href="#bottoms" />
<use x="2.51935" y="100.364" xlink:href="#tops" />
<use x="7.55804" y="100.364" xlink:href="#bottoms" />
<use x="2.51935" y="109.091" xlink:href="#tops" />
<use x="7.55804" y="109.091" xlink:href="#bottoms" />
<use x="2.51935" y="117.818" xlink:href="#tops" />
<use x="7.55804" y="117.818" xlink:href="#bottoms" />
<use x="2.51935" y="126.545" xlink:href="#tops" />
<use x="7.55804" y="126.545" xlink:href="#bottoms" />
<use x="2.51935" y="135.273" xlink:href="#tops" />
<use x="7.55804" y="135.273" xlink:href="#bottoms" />
<use x="2.51935" y="144" xlink:href="#tops" />
<use x="7.55804" y="144" xlink:href="#bottoms" />
<use x="2.51935" y="152.727" xlink:href="#tops" />
<use x="7.55804" y="152.727" xlink:href="#bottoms" />
<use x="2.51935" y="161.455" xlink:href="#tops" />
<use x="7.55804" y="161.455" xlink:href="#bottoms" />
<use x="2.51935" y="170.182" xlink:href="#tops" />
<use x="7.55804" y="170.182" xlink:href="#bottoms" />
<use x="2.51935" y="178.909" xlink:href="#tops" />
<use x="7.55804" y="178.909" xlink:href="#bottoms" />
<use x="2.51935" y="187.636" xlink:href="#tops" />
<use x="7.55804" y="187.636" xlink:href="#bottoms" />
<use x="2.51935" y="196.364" xlink:href="#tops" />
<use x="7.55804" y="196.364" xlink:href="#bottoms" />
<use x="2.51935" y="205.091" xlink:href="#tops" />
<use x="7.55804" y="205.091" xlink:href="#bottoms" />
<use x="2.51935" y="213.818" xlink:href="#tops" />
<use x="7.55804" y="213.818" xlink:href="#bottoms" />
<use x="2.51935" y="222.545" xlink:href="#tops" />
<use x="7.55804" y="222.545" xlink:href="#bottoms" />
<use x="2.51935" y="231.273" xlink:href="#tops" />
<use x="7.55804" y="231.273" xlink:href="#bottoms" />
<use x="2.51935" y="240" xlink:href="#tops" />
<use x="7.55804" y="240" xlink:href="#bottoms" />
<use x="2.51935" y="248.727" xlink:href="#tops" />
<use x="7.55804" y="248.727" xlink:href="#bottoms" />
<use x="2.51935" y="257.455" xlink:href="#tops" />
<use x="7.55804" y="257.455" xlink:href="#bottoms" />
<use x="2.51935" y="266.182" xlink:href="#tops" />
<use x="7.55804" y="266.182" xlink:href="#bottoms" />
<use x="2.51935" y="274.909" xlink:href="#tops" />
<use x="7.55804" y="274.909" xlink:href="#bottoms" />
<use x="2.51935" y="283.636" xlink:href="#tops" />
<use x="7.55804" y="283.636" xlink:href="#bottoms" />
<use x="2.51935" y="292.364" xlink:href="#tops" />
<use x="7.55804" y="292.364" xlink:href="#bottoms" />
<use x="2.51935" y="301.091" xlink:href="#tops" />
<use x="7.55804" y="301.091" xlink:href="#bottoms" />
<use x="2.51935" y="309.818" xlink:href="#tops" />
<use x="7.55804" y="309.818" xlink:href="#bottoms" />
<use x="2.51935" y="318.545" xlink:href="#tops" />
<use x="7.55804" y="318.545" xlink:href="#bottoms" />
<use x="2.51935" y="327.273" xlink:href="#tops" />
<use x="7.55804" y="327.273" xlink:href="#bottoms" />
<use x="2.51935" y="336" xlink:href="#tops" />
<use x="7.55804" y="336" xlink:href="#bottoms" />
<use x="2.51935" y="344.727" xlink:href="#tops" />
<use x="7.55804" y="344.727" xlink:href="#bottoms" />
<use x="2.51935" y="353.455" xlink:href="#tops" />
<use x="7.55804" y="353.455" xlink:href="#bottoms" />
<use x="2.51935" y="362.182" xlink:href="#tops" />
<use x="7.55804" y="362.182" xlink:href="#bottoms" />
<use x="2.51935" y="370.909" xlink:href="#tops" />
<use x="7.55804" y="370.909" xlink:href="#bottoms" />
<use x="2.51935" y="379.636" xlink:href="#tops" />
<use x="7.55804" y="379.636" xlink:href="#bottoms" />
<use x="2.51935" y="388.364" xlink:href="#tops" />
<use x="7.55804" y="388.364" xlink:href="#bottoms" />
<use x="2.51935" y="397.091" xlink:href="#tops" />
<use x="7.55804" y="397.091" xlink:href="#bottoms" />
<use x="2.51935" y="405.818" xlink:href="#tops" />
<use x="7.55804" y="405.818" xlink:href="#bottoms" />
<use x="2.51935" y="414.545" xlink:href="#tops" />
<use x="7.55804" y="414.545" xlink:href="#bottoms" />
<use x="2.51935" y="423.273" xlink:href="#tops" />
<use x="7.55804" y="423.273" xlink:href="#bottoms" />
<use x="2.51935" y="432" xlink:href="#tops" />
<use x="7.55804" y="432" xlink:href="#bottoms" />
<use x="2.51935" y="440.727" xlink:href="#tops" />
<use x="7.55804" y="440.727" xlink:href="#bottoms" />
<use x="2.51935" y="449.455" xlink:href="#tops" />
<use x="7.55804" y="449.455" xlink:href="#bottoms" />
<use x="2.51935" y="458.182" xlink:href="#tops" />
<use x="7.55804" y="458.182" xlink:href="#bottoms" />
<use x="2.51935" y="466.909" xlink:href="#tops" />
<use x="7.55804" y="466.909" xlink:href="#bottoms" />
<use x="2.51935" y="475.636" xlink:href="#tops" />
<use x="7.55804" y="475.636" xlink:href="#bottoms" />
<use x="2.51935" y="484.364" xlink:href="#tops" />
<use x="7.55804" y="484.364" xlink:href="#bottoms" />
<use x="2.51935" y="493.091" xlink:href="#tops" />
<use x="7.55804" y="493.091" xlink:href="#bottoms" />
<use x="2.51935" y="501.818" xlink:href="#tops" />
<use x="7.55804" y="501.818" xlink:href="#bottoms" />
<use x="2.51935" y="510.545" xlink:href="#tops" />
<use x="7.55804" y="510.545" xlink:href="#bottoms" />
<use x="2.51935" y="519.273" xlink:href="#tops" />
<use x="7.55804" y="519.273" xlink:href="#bottoms" />
<use x="2.51935" y="528" xlink:href="#tops" />
<use x="7.55804" y="528" xlink:href="#bottoms" />
<use x="2.51935" y="536.727" xlink:href="#tops" />
<use x="7.55804" y="536.727" xlink:href="#bottoms" />
<use x="2.51935" y="545.455" xlink:href="#tops" />
<use x="7.55804" y="545.455" xlink:href="#bottoms" />
<use x="2.51935" y="554.182" xlink:href="#tops" />
<use x="7.55804" y="554.182" xlink:href="#bottoms" />
<use x="2.51935" y="562.909" xlink:href="#tops" />
<use x="7.55804" y="562.909" xlink:href="#bottoms" />
<use x="2.51935" y="571.636" xlink:href="#tops" />
<use x="7.55804" y="571.636" xlink:href="#bottoms" />
<use x="2.51935" y="580.364" xlink:href="#tops" />
<use x="7.55804" y="580.364" xlink:href="#bottoms" />
<use x="2.51935" y="589.091" xlink:href="#tops" />
<use x="7.55804" y="589.091" xlink:href="#bottoms" />
<use x="2.51935" y="597.818" xlink:href="#tops" />
<use x="7.55804" y="597.818" xlink:href="#bottoms" />
<use x="2.51935" y="606.545" xlink:href="#tops" />
<use x="7.55804" y="606.545" xlink:href="#bottoms" />
<use x="2.51935" y="615.273" xlink:href="#tops" />
<use x="7.55804" y="615.273" xlink:href="#bottoms" />
<use x="2.51935" y="624" xlink:href="#tops" />
<use x="7.55804" y="624" xlink:href="#bottoms" />
<use x="2.51935" y="632.727" xlink:href="#tops" />
<use x="7.55804" y="632.727" xlink:href="#bottoms" />
<use x="2.51935" y="641.455" xlink:href="#tops" />
<use x="7.55804" y="641.455" xlink:href="#bottoms" />
<use x="2.51935" y="650.182" xlink:href="#tops" />
<use x="7.55804" y="650.182" xlink:href="#bottoms" />
<use x="2.51935" y="658.909" xlink:href="#tops" />
<use x="7.55804" y="658.909" xlink:href="#bottoms" />
<use x="2.51935" y="667.636" xlink:href="#tops" />
<use x="7.55804" y="667.636" xlink:href="#bottoms" />
<use x="2.51935" y="676.364" xlink:href="#tops" />
<use x="7.55804" y="676.364" xlink:href="#bottoms" />
<use x="2.51935" y="685.091" xlink:href="#tops" />
<use x="7.55804" y="685.091" xlink:href="#bottoms" />
<use x="2.51935" y="693.818" xlink:href="#tops" />
<use x="7.55804" y="693.818" xlink:href="#bottoms" />
<use x="2.51935" y="702.545" xlink:href="#tops" />
<use x="7.55804" y="702.545" xlink:href="#bottoms" />
<use x="2.51935" y="711.273" xlink:href="#tops" />
<use x="7.55804" y="711.273" xlink:href="#bottoms" />
<use x="2.51935" y="720" xlink:href="#tops" />
<use x="7.55804" y="720" xlink:href="#bottoms" />
<use x="2.51935" y="728.727" xlink:href="#tops" />
<use x="7.55804" y="728.727" xlink:href="#bottoms" />
<use x="2.51935" y="737.455" xlink:href="#tops" />
<use x="7.55804" y="737.455" xlink:href="#bottoms" />
<use x="2.51935" y="746.182" xlink:href="#tops" />
<use x="7.55804" y="746.182" xlink:href="#bottoms" />
<use x="2.51935" y="754.909" xlink:href="#tops" />
<use x="7.55804" y="754.909" xlink:href="#bottoms" />
<use x="2.51935" y="763.636" xlink:href="#tops" />
<use x="7.55804" y="763.636" xlink:href="#bottoms" />
<use x="2.51935" y="772.364" xlink:href="#tops" />
<use x="7.55804" y="772.364" xlink:href="#bottoms" />
</g>
</g>
</svg>
